999
dxfrw 0.6.3
  0
SECTION
  2
HEADER
  9
$ACADVER
  1
AC1014
  9
$DWGCODEPAGE
  3
ANSI_1252
  9
$INSBASE
 10
0
 20
0
 30
0
  9
$EXTMIN
 10
-88.93392295203329
 20
-26.25
 30
0
  9
$EXTMAX
 10
96.25
 20
58.125
 30
0
  9
$LIMMIN
 10
0
 20
0
  9
$LIMMAX
 10
420
 20
297
  9
$ORTHOMODE
 70
    0
  9
$REGENMODE
 70
    1
  9
$FILLMODE
 70
    0
  9
$QTEXTMODE
 70
    0
  9
$MIRRTEXT
 70
    0
  9
$LTSCALE
 40
1
  9
$ATTMODE
 70
    0
  9
$TEXTSIZE
 40
2.5
  9
$TRACEWID
 40
15.68
  9
$TEXTSTYLE
  7
STANDARD
  9
$CLAYER
  8
Dimensions
  9
$CELTYPE
  6
BYLAYER
  9
$CECOLOR
 62
  256
  9
$CELTSCALE
 40
1
  9
$DISPSILH
 70
    0
  9
$DIMSCALE
 40
1
  9
$DIMASZ
 40
2.5
  9
$DIMEXO
 40
0.625
  9
$DIMDLI
 40
3.75
  9
$DIMRND
 40
0
  9
$DIMDLE
 40
0
  9
$DIMEXE
 40
1.25
  9
$DIMTP
 40
0
  9
$DIMTM
 40
0
  9
$DIMTXT
 40
2.5
  9
$DIMCEN
 40
2.5
  9
$DIMTSZ
 40
0
  9
$DIMTOL
 70
    0
  9
$DIMLIM
 70
    0
  9
$DIMTIH
 70
    0
  9
$DIMTOH
 70
    0
  9
$DIMSE1
 70
    0
  9
$DIMSE2
 70
    0
  9
$DIMTAD
 70
    1
  9
$DIMZIN
 70
    1
  9
$DIMBLK
  1

  9
$DIMASO
 70
    1
  9
$DIMSHO
 70
    1
  9
$DIMPOST
  1

  9
$DIMAPOST
  1

  9
$DIMALT
 70
    0
  9
$DIMALTD
 70
    3
  9
$DIMALTF
 40
0.03937
  9
$DIMLFAC
 40
1
  9
$DIMTOFL
 70
    1
  9
$DIMTVP
 40
0
  9
$DIMTIX
 70
    0
  9
$DIMSOXD
 70
    0
  9
$DIMSAH
 70
    0
  9
$DIMBLK1
  1

  9
$DIMBLK2
  1

  9
$DIMSTYLE
  2
Standard
  9
$DIMCLRD
 70
    0
  9
$DIMCLRE
 70
    0
  9
$DIMCLRT
 70
    0
  9
$DIMTFAC
 40
1
  9
$DIMGAP
 40
0.625
  9
$DIMJUST
 70
    0
  9
$DIMSD1
 70
    0
  9
$DIMSD2
 70
    0
  9
$DIMTOLJ
 70
    0
  9
$DIMTZIN
 70
    8
  9
$DIMALTZ
 70
    0
  9
$DIMALTTZ
 70
    0
  9
$DIMUPT
 70
    0
  9
$DIMDEC
 70
    3
  9
$DIMTDEC
 70
    2
  9
$DIMALTU
 70
    2
  9
$DIMALTTD
 70
    3
  9
$DIMTXSTY
  7
standard
  9
$DIMAUNIT
 70
    0
  9
$DIMADEC
 70
    0
  9
$DIMALTRND
 40
0
  9
$DIMAZIN
 70
    0
  9
$DIMDSEP
 70
    0
  9
$DIMATFIT
 70
    3
  9
$DIMFRAC
 70
    0
  9
$DIMLDRBLK
  1
STANDARD
  9
$DIMUNIT
 70
    2
  9
$DIMLWD
 70
   -2
  9
$DIMLWE
 70
   -2
  9
$DIMTMOVE
 70
    0
  9
$LUNITS
 70
    2
  9
$LUPREC
 70
    4
  9
$SKETCHINC
 40
1
  9
$FILLETRAD
 40
0
  9
$AUNITS
 70
    0
  9
$AUPREC
 70
    2
  9
$MENU
  1
.
  9
$ELEVATION
 40
0
  9
$PELEVATION
 40
0
  9
$THICKNESS
 40
0
  9
$LIMCHECK
 70
    0
  9
$BLIPMODE
 70
    0
  9
$CHAMFERA
 40
0
  9
$CHAMFERB
 40
0
  9
$CHAMFERC
 40
0
  9
$CHAMFERD
 40
0
  9
$SKPOLY
 70
    0
  9
$USRTIMER
 70
    1
  9
$ANGBASE
 50
0
  9
$ANGDIR
 70
    0
  9
$PDMODE
 70
   34
  9
$PDSIZE
 40
0
  9
$PLINEWID
 40
0
  9
$SPLFRAME
 70
    0
  9
$SPLINETYPE
 70
    2
  9
$SPLINESEGS
 70
    8
  9
$HANDSEED
  5
20000
  9
$SURFTAB1
 70
    6
  9
$SURFTAB2
 70
    6
  9
$SURFTYPE
 70
    6
  9
$SURFU
 70
    6
  9
$SURFV
 70
    6
  9
$UCSBASE
  2

  9
$UCSNAME
  2

  9
$UCSORG
 10
0
 20
0
 30
0
  9
$UCSXDIR
 10
1
 20
0
 30
0
  9
$UCSYDIR
 10
0
 20
1
 30
0
  9
$UCSORTHOREF
  2

  9
$UCSORTHOVIEW
 70
    0
  9
$UCSORGTOP
 10
0
 20
0
 30
0
  9
$UCSORGBOTTOM
 10
0
 20
0
 30
0
  9
$UCSORGLEFT
 10
0
 20
0
 30
0
  9
$UCSORGRIGHT
 10
0
 20
0
 30
0
  9
$UCSORGFRONT
 10
0
 20
0
 30
0
  9
$UCSORGBACK
 10
0
 20
0
 30
0
  9
$PUCSBASE
  2

  9
$PUCSNAME
  2

  9
$PUCSORG
 10
0
 20
0
 30
0
  9
$PUCSXDIR
 10
1
 20
0
 30
0
  9
$PUCSYDIR
 10
0
 20
1
 30
0
  9
$PUCSORTHOREF
  2

  9
$PUCSORTHOVIEW
 70
    0
  9
$PUCSORGTOP
 10
0
 20
0
 30
0
  9
$PUCSORGBOTTOM
 10
0
 20
0
 30
0
  9
$PUCSORGLEFT
 10
0
 20
0
 30
0
  9
$PUCSORGRIGHT
 10
0
 20
0
 30
0
  9
$PUCSORGFRONT
 10
0
 20
0
 30
0
  9
$PUCSORGBACK
 10
0
 20
0
 30
0
  9
$USERI1
 70
    0
  9
$USERI2
 70
    0
  9
$USERI3
 70
    0
  9
$USERI4
 70
    0
  9
$USERI5
 70
    0
  9
$USERR1
 40
0
  9
$USERR2
 40
0
  9
$USERR3
 40
0
  9
$USERR4
 40
0
  9
$USERR5
 40
0
  9
$WORLDVIEW
 70
    1
  9
$SHADEDGE
 70
    3
  9
$SHADEDIF
 70
   70
  9
$TILEMODE
 70
    1
  9
$MAXACTVP
 70
   64
  9
$PINSBASE
 10
0
 20
0
 30
0
  9
$PLIMCHECK
 70
    0
  9
$PEXTMIN
 10
0
 20
0
 30
0
  9
$PEXTMAX
 10
0
 20
0
 30
0
  9
$GRIDMODE
 70
    1
  9
$SNAPSTYLE
 70
    0
  9
$GRIDUNIT
 10
0
 20
0
  9
$PLIMMIN
 10
0
 20
0
  9
$PLIMMAX
 10
210
 20
297
  9
$UNITMODE
 70
    0
  9
$VISRETAIN
 70
    1
  9
$PLINEGEN
 70
    0
  9
$PSLTSCALE
 70
    1
  9
$TREEDEPTH
 70
 3020
  9
$CMLSTYLE
  2
Standard
  9
$CMLJUST
 70
    0
  9
$CMLSCALE
 40
20
  9
$PROXYGRAPHICS
 70
    1
  9
$MEASUREMENT
 70
    1
  9
$CELWEIGHT
370
   -1
  9
$ENDCAPS
280
    0
  9
$JOINSTYLE
280
    0
  9
$LWDISPLAY
290
    0
  9
$HYPERLINKBASE
  1

  9
$STYLESHEET
  1

  9
$XEDIT
290
    1
  9
$CEPSNTYPE
380
    0
  9
$PSTYLEMODE
290
    1
  9
$EXTNAMES
290
    1
  9
$PSVPSCALE
 40
1
  9
$OLESTARTUP
290
    0
  0
ENDSEC
  0
SECTION
  2
CLASSES
  0
ENDSEC
  0
SECTION
  2
TABLES
  0
TABLE
  2
VPORT
  5
8
100
AcDbSymbolTable
 70
    1
  0
VPORT
  5
31
330
2
100
AcDbSymbolTableRecord
100
AcDbViewportTableRecord
  2
*ACTIVE
 70
    0
 10
0
 20
0
 11
1
 21
1
 12
48.72016363744427
 22
33.40642288247088
 13
0
 23
0
 14
10
 24
10
 15
10
 25
10
 16
0
 26
0
 36
1
 17
0
 27
0
 37
0
 40
101.579176127584
 41
1.846332945285215
 42
50
 43
0
 44
0
 50
0
 51
0
 71
    0
 72
  100
 73
    1
 74
    3
 75
    0
 76
    1
 77
    0
 78
    0
  0
ENDTAB
  0
TABLE
  2
LTYPE
  5
5
100
AcDbSymbolTable
 70
    4
  0
LTYPE
  5
14
100
AcDbSymbolTableRecord
100
AcDbLinetypeTableRecord
  2
ByBlock
 70
    0
  3

 72
   65
 73
    0
 40
0
  0
LTYPE
  5
15
100
AcDbSymbolTableRecord
100
AcDbLinetypeTableRecord
  2
ByLayer
 70
    0
  3

 72
   65
 73
    0
 40
0
  0
LTYPE
  5
16
100
AcDbSymbolTableRecord
100
AcDbLinetypeTableRecord
  2
Continuous
 70
    0
  3
Solid line
 72
   65
 73
    0
 40
0
  0
LTYPE
  5
32
330
5
100
AcDbSymbolTableRecord
100
AcDbLinetypeTableRecord
  2
DOT
 70
    0
  3
Dot . . . . . . . . . . . . . . . . . . . . . .
 72
   65
 73
    2
 40
6.35
 49
0
 74
    0
 49
-6.35
 74
    0
  0
LTYPE
  5
33
330
5
100
AcDbSymbolTableRecord
100
AcDbLinetypeTableRecord
  2
DOTTINY
 70
    0
  3
Dot (.15x) .....................................
 72
   65
 73
    2
 40
0.9525
 49
0
 74
    0
 49
-0.9525
 74
    0
  0
LTYPE
  5
34
330
5
100
AcDbSymbolTableRecord
100
AcDbLinetypeTableRecord
  2
DOT2
 70
    0
  3
Dot (.5x) .....................................
 72
   65
 73
    2
 40
3.175
 49
0
 74
    0
 49
-3.175
 74
    0
  0
LTYPE
  5
35
330
5
100
AcDbSymbolTableRecord
100
AcDbLinetypeTableRecord
  2
DOTX2
 70
    0
  3
Dot (2x) .  .  .  .  .  .  .  .  .  .  .  .  .
 72
   65
 73
    2
 40
12.7
 49
0
 74
    0
 49
-12.7
 74
    0
  0
LTYPE
  5
36
330
5
100
AcDbSymbolTableRecord
100
AcDbLinetypeTableRecord
  2
DASHED
 70
    0
  3
Dashed _ _ _ _ _ _ _ _ _ _ _ _ _ _ _ _ _
 72
   65
 73
    2
 40
19.05
 49
12.7
 74
    0
 49
-6.35
 74
    0
  0
LTYPE
  5
37
330
5
100
AcDbSymbolTableRecord
100
AcDbLinetypeTableRecord
  2
DASHEDTINY
 70
    0
  3
Dashed (.15x) _ _ _ _ _ _ _ _ _ _ _ _ _ _ _ _ _
 72
   65
 73
    2
 40
2.8575
 49
1.905
 74
    0
 49
-0.9525
 74
    0
  0
LTYPE
  5
38
330
5
100
AcDbSymbolTableRecord
100
AcDbLinetypeTableRecord
  2
DASHED2
 70
    0
  3
Dashed (.5x) _ _ _ _ _ _ _ _ _ _ _ _ _ _ _ _ _
 72
   65
 73
    2
 40
9.524999999999999
 49
6.35
 74
    0
 49
-3.175
 74
    0
  0
LTYPE
  5
39
330
5
100
AcDbSymbolTableRecord
100
AcDbLinetypeTableRecord
  2
DASHEDX2
 70
    0
  3
Dashed (2x) ____  ____  ____  ____  ____  ___
 72
   65
 73
    2
 40
38.09999999999999
 49
25.4
 74
    0
 49
-12.7
 74
    0
  0
LTYPE
  5
3A
330
5
100
AcDbSymbolTableRecord
100
AcDbLinetypeTableRecord
  2
DASHDOT
 70
    0
  3
Dash dot __ . __ . __ . __ . __ . __ . __ . __
 72
   65
 73
    4
 40
25.4
 49
12.7
 74
    0
 49
-6.35
 74
    0
 49
0
 74
    0
 49
-6.35
 74
    0
  0
LTYPE
  5
3B
330
5
100
AcDbSymbolTableRecord
100
AcDbLinetypeTableRecord
  2
DASHDOTTINY
 70
    0
  3
Dash dot (.15x) _._._._._._._._._._._._._._._.
 72
   65
 73
    4
 40
3.81
 49
1.905
 74
    0
 49
-0.9525
 74
    0
 49
0
 74
    0
 49
-0.9525
 74
    0
  0
LTYPE
  5
3C
330
5
100
AcDbSymbolTableRecord
100
AcDbLinetypeTableRecord
  2
DASHDOT2
 70
    0
  3
Dash dot (.5x) _._._._._._._._._._._._._._._.
 72
   65
 73
    4
 40
12.7
 49
6.35
 74
    0
 49
-3.175
 74
    0
 49
0
 74
    0
 49
-3.175
 74
    0
  0
LTYPE
  5
3D
330
5
100
AcDbSymbolTableRecord
100
AcDbLinetypeTableRecord
  2
DASHDOTX2
 70
    0
  3
Dash dot (2x) ____  .  ____  .  ____  .  ___
 72
   65
 73
    4
 40
50.8
 49
25.4
 74
    0
 49
-12.7
 74
    0
 49
0
 74
    0
 49
-12.7
 74
    0
  0
LTYPE
  5
3E
330
5
100
AcDbSymbolTableRecord
100
AcDbLinetypeTableRecord
  2
DIVIDE
 70
    0
  3
Divide ____ . . ____ . . ____ . . ____ . . ____
 72
   65
 73
    6
 40
31.75
 49
12.7
 74
    0
 49
-6.35
 74
    0
 49
0
 74
    0
 49
-6.35
 74
    0
 49
0
 74
    0
 49
-6.35
 74
    0
  0
LTYPE
  5
3F
330
5
100
AcDbSymbolTableRecord
100
AcDbLinetypeTableRecord
  2
DIVIDETINY
 70
    0
  3
Divide (.15x) __..__..__..__..__..__..__..__.._
 72
   65
 73
    6
 40
4.7625
 49
1.905
 74
    0
 49
-0.9525
 74
    0
 49
0
 74
    0
 49
-0.9525
 74
    0
 49
0
 74
    0
 49
-0.9525
 74
    0
  0
LTYPE
  5
40
330
5
100
AcDbSymbolTableRecord
100
AcDbLinetypeTableRecord
  2
DIVIDE2
 70
    0
  3
Divide (.5x) __..__..__..__..__..__..__..__.._
 72
   65
 73
    6
 40
15.875
 49
6.35
 74
    0
 49
-3.175
 74
    0
 49
0
 74
    0
 49
-3.175
 74
    0
 49
0
 74
    0
 49
-3.175
 74
    0
  0
LTYPE
  5
41
330
5
100
AcDbSymbolTableRecord
100
AcDbLinetypeTableRecord
  2
DIVIDEX2
 70
    0
  3
Divide (2x) ________  .  .  ________  .  .  _
 72
   65
 73
    6
 40
63.5
 49
25.4
 74
    0
 49
-12.7
 74
    0
 49
0
 74
    0
 49
-12.7
 74
    0
 49
0
 74
    0
 49
-12.7
 74
    0
  0
LTYPE
  5
42
330
5
100
AcDbSymbolTableRecord
100
AcDbLinetypeTableRecord
  2
BORDER
 70
    0
  3
Border __ __ . __ __ . __ __ . __ __ . __ __ .
 72
   65
 73
    6
 40
44.45
 49
12.7
 74
    0
 49
-6.35
 74
    0
 49
12.7
 74
    0
 49
-6.35
 74
    0
 49
0
 74
    0
 49
-6.35
 74
    0
  0
LTYPE
  5
43
330
5
100
AcDbSymbolTableRecord
100
AcDbLinetypeTableRecord
  2
BORDERTINY
 70
    0
  3
Border (.15x) __.__.__.__.__.__.__.__.__.__.__.
 72
   65
 73
    6
 40
6.6675
 49
1.905
 74
    0
 49
-0.9525
 74
    0
 49
1.905
 74
    0
 49
-0.9525
 74
    0
 49
0
 74
    0
 49
-0.9525
 74
    0
  0
LTYPE
  5
44
330
5
100
AcDbSymbolTableRecord
100
AcDbLinetypeTableRecord
  2
BORDER2
 70
    0
  3
Border (.5x) __.__.__.__.__.__.__.__.__.__.__.
 72
   65
 73
    6
 40
22.225
 49
6.35
 74
    0
 49
-3.175
 74
    0
 49
6.35
 74
    0
 49
-3.175
 74
    0
 49
0
 74
    0
 49
-3.175
 74
    0
  0
LTYPE
  5
45
330
5
100
AcDbSymbolTableRecord
100
AcDbLinetypeTableRecord
  2
BORDERX2
 70
    0
  3
Border (2x) ____  ____  .  ____  ____  .  ___
 72
   65
 73
    6
 40
88.89999999999999
 49
25.4
 74
    0
 49
-12.7
 74
    0
 49
25.4
 74
    0
 49
-12.7
 74
    0
 49
0
 74
    0
 49
-12.7
 74
    0
  0
LTYPE
  5
46
330
5
100
AcDbSymbolTableRecord
100
AcDbLinetypeTableRecord
  2
CENTER
 70
    0
  3
Center ____ _ ____ _ ____ _ ____ _ ____ _ ____
 72
   65
 73
    4
 40
50.8
 49
31.75
 74
    0
 49
-6.35
 74
    0
 49
6.35
 74
    0
 49
-6.35
 74
    0
  0
LTYPE
  5
47
330
5
100
AcDbSymbolTableRecord
100
AcDbLinetypeTableRecord
  2
CENTERTINY
 70
    0
  3
Center (.15x) ___ _ ___ _ ___ _ ___ _ ___ _ ___
 72
   65
 73
    4
 40
7.62
 49
4.7625
 74
    0
 49
-0.9525
 74
    0
 49
0.9525
 74
    0
 49
-0.9525
 74
    0
  0
LTYPE
  5
48
330
5
100
AcDbSymbolTableRecord
100
AcDbLinetypeTableRecord
  2
CENTER2
 70
    0
  3
Center (.5x) ___ _ ___ _ ___ _ ___ _ ___ _ ___
 72
   65
 73
    4
 40
28.575
 49
19.05
 74
    0
 49
-3.175
 74
    0
 49
3.175
 74
    0
 49
-3.175
 74
    0
  0
LTYPE
  5
49
330
5
100
AcDbSymbolTableRecord
100
AcDbLinetypeTableRecord
  2
CENTERX2
 70
    0
  3
Center (2x) ________  __  ________  __  _____
 72
   65
 73
    4
 40
101.6
 49
63.5
 74
    0
 49
-12.7
 74
    0
 49
12.7
 74
    0
 49
-12.7
 74
    0
  0
ENDTAB
  0
TABLE
  2
LAYER
  5
2
100
AcDbSymbolTable
 70
    1
  0
LAYER
  5
10
330
2
100
AcDbSymbolTableRecord
100
AcDbLayerTableRecord
  2
0
 70
    0
 62
    7
  6
CONTINUOUS
370
    0
390
F
  0
LAYER
  5
4A
330
2
100
AcDbSymbolTableRecord
100
AcDbLayerTableRecord
  2
Dimensions
 70
    0
 62
    5
  6
CONTINUOUS
370
    0
390
F
  0
LAYER
  5
4B
330
2
100
AcDbSymbolTableRecord
100
AcDbLayerTableRecord
  2
Text Alignment
 70
    0
 62
   53
  6
CONTINUOUS
370
   -3
390
F
  0
ENDTAB
  0
TABLE
  2
STYLE
  5
3
100
AcDbSymbolTable
 70
    3
  0
STYLE
  5
4C
330
2
100
AcDbSymbolTableRecord
100
AcDbTextStyleTableRecord
  2
Standard
 70
    0
 40
0
 41
1
 50
0
 71
    0
 42
1
  3
txt
  4

  0
ENDTAB
  0
TABLE
  2
VIEW
  5
6
100
AcDbSymbolTable
 70
    0
  0
ENDTAB
  0
TABLE
  2
UCS
  5
7
100
AcDbSymbolTable
 70
    0
  0
ENDTAB
  0
TABLE
  2
APPID
  5
9
100
AcDbSymbolTable
 70
    1
  0
APPID
  5
12
100
AcDbSymbolTableRecord
100
AcDbRegAppTableRecord
  2
ACAD
 70
    0
  0
APPID
  5
4D
100
AcDbSymbolTableRecord
100
AcDbRegAppTableRecord
  2
LibreCad
 70
    0
  0
ENDTAB
  0
TABLE
  2
DIMSTYLE
  5
A
100
AcDbSymbolTable
 70
    1
  0
DIMSTYLE
105
4E
330
A
100
AcDbSymbolTableRecord
100
AcDbDimStyleTableRecord
  2
Standard
 70
    0
 40
1
 41
2.5
 42
0.625
 43
0.38
 44
1.25
 45
0
 46
0
 47
0
 48
0
 49
1
140
2.5
141
0.09
142
0
143
25.4
144
1
145
0
146
1
147
0.625
 71
    0
 72
    0
 73
    0
 74
    1
 75
    0
 76
    0
 77
    0
 78
    1
170
    0
171
    2
172
    0
173
    0
174
    0
175
    0
176
    0
177
    0
178
    0
270
    2
271
    3
272
    4
273
    2
274
    2
275
    0
280
    0
281
    0
282
    0
283
    1
284
    0
285
    0
286
    0
287
    3
288
    0
340
standard
  0
ENDTAB
  0
TABLE
  2
BLOCK_RECORD
  5
1
100
AcDbSymbolTable
 70
    2
  0
BLOCK_RECORD
  5
1F
100
AcDbSymbolTableRecord
100
AcDbBlockTableRecord
  2
*Model_Space
  0
BLOCK_RECORD
  5
1E
100
AcDbSymbolTableRecord
100
AcDbBlockTableRecord
  2
*Paper_Space
  0
BLOCK_RECORD
  5
4F
100
AcDbSymbolTableRecord
100
AcDbBlockTableRecord
  2
*D9
  0
BLOCK_RECORD
  5
52
100
AcDbSymbolTableRecord
100
AcDbBlockTableRecord
  2
*D16
  0
BLOCK_RECORD
  5
55
100
AcDbSymbolTableRecord
100
AcDbBlockTableRecord
  2
*D18
  0
BLOCK_RECORD
  5
58
100
AcDbSymbolTableRecord
100
AcDbBlockTableRecord
  2
*D30
  0
BLOCK_RECORD
  5
5B
100
AcDbSymbolTableRecord
100
AcDbBlockTableRecord
  2
*D24
  0
BLOCK_RECORD
  5
5E
100
AcDbSymbolTableRecord
100
AcDbBlockTableRecord
  2
*D14
  0
BLOCK_RECORD
  5
61
100
AcDbSymbolTableRecord
100
AcDbBlockTableRecord
  2
*D12
  0
BLOCK_RECORD
  5
64
100
AcDbSymbolTableRecord
100
AcDbBlockTableRecord
  2
*D20
  0
BLOCK_RECORD
  5
67
100
AcDbSymbolTableRecord
100
AcDbBlockTableRecord
  2
*D21
  0
BLOCK_RECORD
  5
6A
100
AcDbSymbolTableRecord
100
AcDbBlockTableRecord
  2
*D4
  0
BLOCK_RECORD
  5
6D
100
AcDbSymbolTableRecord
100
AcDbBlockTableRecord
  2
*D1
  0
BLOCK_RECORD
  5
70
100
AcDbSymbolTableRecord
100
AcDbBlockTableRecord
  2
*D5
  0
BLOCK_RECORD
  5
73
100
AcDbSymbolTableRecord
100
AcDbBlockTableRecord
  2
*D27
  0
BLOCK_RECORD
  5
76
100
AcDbSymbolTableRecord
100
AcDbBlockTableRecord
  2
*D15
  0
BLOCK_RECORD
  5
79
100
AcDbSymbolTableRecord
100
AcDbBlockTableRecord
  2
*D2
  0
BLOCK_RECORD
  5
7C
100
AcDbSymbolTableRecord
100
AcDbBlockTableRecord
  2
*D17
  0
BLOCK_RECORD
  5
7F
100
AcDbSymbolTableRecord
100
AcDbBlockTableRecord
  2
*D29
  0
BLOCK_RECORD
  5
82
100
AcDbSymbolTableRecord
100
AcDbBlockTableRecord
  2
*D25
  0
BLOCK_RECORD
  5
85
100
AcDbSymbolTableRecord
100
AcDbBlockTableRecord
  2
*D8
  0
BLOCK_RECORD
  5
88
100
AcDbSymbolTableRecord
100
AcDbBlockTableRecord
  2
*D26
  0
BLOCK_RECORD
  5
8B
100
AcDbSymbolTableRecord
100
AcDbBlockTableRecord
  2
*D11
  0
BLOCK_RECORD
  5
8E
100
AcDbSymbolTableRecord
100
AcDbBlockTableRecord
  2
*D7
  0
BLOCK_RECORD
  5
91
100
AcDbSymbolTableRecord
100
AcDbBlockTableRecord
  2
*D10
  0
BLOCK_RECORD
  5
94
100
AcDbSymbolTableRecord
100
AcDbBlockTableRecord
  2
*D22
  0
BLOCK_RECORD
  5
97
100
AcDbSymbolTableRecord
100
AcDbBlockTableRecord
  2
*D23
  0
BLOCK_RECORD
  5
9A
100
AcDbSymbolTableRecord
100
AcDbBlockTableRecord
  2
*D6
  0
BLOCK_RECORD
  5
9D
100
AcDbSymbolTableRecord
100
AcDbBlockTableRecord
  2
*D28
  0
BLOCK_RECORD
  5
A0
100
AcDbSymbolTableRecord
100
AcDbBlockTableRecord
  2
*D19
  0
BLOCK_RECORD
  5
A3
100
AcDbSymbolTableRecord
100
AcDbBlockTableRecord
  2
*D3
  0
BLOCK_RECORD
  5
A6
100
AcDbSymbolTableRecord
100
AcDbBlockTableRecord
  2
*D13
  0
BLOCK_RECORD
  5
A9
100
AcDbSymbolTableRecord
100
AcDbBlockTableRecord
  2
RECT
  0
BLOCK_RECORD
  5
AC
100
AcDbSymbolTableRecord
100
AcDbBlockTableRecord
  2
PIE
  0
BLOCK_RECORD
  5
AF
100
AcDbSymbolTableRecord
100
AcDbBlockTableRecord
  2
OCTAGONP
  0
BLOCK_RECORD
  5
B2
100
AcDbSymbolTableRecord
100
AcDbBlockTableRecord
  2
SQUAREP
  0
BLOCK_RECORD
  5
B5
100
AcDbSymbolTableRecord
100
AcDbBlockTableRecord
  2
ROUNDP
  0
BLOCK_RECORD
  5
B8
100
AcDbSymbolTableRecord
100
AcDbBlockTableRecord
  2
ANNULUSP
  0
BLOCK_RECORD
  5
BB
100
AcDbSymbolTableRecord
100
AcDbBlockTableRecord
  2
THERMALP
  0
BLOCK_RECORD
  5
BE
100
AcDbSymbolTableRecord
100
AcDbBlockTableRecord
  2
OCTAGONV
  0
BLOCK_RECORD
  5
C1
100
AcDbSymbolTableRecord
100
AcDbBlockTableRecord
  2
SQUAREV
  0
BLOCK_RECORD
  5
C4
100
AcDbSymbolTableRecord
100
AcDbBlockTableRecord
  2
ROUNDV
  0
BLOCK_RECORD
  5
C7
100
AcDbSymbolTableRecord
100
AcDbBlockTableRecord
  2
ANNULUSV
  0
BLOCK_RECORD
  5
CA
100
AcDbSymbolTableRecord
100
AcDbBlockTableRecord
  2
THERMALV
  0
ENDTAB
  0
ENDSEC
  0
SECTION
  2
BLOCKS
  0
BLOCK
  5
20
100
AcDbEntity
  8
0
100
AcDbBlockBegin
  2
*Model_Space
 70
    0
 10
0
 20
0
 30
0
  3
*Model_Space
  1

  0
ENDBLK
  5
21
100
AcDbEntity
  8
0
100
AcDbBlockEnd
  0
BLOCK
  5
1C
100
AcDbEntity
  8
0
100
AcDbBlockBegin
  2
*Paper_Space
 70
    0
 10
0
 20
0
 30
0
  3
*Paper_Space
  1

  0
ENDBLK
  5
1D
100
AcDbEntity
  8
0
100
AcDbBlockEnd
  0
BLOCK
  5
50
100
AcDbEntity
  8
0
100
AcDbBlockBegin
  2
*D9
 70
    1
 10
0
 20
0
  3
*D9
  1

  0
LINE
  5
CD
100
AcDbEntity
  8
Dimensions
  6
ByBlock
 62
    0
100
AcDbLine
 10
90
 20
21.5
 11
90
 21
3.5
  0
MTEXT
  5
CE
100
AcDbEntity
  8
Dimensions
  6
CONTINUOUS
 62
    0
100
AcDbMText
 10
88.125
 20
12.5
 30
0
 40
2.5
 41
9.166666666666668
 71
    5
 72
    1
  1
18.000
  7
standard
210
0
220
0
230
1
 50
90
 73
    2
 44
1
  0
SOLID
  5
CF
100
AcDbEntity
  8
Dimensions
  6
ByBlock
 62
    0
100
AcDbTrace
 10
90
 20
21.5
 30
0
 11
90.41628465777283
 21
19
 31
0
 12
89.58371534222717
 22
19
 32
0
 13
89.58371534222717
 23
19
 33
0
  0
SOLID
  5
D0
100
AcDbEntity
  8
Dimensions
  6
ByBlock
 62
    0
100
AcDbTrace
 10
90
 20
3.5
 30
0
 11
89.58371534222717
 21
6
 31
0
 12
90.41628465777283
 22
6
 32
0
 13
90.41628465777283
 23
6
 33
0
  0
LINE
  5
D1
100
AcDbEntity
  8
Dimensions
  6
ByBlock
 62
    0
100
AcDbLine
 10
78.925
 20
21.5
 11
91.25
 21
21.5
  0
LINE
  5
D2
100
AcDbEntity
  8
Dimensions
  6
ByBlock
 62
    0
100
AcDbLine
 10
78.925
 20
3.5
 11
91.25
 21
3.5
  0
ENDBLK
  5
51
100
AcDbEntity
  8
0
100
AcDbBlockEnd
  0
BLOCK
  5
53
100
AcDbEntity
  8
0
100
AcDbBlockBegin
  2
*D16
 70
    1
 10
0
 20
0
  3
*D16
  1

  0
LINE
  5
D3
100
AcDbEntity
  8
Dimensions
  6
ByBlock
 62
    0
100
AcDbLine
 10
0
 20
-25
 11
-52.33
 21
-25
  0
MTEXT
  5
D4
100
AcDbEntity
  8
Dimensions
  6
CONTINUOUS
 62
    0
100
AcDbMText
 10
-26.165
 20
-23.125
 30
0
 40
2.5
 41
9.722222222222687
 71
    5
 72
    1
  1
52.330
  7
standard
210
0
220
0
230
1
 50
0
 73
    2
 44
1
  0
SOLID
  5
D5
100
AcDbEntity
  8
Dimensions
  6
ByBlock
 62
    0
100
AcDbTrace
 10
0
 20
-25
 30
0
 11
-2.5
 21
-25.41628465777284
 31
0
 12
-2.5
 22
-24.58371534222716
 32
0
 13
-2.5
 23
-24.58371534222716
 33
0
  0
SOLID
  5
D6
100
AcDbEntity
  8
Dimensions
  6
ByBlock
 62
    0
100
AcDbTrace
 10
-52.33
 20
-25
 30
0
 11
-49.83
 21
-24.58371534222716
 31
0
 12
-49.83
 22
-25.41628465777284
 32
0
 13
-49.83
 23
-25.41628465777284
 33
0
  0
LINE
  5
D7
100
AcDbEntity
  8
Dimensions
  6
ByBlock
 62
    0
100
AcDbLine
 10
-1.148068456708479e-16
 20
-7.625
 11
-2.296136913416957e-16
 21
-26.25
  0
LINE
  5
D8
100
AcDbEntity
  8
Dimensions
  6
ByBlock
 62
    0
100
AcDbLine
 10
-52.33
 20
-0.125
 11
-52.33
 21
-26.25
  0
ENDBLK
  5
54
100
AcDbEntity
  8
0
100
AcDbBlockEnd
  0
BLOCK
  5
56
100
AcDbEntity
  8
0
100
AcDbBlockBegin
  2
*D18
 70
    1
 10
0
 20
0
  3
*D18
  1

  0
LINE
  5
D9
100
AcDbEntity
  8
Dimensions
  6
ByBlock
 62
    0
100
AcDbLine
 10
3.889063843911948
 20
-2.982239034907503
 11
8.810936156088051
 21
4.252239034907504
  0
MTEXT
  5
DA
100
AcDbEntity
  8
Dimensions
  6
CONTINUOUS
 62
    0
100
AcDbMText
 10
11.04975128621569
 20
10.87632574285051
 30
0
 40
2.5
 41
12.22222222222238
 71
    5
 72
    1
  1
2-%%C8.75
  7
standard
210
0
220
0
230
1
 50
55.7711549592773
 73
    2
 44
1
  0
SOLID
  5
DB
100
AcDbEntity
  8
Dimensions
  6
ByBlock
 62
    0
100
AcDbTrace
 10
3.889063843911948
 20
-2.982239034907503
 30
0
 11
4.951129964252771
 21
-0.6810853085516904
 31
0
 12
5.639496187671757
 22
-1.149405292797598
 32
0
 13
5.639496187671757
 23
-1.149405292797598
 33
0
  0
SOLID
  5
DC
100
AcDbEntity
  8
Dimensions
  6
ByBlock
 62
    0
100
AcDbTrace
 10
8.810936156088051
 20
4.252239034907504
 30
0
 11
7.748870035747228
 21
1.951085308551691
 31
0
 12
7.060503812328244
 22
2.419405292797599
 32
0
 13
7.060503812328244
 23
2.419405292797599
 33
0
  0
ENDBLK
  5
57
100
AcDbEntity
  8
0
100
AcDbBlockEnd
  0
BLOCK
  5
59
100
AcDbEntity
  8
0
100
AcDbBlockBegin
  2
*D30
 70
    1
 10
0
 20
0
  3
*D30
  1

  0
LINE
  5
DD
100
AcDbEntity
  8
Dimensions
  6
ByBlock
 62
    0
100
AcDbLine
 10
3.431484968136751e-16
 20
0.6350000000000016
 11
-1.243449787580175e-16
 21
-7
  0
MTEXT
  5
DE
100
AcDbEntity
  8
Dimensions
  6
CONTINUOUS
 62
    0
100
AcDbMText
 10
-1.875
 20
5.148888888889124
 30
0
 40
2.5
 41
7.777777777778244
 71
    5
 72
    1
  1
7.635
  7
standard
210
0
220
0
230
1
 50
90
 73
    2
 44
1
  0
SOLID
  5
DF
100
AcDbEntity
  8
Dimensions
  6
ByBlock
 62
    0
100
AcDbTrace
 10
3.431484968136751e-16
 20
0.6350000000000016
 30
0
 11
0.4162846577728407
 21
-1.864999999999998
 31
0
 12
-0.4162846577728403
 22
-1.864999999999998
 32
0
 13
-0.4162846577728403
 23
-1.864999999999998
 33
0
  0
SOLID
  5
E0
100
AcDbEntity
  8
Dimensions
  6
ByBlock
 62
    0
100
AcDbTrace
 10
-1.243449787580175e-16
 20
-7
 30
0
 11
-0.4162846577728401
 21
-4.5
 31
0
 12
0.4162846577728408
 22
-4.5
 32
0
 13
0.4162846577728408
 23
-4.5
 33
0
  0
LINE
  5
E1
100
AcDbEntity
  8
Dimensions
  6
ByBlock
 62
    0
100
AcDbLine
 10
1.35
 20
0.6350000000000009
 11
-1.25
 21
0.6350000000000022
  0
LINE
  5
E2
100
AcDbEntity
  8
Dimensions
  6
ByBlock
 62
    0
100
AcDbLine
 10
-0.625
 20
-7
 11
-1.25
 21
-6.999999999999999
  0
ENDBLK
  5
5A
100
AcDbEntity
  8
0
100
AcDbBlockEnd
  0
BLOCK
  5
5C
100
AcDbEntity
  8
0
100
AcDbBlockBegin
  2
*D24
 70
    1
 10
0
 20
0
  3
*D24
  1

  0
LINE
  5
E3
100
AcDbEntity
  8
Dimensions
  6
ByBlock
 62
    0
100
AcDbLine
 10
-60
 20
-0.5
 11
-60
 21
14.34
  0
MTEXT
  5
E4
100
AcDbEntity
  8
Dimensions
  6
CONTINUOUS
 62
    0
100
AcDbMText
 10
-61.875
 20
6.92
 30
0
 40
2.5
 41
9.722222222222221
 71
    5
 72
    1
  1
14.840
  7
standard
210
0
220
0
230
1
 50
90
 73
    2
 44
1
  0
SOLID
  5
E5
100
AcDbEntity
  8
Dimensions
  6
ByBlock
 62
    0
100
AcDbTrace
 10
-60
 20
-0.5
 30
0
 11
-60.41628465777284
 21
2
 31
0
 12
-59.58371534222716
 22
2
 32
0
 13
-59.58371534222716
 23
2
 33
0
  0
SOLID
  5
E6
100
AcDbEntity
  8
Dimensions
  6
ByBlock
 62
    0
100
AcDbTrace
 10
-60
 20
14.34
 30
0
 11
-59.58371534222716
 21
11.84
 31
0
 12
-60.41628465777284
 22
11.84
 32
0
 13
-60.41628465777284
 23
11.84
 33
0
  0
LINE
  5
E7
100
AcDbEntity
  8
Dimensions
  6
ByBlock
 62
    0
100
AcDbLine
 10
-60.335
 20
-0.5
 11
-58.75
 21
-0.5
  0
LINE
  5
E8
100
AcDbEntity
  8
Dimensions
  6
ByBlock
 62
    0
100
AcDbLine
 10
-60.335
 20
14.34
 11
-58.75
 21
14.34
  0
ENDBLK
  5
5D
100
AcDbEntity
  8
0
100
AcDbBlockEnd
  0
BLOCK
  5
5F
100
AcDbEntity
  8
0
100
AcDbBlockBegin
  2
*D14
 70
    1
 10
0
 20
0
  3
*D14
  1

  0
LINE
  5
E9
100
AcDbEntity
  8
Dimensions
  6
ByBlock
 62
    0
100
AcDbLine
 10
0
 20
-20
 11
-13.1
 21
-20
  0
MTEXT
  5
EA
100
AcDbEntity
  8
Dimensions
  6
CONTINUOUS
 62
    0
100
AcDbMText
 10
-6.549999999999999
 20
-18.125
 30
0
 40
2.5
 41
8.611111111111267
 71
    5
 72
    1
  1
13.100
  7
standard
210
0
220
0
230
1
 50
0
 73
    2
 44
1
  0
SOLID
  5
EB
100
AcDbEntity
  8
Dimensions
  6
ByBlock
 62
    0
100
AcDbTrace
 10
0
 20
-20
 30
0
 11
-2.5
 21
-20.41628465777284
 31
0
 12
-2.5
 22
-19.58371534222716
 32
0
 13
-2.5
 23
-19.58371534222716
 33
0
  0
SOLID
  5
EC
100
AcDbEntity
  8
Dimensions
  6
ByBlock
 62
    0
100
AcDbTrace
 10
-13.1
 20
-20
 30
0
 11
-10.6
 21
-19.58371534222716
 31
0
 12
-10.6
 22
-20.41628465777284
 32
0
 13
-10.6
 23
-20.41628465777284
 33
0
  0
LINE
  5
ED
100
AcDbEntity
  8
Dimensions
  6
ByBlock
 62
    0
100
AcDbLine
 10
-1.148068456708479e-16
 20
-7.625
 11
-2.296136913416957e-16
 21
-21.25
  0
LINE
  5
EE
100
AcDbEntity
  8
Dimensions
  6
ByBlock
 62
    0
100
AcDbLine
 10
-13.1
 20
-0.125
 11
-13.1
 21
-21.25
  0
ENDBLK
  5
60
100
AcDbEntity
  8
0
100
AcDbBlockEnd
  0
BLOCK
  5
62
100
AcDbEntity
  8
0
100
AcDbBlockBegin
  2
*D12
 70
    1
 10
0
 20
0
  3
*D12
  1

  0
SOLID
  5
EF
100
AcDbEntity
  8
Dimensions
  6
ByBlock
 62
    0
100
AcDbTrace
 10
-71.25281278383562
 20
26.69379538588292
 30
0
 11
-68.89139742315642
 21
25.77346370075774
 31
0
 12
-69.31704092835045
 22
25.05792245689102
 32
0
 13
-69.31704092835045
 23
25.05792245689102
 33
0
  0
LINE
  5
F0
100
AcDbEntity
  8
Dimensions
  6
ByBlock
 62
    0
100
AcDbLine
 10
-75.55
 20
29.25
 11
-60.27111212030431
 21
20.16127248313919
  0
MTEXT
  5
F1
100
AcDbEntity
  8
Dimensions
  6
CONTINUOUS
 62
    0
100
AcDbMText
 10
-64.80338572177607
 20
25.0389791405727
 30
0
 40
2.5
 41
7.777777777777933
 71
    5
 72
    1
  1
5.000
  7
standard
210
0
220
0
230
1
 50
329.2534776099875
 73
    2
 44
1
  0
ENDBLK
  5
63
100
AcDbEntity
  8
0
100
AcDbBlockEnd
  0
BLOCK
  5
65
100
AcDbEntity
  8
0
100
AcDbBlockBegin
  2
*D20
 70
    1
 10
0
 20
0
  3
*D20
  1

  0
SOLID
  5
F2
100
AcDbEntity
  8
Dimensions
  6
ByBlock
 62
    0
100
AcDbTrace
 10
-13.40661962811823
 20
7.420571759014392
 30
0
 11
-11.97313166651587
 21
9.510644767365578
 31
0
 12
-11.37320573031171
 22
8.933357545735161
 32
0
 13
-11.37320573031171
 23
8.933357545735161
 33
0
  0
LINE
  5
F3
100
AcDbEntity
  8
Dimensions
  6
ByBlock
 62
    0
100
AcDbLine
 10
-14.1
 20
6.7
 11
-3.198519708747682
 21
18.02898932228182
  0
MTEXT
  5
F4
100
AcDbEntity
  8
Dimensions
  6
CONTINUOUS
 62
    0
100
AcDbMText
 10
-9.653641716584939
 20
14.02486873792643
 30
0
 40
2.5
 41
9.722222222222221
 71
    5
 72
    1
  1
4-R1.0
  7
standard
210
0
220
0
230
1
 50
46.10170611520638
 73
    2
 44
1
  0
ENDBLK
  5
66
100
AcDbEntity
  8
0
100
AcDbBlockEnd
  0
BLOCK
  5
68
100
AcDbEntity
  8
0
100
AcDbBlockBegin
  2
*D21
 70
    1
 10
0
 20
0
  3
*D21
  1

  0
LINE
  5
F5
100
AcDbEntity
  8
Dimensions
  6
ByBlock
 62
    0
100
AcDbLine
 10
-31.75
 20
-7
 11
-31.75
 21
-0.5
  0
MTEXT
  5
F6
100
AcDbEntity
  8
Dimensions
  6
CONTINUOUS
 62
    0
100
AcDbMText
 10
-33.625
 20
4.013888888889044
 30
0
 40
2.5
 41
7.777777777778088
 71
    5
 72
    1
  1
6.500
  7
standard
210
0
220
0
230
1
 50
90
 73
    2
 44
1
  0
SOLID
  5
F7
100
AcDbEntity
  8
Dimensions
  6
ByBlock
 62
    0
100
AcDbTrace
 10
-31.75
 20
-7
 30
0
 11
-32.16628465777284
 21
-4.5
 31
0
 12
-31.33371534222716
 22
-4.5
 32
0
 13
-31.33371534222716
 23
-4.5
 33
0
  0
SOLID
  5
F8
100
AcDbEntity
  8
Dimensions
  6
ByBlock
 62
    0
100
AcDbTrace
 10
-31.75
 20
-0.5
 30
0
 11
-31.33371534222716
 21
-3
 31
0
 12
-32.16628465777284
 22
-3
 32
0
 13
-32.16628465777284
 23
-3
 33
0
  0
LINE
  5
F9
100
AcDbEntity
  8
Dimensions
  6
ByBlock
 62
    0
100
AcDbLine
 10
-30.625
 20
-7
 11
-33
 21
-7
  0
LINE
  5
FA
100
AcDbEntity
  8
Dimensions
  6
ByBlock
 62
    0
100
AcDbLine
 10
-32.375
 20
-0.4999999999999999
 11
-33
 21
-0.4999999999999998
  0
ENDBLK
  5
69
100
AcDbEntity
  8
0
100
AcDbBlockEnd
  0
BLOCK
  5
6B
100
AcDbEntity
  8
0
100
AcDbBlockBegin
  2
*D4
 70
    1
 10
0
 20
0
  3
*D4
  1

  0
LINE
  5
FB
100
AcDbEntity
  8
Dimensions
  6
ByBlock
 62
    0
100
AcDbLine
 10
13.1
 20
-20
 11
50.4
 21
-20
  0
MTEXT
  5
FC
100
AcDbEntity
  8
Dimensions
  6
CONTINUOUS
 62
    0
100
AcDbMText
 10
31.75
 20
-18.125
 30
0
 40
2.5
 41
9.722222222222532
 71
    5
 72
    1
  1
37.300
  7
standard
210
0
220
0
230
1
 50
0
 73
    2
 44
1
  0
SOLID
  5
FD
100
AcDbEntity
  8
Dimensions
  6
ByBlock
 62
    0
100
AcDbTrace
 10
13.1
 20
-20
 30
0
 11
15.6
 21
-19.58371534222716
 31
0
 12
15.6
 22
-20.41628465777284
 32
0
 13
15.6
 23
-20.41628465777284
 33
0
  0
SOLID
  5
FE
100
AcDbEntity
  8
Dimensions
  6
ByBlock
 62
    0
100
AcDbTrace
 10
50.4
 20
-20
 30
0
 11
47.9
 21
-20.41628465777284
 31
0
 12
47.9
 22
-19.58371534222716
 32
0
 13
47.9
 23
-19.58371534222716
 33
0
  0
LINE
  5
FF
100
AcDbEntity
  8
Dimensions
  6
ByBlock
 62
    0
100
AcDbLine
 10
13.1
 20
-0.125
 11
13.1
 21
-21.25
  0
LINE
  5
100
100
AcDbEntity
  8
Dimensions
  6
ByBlock
 62
    0
100
AcDbLine
 10
50.4
 20
-0.125
 11
50.4
 21
-21.25
  0
ENDBLK
  5
6C
100
AcDbEntity
  8
0
100
AcDbBlockEnd
  0
BLOCK
  5
6E
100
AcDbEntity
  8
0
100
AcDbBlockBegin
  2
*D1
 70
    1
 10
0
 20
0
  3
*D1
  1

  0
LINE
  5
101
100
AcDbEntity
  8
Dimensions
  6
ByBlock
 62
    0
100
AcDbLine
 10
0
 20
40
 11
6.35
 21
40
  0
MTEXT
  5
102
100
AcDbEntity
  8
Dimensions
  6
CONTINUOUS
 62
    0
100
AcDbMText
 10
10.86388888888912
 20
41.875
 30
0
 40
2.5
 41
7.777777777778243
 71
    5
 72
    1
  1
6.350
  7
standard
210
0
220
0
230
1
 50
0
 73
    2
 44
1
  0
SOLID
  5
103
100
AcDbEntity
  8
Dimensions
  6
ByBlock
 62
    0
100
AcDbTrace
 10
0
 20
40
 30
0
 11
2.5
 21
40.41628465777284
 31
0
 12
2.5
 22
39.58371534222716
 32
0
 13
2.5
 23
39.58371534222716
 33
0
  0
SOLID
  5
104
100
AcDbEntity
  8
Dimensions
  6
ByBlock
 62
    0
100
AcDbTrace
 10
6.35
 20
40
 30
0
 11
3.85
 21
39.58371534222716
 31
0
 12
3.85
 22
40.41628465777284
 32
0
 13
3.85
 23
40.41628465777284
 33
0
  0
LINE
  5
105
100
AcDbEntity
  8
Dimensions
  6
ByBlock
 62
    0
100
AcDbLine
 10
3.826894855694929e-17
 20
32.625
 11
7.653789711389858e-17
 21
41.25
  0
LINE
  5
106
100
AcDbEntity
  8
Dimensions
  6
ByBlock
 62
    0
100
AcDbLine
 10
6.35
 20
5.635
 11
6.35
 21
41.25
  0
ENDBLK
  5
6F
100
AcDbEntity
  8
0
100
AcDbBlockEnd
  0
BLOCK
  5
71
100
AcDbEntity
  8
0
100
AcDbBlockBegin
  2
*D5
 70
    1
 10
0
 20
0
  3
*D5
  1

  0
LINE
  5
107
100
AcDbEntity
  8
Dimensions
  6
ByBlock
 62
    0
100
AcDbLine
 10
0
 20
-25
 11
52.33
 21
-25
  0
MTEXT
  5
108
100
AcDbEntity
  8
Dimensions
  6
CONTINUOUS
 62
    0
100
AcDbMText
 10
26.165
 20
-23.125
 30
0
 40
2.5
 41
9.722222222222687
 71
    5
 72
    1
  1
52.330
  7
standard
210
0
220
0
230
1
 50
0
 73
    2
 44
1
  0
SOLID
  5
109
100
AcDbEntity
  8
Dimensions
  6
ByBlock
 62
    0
100
AcDbTrace
 10
0
 20
-25
 30
0
 11
2.5
 21
-24.58371534222716
 31
0
 12
2.5
 22
-25.41628465777284
 32
0
 13
2.5
 23
-25.41628465777284
 33
0
  0
SOLID
  5
10A
100
AcDbEntity
  8
Dimensions
  6
ByBlock
 62
    0
100
AcDbTrace
 10
52.33
 20
-25
 30
0
 11
49.83
 21
-25.41628465777284
 31
0
 12
49.83
 22
-24.58371534222716
 32
0
 13
49.83
 23
-24.58371534222716
 33
0
  0
LINE
  5
10B
100
AcDbEntity
  8
Dimensions
  6
ByBlock
 62
    0
100
AcDbLine
 10
-1.148068456708479e-16
 20
-7.625
 11
-2.296136913416957e-16
 21
-26.25
  0
LINE
  5
10C
100
AcDbEntity
  8
Dimensions
  6
ByBlock
 62
    0
100
AcDbLine
 10
52.33
 20
-0.1249999999999999
 11
52.33
 21
-26.25
  0
ENDBLK
  5
72
100
AcDbEntity
  8
0
100
AcDbBlockEnd
  0
BLOCK
  5
74
100
AcDbEntity
  8
0
100
AcDbBlockBegin
  2
*D27
 70
    1
 10
0
 20
0
  3
*D27
  1

  0
LINE
  5
10D
100
AcDbEntity
  8
Dimensions
  6
ByBlock
 62
    0
100
AcDbLine
 10
59
 20
-0.5
 11
59
 21
-7
  0
MTEXT
  5
10E
100
AcDbEntity
  8
Dimensions
  6
CONTINUOUS
 62
    0
100
AcDbMText
 10
57.125
 20
4.013888888889044
 30
0
 40
2.5
 41
7.777777777778088
 71
    5
 72
    1
  1
6.500
  7
standard
210
0
220
0
230
1
 50
90
 73
    2
 44
1
  0
SOLID
  5
10F
100
AcDbEntity
  8
Dimensions
  6
ByBlock
 62
    0
100
AcDbTrace
 10
59
 20
-0.5
 30
0
 11
59.41628465777284
 21
-3
 31
0
 12
58.58371534222716
 22
-3
 32
0
 13
58.58371534222716
 23
-3
 33
0
  0
SOLID
  5
110
100
AcDbEntity
  8
Dimensions
  6
ByBlock
 62
    0
100
AcDbTrace
 10
59
 20
-7
 30
0
 11
58.58371534222716
 21
-4.5
 31
0
 12
59.41628465777284
 22
-4.5
 32
0
 13
59.41628465777284
 23
-4.5
 33
0
  0
LINE
  5
111
100
AcDbEntity
  8
Dimensions
  6
ByBlock
 62
    0
100
AcDbLine
 10
60.335
 20
-0.4999999999999999
 11
57.75
 21
-0.4999999999999998
  0
LINE
  5
112
100
AcDbEntity
  8
Dimensions
  6
ByBlock
 62
    0
100
AcDbLine
 10
59.375
 20
-7
 11
57.75
 21
-7
  0
ENDBLK
  5
75
100
AcDbEntity
  8
0
100
AcDbBlockEnd
  0
BLOCK
  5
77
100
AcDbEntity
  8
0
100
AcDbBlockBegin
  2
*D15
 70
    1
 10
0
 20
0
  3
*D15
  1

  0
LINE
  5
113
100
AcDbEntity
  8
Dimensions
  6
ByBlock
 62
    0
100
AcDbLine
 10
-13.1
 20
-20
 11
-50.4
 21
-20
  0
MTEXT
  5
114
100
AcDbEntity
  8
Dimensions
  6
CONTINUOUS
 62
    0
100
AcDbMText
 10
-31.75
 20
-18.125
 30
0
 40
2.5
 41
9.722222222222532
 71
    5
 72
    1
  1
37.300
  7
standard
210
0
220
0
230
1
 50
0
 73
    2
 44
1
  0
SOLID
  5
115
100
AcDbEntity
  8
Dimensions
  6
ByBlock
 62
    0
100
AcDbTrace
 10
-13.1
 20
-20
 30
0
 11
-15.6
 21
-20.41628465777284
 31
0
 12
-15.6
 22
-19.58371534222716
 32
0
 13
-15.6
 23
-19.58371534222716
 33
0
  0
SOLID
  5
116
100
AcDbEntity
  8
Dimensions
  6
ByBlock
 62
    0
100
AcDbTrace
 10
-50.4
 20
-20
 30
0
 11
-47.9
 21
-19.58371534222716
 31
0
 12
-47.9
 22
-20.41628465777284
 32
0
 13
-47.9
 23
-20.41628465777284
 33
0
  0
LINE
  5
117
100
AcDbEntity
  8
Dimensions
  6
ByBlock
 62
    0
100
AcDbLine
 10
-13.1
 20
-0.125
 11
-13.1
 21
-21.25
  0
LINE
  5
118
100
AcDbEntity
  8
Dimensions
  6
ByBlock
 62
    0
100
AcDbLine
 10
-50.4
 20
-0.1249999999999999
 11
-50.4
 21
-21.25
  0
ENDBLK
  5
78
100
AcDbEntity
  8
0
100
AcDbBlockEnd
  0
BLOCK
  5
7A
100
AcDbEntity
  8
0
100
AcDbBlockBegin
  2
*D2
 70
    1
 10
0
 20
0
  3
*D2
  1

  0
LINE
  5
119
100
AcDbEntity
  8
Dimensions
  6
ByBlock
 62
    0
100
AcDbLine
 10
6.349999999999999
 20
45
 11
-6.35
 21
45
  0
MTEXT
  5
11A
100
AcDbEntity
  8
Dimensions
  6
CONTINUOUS
 62
    0
100
AcDbMText
 10
-3.292823641792147e-16
 20
46.875
 30
0
 40
2.5
 41
9.166666666666668
 71
    5
 72
    1
  1
12.700
  7
standard
210
0
220
0
230
1
 50
0
 73
    2
 44
1
  0
SOLID
  5
11B
100
AcDbEntity
  8
Dimensions
  6
ByBlock
 62
    0
100
AcDbTrace
 10
6.349999999999999
 20
45
 30
0
 11
3.849999999999999
 21
44.58371534222716
 31
0
 12
3.849999999999999
 22
45.41628465777284
 32
0
 13
3.849999999999999
 23
45.41628465777284
 33
0
  0
SOLID
  5
11C
100
AcDbEntity
  8
Dimensions
  6
ByBlock
 62
    0
100
AcDbTrace
 10
-6.35
 20
45
 30
0
 11
-3.85
 21
45.41628465777284
 31
0
 12
-3.85
 22
44.58371534222716
 32
0
 13
-3.85
 23
44.58371534222716
 33
0
  0
LINE
  5
11D
100
AcDbEntity
  8
Dimensions
  6
ByBlock
 62
    0
100
AcDbLine
 10
6.35
 20
5.635
 11
6.349999999999999
 21
46.25
  0
LINE
  5
11E
100
AcDbEntity
  8
Dimensions
  6
ByBlock
 62
    0
100
AcDbLine
 10
-6.35
 20
5.635
 11
-6.35
 21
46.25
  0
ENDBLK
  5
7B
100
AcDbEntity
  8
0
100
AcDbBlockEnd
  0
BLOCK
  5
7D
100
AcDbEntity
  8
0
100
AcDbBlockBegin
  2
*D17
 70
    1
 10
0
 20
0
  3
*D17
  1

  0
LINE
  5
11F
100
AcDbEntity
  8
Dimensions
  6
ByBlock
 62
    0
100
AcDbLine
 10
-52.33
 20
-25
 11
-69.59
 21
-25
  0
MTEXT
  5
120
100
AcDbEntity
  8
Dimensions
  6
CONTINUOUS
 62
    0
100
AcDbMText
 10
-60.96
 20
-23.125
 30
0
 40
2.5
 41
9.166666666666822
 71
    5
 72
    1
  1
17.260
  7
standard
210
0
220
0
230
1
 50
0
 73
    2
 44
1
  0
SOLID
  5
121
100
AcDbEntity
  8
Dimensions
  6
ByBlock
 62
    0
100
AcDbTrace
 10
-52.33
 20
-25
 30
0
 11
-54.83
 21
-25.41628465777284
 31
0
 12
-54.83
 22
-24.58371534222716
 32
0
 13
-54.83
 23
-24.58371534222716
 33
0
  0
SOLID
  5
122
100
AcDbEntity
  8
Dimensions
  6
ByBlock
 62
    0
100
AcDbTrace
 10
-69.59
 20
-25
 30
0
 11
-67.09
 21
-24.58371534222716
 31
0
 12
-67.09
 22
-25.41628465777284
 32
0
 13
-67.09
 23
-25.41628465777284
 33
0
  0
LINE
  5
123
100
AcDbEntity
  8
Dimensions
  6
ByBlock
 62
    0
100
AcDbLine
 10
-52.33
 20
-0.125
 11
-52.33
 21
-26.25
  0
LINE
  5
124
100
AcDbEntity
  8
Dimensions
  6
ByBlock
 62
    0
100
AcDbLine
 10
-69.59
 20
-0.125
 11
-69.59
 21
-26.25
  0
ENDBLK
  5
7E
100
AcDbEntity
  8
0
100
AcDbBlockEnd
  0
BLOCK
  5
80
100
AcDbEntity
  8
0
100
AcDbBlockBegin
  2
*D29
 70
    1
 10
0
 20
0
  3
*D29
  1

  0
SOLID
  5
125
100
AcDbEntity
  8
Dimensions
  6
ByBlock
 62
    0
100
AcDbTrace
 10
52.51555859488215
 20
13.92024580793804
 30
0
 11
50.23790765450592
 21
15.03182086617762
 31
0
 12
50.72100250966914
 22
15.70989978938865
 32
0
 13
50.72100250966914
 23
15.70989978938865
 33
0
  0
LINE
  5
126
100
AcDbEntity
  8
Dimensions
  6
ByBlock
 62
    0
100
AcDbLine
 10
53.33
 20
13.34
 11
40.52517124175829
 21
22.46275353591471
  0
MTEXT
  5
127
100
AcDbEntity
  8
Dimensions
  6
CONTINUOUS
 62
    0
100
AcDbMText
 10
47.60832580820404
 20
19.71857730652234
 30
0
 40
2.5
 41
9.722222222222221
 71
    5
 72
    1
  1
4-R1.0
  7
standard
210
0
220
0
230
1
 50
324.5321666831974
 73
    2
 44
1
  0
ENDBLK
  5
81
100
AcDbEntity
  8
0
100
AcDbBlockEnd
  0
BLOCK
  5
83
100
AcDbEntity
  8
0
100
AcDbBlockBegin
  2
*D25
 70
    1
 10
0
 20
0
  3
*D25
  1

  0
LINE
  5
128
100
AcDbEntity
  8
Dimensions
  6
ByBlock
 62
    0
100
AcDbLine
 10
30
 20
-0.5
 11
30
 21
-7
  0
MTEXT
  5
129
100
AcDbEntity
  8
Dimensions
  6
CONTINUOUS
 62
    0
100
AcDbMText
 10
28.125
 20
4.013888888889044
 30
0
 40
2.5
 41
7.777777777778088
 71
    5
 72
    1
  1
6.500
  7
standard
210
0
220
0
230
1
 50
90
 73
    2
 44
1
  0
SOLID
  5
12A
100
AcDbEntity
  8
Dimensions
  6
ByBlock
 62
    0
100
AcDbTrace
 10
30
 20
-0.5
 30
0
 11
30.41628465777284
 21
-3
 31
0
 12
29.58371534222716
 22
-3
 32
0
 13
29.58371534222716
 23
-3
 33
0
  0
SOLID
  5
12B
100
AcDbEntity
  8
Dimensions
  6
ByBlock
 62
    0
100
AcDbTrace
 10
30
 20
-7
 30
0
 11
29.58371534222716
 21
-4.5
 31
0
 12
30.41628465777284
 22
-4.5
 32
0
 13
30.41628465777284
 23
-4.5
 33
0
  0
LINE
  5
12C
100
AcDbEntity
  8
Dimensions
  6
ByBlock
 62
    0
100
AcDbLine
 10
31.125
 20
-0.4999999999999999
 11
28.75
 21
-0.4999999999999998
  0
LINE
  5
12D
100
AcDbEntity
  8
Dimensions
  6
ByBlock
 62
    0
100
AcDbLine
 10
30.375
 20
-7
 11
28.75
 21
-7
  0
ENDBLK
  5
84
100
AcDbEntity
  8
0
100
AcDbBlockEnd
  0
BLOCK
  5
86
100
AcDbEntity
  8
0
100
AcDbBlockBegin
  2
*D8
 70
    1
 10
0
 20
0
  3
*D8
  1

  0
LINE
  5
12E
100
AcDbEntity
  8
Dimensions
  6
ByBlock
 62
    0
100
AcDbLine
 10
-78.3
 20
55
 11
78.3
 21
55
  0
MTEXT
  5
12F
100
AcDbEntity
  8
Dimensions
  6
CONTINUOUS
 62
    0
100
AcDbMText
 10
1.148068456708479e-16
 20
56.875
 30
0
 40
2.5
 41
11.11111111111158
 71
    5
 72
    1
  1
156.600
  7
standard
210
0
220
0
230
1
 50
0
 73
    2
 44
1
  0
SOLID
  5
130
100
AcDbEntity
  8
Dimensions
  6
ByBlock
 62
    0
100
AcDbTrace
 10
-78.3
 20
55
 30
0
 11
-75.8
 21
55.41628465777284
 31
0
 12
-75.8
 22
54.58371534222716
 32
0
 13
-75.8
 23
54.58371534222716
 33
0
  0
SOLID
  5
131
100
AcDbEntity
  8
Dimensions
  6
ByBlock
 62
    0
100
AcDbTrace
 10
78.3
 20
55
 30
0
 11
75.8
 21
54.58371534222716
 31
0
 12
75.8
 22
55.41628465777284
 32
0
 13
75.8
 23
55.41628465777284
 33
0
  0
LINE
  5
132
100
AcDbEntity
  8
Dimensions
  6
ByBlock
 62
    0
100
AcDbLine
 10
-78.3
 20
22.125
 11
-78.3
 21
56.25
  0
LINE
  5
133
100
AcDbEntity
  8
Dimensions
  6
ByBlock
 62
    0
100
AcDbLine
 10
78.3
 20
22.125
 11
78.3
 21
56.25
  0
ENDBLK
  5
87
100
AcDbEntity
  8
0
100
AcDbBlockEnd
  0
BLOCK
  5
89
100
AcDbEntity
  8
0
100
AcDbBlockBegin
  2
*D26
 70
    1
 10
0
 20
0
  3
*D26
  1

  0
LINE
  5
134
100
AcDbEntity
  8
Dimensions
  6
ByBlock
 62
    0
100
AcDbLine
 10
35
 20
-0.4999999999999991
 11
35
 21
7.7
  0
MTEXT
  5
135
100
AcDbEntity
  8
Dimensions
  6
CONTINUOUS
 62
    0
100
AcDbMText
 10
33.125
 20
3.600000000000001
 30
0
 40
2.5
 41
7.777777777777779
 71
    5
 72
    1
  1
8.200
  7
standard
210
0
220
0
230
1
 50
90
 73
    2
 44
1
  0
SOLID
  5
136
100
AcDbEntity
  8
Dimensions
  6
ByBlock
 62
    0
100
AcDbTrace
 10
35
 20
-0.4999999999999991
 30
0
 11
34.58371534222716
 21
2.000000000000001
 31
0
 12
35.41628465777284
 22
2.000000000000001
 32
0
 13
35.41628465777284
 23
2.000000000000001
 33
0
  0
SOLID
  5
137
100
AcDbEntity
  8
Dimensions
  6
ByBlock
 62
    0
100
AcDbTrace
 10
35
 20
7.7
 30
0
 11
35.41628465777284
 21
5.2
 31
0
 12
34.58371534222716
 22
5.2
 32
0
 13
34.58371534222716
 23
5.2
 33
0
  0
LINE
  5
138
100
AcDbEntity
  8
Dimensions
  6
ByBlock
 62
    0
100
AcDbLine
 10
32.375
 20
-0.4999999999999998
 11
36.25
 21
-0.4999999999999988
  0
LINE
  5
139
100
AcDbEntity
  8
Dimensions
  6
ByBlock
 62
    0
100
AcDbLine
 10
32.375
 20
7.7
 11
36.25
 21
7.7
  0
ENDBLK
  5
8A
100
AcDbEntity
  8
0
100
AcDbBlockEnd
  0
BLOCK
  5
8C
100
AcDbEntity
  8
0
100
AcDbBlockBegin
  2
*D11
 70
    1
 10
0
 20
0
  3
*D11
  1

  0
SOLID
  5
13A
100
AcDbEntity
  8
Dimensions
  6
ByBlock
 62
    0
100
AcDbTrace
 10
-69.86328749428768
 20
31.06806070193381
 30
0
 11
-72.01421458986367
 21
32.40851045698399
 31
0
 12
-71.46379220650748
 22
33.03317585949056
 32
0
 13
-71.46379220650748
 23
33.03317585949056
 33
0
  0
LINE
  5
13B
100
AcDbEntity
  8
Dimensions
  6
ByBlock
 62
    0
100
AcDbLine
 10
-67.8
 20
29.25
 11
-79.45027989198813
 21
39.51561547859607
  0
MTEXT
  5
13C
100
AcDbEntity
  8
Dimensions
  6
CONTINUOUS
 62
    0
100
AcDbMText
 10
-73.4171968509103
 20
36.69862501818837
 30
0
 40
2.5
 41
7.777777777777933
 71
    5
 72
    1
  1
2.750
  7
standard
210
0
220
0
230
1
 50
318.6151895023065
 73
    2
 44
1
  0
ENDBLK
  5
8D
100
AcDbEntity
  8
0
100
AcDbBlockEnd
  0
BLOCK
  5
8F
100
AcDbEntity
  8
0
100
AcDbBlockBegin
  2
*D7
 70
    1
 10
0
 20
0
  3
*D7
  1

  0
LINE
  5
13D
100
AcDbEntity
  8
Dimensions
  6
ByBlock
 62
    0
100
AcDbLine
 10
-67.8
 20
50
 11
67.8
 21
50
  0
MTEXT
  5
13E
100
AcDbEntity
  8
Dimensions
  6
CONTINUOUS
 62
    0
100
AcDbMText
 10
1.148068456708479e-16
 20
51.875
 30
0
 40
2.5
 41
11.11111111111158
 71
    5
 72
    1
  1
135.600
  7
standard
210
0
220
0
230
1
 50
0
 73
    2
 44
1
  0
SOLID
  5
13F
100
AcDbEntity
  8
Dimensions
  6
ByBlock
 62
    0
100
AcDbTrace
 10
-67.8
 20
50
 30
0
 11
-65.3
 21
50.41628465777284
 31
0
 12
-65.3
 22
49.58371534222716
 32
0
 13
-65.3
 23
49.58371534222716
 33
0
  0
SOLID
  5
140
100
AcDbEntity
  8
Dimensions
  6
ByBlock
 62
    0
100
AcDbTrace
 10
67.8
 20
50
 30
0
 11
65.3
 21
49.58371534222716
 31
0
 12
65.3
 22
50.41628465777284
 32
0
 13
65.3
 23
50.41628465777284
 33
0
  0
LINE
  5
141
100
AcDbEntity
  8
Dimensions
  6
ByBlock
 62
    0
100
AcDbLine
 10
-67.8
 20
32.625
 11
-67.8
 21
51.25
  0
LINE
  5
142
100
AcDbEntity
  8
Dimensions
  6
ByBlock
 62
    0
100
AcDbLine
 10
67.8
 20
32.625
 11
67.8
 21
51.25
  0
ENDBLK
  5
90
100
AcDbEntity
  8
0
100
AcDbBlockEnd
  0
BLOCK
  5
92
100
AcDbEntity
  8
0
100
AcDbBlockBegin
  2
*D10
 70
    1
 10
0
 20
0
  3
*D10
  1

  0
LINE
  5
143
100
AcDbEntity
  8
Dimensions
  6
ByBlock
 62
    0
100
AcDbLine
 10
95
 20
-7
 11
95
 21
32
  0
MTEXT
  5
144
100
AcDbEntity
  8
Dimensions
  6
CONTINUOUS
 62
    0
100
AcDbMText
 10
93.125
 20
12.5
 30
0
 40
2.5
 41
9.722222222222378
 71
    5
 72
    1
  1
39.000
  7
standard
210
0
220
0
230
1
 50
90
 73
    2
 44
1
  0
SOLID
  5
145
100
AcDbEntity
  8
Dimensions
  6
ByBlock
 62
    0
100
AcDbTrace
 10
95
 20
-7
 30
0
 11
94.58371534222717
 21
-4.5
 31
0
 12
95.41628465777283
 22
-4.5
 32
0
 13
95.41628465777283
 23
-4.5
 33
0
  0
SOLID
  5
146
100
AcDbEntity
  8
Dimensions
  6
ByBlock
 62
    0
100
AcDbTrace
 10
95
 20
32
 30
0
 11
95.41628465777283
 21
29.5
 31
0
 12
94.58371534222717
 22
29.5
 32
0
 13
94.58371534222717
 23
29.5
 33
0
  0
LINE
  5
147
100
AcDbEntity
  8
Dimensions
  6
ByBlock
 62
    0
100
AcDbLine
 10
68.425
 20
-7
 11
96.25
 21
-7
  0
LINE
  5
148
100
AcDbEntity
  8
Dimensions
  6
ByBlock
 62
    0
100
AcDbLine
 10
68.425
 20
32
 11
96.25
 21
32
  0
ENDBLK
  5
93
100
AcDbEntity
  8
0
100
AcDbBlockEnd
  0
BLOCK
  5
95
100
AcDbEntity
  8
0
100
AcDbBlockBegin
  2
*D22
 70
    1
 10
0
 20
0
  3
*D22
  1

  0
LINE
  5
149
100
AcDbEntity
  8
Dimensions
  6
ByBlock
 62
    0
100
AcDbLine
 10
-25
 20
-0.5
 11
-25
 21
7.699999999999999
  0
MTEXT
  5
14A
100
AcDbEntity
  8
Dimensions
  6
CONTINUOUS
 62
    0
100
AcDbMText
 10
-26.875
 20
3.6
 30
0
 40
2.5
 41
7.777777777777779
 71
    5
 72
    1
  1
8.200
  7
standard
210
0
220
0
230
1
 50
90
 73
    2
 44
1
  0
SOLID
  5
14B
100
AcDbEntity
  8
Dimensions
  6
ByBlock
 62
    0
100
AcDbTrace
 10
-25
 20
-0.5
 30
0
 11
-25.41628465777284
 21
2
 31
0
 12
-24.58371534222716
 22
2
 32
0
 13
-24.58371534222716
 23
2
 33
0
  0
SOLID
  5
14C
100
AcDbEntity
  8
Dimensions
  6
ByBlock
 62
    0
100
AcDbTrace
 10
-25
 20
7.699999999999999
 30
0
 11
-24.58371534222716
 21
5.199999999999999
 31
0
 12
-25.41628465777284
 22
5.199999999999999
 32
0
 13
-25.41628465777284
 23
5.199999999999999
 33
0
  0
LINE
  5
14D
100
AcDbEntity
  8
Dimensions
  6
ByBlock
 62
    0
100
AcDbLine
 10
-31.125
 20
-0.5
 11
-23.75
 21
-0.5
  0
LINE
  5
14E
100
AcDbEntity
  8
Dimensions
  6
ByBlock
 62
    0
100
AcDbLine
 10
-31.125
 20
7.7
 11
-23.75
 21
7.699999999999999
  0
ENDBLK
  5
96
100
AcDbEntity
  8
0
100
AcDbBlockEnd
  0
BLOCK
  5
98
100
AcDbEntity
  8
0
100
AcDbBlockBegin
  2
*D23
 70
    1
 10
0
 20
0
  3
*D23
  1

  0
LINE
  5
14F
100
AcDbEntity
  8
Dimensions
  6
ByBlock
 62
    0
100
AcDbLine
 10
-65
 20
-7.000000000000001
 11
-65
 21
-0.5
  0
MTEXT
  5
150
100
AcDbEntity
  8
Dimensions
  6
CONTINUOUS
 62
    0
100
AcDbMText
 10
-66.875
 20
4.013888888889044
 30
0
 40
2.5
 41
7.777777777778088
 71
    5
 72
    1
  1
6.500
  7
standard
210
0
220
0
230
1
 50
90
 73
    2
 44
1
  0
SOLID
  5
151
100
AcDbEntity
  8
Dimensions
  6
ByBlock
 62
    0
100
AcDbTrace
 10
-65
 20
-7.000000000000001
 30
0
 11
-65.41628465777283
 21
-4.500000000000001
 31
0
 12
-64.58371534222717
 22
-4.500000000000001
 32
0
 13
-64.58371534222717
 23
-4.500000000000001
 33
0
  0
SOLID
  5
152
100
AcDbEntity
  8
Dimensions
  6
ByBlock
 62
    0
100
AcDbTrace
 10
-65
 20
-0.5
 30
0
 11
-64.58371534222717
 21
-3
 31
0
 12
-65.41628465777283
 22
-3
 32
0
 13
-65.41628465777283
 23
-3
 33
0
  0
LINE
  5
153
100
AcDbEntity
  8
Dimensions
  6
ByBlock
 62
    0
100
AcDbLine
 10
-60.625
 20
-7
 11
-66.25
 21
-7.000000000000001
  0
LINE
  5
154
100
AcDbEntity
  8
Dimensions
  6
ByBlock
 62
    0
100
AcDbLine
 10
-61.585
 20
-0.4999999999999999
 11
-66.25
 21
-0.4999999999999998
  0
ENDBLK
  5
99
100
AcDbEntity
  8
0
100
AcDbBlockEnd
  0
BLOCK
  5
9B
100
AcDbEntity
  8
0
100
AcDbBlockBegin
  2
*D6
 70
    1
 10
0
 20
0
  3
*D6
  1

  0
LINE
  5
155
100
AcDbEntity
  8
Dimensions
  6
ByBlock
 62
    0
100
AcDbLine
 10
52.33
 20
-25
 11
69.59
 21
-25
  0
MTEXT
  5
156
100
AcDbEntity
  8
Dimensions
  6
CONTINUOUS
 62
    0
100
AcDbMText
 10
60.96
 20
-23.125
 30
0
 40
2.5
 41
9.166666666666822
 71
    5
 72
    1
  1
17.260
  7
standard
210
0
220
0
230
1
 50
0
 73
    2
 44
1
  0
SOLID
  5
157
100
AcDbEntity
  8
Dimensions
  6
ByBlock
 62
    0
100
AcDbTrace
 10
52.33
 20
-25
 30
0
 11
54.83
 21
-24.58371534222716
 31
0
 12
54.83
 22
-25.41628465777284
 32
0
 13
54.83
 23
-25.41628465777284
 33
0
  0
SOLID
  5
158
100
AcDbEntity
  8
Dimensions
  6
ByBlock
 62
    0
100
AcDbTrace
 10
69.59
 20
-25
 30
0
 11
67.09
 21
-25.41628465777284
 31
0
 12
67.09
 22
-24.58371534222716
 32
0
 13
67.09
 23
-24.58371534222716
 33
0
  0
LINE
  5
159
100
AcDbEntity
  8
Dimensions
  6
ByBlock
 62
    0
100
AcDbLine
 10
52.33
 20
-0.125
 11
52.33
 21
-26.25
  0
LINE
  5
15A
100
AcDbEntity
  8
Dimensions
  6
ByBlock
 62
    0
100
AcDbLine
 10
69.59
 20
-0.125
 11
69.59
 21
-26.25
  0
ENDBLK
  5
9C
100
AcDbEntity
  8
0
100
AcDbBlockEnd
  0
BLOCK
  5
9E
100
AcDbEntity
  8
0
100
AcDbBlockBegin
  2
*D28
 70
    1
 10
0
 20
0
  3
*D28
  1

  0
LINE
  5
15B
100
AcDbEntity
  8
Dimensions
  6
ByBlock
 62
    0
100
AcDbLine
 10
65
 20
-0.5
 11
65
 21
14.34
  0
MTEXT
  5
15C
100
AcDbEntity
  8
Dimensions
  6
CONTINUOUS
 62
    0
100
AcDbMText
 10
63.125
 20
6.92
 30
0
 40
2.5
 41
9.722222222222221
 71
    5
 72
    1
  1
14.840
  7
standard
210
0
220
0
230
1
 50
90
 73
    2
 44
1
  0
SOLID
  5
15D
100
AcDbEntity
  8
Dimensions
  6
ByBlock
 62
    0
100
AcDbTrace
 10
65
 20
-0.5
 30
0
 11
64.58371534222717
 21
2
 31
0
 12
65.41628465777283
 22
2
 32
0
 13
65.41628465777283
 23
2
 33
0
  0
SOLID
  5
15E
100
AcDbEntity
  8
Dimensions
  6
ByBlock
 62
    0
100
AcDbTrace
 10
65
 20
14.34
 30
0
 11
65.41628465777283
 21
11.84
 31
0
 12
64.58371534222717
 22
11.84
 32
0
 13
64.58371534222717
 23
11.84
 33
0
  0
LINE
  5
15F
100
AcDbEntity
  8
Dimensions
  6
ByBlock
 62
    0
100
AcDbLine
 10
61.585
 20
-0.5
 11
66.25
 21
-0.5
  0
LINE
  5
160
100
AcDbEntity
  8
Dimensions
  6
ByBlock
 62
    0
100
AcDbLine
 10
61.585
 20
14.34
 11
66.25
 21
14.34
  0
ENDBLK
  5
9F
100
AcDbEntity
  8
0
100
AcDbBlockEnd
  0
BLOCK
  5
A1
100
AcDbEntity
  8
0
100
AcDbBlockBegin
  2
*D19
 70
    1
 10
0
 20
0
  3
*D19
  1

  0
SOLID
  5
161
100
AcDbEntity
  8
Dimensions
  6
ByBlock
 62
    0
100
AcDbTrace
 10
-52.64107893957783
 20
14.06483637636835
 30
0
 11
-51.22051455140021
 21
16.16371458515956
 31
0
 12
-50.61703802564461
 22
15.59014004941887
 32
0
 13
-50.61703802564461
 23
15.59014004941887
 33
0
  0
LINE
  5
162
100
AcDbEntity
  8
Dimensions
  6
ByBlock
 62
    0
100
AcDbLine
 10
-53.33
 20
13.34
 11
-42.4986299944737
 21
24.73603858401346
  0
MTEXT
  5
163
100
AcDbEntity
  8
Dimensions
  6
CONTINUOUS
 62
    0
100
AcDbMText
 10
-48.92892267271642
 20
20.69216446848247
 30
0
 40
2.5
 41
9.722222222222221
 71
    5
 72
    1
  1
4-R1.0
  7
standard
210
0
220
0
230
1
 50
46.45523797833594
 73
    2
 44
1
  0
ENDBLK
  5
A2
100
AcDbEntity
  8
0
100
AcDbBlockEnd
  0
BLOCK
  5
A4
100
AcDbEntity
  8
0
100
AcDbBlockBegin
  2
*D3
 70
    1
 10
0
 20
0
  3
*D3
  1

  0
LINE
  5
164
100
AcDbEntity
  8
Dimensions
  6
ByBlock
 62
    0
100
AcDbLine
 10
0
 20
-20
 11
13.1
 21
-20
  0
MTEXT
  5
165
100
AcDbEntity
  8
Dimensions
  6
CONTINUOUS
 62
    0
100
AcDbMText
 10
6.55
 20
-18.125
 30
0
 40
2.5
 41
8.611111111111267
 71
    5
 72
    1
  1
13.100
  7
standard
210
0
220
0
230
1
 50
0
 73
    2
 44
1
  0
SOLID
  5
166
100
AcDbEntity
  8
Dimensions
  6
ByBlock
 62
    0
100
AcDbTrace
 10
0
 20
-20
 30
0
 11
2.5
 21
-19.58371534222716
 31
0
 12
2.5
 22
-20.41628465777284
 32
0
 13
2.5
 23
-20.41628465777284
 33
0
  0
SOLID
  5
167
100
AcDbEntity
  8
Dimensions
  6
ByBlock
 62
    0
100
AcDbTrace
 10
13.1
 20
-20
 30
0
 11
10.6
 21
-20.41628465777284
 31
0
 12
10.6
 22
-19.58371534222716
 32
0
 13
10.6
 23
-19.58371534222716
 33
0
  0
LINE
  5
168
100
AcDbEntity
  8
Dimensions
  6
ByBlock
 62
    0
100
AcDbLine
 10
-1.148068456708479e-16
 20
-7.625
 11
-2.296136913416957e-16
 21
-21.25
  0
LINE
  5
169
100
AcDbEntity
  8
Dimensions
  6
ByBlock
 62
    0
100
AcDbLine
 10
13.1
 20
-0.125
 11
13.1
 21
-21.25
  0
ENDBLK
  5
A5
100
AcDbEntity
  8
0
100
AcDbBlockEnd
  0
BLOCK
  5
A7
100
AcDbEntity
  8
0
100
AcDbBlockBegin
  2
*D13
 70
    1
 10
0
 20
0
  3
*D13
  1

  0
SOLID
  5
16A
100
AcDbEntity
  8
Dimensions
  6
ByBlock
 62
    0
100
AcDbTrace
 10
-77.92031909168387
 20
22.89430534804933
 30
0
 11
-80.28621932944867
 21
23.80304567467816
 31
0
 12
-79.8640899297079
 22
24.52066565423747
 32
0
 13
-79.8640899297079
 23
24.52066565423747
 33
0
  0
LINE
  5
16B
100
AcDbEntity
  8
Dimensions
  6
ByBlock
 62
    0
100
AcDbLine
 10
-75.55
 20
21.5
 11
-88.93392295203329
 21
29.3728958541372
  0
MTEXT
  5
16C
100
AcDbEntity
  8
Dimensions
  6
CONTINUOUS
 62
    0
100
AcDbMText
 10
-82.47645828455221
 20
27.74972725451409
 30
0
 40
2.5
 41
7.777777777777933
 71
    5
 72
    1
  1
2.750
  7
standard
210
0
220
0
230
1
 50
329.5344550805402
 73
    2
 44
1
  0
ENDBLK
  5
A8
100
AcDbEntity
  8
0
100
AcDbBlockEnd
  0
BLOCK
  5
AA
100
AcDbEntity
  8
0
100
AcDbBlockBegin
  2
RECT
 70
    0
 10
0
 20
0
  3
RECT
  1

  0
SOLID
  5
16D
100
AcDbEntity
  8
0
  6
ByLayer
 62
  256
100
AcDbTrace
 10
-0.5
 20
-0.5
 30
0
 11
0.5
 21
-0.5
 31
0
 12
-0.5
 22
0.5
 32
0
 13
0.5
 23
0.5
 33
0
  0
ENDBLK
  5
AB
100
AcDbEntity
  8
0
100
AcDbBlockEnd
  0
BLOCK
  5
AD
100
AcDbEntity
  8
0
100
AcDbBlockBegin
  2
PIE
 70
    0
 10
0
 20
0
  3
PIE
  1

  0
CIRCLE
  5
16E
100
AcDbEntity
  8
0
  6
ByLayer
 62
  256
100
AcDbCircle
 10
0
 20
0
 40
0.5
  0
ENDBLK
  5
AE
100
AcDbEntity
  8
0
100
AcDbBlockEnd
  0
BLOCK
  5
B0
100
AcDbEntity
  8
0
100
AcDbBlockBegin
  2
OCTAGONP
 70
    0
 10
0
 20
0
  3
OCTAGONP
  1

  0
LWPOLYLINE
  5
16F
100
AcDbEntity
  8
0
  6
ByLayer
 62
  256
100
AcDbPolyline
 90
    8
 70
    1
 43
0
 10
-0.5
 20
-0.2071
 10
-0.5
 20
0.2071
 10
-0.2071
 20
0.5
 10
0.2071
 20
0.5
 10
0.5
 20
0.2071
 10
0.5
 20
-0.2071
 10
0.2071
 20
-0.5
 10
-0.2071
 20
-0.5
  0
ENDBLK
  5
B1
100
AcDbEntity
  8
0
100
AcDbBlockEnd
  0
BLOCK
  5
B3
100
AcDbEntity
  8
0
100
AcDbBlockBegin
  2
SQUAREP
 70
    0
 10
0
 20
0
  3
SQUAREP
  1

  0
SOLID
  5
170
100
AcDbEntity
  8
0
  6
ByLayer
 62
  256
100
AcDbTrace
 10
-0.5
 20
-0.5
 30
0
 11
0.5
 21
-0.5
 31
0
 12
-0.5
 22
0.5
 32
0
 13
0.5
 23
0.5
 33
0
  0
ENDBLK
  5
B4
100
AcDbEntity
  8
0
100
AcDbBlockEnd
  0
BLOCK
  5
B6
100
AcDbEntity
  8
0
100
AcDbBlockBegin
  2
ROUNDP
 70
    0
 10
0
 20
0
  3
ROUNDP
  1

  0
CIRCLE
  5
171
100
AcDbEntity
  8
0
  6
ByLayer
 62
  256
100
AcDbCircle
 10
0
 20
0
 40
0.5
  0
ENDBLK
  5
B7
100
AcDbEntity
  8
0
100
AcDbBlockEnd
  0
BLOCK
  5
B9
100
AcDbEntity
  8
0
100
AcDbBlockBegin
  2
ANNULUSP
 70
    0
 10
0
 20
0
  3
ANNULUSP
  1

  0
CIRCLE
  5
172
100
AcDbEntity
  8
0
  6
ByLayer
 62
  256
100
AcDbCircle
 10
0
 20
0
 40
0.5
  0
ENDBLK
  5
BA
100
AcDbEntity
  8
0
100
AcDbBlockEnd
  0
BLOCK
  5
BC
100
AcDbEntity
  8
0
100
AcDbBlockBegin
  2
THERMALP
 70
    0
 10
0
 20
0
  3
THERMALP
  1

  0
LINE
  5
173
100
AcDbEntity
  8
0
  6
ByLayer
 62
  256
100
AcDbLine
 10
-0.2379
 20
0.45
 11
0.2379
 21
0.45
  0
LINE
  5
174
100
AcDbEntity
  8
0
  6
ByLayer
 62
  256
100
AcDbLine
 10
0.45
 20
0.2379
 11
0.45
 21
-0.2379
  0
LINE
  5
175
100
AcDbEntity
  8
0
  6
ByLayer
 62
  256
100
AcDbLine
 10
0.2379
 20
-0.45
 11
-0.2379
 21
-0.45
  0
LINE
  5
176
100
AcDbEntity
  8
0
  6
ByLayer
 62
  256
100
AcDbLine
 10
-0.45
 20
-0.2379
 11
-0.45
 21
0.2379
  0
ENDBLK
  5
BD
100
AcDbEntity
  8
0
100
AcDbBlockEnd
  0
BLOCK
  5
BF
100
AcDbEntity
  8
0
100
AcDbBlockBegin
  2
OCTAGONV
 70
    0
 10
0
 20
0
  3
OCTAGONV
  1

  0
LWPOLYLINE
  5
177
100
AcDbEntity
  8
0
  6
ByLayer
 62
  256
100
AcDbPolyline
 90
    8
 70
    1
 43
0
 10
-0.5
 20
-0.2071
 10
-0.5
 20
0.2071
 10
-0.2071
 20
0.5
 10
0.2071
 20
0.5
 10
0.5
 20
0.2071
 10
0.5
 20
-0.2071
 10
0.2071
 20
-0.5
 10
-0.2071
 20
-0.5
  0
ENDBLK
  5
C0
100
AcDbEntity
  8
0
100
AcDbBlockEnd
  0
BLOCK
  5
C2
100
AcDbEntity
  8
0
100
AcDbBlockBegin
  2
SQUAREV
 70
    0
 10
0
 20
0
  3
SQUAREV
  1

  0
SOLID
  5
178
100
AcDbEntity
  8
0
  6
ByLayer
 62
  256
100
AcDbTrace
 10
-0.5
 20
-0.5
 30
0
 11
0.5
 21
-0.5
 31
0
 12
-0.5
 22
0.5
 32
0
 13
0.5
 23
0.5
 33
0
  0
ENDBLK
  5
C3
100
AcDbEntity
  8
0
100
AcDbBlockEnd
  0
BLOCK
  5
C5
100
AcDbEntity
  8
0
100
AcDbBlockBegin
  2
ROUNDV
 70
    0
 10
0
 20
0
  3
ROUNDV
  1

  0
CIRCLE
  5
179
100
AcDbEntity
  8
0
  6
ByLayer
 62
  256
100
AcDbCircle
 10
0
 20
0
 40
0.5
  0
ENDBLK
  5
C6
100
AcDbEntity
  8
0
100
AcDbBlockEnd
  0
BLOCK
  5
C8
100
AcDbEntity
  8
0
100
AcDbBlockBegin
  2
ANNULUSV
 70
    0
 10
0
 20
0
  3
ANNULUSV
  1

  0
CIRCLE
  5
17A
100
AcDbEntity
  8
0
  6
ByLayer
 62
  256
100
AcDbCircle
 10
0
 20
0
 40
0.5
  0
ENDBLK
  5
C9
100
AcDbEntity
  8
0
100
AcDbBlockEnd
  0
BLOCK
  5
CB
100
AcDbEntity
  8
0
100
AcDbBlockBegin
  2
THERMALV
 70
    0
 10
0
 20
0
  3
THERMALV
  1

  0
LINE
  5
17B
100
AcDbEntity
  8
0
  6
ByLayer
 62
  256
100
AcDbLine
 10
-0.2379
 20
0.45
 11
0.2379
 21
0.45
  0
LINE
  5
17C
100
AcDbEntity
  8
0
  6
ByLayer
 62
  256
100
AcDbLine
 10
0.45
 20
0.2379
 11
0.45
 21
-0.2379
  0
LINE
  5
17D
100
AcDbEntity
  8
0
  6
ByLayer
 62
  256
100
AcDbLine
 10
0.2379
 20
-0.45
 11
-0.2379
 21
-0.45
  0
LINE
  5
17E
100
AcDbEntity
  8
0
  6
ByLayer
 62
  256
100
AcDbLine
 10
-0.45
 20
-0.2379
 11
-0.45
 21
0.2379
  0
ENDBLK
  5
CC
100
AcDbEntity
  8
0
100
AcDbBlockEnd
  0
ENDSEC
  0
SECTION
  2
ENTITIES
  0
LINE
  5
17F
100
AcDbEntity
  8
Text Alignment
  6
ByLayer
 62
  256
100
AcDbLine
 10
-33.5
 20
6.9
 11
-33.8
 21
6.3
  0
LINE
  5
180
100
AcDbEntity
  8
Text Alignment
  6
ByLayer
 62
  256
100
AcDbLine
 10
-33.8
 20
6.3
 11
-33.2
 21
6.3
  0
LINE
  5
181
100
AcDbEntity
  8
Text Alignment
  6
ByLayer
 62
  256
100
AcDbLine
 10
-33.2
 20
6.3
 11
-33.5
 21
6.9
  0
LINE
  5
182
100
AcDbEntity
  8
Text Alignment
  6
ByLayer
 62
  256
100
AcDbLine
 10
-30
 20
6.9
 11
-30.3
 21
6.3
  0
LINE
  5
183
100
AcDbEntity
  8
Text Alignment
  6
ByLayer
 62
  256
100
AcDbLine
 10
-30.3
 20
6.3
 11
-29.7
 21
6.3
  0
LINE
  5
184
100
AcDbEntity
  8
Text Alignment
  6
ByLayer
 62
  256
100
AcDbLine
 10
-29.7
 20
6.3
 11
-30
 21
6.9
  0
LINE
  5
185
100
AcDbEntity
  8
Text Alignment
  6
ByLayer
 62
  256
100
AcDbLine
 10
-37
 20
6.9
 11
-37.3
 21
6.3
  0
LINE
  5
186
100
AcDbEntity
  8
Text Alignment
  6
ByLayer
 62
  256
100
AcDbLine
 10
-37.3
 20
6.3
 11
-36.7
 21
6.3
  0
LINE
  5
187
100
AcDbEntity
  8
Text Alignment
  6
ByLayer
 62
  256
100
AcDbLine
 10
-36.7
 20
6.3
 11
-37
 21
6.9
  0
LINE
  5
188
100
AcDbEntity
  8
Text Alignment
  6
ByLayer
 62
  256
100
AcDbLine
 10
-40.5
 20
6.9
 11
-40.8
 21
6.3
  0
LINE
  5
189
100
AcDbEntity
  8
Text Alignment
  6
ByLayer
 62
  256
100
AcDbLine
 10
-40.8
 20
6.3
 11
-40.2
 21
6.3
  0
LINE
  5
18A
100
AcDbEntity
  8
Text Alignment
  6
ByLayer
 62
  256
100
AcDbLine
 10
-40.2
 20
6.3
 11
-40.5
 21
6.9
  0
LINE
  5
18B
100
AcDbEntity
  8
Text Alignment
  6
ByLayer
 62
  256
100
AcDbLine
 10
-44
 20
6.9
 11
-44.3
 21
6.3
  0
LINE
  5
18C
100
AcDbEntity
  8
Text Alignment
  6
ByLayer
 62
  256
100
AcDbLine
 10
-44.3
 20
6.3
 11
-43.7
 21
6.3
  0
LINE
  5
18D
100
AcDbEntity
  8
Text Alignment
  6
ByLayer
 62
  256
100
AcDbLine
 10
-43.7
 20
6.3
 11
-44
 21
6.9
  0
LINE
  5
18E
100
AcDbEntity
  8
Text Alignment
  6
ByLayer
 62
  256
100
AcDbLine
 10
-47.5
 20
6.9
 11
-47.8
 21
6.3
  0
LINE
  5
18F
100
AcDbEntity
  8
Text Alignment
  6
ByLayer
 62
  256
100
AcDbLine
 10
-47.8
 20
6.3
 11
-47.2
 21
6.3
  0
LINE
  5
190
100
AcDbEntity
  8
Text Alignment
  6
ByLayer
 62
  256
100
AcDbLine
 10
-47.2
 20
6.3
 11
-47.5
 21
6.9
  0
LINE
  5
191
100
AcDbEntity
  8
Text Alignment
  6
ByLayer
 62
  256
100
AcDbLine
 10
-16
 20
6.9
 11
-16.3
 21
6.3
  0
LINE
  5
192
100
AcDbEntity
  8
Text Alignment
  6
ByLayer
 62
  256
100
AcDbLine
 10
-16.3
 20
6.3
 11
-15.7
 21
6.3
  0
LINE
  5
193
100
AcDbEntity
  8
Text Alignment
  6
ByLayer
 62
  256
100
AcDbLine
 10
-15.7
 20
6.3
 11
-16
 21
6.9
  0
LINE
  5
194
100
AcDbEntity
  8
Text Alignment
  6
ByLayer
 62
  256
100
AcDbLine
 10
-19.5
 20
6.9
 11
-19.8
 21
6.3
  0
LINE
  5
195
100
AcDbEntity
  8
Text Alignment
  6
ByLayer
 62
  256
100
AcDbLine
 10
-19.8
 20
6.3
 11
-19.2
 21
6.3
  0
LINE
  5
196
100
AcDbEntity
  8
Text Alignment
  6
ByLayer
 62
  256
100
AcDbLine
 10
-19.2
 20
6.3
 11
-19.5
 21
6.9
  0
LINE
  5
197
100
AcDbEntity
  8
Text Alignment
  6
ByLayer
 62
  256
100
AcDbLine
 10
-23
 20
6.9
 11
-23.3
 21
6.3
  0
LINE
  5
198
100
AcDbEntity
  8
Text Alignment
  6
ByLayer
 62
  256
100
AcDbLine
 10
-23.3
 20
6.3
 11
-22.7
 21
6.3
  0
LINE
  5
199
100
AcDbEntity
  8
Text Alignment
  6
ByLayer
 62
  256
100
AcDbLine
 10
-22.7
 20
6.3
 11
-23
 21
6.9
  0
LINE
  5
19A
100
AcDbEntity
  8
Text Alignment
  6
ByLayer
 62
  256
100
AcDbLine
 10
-26.5
 20
6.9
 11
-26.8
 21
6.3
  0
LINE
  5
19B
100
AcDbEntity
  8
Text Alignment
  6
ByLayer
 62
  256
100
AcDbLine
 10
-26.8
 20
6.3
 11
-26.2
 21
6.3
  0
LINE
  5
19C
100
AcDbEntity
  8
Text Alignment
  6
ByLayer
 62
  256
100
AcDbLine
 10
-26.2
 20
6.3
 11
-26.5
 21
6.9
  0
LINE
  5
19D
100
AcDbEntity
  8
Text Alignment
  6
ByLayer
 62
  256
100
AcDbLine
 10
30
 20
6.9
 11
29.7
 21
6.3
  0
LINE
  5
19E
100
AcDbEntity
  8
Text Alignment
  6
ByLayer
 62
  256
100
AcDbLine
 10
29.7
 20
6.3
 11
30.3
 21
6.3
  0
LINE
  5
19F
100
AcDbEntity
  8
Text Alignment
  6
ByLayer
 62
  256
100
AcDbLine
 10
30.3
 20
6.3
 11
30
 21
6.9
  0
LINE
  5
1A0
100
AcDbEntity
  8
Text Alignment
  6
ByLayer
 62
  256
100
AcDbLine
 10
33.5
 20
6.9
 11
33.2
 21
6.3
  0
LINE
  5
1A1
100
AcDbEntity
  8
Text Alignment
  6
ByLayer
 62
  256
100
AcDbLine
 10
33.2
 20
6.3
 11
33.8
 21
6.3
  0
LINE
  5
1A2
100
AcDbEntity
  8
Text Alignment
  6
ByLayer
 62
  256
100
AcDbLine
 10
33.8
 20
6.3
 11
33.5
 21
6.9
  0
LINE
  5
1A3
100
AcDbEntity
  8
Text Alignment
  6
ByLayer
 62
  256
100
AcDbLine
 10
26.5
 20
6.9
 11
26.2
 21
6.3
  0
LINE
  5
1A4
100
AcDbEntity
  8
Text Alignment
  6
ByLayer
 62
  256
100
AcDbLine
 10
26.2
 20
6.3
 11
26.8
 21
6.3
  0
LINE
  5
1A5
100
AcDbEntity
  8
Text Alignment
  6
ByLayer
 62
  256
100
AcDbLine
 10
26.8
 20
6.3
 11
26.5
 21
6.9
  0
LINE
  5
1A6
100
AcDbEntity
  8
Text Alignment
  6
ByLayer
 62
  256
100
AcDbLine
 10
23
 20
6.9
 11
22.7
 21
6.3
  0
LINE
  5
1A7
100
AcDbEntity
  8
Text Alignment
  6
ByLayer
 62
  256
100
AcDbLine
 10
22.7
 20
6.3
 11
23.3
 21
6.3
  0
LINE
  5
1A8
100
AcDbEntity
  8
Text Alignment
  6
ByLayer
 62
  256
100
AcDbLine
 10
23.3
 20
6.3
 11
23
 21
6.9
  0
LINE
  5
1A9
100
AcDbEntity
  8
Text Alignment
  6
ByLayer
 62
  256
100
AcDbLine
 10
19.5
 20
6.9
 11
19.2
 21
6.3
  0
LINE
  5
1AA
100
AcDbEntity
  8
Text Alignment
  6
ByLayer
 62
  256
100
AcDbLine
 10
19.2
 20
6.3
 11
19.8
 21
6.3
  0
LINE
  5
1AB
100
AcDbEntity
  8
Text Alignment
  6
ByLayer
 62
  256
100
AcDbLine
 10
19.8
 20
6.3
 11
19.5
 21
6.9
  0
LINE
  5
1AC
100
AcDbEntity
  8
Text Alignment
  6
ByLayer
 62
  256
100
AcDbLine
 10
16
 20
6.9
 11
15.7
 21
6.3
  0
LINE
  5
1AD
100
AcDbEntity
  8
Text Alignment
  6
ByLayer
 62
  256
100
AcDbLine
 10
15.7
 20
6.3
 11
16.3
 21
6.3
  0
LINE
  5
1AE
100
AcDbEntity
  8
Text Alignment
  6
ByLayer
 62
  256
100
AcDbLine
 10
16.3
 20
6.3
 11
16
 21
6.9
  0
LINE
  5
1AF
100
AcDbEntity
  8
Text Alignment
  6
ByLayer
 62
  256
100
AcDbLine
 10
47.5
 20
6.9
 11
47.2
 21
6.3
  0
LINE
  5
1B0
100
AcDbEntity
  8
Text Alignment
  6
ByLayer
 62
  256
100
AcDbLine
 10
47.2
 20
6.3
 11
47.8
 21
6.3
  0
LINE
  5
1B1
100
AcDbEntity
  8
Text Alignment
  6
ByLayer
 62
  256
100
AcDbLine
 10
47.8
 20
6.3
 11
47.5
 21
6.9
  0
LINE
  5
1B2
100
AcDbEntity
  8
Text Alignment
  6
ByLayer
 62
  256
100
AcDbLine
 10
44
 20
6.9
 11
43.7
 21
6.3
  0
LINE
  5
1B3
100
AcDbEntity
  8
Text Alignment
  6
ByLayer
 62
  256
100
AcDbLine
 10
43.7
 20
6.3
 11
44.3
 21
6.3
  0
LINE
  5
1B4
100
AcDbEntity
  8
Text Alignment
  6
ByLayer
 62
  256
100
AcDbLine
 10
44.3
 20
6.3
 11
44
 21
6.9
  0
LINE
  5
1B5
100
AcDbEntity
  8
Text Alignment
  6
ByLayer
 62
  256
100
AcDbLine
 10
40.5
 20
6.9
 11
40.2
 21
6.3
  0
LINE
  5
1B6
100
AcDbEntity
  8
Text Alignment
  6
ByLayer
 62
  256
100
AcDbLine
 10
40.2
 20
6.3
 11
40.8
 21
6.3
  0
LINE
  5
1B7
100
AcDbEntity
  8
Text Alignment
  6
ByLayer
 62
  256
100
AcDbLine
 10
40.8
 20
6.3
 11
40.5
 21
6.9
  0
LINE
  5
1B8
100
AcDbEntity
  8
Text Alignment
  6
ByLayer
 62
  256
100
AcDbLine
 10
37
 20
6.9
 11
36.7
 21
6.3
  0
LINE
  5
1B9
100
AcDbEntity
  8
Text Alignment
  6
ByLayer
 62
  256
100
AcDbLine
 10
36.7
 20
6.3
 11
37.3
 21
6.3
  0
LINE
  5
1BA
100
AcDbEntity
  8
Text Alignment
  6
ByLayer
 62
  256
100
AcDbLine
 10
37.3
 20
6.3
 11
37
 21
6.9
  0
ARC
  5
1BB
100
AcDbEntity
  8
0
  6
ByLayer
 62
  256
100
AcDbCircle
 10
-75.55
 20
29.25
 40
5
100
AcDbArc
 50
270
 51
0
  0
ARC
  5
1BC
100
AcDbEntity
  8
0
  6
ByLayer
 62
  256
100
AcDbCircle
 10
-67.8
 20
29.25
 40
2.75
100
AcDbArc
 50
90
 51
180
  0
ARC
  5
1BD
100
AcDbEntity
  8
0
  6
ByLayer
 62
  256
100
AcDbCircle
 10
-75.55
 20
21.5
 40
2.75
100
AcDbArc
 50
90
 51
180
  0
LINE
  5
1BE
100
AcDbEntity
  8
0
  6
ByLayer
 62
  256
100
AcDbLine
 10
67.8
 20
32
 11
-67.8
 21
32
  0
ARC
  5
1BF
100
AcDbEntity
  8
0
  6
ByLayer
 62
  256
100
AcDbCircle
 10
67.8
 20
29.25
 40
2.75
100
AcDbArc
 50
0
 51
90
  0
ARC
  5
1C0
100
AcDbEntity
  8
0
  6
ByLayer
 62
  256
100
AcDbCircle
 10
75.55
 20
29.25
 40
5
100
AcDbArc
 50
180
 51
270
  0
ARC
  5
1C1
100
AcDbEntity
  8
0
  6
ByLayer
 62
  256
100
AcDbCircle
 10
75.55
 20
21.5
 40
2.75
100
AcDbArc
 50
0
 51
90
  0
LINE
  5
1C2
100
AcDbEntity
  8
0
  6
ByLayer
 62
  256
100
AcDbLine
 10
78.3
 20
3.5
 11
78.3
 21
21.5
  0
ARC
  5
1C3
100
AcDbEntity
  8
0
  6
ByLayer
 62
  256
100
AcDbCircle
 10
75.55
 20
3.5
 40
2.75
100
AcDbArc
 50
270
 51
0
  0
ARC
  5
1C4
100
AcDbEntity
  8
0
  6
ByLayer
 62
  256
100
AcDbCircle
 10
75.55
 20
-4.25
 40
5
100
AcDbArc
 50
90
 51
180
  0
ARC
  5
1C5
100
AcDbEntity
  8
0
  6
ByLayer
 62
  256
100
AcDbCircle
 10
67.8
 20
-4.25
 40
2.75
100
AcDbArc
 50
270
 51
0
  0
LINE
  5
1C6
100
AcDbEntity
  8
0
  6
ByLayer
 62
  256
100
AcDbLine
 10
-67.8
 20
-7
 11
67.8
 21
-7
  0
ARC
  5
1C7
100
AcDbEntity
  8
0
  6
ByLayer
 62
  256
100
AcDbCircle
 10
-67.8
 20
-4.25
 40
2.75
100
AcDbArc
 50
180
 51
270
  0
ARC
  5
1C8
100
AcDbEntity
  8
0
  6
ByLayer
 62
  256
100
AcDbCircle
 10
-75.55
 20
-4.25
 40
5
100
AcDbArc
 50
0
 51
90
  0
ARC
  5
1C9
100
AcDbEntity
  8
0
  6
ByLayer
 62
  256
100
AcDbCircle
 10
-75.55
 20
3.5
 40
2.75
100
AcDbArc
 50
180
 51
270
  0
LINE
  5
1CA
100
AcDbEntity
  8
0
  6
ByLayer
 62
  256
100
AcDbLine
 10
-78.3
 20
21.5
 11
-78.3
 21
3.5
  0
LINE
  5
1CB
100
AcDbEntity
  8
0
  6
ByLayer
 62
  256
100
AcDbLine
 10
-69.59
 20
0.5
 11
-69.59
 21
13.34
  0
ARC
  5
1CC
100
AcDbEntity
  8
0
  6
ByLayer
 62
  256
100
AcDbCircle
 10
-68.59
 20
13.34
 40
1
100
AcDbArc
 50
90
 51
180
  0
LINE
  5
1CD
100
AcDbEntity
  8
0
  6
ByLayer
 62
  256
100
AcDbLine
 10
-68.59
 20
14.34
 11
-53.33
 21
14.34
  0
ARC
  5
1CE
100
AcDbEntity
  8
0
  6
ByLayer
 62
  256
100
AcDbCircle
 10
-53.33
 20
13.34
 40
1
100
AcDbArc
 50
0
 51
90
  0
LINE
  5
1CF
100
AcDbEntity
  8
0
  6
ByLayer
 62
  256
100
AcDbLine
 10
-52.33
 20
13.34
 11
-52.33
 21
0.5
  0
ARC
  5
1D0
100
AcDbEntity
  8
0
  6
ByLayer
 62
  256
100
AcDbCircle
 10
-53.33
 20
0.5
 40
1
100
AcDbArc
 50
270
 51
0
  0
LINE
  5
1D1
100
AcDbEntity
  8
0
  6
ByLayer
 62
  256
100
AcDbLine
 10
-53.33
 20
-0.5
 11
-68.59
 21
-0.5
  0
ARC
  5
1D2
100
AcDbEntity
  8
0
  6
ByLayer
 62
  256
100
AcDbCircle
 10
-68.59
 20
0.5
 40
1
100
AcDbArc
 50
180
 51
270
  0
LINE
  5
1D3
100
AcDbEntity
  8
0
  6
ByLayer
 62
  256
100
AcDbLine
 10
-14.1
 20
-0.5
 11
-49.4
 21
-0.5
  0
ARC
  5
1D4
100
AcDbEntity
  8
0
  6
ByLayer
 62
  256
100
AcDbCircle
 10
-49.4
 20
0.5
 40
1
100
AcDbArc
 50
180
 51
270
  0
LINE
  5
1D5
100
AcDbEntity
  8
0
  6
ByLayer
 62
  256
100
AcDbLine
 10
-50.4
 20
0.5
 11
-50.4
 21
6.7
  0
ARC
  5
1D6
100
AcDbEntity
  8
0
  6
ByLayer
 62
  256
100
AcDbCircle
 10
-49.4
 20
6.7
 40
1
100
AcDbArc
 50
90
 51
180
  0
LINE
  5
1D7
100
AcDbEntity
  8
0
  6
ByLayer
 62
  256
100
AcDbLine
 10
-49.4
 20
7.7
 11
-14.1
 21
7.7
  0
ARC
  5
1D8
100
AcDbEntity
  8
0
  6
ByLayer
 62
  256
100
AcDbCircle
 10
-14.1
 20
6.7
 40
1
100
AcDbArc
 50
0
 51
90
  0
LINE
  5
1D9
100
AcDbEntity
  8
0
  6
ByLayer
 62
  256
100
AcDbLine
 10
-13.1
 20
6.7
 11
-13.1
 21
0.5
  0
ARC
  5
1DA
100
AcDbEntity
  8
0
  6
ByLayer
 62
  256
100
AcDbCircle
 10
-14.1
 20
0.5
 40
1
100
AcDbArc
 50
270
 51
0
  0
CIRCLE
  5
1DB
100
AcDbEntity
  8
0
  6
ByLayer
 62
  256
100
AcDbCircle
 10
-6.35
 20
0.635
 40
4.375
  0
CIRCLE
  5
1DC
100
AcDbEntity
  8
0
  6
ByLayer
 62
  256
100
AcDbCircle
 10
6.35
 20
0.635
 40
4.375
  0
LINE
  5
1DD
100
AcDbEntity
  8
0
  6
ByLayer
 62
  256
100
AcDbLine
 10
13.1
 20
0.5
 11
13.1
 21
6.7
  0
ARC
  5
1DE
100
AcDbEntity
  8
0
  6
ByLayer
 62
  256
100
AcDbCircle
 10
14.1
 20
6.7
 40
1
100
AcDbArc
 50
90
 51
180
  0
LINE
  5
1DF
100
AcDbEntity
  8
0
  6
ByLayer
 62
  256
100
AcDbLine
 10
14.1
 20
7.7
 11
49.4
 21
7.7
  0
ARC
  5
1E0
100
AcDbEntity
  8
0
  6
ByLayer
 62
  256
100
AcDbCircle
 10
49.4
 20
6.7
 40
1
100
AcDbArc
 50
0
 51
90
  0
LINE
  5
1E1
100
AcDbEntity
  8
0
  6
ByLayer
 62
  256
100
AcDbLine
 10
50.4
 20
6.7
 11
50.4
 21
0.5
  0
ARC
  5
1E2
100
AcDbEntity
  8
0
  6
ByLayer
 62
  256
100
AcDbCircle
 10
49.4
 20
0.5
 40
1
100
AcDbArc
 50
270
 51
0
  0
LINE
  5
1E3
100
AcDbEntity
  8
0
  6
ByLayer
 62
  256
100
AcDbLine
 10
49.4
 20
-0.5
 11
14.1
 21
-0.5
  0
ARC
  5
1E4
100
AcDbEntity
  8
0
  6
ByLayer
 62
  256
100
AcDbCircle
 10
14.1
 20
0.5
 40
1
100
AcDbArc
 50
180
 51
270
  0
LINE
  5
1E5
100
AcDbEntity
  8
0
  6
ByLayer
 62
  256
100
AcDbLine
 10
52.33
 20
0.5
 11
52.33
 21
13.34
  0
ARC
  5
1E6
100
AcDbEntity
  8
0
  6
ByLayer
 62
  256
100
AcDbCircle
 10
53.33
 20
13.34
 40
1
100
AcDbArc
 50
90
 51
180
  0
LINE
  5
1E7
100
AcDbEntity
  8
0
  6
ByLayer
 62
  256
100
AcDbLine
 10
53.33
 20
14.34
 11
68.59
 21
14.34
  0
ARC
  5
1E8
100
AcDbEntity
  8
0
  6
ByLayer
 62
  256
100
AcDbCircle
 10
68.59
 20
13.34
 40
1
100
AcDbArc
 50
0
 51
90
  0
LINE
  5
1E9
100
AcDbEntity
  8
0
  6
ByLayer
 62
  256
100
AcDbLine
 10
69.59
 20
13.34
 11
69.59
 21
0.5
  0
ARC
  5
1EA
100
AcDbEntity
  8
0
  6
ByLayer
 62
  256
100
AcDbCircle
 10
68.59
 20
0.5
 40
1
100
AcDbArc
 50
270
 51
0
  0
LINE
  5
1EB
100
AcDbEntity
  8
0
  6
ByLayer
 62
  256
100
AcDbLine
 10
68.59
 20
-0.5
 11
53.33
 21
-0.5
  0
ARC
  5
1EC
100
AcDbEntity
  8
0
  6
ByLayer
 62
  256
100
AcDbCircle
 10
53.33
 20
0.5
 40
1
100
AcDbArc
 50
180
 51
270
  0
DIMENSION
  5
1ED
100
AcDbEntity
  8
Dimensions
  6
ByLayer
 62
  256
100
AcDbDimension
  2
*D1
 10
6.350000000000001
 20
40
 30
0
 11
3.175
 21
41.875
 31
0
 70
   32
 71
    5
 72
    0
  3
Standard
 53
0
210
0
220
0
230
1
100
AcDbAlignedDimension
 13
0
 23
32
 33
0
 14
6.35
 24
5.01
 34
0
100
AcDbRotatedDimension
  0
DIMENSION
  5
1EE
100
AcDbEntity
  8
Dimensions
  6
ByLayer
 62
  256
100
AcDbDimension
  2
*D2
 10
-6.349999999999997
 20
45
 30
0
 11
-3.292823641792147e-16
 21
46.875
 31
0
 70
   32
 71
    5
 72
    0
  3
Standard
 53
0
210
0
220
0
230
1
100
AcDbAlignedDimension
 13
6.35
 23
5.01
 33
0
 14
-6.35
 24
5.01
 34
0
100
AcDbRotatedDimension
  0
DIMENSION
  5
1EF
100
AcDbEntity
  8
Dimensions
  6
ByLayer
 62
  256
100
AcDbDimension
  2
*D3
 10
13.1
 20
-20
 30
0
 11
6.55
 21
-18.125
 31
0
 70
   32
 71
    5
 72
    0
  3
Standard
 53
0
210
0
220
0
230
1
100
AcDbAlignedDimension
 13
0
 23
-7
 33
0
 14
13.1
 24
0.5
 34
0
100
AcDbRotatedDimension
  0
DIMENSION
  5
1F0
100
AcDbEntity
  8
Dimensions
  6
ByLayer
 62
  256
100
AcDbDimension
  2
*D4
 10
50.4
 20
-20
 30
0
 11
31.75
 21
-18.125
 31
0
 70
   32
 71
    5
 72
    0
  3
Standard
 53
0
210
0
220
0
230
1
100
AcDbAlignedDimension
 13
13.1
 23
0.5
 33
0
 14
50.4
 24
0.5
 34
0
100
AcDbRotatedDimension
  0
DIMENSION
  5
1F1
100
AcDbEntity
  8
Dimensions
  6
ByLayer
 62
  256
100
AcDbDimension
  2
*D5
 10
52.33
 20
-25
 30
0
 11
26.165
 21
-23.125
 31
0
 70
   32
 71
    5
 72
    0
  3
Standard
 53
0
210
0
220
0
230
1
100
AcDbAlignedDimension
 13
0
 23
-7
 33
0
 14
52.33
 24
0.5000000000000001
 34
0
100
AcDbRotatedDimension
  0
DIMENSION
  5
1F2
100
AcDbEntity
  8
Dimensions
  6
ByLayer
 62
  256
100
AcDbDimension
  2
*D6
 10
69.59
 20
-25
 30
0
 11
60.96
 21
-23.125
 31
0
 70
   32
 71
    5
 72
    0
  3
Standard
 53
0
210
0
220
0
230
1
100
AcDbAlignedDimension
 13
52.33
 23
0.5
 33
0
 14
69.59
 24
0.5
 34
0
100
AcDbRotatedDimension
  0
DIMENSION
  5
1F3
100
AcDbEntity
  8
Dimensions
  6
ByLayer
 62
  256
100
AcDbDimension
  2
*D7
 10
67.8
 20
50
 30
0
 11
1.148068456708479e-16
 21
51.875
 31
0
 70
   32
 71
    5
 72
    0
  3
Standard
 53
0
210
0
220
0
230
1
100
AcDbAlignedDimension
 13
-67.8
 23
32
 33
0
 14
67.8
 24
32
 34
0
100
AcDbRotatedDimension
  0
DIMENSION
  5
1F4
100
AcDbEntity
  8
Dimensions
  6
ByLayer
 62
  256
100
AcDbDimension
  2
*D8
 10
78.3
 20
55
 30
0
 11
1.148068456708479e-16
 21
56.875
 31
0
 70
   32
 71
    5
 72
    0
  3
Standard
 53
0
210
0
220
0
230
1
100
AcDbAlignedDimension
 13
-78.3
 23
21.5
 33
0
 14
78.3
 24
21.5
 34
0
100
AcDbRotatedDimension
  0
DIMENSION
  5
1F5
100
AcDbEntity
  8
Dimensions
  6
ByLayer
 62
  256
100
AcDbDimension
  2
*D9
 10
90
 20
3.499999999999999
 30
0
 11
88.125
 21
12.5
 31
0
 70
   32
 71
    5
 72
    0
  3
Standard
 53
0
210
0
220
0
230
1
100
AcDbAlignedDimension
 13
78.3
 23
21.5
 33
0
 14
78.3
 24
3.5
 34
0
 50
90
100
AcDbRotatedDimension
  0
DIMENSION
  5
1F6
100
AcDbEntity
  8
Dimensions
  6
ByLayer
 62
  256
100
AcDbDimension
  2
*D10
 10
95
 20
32
 30
0
 11
93.125
 21
12.5
 31
0
 70
   32
 71
    5
 72
    0
  3
Standard
 53
0
210
0
220
0
230
1
100
AcDbAlignedDimension
 13
67.8
 23
-7
 33
0
 14
67.8
 24
32
 34
0
 50
90
100
AcDbRotatedDimension
  0
DIMENSION
  5
1F7
100
AcDbEntity
  8
Dimensions
  6
ByLayer
 62
  256
100
AcDbDimension
  2
*D11
 10
-67.8
 20
29.25
 30
0
 11
-73.4171968509103
 21
36.69862501818837
 31
0
 70
   36
 71
    5
 72
    0
  3
Standard
 53
0
210
0
220
0
230
1
100
AcDbRadialDimension
 15
-69.86328749428768
 25
31.06806070193381
 35
0
 40
0
  0
DIMENSION
  5
1F8
100
AcDbEntity
  8
Dimensions
  6
ByLayer
 62
  256
100
AcDbDimension
  2
*D12
 10
-75.55
 20
29.25
 30
0
 11
-64.80338572177607
 21
25.0389791405727
 31
0
 70
   36
 71
    5
 72
    0
  3
Standard
 53
0
210
0
220
0
230
1
100
AcDbRadialDimension
 15
-71.25281278383562
 25
26.69379538588292
 35
0
 40
0
  0
DIMENSION
  5
1F9
100
AcDbEntity
  8
Dimensions
  6
ByLayer
 62
  256
100
AcDbDimension
  2
*D13
 10
-75.55
 20
21.5
 30
0
 11
-82.47645828455221
 21
27.74972725451409
 31
0
 70
   36
 71
    5
 72
    0
  3
Standard
 53
0
210
0
220
0
230
1
100
AcDbRadialDimension
 15
-77.92031909168387
 25
22.89430534804933
 35
0
 40
0
  0
DIMENSION
  5
1FA
100
AcDbEntity
  8
Dimensions
  6
ByLayer
 62
  256
100
AcDbDimension
  2
*D14
 10
-13.1
 20
-20
 30
0
 11
-6.549999999999999
 21
-18.125
 31
0
 70
   32
 71
    5
 72
    0
  3
Standard
 53
0
210
0
220
0
230
1
100
AcDbAlignedDimension
 13
0
 23
-7
 33
0
 14
-13.1
 24
0.5
 34
0
100
AcDbRotatedDimension
  0
DIMENSION
  5
1FB
100
AcDbEntity
  8
Dimensions
  6
ByLayer
 62
  256
100
AcDbDimension
  2
*D15
 10
-50.4
 20
-20
 30
0
 11
-31.75
 21
-18.125
 31
0
 70
   32
 71
    5
 72
    0
  3
Standard
 53
0
210
0
220
0
230
1
100
AcDbAlignedDimension
 13
-13.1
 23
0.5
 33
0
 14
-50.4
 24
0.5000000000000001
 34
0
100
AcDbRotatedDimension
  0
DIMENSION
  5
1FC
100
AcDbEntity
  8
Dimensions
  6
ByLayer
 62
  256
100
AcDbDimension
  2
*D16
 10
-52.33
 20
-25
 30
0
 11
-26.165
 21
-23.125
 31
0
 70
   32
 71
    5
 72
    0
  3
Standard
 53
0
210
0
220
0
230
1
100
AcDbAlignedDimension
 13
0
 23
-7
 33
0
 14
-52.33
 24
0.5
 34
0
100
AcDbRotatedDimension
  0
DIMENSION
  5
1FD
100
AcDbEntity
  8
Dimensions
  6
ByLayer
 62
  256
100
AcDbDimension
  2
*D17
 10
-69.59
 20
-25
 30
0
 11
-60.96
 21
-23.125
 31
0
 70
   32
 71
    5
 72
    0
  3
Standard
 53
0
210
0
220
0
230
1
100
AcDbAlignedDimension
 13
-52.33
 23
0.5
 33
0
 14
-69.59
 24
0.5
 34
0
100
AcDbRotatedDimension
  0
DIMENSION
  5
1FE
100
AcDbEntity
  8
Dimensions
  6
ByLayer
 62
  256
100
AcDbDimension
  2
*D18
 10
3.889063843911948
 20
-2.982239034907503
 30
0
 11
4.799754699325355
 21
1.689686924037737
 31
0
 70
   35
  1
2-%%C8.75
 71
    5
  3
Standard
 53
0
210
0
220
0
230
1
100
AcDbDiametricDimension
 15
8.810936156088051
 25
4.252239034907504
 35
0
 40
0
  0
DIMENSION
  5
1FF
100
AcDbEntity
  8
Dimensions
  6
ByLayer
 62
  256
100
AcDbDimension
  2
*D19
 10
-53.33
 20
13.34
 30
0
 11
-48.92892267271642
 21
20.69216446848247
 31
0
 70
   36
  1
4-R1.0
 71
    5
  3
Standard
 53
0
210
0
220
0
230
1
100
AcDbRadialDimension
 15
-52.64107893957783
 25
14.06483637636835
 35
0
 40
0
  0
DIMENSION
  5
200
100
AcDbEntity
  8
Dimensions
  6
ByLayer
 62
  256
100
AcDbDimension
  2
*D20
 10
-14.1
 20
6.7
 30
0
 11
-9.653641716584939
 21
14.02486873792643
 31
0
 70
   36
  1
4-R1.0
 71
    5
  3
Standard
 53
0
210
0
220
0
230
1
100
AcDbRadialDimension
 15
-13.40661962811823
 25
7.420571759014392
 35
0
 40
0
  0
DIMENSION
  5
201
100
AcDbEntity
  8
Dimensions
  6
ByLayer
 62
  256
100
AcDbDimension
  2
*D21
 10
-31.75
 20
-0.5
 30
0
 11
-33.625
 21
-3.75
 31
0
 70
   32
 71
    5
  3
Standard
 53
0
210
0
220
0
230
1
100
AcDbAlignedDimension
 13
-30
 23
-7
 33
0
 14
-31.75
 24
-0.5
 34
0
 50
90
100
AcDbRotatedDimension
  0
DIMENSION
  5
202
100
AcDbEntity
  8
Dimensions
  6
ByLayer
 62
  256
100
AcDbDimension
  2
*D22
 10
-25
 20
7.699999999999999
 30
0
 11
-26.875
 21
3.6
 31
0
 70
   32
 71
    5
  3
Standard
 53
0
210
0
220
0
230
1
100
AcDbAlignedDimension
 13
-31.75
 23
-0.5
 33
0
 14
-31.75
 24
7.7
 34
0
 50
90
100
AcDbRotatedDimension
  0
DIMENSION
  5
203
100
AcDbEntity
  8
Dimensions
  6
ByLayer
 62
  256
100
AcDbDimension
  2
*D23
 10
-65
 20
-0.4999999999999995
 30
0
 11
-66.875
 21
-3.75
 31
0
 70
   32
 71
    5
  3
Standard
 53
0
210
0
220
0
230
1
100
AcDbAlignedDimension
 13
-60
 23
-7
 33
0
 14
-60.96
 24
-0.5
 34
0
 50
90
100
AcDbRotatedDimension
  0
DIMENSION
  5
204
100
AcDbEntity
  8
Dimensions
  6
ByLayer
 62
  256
100
AcDbDimension
  2
*D24
 10
-60
 20
14.34
 30
0
 11
-61.875
 21
6.92
 31
0
 70
   32
 71
    5
  3
Standard
 53
0
210
0
220
0
230
1
100
AcDbAlignedDimension
 13
-60.96
 23
-0.5
 33
0
 14
-60.96
 24
14.34
 34
0
 50
90
100
AcDbRotatedDimension
  0
DIMENSION
  5
205
100
AcDbEntity
  8
Dimensions
  6
ByLayer
 62
  256
100
AcDbDimension
  2
*D25
 10
30
 20
-7
 30
0
 11
28.125
 21
-3.75
 31
0
 70
   32
 71
    5
  3
Standard
 53
0
210
0
220
0
230
1
100
AcDbAlignedDimension
 13
31.75
 23
-0.5
 33
0
 14
31
 24
-7
 34
0
 50
90
100
AcDbRotatedDimension
  0
DIMENSION
  5
206
100
AcDbEntity
  8
Dimensions
  6
ByLayer
 62
  256
100
AcDbDimension
  2
*D26
 10
35
 20
7.7
 30
0
 11
33.125
 21
3.600000000000001
 31
0
 70
   32
 71
    5
  3
Standard
 53
0
210
0
220
0
230
1
100
AcDbAlignedDimension
 13
31.75
 23
-0.5
 33
0
 14
31.75
 24
7.7
 34
0
 50
90
100
AcDbRotatedDimension
  0
DIMENSION
  5
207
100
AcDbEntity
  8
Dimensions
  6
ByLayer
 62
  256
100
AcDbDimension
  2
*D27
 10
59
 20
-7
 30
0
 11
57.125
 21
-3.75
 31
0
 70
   32
 71
    5
  3
Standard
 53
0
210
0
220
0
230
1
100
AcDbAlignedDimension
 13
60.96
 23
-0.5
 33
0
 14
60
 24
-7
 34
0
 50
90
100
AcDbRotatedDimension
  0
DIMENSION
  5
208
100
AcDbEntity
  8
Dimensions
  6
ByLayer
 62
  256
100
AcDbDimension
  2
*D28
 10
65
 20
14.34
 30
0
 11
63.125
 21
6.92
 31
0
 70
   32
 71
    5
  3
Standard
 53
0
210
0
220
0
230
1
100
AcDbAlignedDimension
 13
60.96
 23
-0.5
 33
0
 14
60.96
 24
14.34
 34
0
 50
90
100
AcDbRotatedDimension
  0
DIMENSION
  5
209
100
AcDbEntity
  8
Dimensions
  6
ByLayer
 62
  256
100
AcDbDimension
  2
*D29
 10
53.33
 20
13.34
 30
0
 11
47.60832580820404
 21
19.71857730652234
 31
0
 70
   36
  1
4-R1.0
 71
    5
  3
Standard
 53
0
210
0
220
0
230
1
100
AcDbRadialDimension
 15
52.51555859488215
 25
13.92024580793804
 35
0
 40
0
  0
DIMENSION
  5
20A
100
AcDbEntity
  8
Dimensions
  6
ByLayer
 62
  256
100
AcDbDimension
  2
*D30
 10
-1.243449787580175e-16
 20
-7
 30
0
 11
-1.875
 21
-3.182499999999999
 31
0
 70
   32
 71
    5
  3
Standard
 53
0
210
0
220
0
230
1
100
AcDbAlignedDimension
 13
1.975
 23
0.6350000000000006
 33
0
 14
0
 24
-7
 34
0
 50
90
100
AcDbRotatedDimension
  0
ENDSEC
  0
SECTION
  2
OBJECTS
  0
DICTIONARY
  5
C
100
AcDbDictionary
281
    1
  3
ACAD_GROUP
350
D
  0
DICTIONARY
  5
D
330
C
100
AcDbDictionary
281
    1
  0
PLOTSETTINGS
  5
20B
100
AcDbPlotSettings
  6
1x1
 40
0
 41
0
 42
0
 43
0
  0
ENDSEC
  0
EOF
