M48
;GenerationSoftware,Autodesk,EAGLE,9.6.2*%
;CreationDate,2024-02-02T16:27:30Z*%
FMAT,2
ICI,OFF
METRIC,TZ,000.000
T16C0.300
T15C0.400
T14C0.500
T13C0.650
T12C0.850
T11C0.889
T10C0.900
T9C0.950
T8C1.000
T7C1.016
T6C1.200
T5C1.400
T4C1.499
T3C1.700
T2C3.048
T1C3.250
%
G90
M71
T1
X20638Y92202
X9208Y92202
X142558Y92202
X131128Y92202
T2
X65087Y10160
X86678Y10160
X149543Y2540
X149543Y99060
X2223Y99060
X64452Y49530
X2223Y2540
X87313Y49530
X75883Y90170
T3
X22797Y89152
X144718Y89152
X7047Y89152
X128967Y89152
T4
X36513Y26670
X36513Y36830
X36513Y46990
X16192Y34290
X16192Y39370
X16192Y46990
T5
X102382Y95625
X105882Y95625
X109382Y95625
X112882Y95625
X116382Y95625
X119882Y95625
X123382Y95625
X42383Y95625
X28382Y95625
X31882Y95625
X35383Y95625
X38883Y95625
X45882Y95625
X49382Y95625
X52882Y95625
X56382Y95625
X59882Y95625
X91882Y95625
X95382Y95625
X98882Y95625
T6
X120022Y6310
X113022Y6310
X135883Y5421
X36203Y5421
X29202Y5421
X142883Y5421
T7
X93662Y45720
X93662Y43180
X28892Y86360
X31432Y86360
X9843Y77470
X9843Y80010
X7302Y77470
X7302Y80010
X49212Y50800
X46672Y50800
X31432Y88900
X28892Y88900
T8
X34953Y2921
X49722Y2032
X41723Y2032
X114272Y3810
X118772Y3810
X137133Y2921
X141633Y2921
X30452Y2921
T9
X125412Y15240
X98742Y81280
X61912Y69850
X79693Y87630
X98742Y72390
X98742Y69850
X98742Y74930
X101282Y71120
X98742Y67310
X101282Y66040
X101282Y63500
X98742Y64770
X101282Y73660
X98742Y62230
X60642Y44450
X115252Y16510
X115252Y24130
X41593Y40640
X41593Y48260
X80963Y11430
X70803Y11430
X41593Y43180
X41593Y45720
X144463Y62230
X46672Y66040
X78423Y43180
X78423Y38100
X139383Y12700
X122872Y15240
X101282Y68580
X79693Y50800
X46672Y31750
X88582Y87630
X101282Y60960
X101282Y58420
X98742Y59690
T10
X134938Y83312
X19368Y85852
X18098Y83312
X16828Y85852
X15557Y83312
X14287Y85852
X13017Y83312
X11747Y85852
X10478Y83312
X20638Y83312
X9208Y85852
X19013Y96262
X10833Y96262
X21553Y96262
X8293Y96262
X136208Y85852
X137478Y83312
X138748Y85852
X140018Y83312
X141288Y85852
X143473Y96262
X132753Y96262
X130212Y96262
X140933Y96262
X131128Y85852
X142558Y83312
X132398Y83312
X133668Y85852
T11
X12382Y9525
X14922Y9525
X12382Y6985
X14922Y6985
X14922Y4445
X17463Y9525
X20003Y9525
X17463Y6985
X17463Y4445
X20003Y6985
X20003Y4445
X12382Y4445
T12
X118832Y83820
X121832Y83820
T13
X107982Y4905
X102202Y4905
X130842Y4905
X125062Y4905
T14
X12382Y43180
X12382Y44450
X102552Y7620
X107632Y7620
X125412Y7620
X130492Y7620
T15
X100774Y5435
X109410Y5435
X109410Y1255
X123634Y5435
X132271Y5435
X100774Y1255
X132271Y1255
X123634Y1255
T16
X68263Y88900
X61023Y86487
X70803Y87630
X70803Y86360
X70803Y85090
X67628Y83185
X67628Y81915
X68898Y81915
X70168Y81915
X71438Y81915
X71438Y83185
X37910Y85979
X33084Y81915
X123634Y7239
X105092Y13970
X56197Y88265
X55054Y86360
X53657Y79375
X49974Y78740
X49974Y76200
X31559Y82931
X38291Y81153
X101790Y50800
X82233Y48768
X130873Y78740
X140653Y78740
X144463Y75692
X136208Y75692
X128460Y68580
X145733Y69723
X141669Y64770
X141288Y61722
X72962Y41021
X70803Y42926
X69533Y42926
X70168Y42926
X72073Y42926
X72073Y42164
X71438Y42926
X71438Y42164
X70803Y42164
X70168Y42164
X69533Y42164
X70803Y47244
X70168Y47244
X69533Y47244
X72073Y47244
X72073Y48006
X70803Y48006
X71438Y48006
X71438Y47244
X69533Y48006
X70168Y48006
X70803Y37084
X70168Y37084
X69533Y37084
X72073Y37084
X71438Y37084
X70803Y37846
X69533Y37846
X70168Y37846
X71438Y37846
X72073Y37846
X66358Y83185
X66358Y80645
X66358Y76835
X67628Y80645
X67628Y62865
X66358Y56515
X67628Y56515
X66358Y62865
X63182Y62230
X93027Y80645
X86678Y83185
X76518Y81915
X91757Y83185
X91757Y79375
X91757Y75565
X93027Y76835
X93027Y66675
X93027Y71755
X93027Y62865
X91757Y57785
X87947Y56515
X86678Y57785
X85408Y56515
X73978Y56515
X75248Y56515
X91757Y61595
X80963Y73660
X83503Y76200
X86297Y78994
X54292Y62230
X56832Y62230
X60642Y62230
X70803Y62230
X73343Y62230
X75883Y62230
X78423Y62230
X80963Y62230
X83503Y62230
X70803Y77470
X73343Y77470
X75883Y77470
X88582Y62230
X113855Y86868
X124523Y90678
X40323Y67437
X41974Y67437
X43625Y67437
X45275Y67437
X48831Y26670
X48831Y27559
X48831Y25781
X134557Y71501
X141669Y66421
X128460Y66929
X128460Y65278
X142939Y61722
X103822Y16510
X103822Y20320
X103822Y24130
X106362Y16510
X106362Y20320
X106362Y24130
X103822Y27940
X106362Y27940
X106362Y31750
X103822Y31750
X106362Y35560
X102552Y43180
X103822Y35560
X101282Y40640
X105092Y40640
X97472Y44450
X98742Y46990
X94932Y46990
X91122Y50800
X91122Y54610
X133033Y49530
X41593Y78740
X136843Y66040
X139891Y68580
X39688Y71755
X127952Y58420
X79693Y76200
X82233Y78740
X78423Y80010
X77153Y78740
X67628Y76835
X67628Y78105
X66358Y78105
X66358Y79375
X67628Y79375
X61277Y83947
X65977Y89916
X68263Y90170
X70803Y88900
X60134Y85344
X65723Y85090
X61277Y82550
X61404Y80010
X61785Y78613
X62928Y77216
X64452Y76581
X64325Y78486
X63309Y79756
X63690Y81280
X63563Y83312
X63817Y85090
X61023Y88646
X61023Y92202
X62293Y92202
X63690Y92202
X64960Y90551
X63944Y88646
X58991Y81280
X81979Y54610
X58991Y88646
X58991Y90424
X58991Y91948
X64960Y92202
X58991Y83820
X58991Y86360
X58991Y78740
X61404Y77089
X61404Y75438
X86043Y62230
X84773Y69850
X87313Y72390
X89852Y74930
X80963Y69850
X77661Y69596
X73343Y67818
X70422Y67818
X67628Y67945
X66358Y67945
X59372Y69850
X67628Y70485
X67628Y73025
X77153Y73660
X69533Y73025
X71819Y73279
X66358Y75565
X67628Y75565
X63944Y75438
X70295Y75438
X74613Y71120
X73343Y74930
X55562Y73660
X96202Y49530
X122872Y60960
X121602Y58420
X122872Y50800
X121602Y53340
X130492Y60960
X127317Y62865
X132906Y68580
X123634Y58420
X123634Y53340
X51244Y86360
X47434Y86360
X55181Y79375
X56324Y82296
X43498Y90170
X115506Y90932
X105854Y86614
X102044Y86614
X94170Y86741
X110680Y86487
X98234Y88900
X75883Y67818
X79439Y71501
X55054Y89281
X51244Y89281
X52514Y74549
X54292Y72771
X56197Y70866
X59372Y67691
X63182Y67691
X37402Y73660
X44767Y76200
X99758Y83185
X41085Y88138
X40069Y92456
X43625Y92329
X50355Y92456
X53911Y92456
X89598Y92329
X93662Y93599
X97218Y93599
X100647Y93599
X104076Y93599
X107505Y93599
X111061Y93599
X114490Y93599
X118046Y93599
X43117Y17907
X39434Y17907
X53784Y17780
X50355Y17907
X19495Y74930
X14922Y88900
X18733Y88900
X25082Y85090
X134303Y93980
X139383Y93980
X145733Y85090
X144463Y80010
X144463Y77470
X129222Y83820
X127952Y60960
X132779Y65786
X142939Y71755
X141034Y70485
X139891Y70485
X37402Y79820
X37402Y76137
X114490Y76581
X122237Y28067
X122237Y24384
X126047Y18796
X112458Y76581
X141288Y57150
X131890Y57150
X127444Y52197
X117792Y88900
X119062Y88900
X83884Y95504
X82614Y26670
X76708Y13525
X135065Y62837
X8573Y16510
X132906Y69850
X131255Y75692
X100520Y88900
X102044Y88900
X104330Y88900
X111188Y88900
X28892Y73660
X28892Y72390
X128968Y8547
X127190Y11557
X127444Y16510
X128333Y7112
X127190Y7112
X128714Y11557
X128460Y16510
X120332Y50800
X120967Y49657
X119189Y19431
X113474Y19400
X120332Y21209
X116776Y21240
X97472Y43180
X106235Y64897
X112712Y21590
X102552Y21590
X116522Y18920
X134303Y51181
X121602Y20320
X139383Y20320
X49339Y15621
X42101Y15621
X48831Y68580
X37021Y67310
X45910Y77089
X45910Y78740
X42355Y87249
X44005Y87249
X34227Y88265
X48704Y87249
X72073Y69850
X97345Y82550
X96710Y88900
X52133Y18415
X58102Y73406
X56832Y73406
X84773Y53340
X83630Y53340
X125412Y86614
X124142Y86614
X28892Y71120
X28892Y69850
X105092Y8763
X137732Y69342
X134557Y75819
X9843Y68580
X11112Y68580
X9843Y67310
X9843Y66040
X9843Y64770
X11112Y64770
X11112Y66040
X11112Y67310
X10478Y67945
X9208Y67945
X9208Y66675
X9208Y65405
X9208Y64135
X10478Y64135
X10478Y65405
X10478Y66675
X8573Y62230
X9843Y62230
X11112Y62230
X9843Y60960
X8573Y60960
X8573Y59690
X8573Y58420
X9843Y58420
X11112Y58420
X11112Y59690
X9843Y59690
X11112Y60960
X10478Y61595
X9208Y61595
X10478Y60325
X9208Y60325
X9208Y59055
X10478Y59055
X70803Y17399
X78423Y17440
X140145Y98171
X127190Y98171
X39834Y91186
X39834Y88900
X44894Y91186
X48577Y91186
X52006Y91186
X57721Y80518
X100139Y91948
X95758Y89725
X92932Y91440
X103314Y90424
X107505Y90932
X113855Y90932
X122110Y91948
X121221Y91948
X26352Y68580
X26352Y67310
X132906Y70739
X140653Y66802
X132906Y71628
X140145Y67310
X142431Y71120
X142431Y75565
X142304Y80391
X141542Y71120
X141542Y75565
X141542Y77089
X139129Y70104
X139129Y75565
X139510Y80391
X138240Y70104
X138240Y75565
X138748Y77089
X130492Y58420
X140653Y67945
X133414Y66294
X130873Y63500
X130238Y61976
X138367Y62357
X130873Y62484
X137732Y62738
X130238Y62992
X140526Y64262
X109283Y56388
X135192Y56261
X110807Y57023
X133922Y56340
X110172Y54610
X132906Y54610
X104584Y49403
X10224Y15979
X105219Y48514
X13652Y15240
X78423Y15695
X105092Y52959
X124142Y48387
X97599Y41402
X101282Y45085
X73978Y16383
X70803Y16383
X103949Y52324
X106108Y52324
X96964Y41910
X100774Y45720
X102552Y59309
X106108Y58674
X102552Y57404
X106108Y57404
X102552Y61849
X106108Y61087
X102425Y81915
X104838Y84328
X103441Y58674
X106108Y59944
X33211Y83566
X33211Y85217
X37783Y84201
X37529Y81153
X40450Y74803
X39942Y73279
X40308Y82535
X46799Y84201
X28384Y78613
X33211Y78867
X37402Y76835
X31940Y79375
X37402Y77597
X33211Y79657
X28384Y76477
X33211Y76581
X37402Y78359
X31940Y75692
X37402Y79121
X33211Y75692
X104873Y91138
X31178Y81280
X38291Y79629
X95440Y79629
X44529Y13985
X53784Y14478
X95948Y80391
X52133Y13843
X94932Y78740
X41085Y14478
X81852Y67564
X56959Y69850
X82614Y67183
X56578Y69243
X40958Y73815
X40831Y75565
X83376Y66802
X56197Y68580
X41593Y73279
X41593Y74930
X84011Y66421
X55816Y67945
X42228Y72771
X42863Y74930
X84646Y66040
X55435Y67310
X42736Y72263
X43498Y75438
X86043Y65278
X54673Y66040
X44894Y72263
X44767Y78486
X87947Y63962
X53530Y64008
X48323Y72136
X43498Y82169
X26352Y66040
X47434Y72136
X54038Y64643
X87313Y64389
X86678Y64770
X54292Y65405
X46926Y72771
X44894Y79629
X85281Y65659
X55054Y66675
X44005Y72263
X44767Y77597
X39561Y81943
X42355Y82931
X88582Y63373
X53022Y63373
X49149Y71692
X94932Y57150
X50228Y82042
X94910Y59668
X47942Y85090
X94932Y58420
X48727Y84985
X94932Y60960
X50709Y83820
X48577Y88900
X89852Y67310
X97472Y88392
X53911Y85344
X53911Y89281
X55181Y85217
X54546Y88519
X30162Y12474
X86043Y39370
X87313Y41910
X96583Y79629
X110680Y85598
X110680Y84709
X88582Y80010
X77153Y54610
X22161Y17526
X89852Y69850
X20511Y16510
X93662Y52070
X23812Y16990
X63182Y74422
X84773Y85090
X93443Y88557
X87313Y85090
X52514Y86360
X86043Y85090
X53022Y85880
X9335Y11049
X8319Y8255
X24701Y5715
X23050Y11049
X24066Y8255
X122872Y59690
X133414Y67770
X101790Y55118
X133033Y47879
X101790Y55880
X132906Y55626
X106362Y85979
X106362Y84328
X7810Y5715
X105473Y63627
X105346Y60452
X26352Y64770
X26352Y63500
X26352Y62230
X26352Y60960
X26352Y59690
X27622Y59690
X27622Y60960
X27622Y62230
X27622Y63500
X27622Y64770
X27622Y66040
X27622Y67310
X27622Y68580
X28892Y68580
X28892Y67310
X28892Y66040
X28892Y64770
X28892Y63500
X28892Y62230
X28892Y60960
X28892Y59690
X28257Y60325
X26987Y60325
X26987Y61595
X28257Y61595
X28257Y62865
X26987Y62865
X26987Y64135
X26987Y65405
X26987Y66675
X28257Y67945
X26987Y67945
X28257Y66675
X28257Y65405
X28257Y64135
X26987Y59055
X28257Y59055
X27622Y58420
X26352Y58420
X28892Y58420
X41593Y59690
X42863Y59690
X44132Y59690
X45402Y59690
X46672Y59690
X82614Y28067
X45402Y58420
X46672Y58420
X44132Y58420
X42228Y59055
X43498Y59055
X44767Y59055
X44767Y57785
X46037Y59055
X46037Y57785
X40323Y59690
X39053Y59690
X39053Y58420
X40323Y58420
X40958Y59055
X39688Y59055
X39688Y57785
X40958Y57785
X74613Y36068
X76518Y36068
X76391Y41021
X74486Y41021
X72962Y46101
X65087Y41148
X63182Y41148
X66993Y36068
X66993Y41148
X32702Y61595
X31813Y61595
X33592Y61595
X37783Y57785
X41085Y54483
X49212Y44450
X49212Y45466
X49212Y43434
X73597Y99187
X73597Y100457
X73597Y97917
X73343Y96647
X72073Y96647
X70803Y95377
X70803Y93599
X70803Y91821
X70803Y90170
X68263Y91821
X68263Y93345
X67120Y95377
X68263Y85090
X66993Y96647
X65723Y96774
X65468Y99187
X65468Y97917
X65468Y100457
X78169Y99060
X86297Y99060
X78169Y100457
X78169Y97536
X86297Y97409
X86297Y100457
X79693Y96520
X79820Y94615
X84773Y96647
X83376Y94615
X83503Y92456
X84773Y90805
X83630Y89027
X80963Y89027
X82233Y89027
X79820Y90678
X80963Y92456
X46545Y18542
X44767Y18542
X48196Y18542
X43498Y13970
X43498Y11176
X40831Y37719
X45021Y33528
X78423Y12446
X78423Y11430
X81344Y18542
X124142Y13462
X131763Y13462
X127952Y11557
X30162Y77470
X35243Y88519
X34481Y90805
X126555Y3683
X121348Y17526
X126047Y68453
X125031Y68453
X106997Y68453
X108013Y68453
X114998Y62103
X112712Y59690
X112712Y62103
X117411Y59690
X117411Y62103
X114998Y57277
X117411Y57277
X112712Y57277
X108775Y49657
X107632Y79502
X111442Y79502
X113474Y79502
X102552Y13716
X108902Y13462
X103822Y3810
X131255Y6985
X108394Y6985
X100774Y7239
X125285Y27051
X125285Y25400
X33084Y73660
X44894Y80518
M30