G04 EAGLE Gerber RS-274X export*
G75*
%MOMM*%
%FSLAX34Y34*%
%LPD*%
%IN*%
%IPPOS*%
%AMOC8*
5,1,8,0,0,1.08239X$1,22.5*%
G01*
%ADD10C,0.203200*%
%ADD11C,0.800000*%
%ADD12C,0.279400*%
%ADD13C,0.381000*%
%ADD14C,0.254000*%
%ADD15C,0.000000*%
%ADD16C,0.600000*%
%ADD17C,0.254000*%


D10*
X0Y0D02*
X574675Y0D01*
X574675Y63500D01*
X574679Y63807D01*
X574690Y64114D01*
X574708Y64420D01*
X574734Y64726D01*
X574768Y65031D01*
X574808Y65335D01*
X574856Y65638D01*
X574912Y65940D01*
X574974Y66240D01*
X575044Y66539D01*
X575121Y66836D01*
X575205Y67132D01*
X575297Y67425D01*
X575395Y67715D01*
X575500Y68003D01*
X575613Y68289D01*
X575732Y68572D01*
X575858Y68852D01*
X575990Y69129D01*
X576130Y69402D01*
X576276Y69672D01*
X576428Y69938D01*
X576587Y70201D01*
X576752Y70460D01*
X576923Y70714D01*
X577100Y70965D01*
X577284Y71211D01*
X577473Y71453D01*
X577668Y71689D01*
X577869Y71922D01*
X578075Y72149D01*
X578287Y72371D01*
X578504Y72588D01*
X578726Y72800D01*
X578953Y73006D01*
X579186Y73207D01*
X579422Y73402D01*
X579664Y73591D01*
X579910Y73775D01*
X580161Y73952D01*
X580415Y74123D01*
X580674Y74288D01*
X580937Y74447D01*
X581203Y74599D01*
X581473Y74745D01*
X581746Y74885D01*
X582023Y75017D01*
X582303Y75143D01*
X582586Y75262D01*
X582872Y75375D01*
X583160Y75480D01*
X583450Y75578D01*
X583743Y75670D01*
X584039Y75754D01*
X584336Y75831D01*
X584635Y75901D01*
X584935Y75963D01*
X585237Y76019D01*
X585540Y76067D01*
X585844Y76107D01*
X586149Y76141D01*
X586455Y76167D01*
X586761Y76185D01*
X587068Y76196D01*
X587375Y76200D01*
X930275Y76200D01*
X930582Y76196D01*
X930889Y76185D01*
X931195Y76167D01*
X931501Y76141D01*
X931806Y76107D01*
X932110Y76067D01*
X932413Y76019D01*
X932715Y75963D01*
X933015Y75901D01*
X933314Y75831D01*
X933611Y75754D01*
X933907Y75670D01*
X934200Y75578D01*
X934490Y75480D01*
X934778Y75375D01*
X935064Y75262D01*
X935347Y75143D01*
X935627Y75017D01*
X935904Y74885D01*
X936177Y74745D01*
X936447Y74599D01*
X936713Y74447D01*
X936976Y74288D01*
X937235Y74123D01*
X937489Y73952D01*
X937740Y73775D01*
X937986Y73591D01*
X938228Y73402D01*
X938464Y73207D01*
X938697Y73006D01*
X938924Y72800D01*
X939146Y72588D01*
X939363Y72371D01*
X939575Y72149D01*
X939781Y71922D01*
X939982Y71689D01*
X940177Y71453D01*
X940366Y71211D01*
X940550Y70965D01*
X940727Y70714D01*
X940898Y70460D01*
X941063Y70201D01*
X941222Y69938D01*
X941374Y69672D01*
X941520Y69402D01*
X941660Y69129D01*
X941792Y68852D01*
X941918Y68572D01*
X942037Y68289D01*
X942150Y68003D01*
X942255Y67715D01*
X942353Y67425D01*
X942445Y67132D01*
X942529Y66836D01*
X942606Y66539D01*
X942676Y66240D01*
X942738Y65940D01*
X942794Y65638D01*
X942842Y65335D01*
X942882Y65031D01*
X942916Y64726D01*
X942942Y64420D01*
X942960Y64114D01*
X942971Y63807D01*
X942975Y63500D01*
X942975Y0D01*
X1517650Y0D01*
X1517650Y1016000D01*
X0Y1016000D01*
X0Y0D01*
D11*
X47825Y945000D02*
X113825Y945000D01*
X130325Y928500D01*
X130325Y852000D01*
X142825Y839500D01*
X142825Y824000D01*
X180825Y786000D01*
X180825Y519000D01*
X171825Y510000D01*
X47825Y510000D01*
D12*
X704329Y-20447D02*
X704329Y-35433D01*
X704329Y-20447D02*
X708492Y-20447D01*
X708620Y-20449D01*
X708748Y-20455D01*
X708876Y-20465D01*
X709004Y-20479D01*
X709131Y-20496D01*
X709257Y-20518D01*
X709383Y-20543D01*
X709507Y-20573D01*
X709631Y-20606D01*
X709754Y-20643D01*
X709876Y-20684D01*
X709996Y-20728D01*
X710115Y-20776D01*
X710232Y-20828D01*
X710348Y-20883D01*
X710461Y-20942D01*
X710574Y-21005D01*
X710684Y-21071D01*
X710791Y-21140D01*
X710897Y-21212D01*
X711001Y-21288D01*
X711102Y-21367D01*
X711201Y-21449D01*
X711297Y-21534D01*
X711390Y-21621D01*
X711481Y-21712D01*
X711568Y-21805D01*
X711653Y-21901D01*
X711735Y-22000D01*
X711814Y-22101D01*
X711890Y-22205D01*
X711962Y-22311D01*
X712031Y-22418D01*
X712097Y-22529D01*
X712160Y-22641D01*
X712219Y-22754D01*
X712274Y-22870D01*
X712326Y-22987D01*
X712374Y-23106D01*
X712418Y-23226D01*
X712459Y-23348D01*
X712496Y-23471D01*
X712529Y-23595D01*
X712559Y-23719D01*
X712584Y-23845D01*
X712606Y-23971D01*
X712623Y-24098D01*
X712637Y-24226D01*
X712647Y-24354D01*
X712653Y-24482D01*
X712655Y-24610D01*
X712653Y-24738D01*
X712647Y-24866D01*
X712637Y-24994D01*
X712623Y-25122D01*
X712606Y-25249D01*
X712584Y-25375D01*
X712559Y-25501D01*
X712529Y-25625D01*
X712496Y-25749D01*
X712459Y-25872D01*
X712418Y-25994D01*
X712374Y-26114D01*
X712326Y-26233D01*
X712274Y-26350D01*
X712219Y-26466D01*
X712160Y-26579D01*
X712097Y-26692D01*
X712031Y-26802D01*
X711962Y-26909D01*
X711890Y-27015D01*
X711814Y-27119D01*
X711735Y-27220D01*
X711653Y-27319D01*
X711568Y-27415D01*
X711481Y-27508D01*
X711390Y-27599D01*
X711297Y-27686D01*
X711201Y-27771D01*
X711102Y-27853D01*
X711001Y-27932D01*
X710897Y-28008D01*
X710791Y-28080D01*
X710684Y-28149D01*
X710574Y-28215D01*
X710461Y-28278D01*
X710348Y-28337D01*
X710232Y-28392D01*
X710115Y-28444D01*
X709996Y-28492D01*
X709876Y-28536D01*
X709754Y-28577D01*
X709631Y-28614D01*
X709507Y-28647D01*
X709383Y-28677D01*
X709257Y-28702D01*
X709131Y-28724D01*
X709004Y-28741D01*
X708876Y-28755D01*
X708748Y-28765D01*
X708620Y-28771D01*
X708492Y-28773D01*
X704329Y-28773D01*
X709324Y-28773D02*
X712654Y-35433D01*
X719613Y-32103D02*
X719613Y-28773D01*
X719615Y-28659D01*
X719621Y-28546D01*
X719630Y-28432D01*
X719644Y-28320D01*
X719661Y-28207D01*
X719683Y-28095D01*
X719708Y-27985D01*
X719736Y-27875D01*
X719769Y-27766D01*
X719805Y-27658D01*
X719845Y-27551D01*
X719889Y-27446D01*
X719936Y-27343D01*
X719986Y-27241D01*
X720040Y-27141D01*
X720098Y-27043D01*
X720159Y-26947D01*
X720222Y-26853D01*
X720290Y-26761D01*
X720360Y-26671D01*
X720433Y-26585D01*
X720509Y-26500D01*
X720588Y-26418D01*
X720670Y-26339D01*
X720755Y-26263D01*
X720841Y-26190D01*
X720931Y-26120D01*
X721023Y-26052D01*
X721117Y-25989D01*
X721213Y-25928D01*
X721311Y-25870D01*
X721411Y-25816D01*
X721513Y-25766D01*
X721616Y-25719D01*
X721721Y-25675D01*
X721828Y-25635D01*
X721936Y-25599D01*
X722045Y-25566D01*
X722155Y-25538D01*
X722265Y-25513D01*
X722377Y-25491D01*
X722490Y-25474D01*
X722602Y-25460D01*
X722716Y-25451D01*
X722829Y-25445D01*
X722943Y-25443D01*
X723057Y-25445D01*
X723170Y-25451D01*
X723284Y-25460D01*
X723396Y-25474D01*
X723509Y-25491D01*
X723621Y-25513D01*
X723731Y-25538D01*
X723841Y-25566D01*
X723950Y-25599D01*
X724058Y-25635D01*
X724165Y-25675D01*
X724270Y-25719D01*
X724373Y-25766D01*
X724475Y-25816D01*
X724575Y-25870D01*
X724673Y-25928D01*
X724769Y-25989D01*
X724863Y-26052D01*
X724955Y-26120D01*
X725045Y-26190D01*
X725131Y-26263D01*
X725216Y-26339D01*
X725298Y-26418D01*
X725377Y-26500D01*
X725453Y-26585D01*
X725526Y-26671D01*
X725596Y-26761D01*
X725664Y-26853D01*
X725727Y-26947D01*
X725788Y-27043D01*
X725846Y-27141D01*
X725900Y-27241D01*
X725950Y-27343D01*
X725997Y-27446D01*
X726041Y-27551D01*
X726081Y-27658D01*
X726117Y-27766D01*
X726150Y-27875D01*
X726178Y-27985D01*
X726203Y-28095D01*
X726225Y-28207D01*
X726242Y-28320D01*
X726256Y-28432D01*
X726265Y-28546D01*
X726271Y-28659D01*
X726273Y-28773D01*
X726273Y-32103D01*
X726271Y-32217D01*
X726265Y-32330D01*
X726256Y-32444D01*
X726242Y-32556D01*
X726225Y-32669D01*
X726203Y-32781D01*
X726178Y-32891D01*
X726150Y-33001D01*
X726117Y-33110D01*
X726081Y-33218D01*
X726041Y-33325D01*
X725997Y-33430D01*
X725950Y-33533D01*
X725900Y-33635D01*
X725846Y-33735D01*
X725788Y-33833D01*
X725727Y-33929D01*
X725664Y-34023D01*
X725596Y-34115D01*
X725526Y-34205D01*
X725453Y-34291D01*
X725377Y-34376D01*
X725298Y-34458D01*
X725216Y-34537D01*
X725131Y-34613D01*
X725045Y-34686D01*
X724955Y-34756D01*
X724863Y-34824D01*
X724769Y-34887D01*
X724673Y-34948D01*
X724575Y-35006D01*
X724475Y-35060D01*
X724373Y-35110D01*
X724270Y-35157D01*
X724165Y-35201D01*
X724058Y-35241D01*
X723950Y-35277D01*
X723841Y-35310D01*
X723731Y-35338D01*
X723621Y-35363D01*
X723509Y-35385D01*
X723396Y-35402D01*
X723284Y-35416D01*
X723170Y-35425D01*
X723057Y-35431D01*
X722943Y-35433D01*
X722829Y-35431D01*
X722716Y-35425D01*
X722602Y-35416D01*
X722490Y-35402D01*
X722377Y-35385D01*
X722265Y-35363D01*
X722155Y-35338D01*
X722045Y-35310D01*
X721936Y-35277D01*
X721828Y-35241D01*
X721721Y-35201D01*
X721616Y-35157D01*
X721513Y-35110D01*
X721411Y-35060D01*
X721311Y-35006D01*
X721213Y-34948D01*
X721117Y-34887D01*
X721023Y-34824D01*
X720931Y-34756D01*
X720841Y-34686D01*
X720755Y-34613D01*
X720670Y-34537D01*
X720588Y-34458D01*
X720509Y-34376D01*
X720433Y-34291D01*
X720360Y-34205D01*
X720290Y-34115D01*
X720222Y-34023D01*
X720159Y-33929D01*
X720098Y-33833D01*
X720040Y-33735D01*
X719986Y-33635D01*
X719936Y-33533D01*
X719889Y-33430D01*
X719845Y-33325D01*
X719805Y-33218D01*
X719769Y-33110D01*
X719736Y-33001D01*
X719708Y-32891D01*
X719683Y-32781D01*
X719661Y-32669D01*
X719644Y-32556D01*
X719630Y-32444D01*
X719621Y-32330D01*
X719615Y-32217D01*
X719613Y-32103D01*
X733681Y-32935D02*
X733681Y-25442D01*
X733680Y-32935D02*
X733682Y-33033D01*
X733688Y-33131D01*
X733697Y-33229D01*
X733711Y-33326D01*
X733728Y-33422D01*
X733749Y-33518D01*
X733774Y-33613D01*
X733802Y-33707D01*
X733834Y-33800D01*
X733870Y-33891D01*
X733909Y-33981D01*
X733952Y-34069D01*
X733999Y-34156D01*
X734048Y-34240D01*
X734101Y-34323D01*
X734157Y-34403D01*
X734216Y-34482D01*
X734279Y-34557D01*
X734344Y-34631D01*
X734412Y-34701D01*
X734482Y-34769D01*
X734556Y-34835D01*
X734632Y-34897D01*
X734710Y-34956D01*
X734790Y-35012D01*
X734873Y-35065D01*
X734957Y-35115D01*
X735044Y-35161D01*
X735132Y-35204D01*
X735222Y-35243D01*
X735313Y-35279D01*
X735406Y-35311D01*
X735500Y-35339D01*
X735595Y-35364D01*
X735691Y-35385D01*
X735787Y-35402D01*
X735884Y-35416D01*
X735982Y-35425D01*
X736080Y-35431D01*
X736178Y-35433D01*
X740341Y-35433D01*
X740341Y-25442D01*
X746322Y-25442D02*
X751317Y-25442D01*
X747987Y-20447D02*
X747987Y-32935D01*
X747989Y-33033D01*
X747995Y-33131D01*
X748004Y-33229D01*
X748018Y-33326D01*
X748035Y-33422D01*
X748056Y-33518D01*
X748081Y-33613D01*
X748109Y-33707D01*
X748141Y-33800D01*
X748177Y-33891D01*
X748216Y-33981D01*
X748259Y-34069D01*
X748306Y-34156D01*
X748355Y-34240D01*
X748408Y-34323D01*
X748464Y-34403D01*
X748523Y-34482D01*
X748586Y-34557D01*
X748651Y-34631D01*
X748719Y-34701D01*
X748789Y-34769D01*
X748863Y-34835D01*
X748939Y-34897D01*
X749017Y-34956D01*
X749097Y-35012D01*
X749180Y-35065D01*
X749264Y-35115D01*
X749351Y-35161D01*
X749439Y-35204D01*
X749529Y-35243D01*
X749620Y-35279D01*
X749713Y-35311D01*
X749807Y-35339D01*
X749902Y-35364D01*
X749998Y-35385D01*
X750094Y-35402D01*
X750191Y-35416D01*
X750289Y-35425D01*
X750387Y-35431D01*
X750485Y-35433D01*
X751317Y-35433D01*
X760146Y-35433D02*
X764309Y-35433D01*
X760146Y-35433D02*
X760048Y-35431D01*
X759950Y-35425D01*
X759852Y-35416D01*
X759755Y-35402D01*
X759659Y-35385D01*
X759563Y-35364D01*
X759468Y-35339D01*
X759374Y-35311D01*
X759281Y-35279D01*
X759190Y-35243D01*
X759100Y-35204D01*
X759012Y-35161D01*
X758925Y-35114D01*
X758841Y-35065D01*
X758758Y-35012D01*
X758678Y-34956D01*
X758600Y-34897D01*
X758524Y-34835D01*
X758450Y-34769D01*
X758380Y-34701D01*
X758312Y-34631D01*
X758247Y-34557D01*
X758184Y-34482D01*
X758125Y-34403D01*
X758069Y-34323D01*
X758016Y-34240D01*
X757967Y-34156D01*
X757920Y-34069D01*
X757877Y-33981D01*
X757838Y-33891D01*
X757802Y-33800D01*
X757770Y-33707D01*
X757742Y-33613D01*
X757717Y-33518D01*
X757696Y-33422D01*
X757679Y-33326D01*
X757665Y-33229D01*
X757656Y-33131D01*
X757650Y-33033D01*
X757648Y-32935D01*
X757649Y-32935D02*
X757649Y-28773D01*
X757651Y-28659D01*
X757657Y-28546D01*
X757666Y-28432D01*
X757680Y-28320D01*
X757697Y-28207D01*
X757719Y-28095D01*
X757744Y-27985D01*
X757772Y-27875D01*
X757805Y-27766D01*
X757841Y-27658D01*
X757881Y-27551D01*
X757925Y-27446D01*
X757972Y-27343D01*
X758022Y-27241D01*
X758076Y-27141D01*
X758134Y-27043D01*
X758195Y-26947D01*
X758258Y-26853D01*
X758326Y-26761D01*
X758396Y-26671D01*
X758469Y-26585D01*
X758545Y-26500D01*
X758624Y-26418D01*
X758706Y-26339D01*
X758791Y-26263D01*
X758877Y-26190D01*
X758967Y-26120D01*
X759059Y-26052D01*
X759153Y-25989D01*
X759249Y-25928D01*
X759347Y-25870D01*
X759447Y-25816D01*
X759549Y-25766D01*
X759652Y-25719D01*
X759757Y-25675D01*
X759864Y-25635D01*
X759972Y-25599D01*
X760081Y-25566D01*
X760191Y-25538D01*
X760301Y-25513D01*
X760413Y-25491D01*
X760526Y-25474D01*
X760638Y-25460D01*
X760752Y-25451D01*
X760865Y-25445D01*
X760979Y-25443D01*
X761093Y-25445D01*
X761206Y-25451D01*
X761320Y-25460D01*
X761432Y-25474D01*
X761545Y-25491D01*
X761657Y-25513D01*
X761767Y-25538D01*
X761877Y-25566D01*
X761986Y-25599D01*
X762094Y-25635D01*
X762201Y-25675D01*
X762306Y-25719D01*
X762409Y-25766D01*
X762511Y-25816D01*
X762611Y-25870D01*
X762709Y-25928D01*
X762805Y-25989D01*
X762899Y-26052D01*
X762991Y-26120D01*
X763081Y-26190D01*
X763167Y-26263D01*
X763252Y-26339D01*
X763334Y-26418D01*
X763413Y-26500D01*
X763489Y-26585D01*
X763562Y-26671D01*
X763632Y-26761D01*
X763700Y-26853D01*
X763763Y-26947D01*
X763824Y-27043D01*
X763882Y-27141D01*
X763936Y-27241D01*
X763986Y-27343D01*
X764033Y-27446D01*
X764077Y-27551D01*
X764117Y-27658D01*
X764153Y-27766D01*
X764186Y-27875D01*
X764214Y-27985D01*
X764239Y-28095D01*
X764261Y-28207D01*
X764278Y-28320D01*
X764292Y-28432D01*
X764301Y-28546D01*
X764307Y-28659D01*
X764309Y-28773D01*
X764309Y-30438D01*
X757649Y-30438D01*
X779742Y-31270D02*
X779742Y-24610D01*
X779744Y-24482D01*
X779750Y-24354D01*
X779760Y-24226D01*
X779774Y-24098D01*
X779791Y-23971D01*
X779813Y-23845D01*
X779838Y-23719D01*
X779868Y-23595D01*
X779901Y-23471D01*
X779938Y-23348D01*
X779979Y-23226D01*
X780023Y-23106D01*
X780071Y-22987D01*
X780123Y-22870D01*
X780178Y-22754D01*
X780237Y-22641D01*
X780300Y-22528D01*
X780366Y-22418D01*
X780435Y-22311D01*
X780507Y-22205D01*
X780583Y-22101D01*
X780662Y-22000D01*
X780744Y-21901D01*
X780829Y-21805D01*
X780916Y-21712D01*
X781007Y-21621D01*
X781100Y-21534D01*
X781196Y-21449D01*
X781295Y-21367D01*
X781396Y-21288D01*
X781500Y-21212D01*
X781606Y-21140D01*
X781713Y-21071D01*
X781824Y-21005D01*
X781936Y-20942D01*
X782049Y-20883D01*
X782165Y-20828D01*
X782282Y-20776D01*
X782401Y-20728D01*
X782521Y-20684D01*
X782643Y-20643D01*
X782766Y-20606D01*
X782890Y-20573D01*
X783014Y-20543D01*
X783140Y-20518D01*
X783266Y-20496D01*
X783393Y-20479D01*
X783521Y-20465D01*
X783649Y-20455D01*
X783777Y-20449D01*
X783905Y-20447D01*
X784033Y-20449D01*
X784161Y-20455D01*
X784289Y-20465D01*
X784417Y-20479D01*
X784544Y-20496D01*
X784670Y-20518D01*
X784796Y-20543D01*
X784920Y-20573D01*
X785044Y-20606D01*
X785167Y-20643D01*
X785289Y-20684D01*
X785409Y-20728D01*
X785528Y-20776D01*
X785645Y-20828D01*
X785761Y-20883D01*
X785874Y-20942D01*
X785987Y-21005D01*
X786097Y-21071D01*
X786204Y-21140D01*
X786310Y-21212D01*
X786414Y-21288D01*
X786515Y-21367D01*
X786614Y-21449D01*
X786710Y-21534D01*
X786803Y-21621D01*
X786894Y-21712D01*
X786981Y-21805D01*
X787066Y-21901D01*
X787148Y-22000D01*
X787227Y-22101D01*
X787303Y-22205D01*
X787375Y-22311D01*
X787444Y-22418D01*
X787510Y-22529D01*
X787573Y-22641D01*
X787632Y-22754D01*
X787687Y-22870D01*
X787739Y-22987D01*
X787787Y-23106D01*
X787831Y-23226D01*
X787872Y-23348D01*
X787909Y-23471D01*
X787942Y-23595D01*
X787972Y-23719D01*
X787997Y-23845D01*
X788019Y-23971D01*
X788036Y-24098D01*
X788050Y-24226D01*
X788060Y-24354D01*
X788066Y-24482D01*
X788068Y-24610D01*
X788067Y-24610D02*
X788067Y-31270D01*
X788068Y-31270D02*
X788066Y-31398D01*
X788060Y-31526D01*
X788050Y-31654D01*
X788036Y-31782D01*
X788019Y-31909D01*
X787997Y-32035D01*
X787972Y-32161D01*
X787942Y-32285D01*
X787909Y-32409D01*
X787872Y-32532D01*
X787831Y-32654D01*
X787787Y-32774D01*
X787739Y-32893D01*
X787687Y-33010D01*
X787632Y-33126D01*
X787573Y-33239D01*
X787510Y-33352D01*
X787444Y-33462D01*
X787375Y-33569D01*
X787303Y-33675D01*
X787227Y-33779D01*
X787148Y-33880D01*
X787066Y-33979D01*
X786981Y-34075D01*
X786894Y-34168D01*
X786803Y-34259D01*
X786710Y-34346D01*
X786614Y-34431D01*
X786515Y-34513D01*
X786414Y-34592D01*
X786310Y-34668D01*
X786204Y-34740D01*
X786097Y-34809D01*
X785987Y-34875D01*
X785874Y-34938D01*
X785761Y-34997D01*
X785645Y-35052D01*
X785528Y-35104D01*
X785409Y-35152D01*
X785289Y-35196D01*
X785167Y-35237D01*
X785044Y-35274D01*
X784920Y-35307D01*
X784796Y-35337D01*
X784670Y-35362D01*
X784544Y-35384D01*
X784417Y-35401D01*
X784289Y-35415D01*
X784161Y-35425D01*
X784033Y-35431D01*
X783905Y-35433D01*
X783777Y-35431D01*
X783649Y-35425D01*
X783521Y-35415D01*
X783393Y-35401D01*
X783266Y-35384D01*
X783140Y-35362D01*
X783014Y-35337D01*
X782890Y-35307D01*
X782766Y-35274D01*
X782643Y-35237D01*
X782521Y-35196D01*
X782401Y-35152D01*
X782282Y-35104D01*
X782165Y-35052D01*
X782049Y-34997D01*
X781936Y-34938D01*
X781824Y-34875D01*
X781713Y-34809D01*
X781606Y-34740D01*
X781500Y-34668D01*
X781396Y-34592D01*
X781295Y-34513D01*
X781196Y-34431D01*
X781100Y-34346D01*
X781007Y-34259D01*
X780916Y-34168D01*
X780829Y-34075D01*
X780744Y-33979D01*
X780662Y-33880D01*
X780583Y-33779D01*
X780507Y-33675D01*
X780435Y-33569D01*
X780366Y-33462D01*
X780300Y-33351D01*
X780237Y-33239D01*
X780178Y-33126D01*
X780123Y-33010D01*
X780071Y-32893D01*
X780023Y-32774D01*
X779979Y-32654D01*
X779938Y-32532D01*
X779901Y-32409D01*
X779868Y-32285D01*
X779838Y-32161D01*
X779813Y-32035D01*
X779791Y-31909D01*
X779774Y-31782D01*
X779760Y-31654D01*
X779750Y-31526D01*
X779744Y-31398D01*
X779742Y-31270D01*
X795684Y-32935D02*
X795684Y-25442D01*
X795684Y-32935D02*
X795686Y-33033D01*
X795692Y-33131D01*
X795701Y-33229D01*
X795715Y-33326D01*
X795732Y-33422D01*
X795753Y-33518D01*
X795778Y-33613D01*
X795806Y-33707D01*
X795838Y-33800D01*
X795874Y-33891D01*
X795913Y-33981D01*
X795956Y-34069D01*
X796003Y-34156D01*
X796052Y-34240D01*
X796105Y-34323D01*
X796161Y-34403D01*
X796220Y-34482D01*
X796283Y-34557D01*
X796348Y-34631D01*
X796416Y-34701D01*
X796486Y-34769D01*
X796560Y-34835D01*
X796636Y-34897D01*
X796714Y-34956D01*
X796794Y-35012D01*
X796877Y-35065D01*
X796961Y-35115D01*
X797048Y-35161D01*
X797136Y-35204D01*
X797226Y-35243D01*
X797317Y-35279D01*
X797410Y-35311D01*
X797504Y-35339D01*
X797599Y-35364D01*
X797695Y-35385D01*
X797791Y-35402D01*
X797888Y-35416D01*
X797986Y-35425D01*
X798084Y-35431D01*
X798182Y-35433D01*
X802345Y-35433D01*
X802345Y-25442D01*
X808326Y-25442D02*
X813321Y-25442D01*
X809991Y-20447D02*
X809991Y-32935D01*
X809990Y-32935D02*
X809992Y-33033D01*
X809998Y-33131D01*
X810007Y-33229D01*
X810021Y-33326D01*
X810038Y-33422D01*
X810059Y-33518D01*
X810084Y-33613D01*
X810112Y-33707D01*
X810144Y-33800D01*
X810180Y-33891D01*
X810219Y-33981D01*
X810262Y-34069D01*
X810309Y-34156D01*
X810358Y-34240D01*
X810411Y-34323D01*
X810467Y-34403D01*
X810526Y-34482D01*
X810589Y-34557D01*
X810654Y-34631D01*
X810722Y-34701D01*
X810792Y-34769D01*
X810866Y-34835D01*
X810942Y-34897D01*
X811020Y-34956D01*
X811100Y-35012D01*
X811183Y-35065D01*
X811267Y-35115D01*
X811354Y-35161D01*
X811442Y-35204D01*
X811532Y-35243D01*
X811623Y-35279D01*
X811716Y-35311D01*
X811810Y-35339D01*
X811905Y-35364D01*
X812001Y-35385D01*
X812097Y-35402D01*
X812194Y-35416D01*
X812292Y-35425D01*
X812390Y-35431D01*
X812488Y-35433D01*
X812489Y-35433D02*
X813321Y-35433D01*
X704329Y1036447D02*
X704329Y1051433D01*
X708492Y1051433D01*
X708620Y1051431D01*
X708748Y1051425D01*
X708876Y1051415D01*
X709004Y1051401D01*
X709131Y1051384D01*
X709257Y1051362D01*
X709383Y1051337D01*
X709507Y1051307D01*
X709631Y1051274D01*
X709754Y1051237D01*
X709876Y1051196D01*
X709996Y1051152D01*
X710115Y1051104D01*
X710232Y1051052D01*
X710348Y1050997D01*
X710461Y1050938D01*
X710574Y1050875D01*
X710684Y1050809D01*
X710791Y1050740D01*
X710897Y1050668D01*
X711001Y1050592D01*
X711102Y1050513D01*
X711201Y1050431D01*
X711297Y1050346D01*
X711390Y1050259D01*
X711481Y1050168D01*
X711568Y1050075D01*
X711653Y1049979D01*
X711735Y1049880D01*
X711814Y1049779D01*
X711890Y1049675D01*
X711962Y1049569D01*
X712031Y1049462D01*
X712097Y1049352D01*
X712160Y1049239D01*
X712219Y1049126D01*
X712274Y1049010D01*
X712326Y1048893D01*
X712374Y1048774D01*
X712418Y1048654D01*
X712459Y1048532D01*
X712496Y1048409D01*
X712529Y1048285D01*
X712559Y1048161D01*
X712584Y1048035D01*
X712606Y1047909D01*
X712623Y1047782D01*
X712637Y1047654D01*
X712647Y1047526D01*
X712653Y1047398D01*
X712655Y1047270D01*
X712653Y1047142D01*
X712647Y1047014D01*
X712637Y1046886D01*
X712623Y1046758D01*
X712606Y1046631D01*
X712584Y1046505D01*
X712559Y1046379D01*
X712529Y1046255D01*
X712496Y1046131D01*
X712459Y1046008D01*
X712418Y1045886D01*
X712374Y1045766D01*
X712326Y1045647D01*
X712274Y1045530D01*
X712219Y1045414D01*
X712160Y1045301D01*
X712097Y1045189D01*
X712031Y1045078D01*
X711962Y1044971D01*
X711890Y1044865D01*
X711814Y1044761D01*
X711735Y1044660D01*
X711653Y1044561D01*
X711568Y1044465D01*
X711481Y1044372D01*
X711390Y1044281D01*
X711297Y1044194D01*
X711201Y1044109D01*
X711102Y1044027D01*
X711001Y1043948D01*
X710897Y1043872D01*
X710791Y1043800D01*
X710684Y1043731D01*
X710574Y1043665D01*
X710461Y1043602D01*
X710348Y1043543D01*
X710232Y1043488D01*
X710115Y1043436D01*
X709996Y1043388D01*
X709876Y1043344D01*
X709754Y1043303D01*
X709631Y1043266D01*
X709507Y1043233D01*
X709383Y1043203D01*
X709257Y1043178D01*
X709131Y1043156D01*
X709004Y1043139D01*
X708876Y1043125D01*
X708748Y1043115D01*
X708620Y1043109D01*
X708492Y1043107D01*
X704329Y1043107D01*
X709324Y1043107D02*
X712654Y1036447D01*
X719613Y1039777D02*
X719613Y1043107D01*
X719615Y1043221D01*
X719621Y1043334D01*
X719630Y1043448D01*
X719644Y1043560D01*
X719661Y1043673D01*
X719683Y1043785D01*
X719708Y1043895D01*
X719736Y1044005D01*
X719769Y1044114D01*
X719805Y1044222D01*
X719845Y1044329D01*
X719889Y1044434D01*
X719936Y1044537D01*
X719986Y1044639D01*
X720040Y1044739D01*
X720098Y1044837D01*
X720159Y1044933D01*
X720222Y1045027D01*
X720290Y1045119D01*
X720360Y1045209D01*
X720433Y1045295D01*
X720509Y1045380D01*
X720588Y1045462D01*
X720670Y1045541D01*
X720755Y1045617D01*
X720841Y1045690D01*
X720931Y1045760D01*
X721023Y1045828D01*
X721117Y1045891D01*
X721213Y1045952D01*
X721311Y1046010D01*
X721411Y1046064D01*
X721513Y1046114D01*
X721616Y1046161D01*
X721721Y1046205D01*
X721828Y1046245D01*
X721936Y1046281D01*
X722045Y1046314D01*
X722155Y1046342D01*
X722265Y1046367D01*
X722377Y1046389D01*
X722490Y1046406D01*
X722602Y1046420D01*
X722716Y1046429D01*
X722829Y1046435D01*
X722943Y1046437D01*
X723057Y1046435D01*
X723170Y1046429D01*
X723284Y1046420D01*
X723396Y1046406D01*
X723509Y1046389D01*
X723621Y1046367D01*
X723731Y1046342D01*
X723841Y1046314D01*
X723950Y1046281D01*
X724058Y1046245D01*
X724165Y1046205D01*
X724270Y1046161D01*
X724373Y1046114D01*
X724475Y1046064D01*
X724575Y1046010D01*
X724673Y1045952D01*
X724769Y1045891D01*
X724863Y1045828D01*
X724955Y1045760D01*
X725045Y1045690D01*
X725131Y1045617D01*
X725216Y1045541D01*
X725298Y1045462D01*
X725377Y1045380D01*
X725453Y1045295D01*
X725526Y1045209D01*
X725596Y1045119D01*
X725664Y1045027D01*
X725727Y1044933D01*
X725788Y1044837D01*
X725846Y1044739D01*
X725900Y1044639D01*
X725950Y1044537D01*
X725997Y1044434D01*
X726041Y1044329D01*
X726081Y1044222D01*
X726117Y1044114D01*
X726150Y1044005D01*
X726178Y1043895D01*
X726203Y1043785D01*
X726225Y1043673D01*
X726242Y1043560D01*
X726256Y1043448D01*
X726265Y1043334D01*
X726271Y1043221D01*
X726273Y1043107D01*
X726273Y1039777D01*
X726271Y1039663D01*
X726265Y1039550D01*
X726256Y1039436D01*
X726242Y1039324D01*
X726225Y1039211D01*
X726203Y1039099D01*
X726178Y1038989D01*
X726150Y1038879D01*
X726117Y1038770D01*
X726081Y1038662D01*
X726041Y1038555D01*
X725997Y1038450D01*
X725950Y1038347D01*
X725900Y1038245D01*
X725846Y1038145D01*
X725788Y1038047D01*
X725727Y1037951D01*
X725664Y1037857D01*
X725596Y1037765D01*
X725526Y1037675D01*
X725453Y1037589D01*
X725377Y1037504D01*
X725298Y1037422D01*
X725216Y1037343D01*
X725131Y1037267D01*
X725045Y1037194D01*
X724955Y1037124D01*
X724863Y1037056D01*
X724769Y1036993D01*
X724673Y1036932D01*
X724575Y1036874D01*
X724475Y1036820D01*
X724373Y1036770D01*
X724270Y1036723D01*
X724165Y1036679D01*
X724058Y1036639D01*
X723950Y1036603D01*
X723841Y1036570D01*
X723731Y1036542D01*
X723621Y1036517D01*
X723509Y1036495D01*
X723396Y1036478D01*
X723284Y1036464D01*
X723170Y1036455D01*
X723057Y1036449D01*
X722943Y1036447D01*
X722829Y1036449D01*
X722716Y1036455D01*
X722602Y1036464D01*
X722490Y1036478D01*
X722377Y1036495D01*
X722265Y1036517D01*
X722155Y1036542D01*
X722045Y1036570D01*
X721936Y1036603D01*
X721828Y1036639D01*
X721721Y1036679D01*
X721616Y1036723D01*
X721513Y1036770D01*
X721411Y1036820D01*
X721311Y1036874D01*
X721213Y1036932D01*
X721117Y1036993D01*
X721023Y1037056D01*
X720931Y1037124D01*
X720841Y1037194D01*
X720755Y1037267D01*
X720670Y1037343D01*
X720588Y1037422D01*
X720509Y1037504D01*
X720433Y1037589D01*
X720360Y1037675D01*
X720290Y1037765D01*
X720222Y1037857D01*
X720159Y1037951D01*
X720098Y1038047D01*
X720040Y1038145D01*
X719986Y1038245D01*
X719936Y1038347D01*
X719889Y1038450D01*
X719845Y1038555D01*
X719805Y1038662D01*
X719769Y1038770D01*
X719736Y1038879D01*
X719708Y1038989D01*
X719683Y1039099D01*
X719661Y1039211D01*
X719644Y1039324D01*
X719630Y1039436D01*
X719621Y1039550D01*
X719615Y1039663D01*
X719613Y1039777D01*
X733681Y1038945D02*
X733681Y1046438D01*
X733680Y1038945D02*
X733682Y1038847D01*
X733688Y1038749D01*
X733697Y1038651D01*
X733711Y1038554D01*
X733728Y1038458D01*
X733749Y1038362D01*
X733774Y1038267D01*
X733802Y1038173D01*
X733834Y1038080D01*
X733870Y1037989D01*
X733909Y1037899D01*
X733952Y1037811D01*
X733999Y1037724D01*
X734048Y1037640D01*
X734101Y1037557D01*
X734157Y1037477D01*
X734216Y1037399D01*
X734279Y1037323D01*
X734344Y1037249D01*
X734412Y1037179D01*
X734482Y1037111D01*
X734556Y1037046D01*
X734632Y1036983D01*
X734710Y1036924D01*
X734790Y1036868D01*
X734873Y1036815D01*
X734957Y1036766D01*
X735044Y1036719D01*
X735132Y1036676D01*
X735222Y1036637D01*
X735313Y1036601D01*
X735406Y1036569D01*
X735500Y1036541D01*
X735595Y1036516D01*
X735691Y1036495D01*
X735787Y1036478D01*
X735884Y1036464D01*
X735982Y1036455D01*
X736080Y1036449D01*
X736178Y1036447D01*
X740341Y1036447D01*
X740341Y1046438D01*
X746322Y1046438D02*
X751317Y1046438D01*
X747987Y1051433D02*
X747987Y1038945D01*
X747989Y1038847D01*
X747995Y1038749D01*
X748004Y1038651D01*
X748018Y1038554D01*
X748035Y1038458D01*
X748056Y1038362D01*
X748081Y1038267D01*
X748109Y1038173D01*
X748141Y1038080D01*
X748177Y1037989D01*
X748216Y1037899D01*
X748259Y1037811D01*
X748306Y1037724D01*
X748355Y1037640D01*
X748408Y1037557D01*
X748464Y1037477D01*
X748523Y1037399D01*
X748586Y1037323D01*
X748651Y1037249D01*
X748719Y1037179D01*
X748789Y1037111D01*
X748863Y1037046D01*
X748939Y1036983D01*
X749017Y1036924D01*
X749097Y1036868D01*
X749180Y1036815D01*
X749264Y1036766D01*
X749351Y1036719D01*
X749439Y1036676D01*
X749529Y1036637D01*
X749620Y1036601D01*
X749713Y1036569D01*
X749807Y1036541D01*
X749902Y1036516D01*
X749998Y1036495D01*
X750094Y1036478D01*
X750191Y1036464D01*
X750289Y1036455D01*
X750387Y1036449D01*
X750485Y1036447D01*
X751317Y1036447D01*
X760146Y1036447D02*
X764309Y1036447D01*
X760146Y1036447D02*
X760048Y1036449D01*
X759950Y1036455D01*
X759852Y1036464D01*
X759755Y1036478D01*
X759659Y1036495D01*
X759563Y1036516D01*
X759468Y1036541D01*
X759374Y1036569D01*
X759281Y1036601D01*
X759190Y1036637D01*
X759100Y1036676D01*
X759012Y1036719D01*
X758925Y1036766D01*
X758841Y1036815D01*
X758758Y1036868D01*
X758678Y1036924D01*
X758600Y1036983D01*
X758524Y1037046D01*
X758450Y1037111D01*
X758380Y1037179D01*
X758312Y1037249D01*
X758247Y1037323D01*
X758184Y1037399D01*
X758125Y1037477D01*
X758069Y1037557D01*
X758016Y1037640D01*
X757967Y1037724D01*
X757920Y1037811D01*
X757877Y1037899D01*
X757838Y1037989D01*
X757802Y1038080D01*
X757770Y1038173D01*
X757742Y1038267D01*
X757717Y1038362D01*
X757696Y1038458D01*
X757679Y1038554D01*
X757665Y1038651D01*
X757656Y1038749D01*
X757650Y1038847D01*
X757648Y1038945D01*
X757649Y1038945D02*
X757649Y1043107D01*
X757651Y1043221D01*
X757657Y1043334D01*
X757666Y1043448D01*
X757680Y1043560D01*
X757697Y1043673D01*
X757719Y1043785D01*
X757744Y1043895D01*
X757772Y1044005D01*
X757805Y1044114D01*
X757841Y1044222D01*
X757881Y1044329D01*
X757925Y1044434D01*
X757972Y1044537D01*
X758022Y1044639D01*
X758076Y1044739D01*
X758134Y1044837D01*
X758195Y1044933D01*
X758258Y1045027D01*
X758326Y1045119D01*
X758396Y1045209D01*
X758469Y1045295D01*
X758545Y1045380D01*
X758624Y1045462D01*
X758706Y1045541D01*
X758791Y1045617D01*
X758877Y1045690D01*
X758967Y1045760D01*
X759059Y1045828D01*
X759153Y1045891D01*
X759249Y1045952D01*
X759347Y1046010D01*
X759447Y1046064D01*
X759549Y1046114D01*
X759652Y1046161D01*
X759757Y1046205D01*
X759864Y1046245D01*
X759972Y1046281D01*
X760081Y1046314D01*
X760191Y1046342D01*
X760301Y1046367D01*
X760413Y1046389D01*
X760526Y1046406D01*
X760638Y1046420D01*
X760752Y1046429D01*
X760865Y1046435D01*
X760979Y1046437D01*
X761093Y1046435D01*
X761206Y1046429D01*
X761320Y1046420D01*
X761432Y1046406D01*
X761545Y1046389D01*
X761657Y1046367D01*
X761767Y1046342D01*
X761877Y1046314D01*
X761986Y1046281D01*
X762094Y1046245D01*
X762201Y1046205D01*
X762306Y1046161D01*
X762409Y1046114D01*
X762511Y1046064D01*
X762611Y1046010D01*
X762709Y1045952D01*
X762805Y1045891D01*
X762899Y1045828D01*
X762991Y1045760D01*
X763081Y1045690D01*
X763167Y1045617D01*
X763252Y1045541D01*
X763334Y1045462D01*
X763413Y1045380D01*
X763489Y1045295D01*
X763562Y1045209D01*
X763632Y1045119D01*
X763700Y1045027D01*
X763763Y1044933D01*
X763824Y1044837D01*
X763882Y1044739D01*
X763936Y1044639D01*
X763986Y1044537D01*
X764033Y1044434D01*
X764077Y1044329D01*
X764117Y1044222D01*
X764153Y1044114D01*
X764186Y1044005D01*
X764214Y1043895D01*
X764239Y1043785D01*
X764261Y1043673D01*
X764278Y1043560D01*
X764292Y1043448D01*
X764301Y1043334D01*
X764307Y1043221D01*
X764309Y1043107D01*
X764309Y1041442D01*
X757649Y1041442D01*
X779742Y1040610D02*
X779742Y1047270D01*
X779744Y1047398D01*
X779750Y1047526D01*
X779760Y1047654D01*
X779774Y1047782D01*
X779791Y1047909D01*
X779813Y1048035D01*
X779838Y1048161D01*
X779868Y1048285D01*
X779901Y1048409D01*
X779938Y1048532D01*
X779979Y1048654D01*
X780023Y1048774D01*
X780071Y1048893D01*
X780123Y1049010D01*
X780178Y1049126D01*
X780237Y1049239D01*
X780300Y1049352D01*
X780366Y1049462D01*
X780435Y1049569D01*
X780507Y1049675D01*
X780583Y1049779D01*
X780662Y1049880D01*
X780744Y1049979D01*
X780829Y1050075D01*
X780916Y1050168D01*
X781007Y1050259D01*
X781100Y1050346D01*
X781196Y1050431D01*
X781295Y1050513D01*
X781396Y1050592D01*
X781500Y1050668D01*
X781606Y1050740D01*
X781713Y1050809D01*
X781824Y1050875D01*
X781936Y1050938D01*
X782049Y1050997D01*
X782165Y1051052D01*
X782282Y1051104D01*
X782401Y1051152D01*
X782521Y1051196D01*
X782643Y1051237D01*
X782766Y1051274D01*
X782890Y1051307D01*
X783014Y1051337D01*
X783140Y1051362D01*
X783266Y1051384D01*
X783393Y1051401D01*
X783521Y1051415D01*
X783649Y1051425D01*
X783777Y1051431D01*
X783905Y1051433D01*
X784033Y1051431D01*
X784161Y1051425D01*
X784289Y1051415D01*
X784417Y1051401D01*
X784544Y1051384D01*
X784670Y1051362D01*
X784796Y1051337D01*
X784920Y1051307D01*
X785044Y1051274D01*
X785167Y1051237D01*
X785289Y1051196D01*
X785409Y1051152D01*
X785528Y1051104D01*
X785645Y1051052D01*
X785761Y1050997D01*
X785874Y1050938D01*
X785987Y1050875D01*
X786097Y1050809D01*
X786204Y1050740D01*
X786310Y1050668D01*
X786414Y1050592D01*
X786515Y1050513D01*
X786614Y1050431D01*
X786710Y1050346D01*
X786803Y1050259D01*
X786894Y1050168D01*
X786981Y1050075D01*
X787066Y1049979D01*
X787148Y1049880D01*
X787227Y1049779D01*
X787303Y1049675D01*
X787375Y1049569D01*
X787444Y1049462D01*
X787510Y1049352D01*
X787573Y1049239D01*
X787632Y1049126D01*
X787687Y1049010D01*
X787739Y1048893D01*
X787787Y1048774D01*
X787831Y1048654D01*
X787872Y1048532D01*
X787909Y1048409D01*
X787942Y1048285D01*
X787972Y1048161D01*
X787997Y1048035D01*
X788019Y1047909D01*
X788036Y1047782D01*
X788050Y1047654D01*
X788060Y1047526D01*
X788066Y1047398D01*
X788068Y1047270D01*
X788067Y1047270D02*
X788067Y1040610D01*
X788068Y1040610D02*
X788066Y1040482D01*
X788060Y1040354D01*
X788050Y1040226D01*
X788036Y1040098D01*
X788019Y1039971D01*
X787997Y1039845D01*
X787972Y1039719D01*
X787942Y1039595D01*
X787909Y1039471D01*
X787872Y1039348D01*
X787831Y1039226D01*
X787787Y1039106D01*
X787739Y1038987D01*
X787687Y1038870D01*
X787632Y1038754D01*
X787573Y1038641D01*
X787510Y1038529D01*
X787444Y1038418D01*
X787375Y1038311D01*
X787303Y1038205D01*
X787227Y1038101D01*
X787148Y1038000D01*
X787066Y1037901D01*
X786981Y1037805D01*
X786894Y1037712D01*
X786803Y1037621D01*
X786710Y1037534D01*
X786614Y1037449D01*
X786515Y1037367D01*
X786414Y1037288D01*
X786310Y1037212D01*
X786204Y1037140D01*
X786097Y1037071D01*
X785987Y1037005D01*
X785874Y1036942D01*
X785761Y1036883D01*
X785645Y1036828D01*
X785528Y1036776D01*
X785409Y1036728D01*
X785289Y1036684D01*
X785167Y1036643D01*
X785044Y1036606D01*
X784920Y1036573D01*
X784796Y1036543D01*
X784670Y1036518D01*
X784544Y1036496D01*
X784417Y1036479D01*
X784289Y1036465D01*
X784161Y1036455D01*
X784033Y1036449D01*
X783905Y1036447D01*
X783777Y1036449D01*
X783649Y1036455D01*
X783521Y1036465D01*
X783393Y1036479D01*
X783266Y1036496D01*
X783140Y1036518D01*
X783014Y1036543D01*
X782890Y1036573D01*
X782766Y1036606D01*
X782643Y1036643D01*
X782521Y1036684D01*
X782401Y1036728D01*
X782282Y1036776D01*
X782165Y1036828D01*
X782049Y1036883D01*
X781936Y1036942D01*
X781824Y1037005D01*
X781713Y1037071D01*
X781606Y1037140D01*
X781500Y1037212D01*
X781396Y1037288D01*
X781295Y1037367D01*
X781196Y1037449D01*
X781100Y1037534D01*
X781007Y1037621D01*
X780916Y1037712D01*
X780829Y1037805D01*
X780744Y1037901D01*
X780662Y1038000D01*
X780583Y1038101D01*
X780507Y1038205D01*
X780435Y1038311D01*
X780366Y1038418D01*
X780300Y1038529D01*
X780237Y1038641D01*
X780178Y1038754D01*
X780123Y1038870D01*
X780071Y1038987D01*
X780023Y1039106D01*
X779979Y1039226D01*
X779938Y1039348D01*
X779901Y1039471D01*
X779868Y1039595D01*
X779838Y1039719D01*
X779813Y1039845D01*
X779791Y1039971D01*
X779774Y1040098D01*
X779760Y1040226D01*
X779750Y1040354D01*
X779744Y1040482D01*
X779742Y1040610D01*
X795684Y1038945D02*
X795684Y1046438D01*
X795684Y1038945D02*
X795686Y1038847D01*
X795692Y1038749D01*
X795701Y1038651D01*
X795715Y1038554D01*
X795732Y1038458D01*
X795753Y1038362D01*
X795778Y1038267D01*
X795806Y1038173D01*
X795838Y1038080D01*
X795874Y1037989D01*
X795913Y1037899D01*
X795956Y1037811D01*
X796003Y1037724D01*
X796052Y1037640D01*
X796105Y1037557D01*
X796161Y1037477D01*
X796220Y1037399D01*
X796283Y1037323D01*
X796348Y1037249D01*
X796416Y1037179D01*
X796486Y1037111D01*
X796560Y1037046D01*
X796636Y1036983D01*
X796714Y1036924D01*
X796794Y1036868D01*
X796877Y1036815D01*
X796961Y1036766D01*
X797048Y1036719D01*
X797136Y1036676D01*
X797226Y1036637D01*
X797317Y1036601D01*
X797410Y1036569D01*
X797504Y1036541D01*
X797599Y1036516D01*
X797695Y1036495D01*
X797791Y1036478D01*
X797888Y1036464D01*
X797986Y1036455D01*
X798084Y1036449D01*
X798182Y1036447D01*
X802345Y1036447D01*
X802345Y1046438D01*
X808326Y1046438D02*
X813321Y1046438D01*
X809991Y1051433D02*
X809991Y1038945D01*
X809993Y1038847D01*
X809999Y1038749D01*
X810008Y1038651D01*
X810022Y1038554D01*
X810039Y1038458D01*
X810060Y1038362D01*
X810085Y1038267D01*
X810113Y1038173D01*
X810145Y1038080D01*
X810181Y1037989D01*
X810220Y1037899D01*
X810263Y1037811D01*
X810310Y1037724D01*
X810359Y1037640D01*
X810412Y1037557D01*
X810468Y1037477D01*
X810527Y1037399D01*
X810590Y1037323D01*
X810655Y1037249D01*
X810723Y1037179D01*
X810793Y1037111D01*
X810867Y1037046D01*
X810943Y1036983D01*
X811021Y1036924D01*
X811101Y1036868D01*
X811184Y1036815D01*
X811268Y1036766D01*
X811355Y1036719D01*
X811443Y1036676D01*
X811533Y1036637D01*
X811624Y1036601D01*
X811717Y1036569D01*
X811811Y1036541D01*
X811906Y1036516D01*
X812002Y1036495D01*
X812098Y1036478D01*
X812195Y1036464D01*
X812293Y1036455D01*
X812391Y1036449D01*
X812489Y1036447D01*
X813321Y1036447D01*
D13*
X-2540Y1191260D02*
X-2540Y-119380D01*
D12*
X-42921Y1206627D02*
X-46251Y1216618D01*
X-39590Y1216618D02*
X-42921Y1206627D01*
X-32806Y1212455D02*
X-22815Y1212455D01*
X-14261Y1212455D02*
X-10098Y1210790D01*
X-14261Y1212454D02*
X-14346Y1212490D01*
X-14429Y1212530D01*
X-14510Y1212573D01*
X-14590Y1212620D01*
X-14667Y1212670D01*
X-14743Y1212723D01*
X-14816Y1212779D01*
X-14886Y1212839D01*
X-14954Y1212901D01*
X-15019Y1212966D01*
X-15081Y1213034D01*
X-15141Y1213105D01*
X-15197Y1213178D01*
X-15250Y1213253D01*
X-15300Y1213331D01*
X-15346Y1213410D01*
X-15389Y1213492D01*
X-15429Y1213575D01*
X-15465Y1213660D01*
X-15497Y1213746D01*
X-15526Y1213834D01*
X-15550Y1213923D01*
X-15571Y1214013D01*
X-15588Y1214103D01*
X-15602Y1214194D01*
X-15611Y1214286D01*
X-15616Y1214378D01*
X-15618Y1214470D01*
X-15616Y1214562D01*
X-15609Y1214654D01*
X-15599Y1214746D01*
X-15585Y1214837D01*
X-15567Y1214928D01*
X-15545Y1215017D01*
X-15519Y1215106D01*
X-15489Y1215193D01*
X-15456Y1215279D01*
X-15419Y1215363D01*
X-15379Y1215446D01*
X-15335Y1215527D01*
X-15288Y1215606D01*
X-15237Y1215683D01*
X-15183Y1215758D01*
X-15126Y1215831D01*
X-15066Y1215901D01*
X-15003Y1215968D01*
X-14937Y1216032D01*
X-14869Y1216094D01*
X-14798Y1216153D01*
X-14724Y1216208D01*
X-14648Y1216261D01*
X-14570Y1216310D01*
X-14490Y1216356D01*
X-14409Y1216398D01*
X-14325Y1216437D01*
X-14240Y1216472D01*
X-14153Y1216503D01*
X-14065Y1216531D01*
X-13976Y1216555D01*
X-13886Y1216575D01*
X-13796Y1216592D01*
X-13704Y1216604D01*
X-13612Y1216613D01*
X-13520Y1216617D01*
X-13428Y1216618D01*
X-13201Y1216612D01*
X-12974Y1216601D01*
X-12747Y1216584D01*
X-12521Y1216561D01*
X-12295Y1216534D01*
X-12070Y1216500D01*
X-11846Y1216462D01*
X-11623Y1216418D01*
X-11401Y1216369D01*
X-11180Y1216314D01*
X-10961Y1216254D01*
X-10743Y1216189D01*
X-10527Y1216118D01*
X-10313Y1216043D01*
X-10100Y1215962D01*
X-9890Y1215876D01*
X-9681Y1215785D01*
X-10098Y1210790D02*
X-10013Y1210754D01*
X-9930Y1210714D01*
X-9849Y1210671D01*
X-9769Y1210624D01*
X-9692Y1210574D01*
X-9616Y1210521D01*
X-9543Y1210465D01*
X-9473Y1210405D01*
X-9405Y1210343D01*
X-9340Y1210278D01*
X-9278Y1210210D01*
X-9218Y1210139D01*
X-9162Y1210066D01*
X-9109Y1209991D01*
X-9059Y1209913D01*
X-9013Y1209834D01*
X-8970Y1209752D01*
X-8930Y1209669D01*
X-8894Y1209584D01*
X-8862Y1209498D01*
X-8833Y1209410D01*
X-8809Y1209321D01*
X-8788Y1209231D01*
X-8771Y1209141D01*
X-8757Y1209050D01*
X-8748Y1208958D01*
X-8743Y1208866D01*
X-8741Y1208774D01*
X-8743Y1208682D01*
X-8750Y1208590D01*
X-8760Y1208498D01*
X-8774Y1208407D01*
X-8792Y1208316D01*
X-8814Y1208227D01*
X-8840Y1208138D01*
X-8870Y1208051D01*
X-8903Y1207965D01*
X-8940Y1207881D01*
X-8980Y1207798D01*
X-9024Y1207717D01*
X-9071Y1207638D01*
X-9122Y1207561D01*
X-9176Y1207486D01*
X-9233Y1207413D01*
X-9293Y1207343D01*
X-9356Y1207276D01*
X-9422Y1207212D01*
X-9490Y1207150D01*
X-9561Y1207091D01*
X-9635Y1207036D01*
X-9711Y1206983D01*
X-9789Y1206934D01*
X-9869Y1206888D01*
X-9950Y1206846D01*
X-10034Y1206807D01*
X-10119Y1206772D01*
X-10206Y1206741D01*
X-10294Y1206713D01*
X-10383Y1206689D01*
X-10473Y1206669D01*
X-10563Y1206652D01*
X-10655Y1206640D01*
X-10747Y1206631D01*
X-10839Y1206627D01*
X-10931Y1206626D01*
X-10931Y1206627D02*
X-11265Y1206636D01*
X-11598Y1206653D01*
X-11931Y1206677D01*
X-12264Y1206710D01*
X-12595Y1206750D01*
X-12926Y1206798D01*
X-13255Y1206854D01*
X-13583Y1206917D01*
X-13909Y1206989D01*
X-14233Y1207068D01*
X-14556Y1207154D01*
X-14876Y1207249D01*
X-15194Y1207351D01*
X-15510Y1207460D01*
X562Y1206627D02*
X3892Y1206627D01*
X562Y1206627D02*
X464Y1206629D01*
X366Y1206635D01*
X268Y1206644D01*
X171Y1206658D01*
X75Y1206675D01*
X-21Y1206696D01*
X-116Y1206721D01*
X-210Y1206749D01*
X-303Y1206781D01*
X-394Y1206817D01*
X-484Y1206856D01*
X-572Y1206899D01*
X-659Y1206946D01*
X-743Y1206995D01*
X-826Y1207048D01*
X-906Y1207104D01*
X-985Y1207163D01*
X-1060Y1207226D01*
X-1134Y1207291D01*
X-1204Y1207359D01*
X-1272Y1207429D01*
X-1338Y1207503D01*
X-1400Y1207579D01*
X-1459Y1207657D01*
X-1515Y1207737D01*
X-1568Y1207820D01*
X-1618Y1207904D01*
X-1664Y1207991D01*
X-1707Y1208079D01*
X-1746Y1208169D01*
X-1782Y1208260D01*
X-1814Y1208353D01*
X-1842Y1208447D01*
X-1867Y1208542D01*
X-1888Y1208638D01*
X-1905Y1208734D01*
X-1919Y1208831D01*
X-1928Y1208929D01*
X-1934Y1209027D01*
X-1936Y1209125D01*
X-1936Y1214120D01*
X-1934Y1214218D01*
X-1928Y1214316D01*
X-1919Y1214414D01*
X-1905Y1214511D01*
X-1888Y1214607D01*
X-1867Y1214703D01*
X-1842Y1214798D01*
X-1814Y1214892D01*
X-1782Y1214985D01*
X-1746Y1215076D01*
X-1707Y1215166D01*
X-1664Y1215254D01*
X-1617Y1215341D01*
X-1568Y1215425D01*
X-1515Y1215508D01*
X-1459Y1215588D01*
X-1400Y1215666D01*
X-1337Y1215742D01*
X-1272Y1215816D01*
X-1204Y1215886D01*
X-1134Y1215954D01*
X-1060Y1216019D01*
X-984Y1216082D01*
X-906Y1216141D01*
X-826Y1216197D01*
X-743Y1216250D01*
X-659Y1216299D01*
X-572Y1216346D01*
X-484Y1216389D01*
X-394Y1216428D01*
X-303Y1216464D01*
X-210Y1216496D01*
X-116Y1216524D01*
X-21Y1216549D01*
X75Y1216570D01*
X171Y1216587D01*
X268Y1216601D01*
X366Y1216610D01*
X464Y1216616D01*
X562Y1216618D01*
X3892Y1216618D01*
X10022Y1213287D02*
X10022Y1209957D01*
X10022Y1213287D02*
X10024Y1213401D01*
X10030Y1213514D01*
X10039Y1213628D01*
X10053Y1213740D01*
X10070Y1213853D01*
X10092Y1213965D01*
X10117Y1214075D01*
X10145Y1214185D01*
X10178Y1214294D01*
X10214Y1214402D01*
X10254Y1214509D01*
X10298Y1214614D01*
X10345Y1214717D01*
X10395Y1214819D01*
X10449Y1214919D01*
X10507Y1215017D01*
X10568Y1215113D01*
X10631Y1215207D01*
X10699Y1215299D01*
X10769Y1215389D01*
X10842Y1215475D01*
X10918Y1215560D01*
X10997Y1215642D01*
X11079Y1215721D01*
X11164Y1215797D01*
X11250Y1215870D01*
X11340Y1215940D01*
X11432Y1216008D01*
X11526Y1216071D01*
X11622Y1216132D01*
X11720Y1216190D01*
X11820Y1216244D01*
X11922Y1216294D01*
X12025Y1216341D01*
X12130Y1216385D01*
X12237Y1216425D01*
X12345Y1216461D01*
X12454Y1216494D01*
X12564Y1216522D01*
X12674Y1216547D01*
X12786Y1216569D01*
X12899Y1216586D01*
X13011Y1216600D01*
X13125Y1216609D01*
X13238Y1216615D01*
X13352Y1216617D01*
X13466Y1216615D01*
X13579Y1216609D01*
X13693Y1216600D01*
X13805Y1216586D01*
X13918Y1216569D01*
X14030Y1216547D01*
X14140Y1216522D01*
X14250Y1216494D01*
X14359Y1216461D01*
X14467Y1216425D01*
X14574Y1216385D01*
X14679Y1216341D01*
X14782Y1216294D01*
X14884Y1216244D01*
X14984Y1216190D01*
X15082Y1216132D01*
X15178Y1216071D01*
X15272Y1216008D01*
X15364Y1215940D01*
X15454Y1215870D01*
X15540Y1215797D01*
X15625Y1215721D01*
X15707Y1215642D01*
X15786Y1215560D01*
X15862Y1215475D01*
X15935Y1215389D01*
X16005Y1215299D01*
X16073Y1215207D01*
X16136Y1215113D01*
X16197Y1215017D01*
X16255Y1214919D01*
X16309Y1214819D01*
X16359Y1214717D01*
X16406Y1214614D01*
X16450Y1214509D01*
X16490Y1214402D01*
X16526Y1214294D01*
X16559Y1214185D01*
X16587Y1214075D01*
X16612Y1213965D01*
X16634Y1213853D01*
X16651Y1213740D01*
X16665Y1213628D01*
X16674Y1213514D01*
X16680Y1213401D01*
X16682Y1213287D01*
X16682Y1209957D01*
X16680Y1209843D01*
X16674Y1209730D01*
X16665Y1209616D01*
X16651Y1209504D01*
X16634Y1209391D01*
X16612Y1209279D01*
X16587Y1209169D01*
X16559Y1209059D01*
X16526Y1208950D01*
X16490Y1208842D01*
X16450Y1208735D01*
X16406Y1208630D01*
X16359Y1208527D01*
X16309Y1208425D01*
X16255Y1208325D01*
X16197Y1208227D01*
X16136Y1208131D01*
X16073Y1208037D01*
X16005Y1207945D01*
X15935Y1207855D01*
X15862Y1207769D01*
X15786Y1207684D01*
X15707Y1207602D01*
X15625Y1207523D01*
X15540Y1207447D01*
X15454Y1207374D01*
X15364Y1207304D01*
X15272Y1207236D01*
X15178Y1207173D01*
X15082Y1207112D01*
X14984Y1207054D01*
X14884Y1207000D01*
X14782Y1206950D01*
X14679Y1206903D01*
X14574Y1206859D01*
X14467Y1206819D01*
X14359Y1206783D01*
X14250Y1206750D01*
X14140Y1206722D01*
X14030Y1206697D01*
X13918Y1206675D01*
X13805Y1206658D01*
X13693Y1206644D01*
X13579Y1206635D01*
X13466Y1206629D01*
X13352Y1206627D01*
X13238Y1206629D01*
X13125Y1206635D01*
X13011Y1206644D01*
X12899Y1206658D01*
X12786Y1206675D01*
X12674Y1206697D01*
X12564Y1206722D01*
X12454Y1206750D01*
X12345Y1206783D01*
X12237Y1206819D01*
X12130Y1206859D01*
X12025Y1206903D01*
X11922Y1206950D01*
X11820Y1207000D01*
X11720Y1207054D01*
X11622Y1207112D01*
X11526Y1207173D01*
X11432Y1207236D01*
X11340Y1207304D01*
X11250Y1207374D01*
X11164Y1207447D01*
X11079Y1207523D01*
X10997Y1207602D01*
X10918Y1207684D01*
X10842Y1207769D01*
X10769Y1207855D01*
X10699Y1207945D01*
X10631Y1208037D01*
X10568Y1208131D01*
X10507Y1208227D01*
X10449Y1208325D01*
X10395Y1208425D01*
X10345Y1208527D01*
X10298Y1208630D01*
X10254Y1208735D01*
X10214Y1208842D01*
X10178Y1208950D01*
X10145Y1209059D01*
X10117Y1209169D01*
X10092Y1209279D01*
X10070Y1209391D01*
X10053Y1209504D01*
X10039Y1209616D01*
X10030Y1209730D01*
X10024Y1209843D01*
X10022Y1209957D01*
X24218Y1206627D02*
X24218Y1216618D01*
X29213Y1216618D01*
X29213Y1214953D01*
X37008Y1206627D02*
X41171Y1206627D01*
X37008Y1206627D02*
X36910Y1206629D01*
X36812Y1206635D01*
X36714Y1206644D01*
X36617Y1206658D01*
X36521Y1206675D01*
X36425Y1206696D01*
X36330Y1206721D01*
X36236Y1206749D01*
X36143Y1206781D01*
X36052Y1206817D01*
X35962Y1206856D01*
X35874Y1206899D01*
X35787Y1206946D01*
X35703Y1206995D01*
X35620Y1207048D01*
X35540Y1207104D01*
X35462Y1207163D01*
X35386Y1207226D01*
X35312Y1207291D01*
X35242Y1207359D01*
X35174Y1207429D01*
X35109Y1207503D01*
X35046Y1207579D01*
X34987Y1207657D01*
X34931Y1207737D01*
X34878Y1207820D01*
X34829Y1207904D01*
X34782Y1207991D01*
X34739Y1208079D01*
X34700Y1208169D01*
X34664Y1208260D01*
X34632Y1208353D01*
X34604Y1208447D01*
X34579Y1208542D01*
X34558Y1208638D01*
X34541Y1208734D01*
X34527Y1208831D01*
X34518Y1208929D01*
X34512Y1209027D01*
X34510Y1209125D01*
X34510Y1213287D01*
X34511Y1213287D02*
X34513Y1213401D01*
X34519Y1213514D01*
X34528Y1213628D01*
X34542Y1213740D01*
X34559Y1213853D01*
X34581Y1213965D01*
X34606Y1214075D01*
X34634Y1214185D01*
X34667Y1214294D01*
X34703Y1214402D01*
X34743Y1214509D01*
X34787Y1214614D01*
X34834Y1214717D01*
X34884Y1214819D01*
X34938Y1214919D01*
X34996Y1215017D01*
X35057Y1215113D01*
X35120Y1215207D01*
X35188Y1215299D01*
X35258Y1215389D01*
X35331Y1215475D01*
X35407Y1215560D01*
X35486Y1215642D01*
X35568Y1215721D01*
X35653Y1215797D01*
X35739Y1215870D01*
X35829Y1215940D01*
X35921Y1216008D01*
X36015Y1216071D01*
X36111Y1216132D01*
X36209Y1216190D01*
X36309Y1216244D01*
X36411Y1216294D01*
X36514Y1216341D01*
X36619Y1216385D01*
X36726Y1216425D01*
X36834Y1216461D01*
X36943Y1216494D01*
X37053Y1216522D01*
X37163Y1216547D01*
X37275Y1216569D01*
X37388Y1216586D01*
X37500Y1216600D01*
X37614Y1216609D01*
X37727Y1216615D01*
X37841Y1216617D01*
X37955Y1216615D01*
X38068Y1216609D01*
X38182Y1216600D01*
X38294Y1216586D01*
X38407Y1216569D01*
X38519Y1216547D01*
X38629Y1216522D01*
X38739Y1216494D01*
X38848Y1216461D01*
X38956Y1216425D01*
X39063Y1216385D01*
X39168Y1216341D01*
X39271Y1216294D01*
X39373Y1216244D01*
X39473Y1216190D01*
X39571Y1216132D01*
X39667Y1216071D01*
X39761Y1216008D01*
X39853Y1215940D01*
X39943Y1215870D01*
X40029Y1215797D01*
X40114Y1215721D01*
X40196Y1215642D01*
X40275Y1215560D01*
X40351Y1215475D01*
X40424Y1215389D01*
X40494Y1215299D01*
X40562Y1215207D01*
X40625Y1215113D01*
X40686Y1215017D01*
X40744Y1214919D01*
X40798Y1214819D01*
X40848Y1214717D01*
X40895Y1214614D01*
X40939Y1214509D01*
X40979Y1214402D01*
X41015Y1214294D01*
X41048Y1214185D01*
X41076Y1214075D01*
X41101Y1213965D01*
X41123Y1213853D01*
X41140Y1213740D01*
X41154Y1213628D01*
X41163Y1213514D01*
X41169Y1213401D01*
X41171Y1213287D01*
X41171Y1211622D01*
X34510Y1211622D01*
D13*
X1520190Y1191260D02*
X1520190Y-119380D01*
D12*
X1479809Y1206627D02*
X1476479Y1216618D01*
X1483140Y1216618D02*
X1479809Y1206627D01*
X1489924Y1212455D02*
X1499915Y1212455D01*
X1508469Y1212455D02*
X1512632Y1210790D01*
X1508469Y1212454D02*
X1508384Y1212490D01*
X1508301Y1212530D01*
X1508220Y1212573D01*
X1508140Y1212620D01*
X1508063Y1212670D01*
X1507987Y1212723D01*
X1507914Y1212779D01*
X1507844Y1212839D01*
X1507776Y1212901D01*
X1507711Y1212966D01*
X1507649Y1213034D01*
X1507589Y1213105D01*
X1507533Y1213178D01*
X1507480Y1213253D01*
X1507430Y1213331D01*
X1507384Y1213410D01*
X1507341Y1213492D01*
X1507301Y1213575D01*
X1507265Y1213660D01*
X1507233Y1213746D01*
X1507204Y1213834D01*
X1507180Y1213923D01*
X1507159Y1214013D01*
X1507142Y1214103D01*
X1507128Y1214194D01*
X1507119Y1214286D01*
X1507114Y1214378D01*
X1507112Y1214470D01*
X1507114Y1214562D01*
X1507121Y1214654D01*
X1507131Y1214746D01*
X1507145Y1214837D01*
X1507163Y1214928D01*
X1507185Y1215017D01*
X1507211Y1215106D01*
X1507241Y1215193D01*
X1507274Y1215279D01*
X1507311Y1215363D01*
X1507351Y1215446D01*
X1507395Y1215527D01*
X1507442Y1215606D01*
X1507493Y1215683D01*
X1507547Y1215758D01*
X1507604Y1215831D01*
X1507664Y1215901D01*
X1507727Y1215968D01*
X1507793Y1216032D01*
X1507861Y1216094D01*
X1507932Y1216153D01*
X1508006Y1216208D01*
X1508082Y1216261D01*
X1508160Y1216310D01*
X1508240Y1216356D01*
X1508321Y1216398D01*
X1508405Y1216437D01*
X1508490Y1216472D01*
X1508577Y1216503D01*
X1508665Y1216531D01*
X1508754Y1216555D01*
X1508844Y1216575D01*
X1508934Y1216592D01*
X1509026Y1216604D01*
X1509118Y1216613D01*
X1509210Y1216617D01*
X1509302Y1216618D01*
X1509529Y1216612D01*
X1509756Y1216601D01*
X1509983Y1216584D01*
X1510209Y1216561D01*
X1510435Y1216534D01*
X1510660Y1216500D01*
X1510884Y1216462D01*
X1511107Y1216418D01*
X1511329Y1216369D01*
X1511550Y1216314D01*
X1511769Y1216254D01*
X1511987Y1216189D01*
X1512203Y1216118D01*
X1512417Y1216043D01*
X1512630Y1215962D01*
X1512840Y1215876D01*
X1513049Y1215785D01*
X1512632Y1210790D02*
X1512717Y1210754D01*
X1512800Y1210714D01*
X1512881Y1210671D01*
X1512961Y1210624D01*
X1513038Y1210574D01*
X1513114Y1210521D01*
X1513187Y1210465D01*
X1513257Y1210405D01*
X1513325Y1210343D01*
X1513390Y1210278D01*
X1513452Y1210210D01*
X1513512Y1210139D01*
X1513568Y1210066D01*
X1513621Y1209991D01*
X1513671Y1209913D01*
X1513717Y1209834D01*
X1513760Y1209752D01*
X1513800Y1209669D01*
X1513836Y1209584D01*
X1513868Y1209498D01*
X1513897Y1209410D01*
X1513921Y1209321D01*
X1513942Y1209231D01*
X1513959Y1209141D01*
X1513973Y1209050D01*
X1513982Y1208958D01*
X1513987Y1208866D01*
X1513989Y1208774D01*
X1513987Y1208682D01*
X1513980Y1208590D01*
X1513970Y1208498D01*
X1513956Y1208407D01*
X1513938Y1208316D01*
X1513916Y1208227D01*
X1513890Y1208138D01*
X1513860Y1208051D01*
X1513827Y1207965D01*
X1513790Y1207881D01*
X1513750Y1207798D01*
X1513706Y1207717D01*
X1513659Y1207638D01*
X1513608Y1207561D01*
X1513554Y1207486D01*
X1513497Y1207413D01*
X1513437Y1207343D01*
X1513374Y1207276D01*
X1513308Y1207212D01*
X1513240Y1207150D01*
X1513169Y1207091D01*
X1513095Y1207036D01*
X1513019Y1206983D01*
X1512941Y1206934D01*
X1512861Y1206888D01*
X1512780Y1206846D01*
X1512696Y1206807D01*
X1512611Y1206772D01*
X1512524Y1206741D01*
X1512436Y1206713D01*
X1512347Y1206689D01*
X1512257Y1206669D01*
X1512167Y1206652D01*
X1512075Y1206640D01*
X1511983Y1206631D01*
X1511891Y1206627D01*
X1511799Y1206626D01*
X1511799Y1206627D02*
X1511465Y1206636D01*
X1511132Y1206653D01*
X1510799Y1206677D01*
X1510466Y1206710D01*
X1510135Y1206750D01*
X1509804Y1206798D01*
X1509475Y1206854D01*
X1509147Y1206917D01*
X1508821Y1206989D01*
X1508497Y1207068D01*
X1508174Y1207154D01*
X1507854Y1207249D01*
X1507536Y1207351D01*
X1507220Y1207460D01*
X1523292Y1206627D02*
X1526622Y1206627D01*
X1523292Y1206627D02*
X1523194Y1206629D01*
X1523096Y1206635D01*
X1522998Y1206644D01*
X1522901Y1206658D01*
X1522805Y1206675D01*
X1522709Y1206696D01*
X1522614Y1206721D01*
X1522520Y1206749D01*
X1522427Y1206781D01*
X1522336Y1206817D01*
X1522246Y1206856D01*
X1522158Y1206899D01*
X1522071Y1206946D01*
X1521987Y1206995D01*
X1521904Y1207048D01*
X1521824Y1207104D01*
X1521746Y1207163D01*
X1521670Y1207226D01*
X1521596Y1207291D01*
X1521526Y1207359D01*
X1521458Y1207429D01*
X1521393Y1207503D01*
X1521330Y1207579D01*
X1521271Y1207657D01*
X1521215Y1207737D01*
X1521162Y1207820D01*
X1521113Y1207904D01*
X1521066Y1207991D01*
X1521023Y1208079D01*
X1520984Y1208169D01*
X1520948Y1208260D01*
X1520916Y1208353D01*
X1520888Y1208447D01*
X1520863Y1208542D01*
X1520842Y1208638D01*
X1520825Y1208734D01*
X1520811Y1208831D01*
X1520802Y1208929D01*
X1520796Y1209027D01*
X1520794Y1209125D01*
X1520794Y1214120D01*
X1520796Y1214218D01*
X1520802Y1214316D01*
X1520811Y1214414D01*
X1520825Y1214511D01*
X1520842Y1214607D01*
X1520863Y1214703D01*
X1520888Y1214798D01*
X1520916Y1214892D01*
X1520948Y1214985D01*
X1520984Y1215076D01*
X1521023Y1215166D01*
X1521066Y1215254D01*
X1521113Y1215341D01*
X1521162Y1215425D01*
X1521215Y1215508D01*
X1521271Y1215588D01*
X1521330Y1215667D01*
X1521393Y1215742D01*
X1521458Y1215816D01*
X1521526Y1215886D01*
X1521596Y1215954D01*
X1521670Y1216020D01*
X1521746Y1216082D01*
X1521824Y1216141D01*
X1521904Y1216197D01*
X1521987Y1216250D01*
X1522071Y1216300D01*
X1522158Y1216346D01*
X1522246Y1216389D01*
X1522336Y1216428D01*
X1522427Y1216464D01*
X1522520Y1216496D01*
X1522614Y1216524D01*
X1522709Y1216549D01*
X1522805Y1216570D01*
X1522901Y1216587D01*
X1522998Y1216601D01*
X1523096Y1216610D01*
X1523194Y1216616D01*
X1523292Y1216618D01*
X1526622Y1216618D01*
X1532752Y1213287D02*
X1532752Y1209957D01*
X1532752Y1213287D02*
X1532754Y1213401D01*
X1532760Y1213514D01*
X1532769Y1213628D01*
X1532783Y1213740D01*
X1532800Y1213853D01*
X1532822Y1213965D01*
X1532847Y1214075D01*
X1532875Y1214185D01*
X1532908Y1214294D01*
X1532944Y1214402D01*
X1532984Y1214509D01*
X1533028Y1214614D01*
X1533075Y1214717D01*
X1533125Y1214819D01*
X1533179Y1214919D01*
X1533237Y1215017D01*
X1533298Y1215113D01*
X1533361Y1215207D01*
X1533429Y1215299D01*
X1533499Y1215389D01*
X1533572Y1215475D01*
X1533648Y1215560D01*
X1533727Y1215642D01*
X1533809Y1215721D01*
X1533894Y1215797D01*
X1533980Y1215870D01*
X1534070Y1215940D01*
X1534162Y1216008D01*
X1534256Y1216071D01*
X1534352Y1216132D01*
X1534450Y1216190D01*
X1534550Y1216244D01*
X1534652Y1216294D01*
X1534755Y1216341D01*
X1534860Y1216385D01*
X1534967Y1216425D01*
X1535075Y1216461D01*
X1535184Y1216494D01*
X1535294Y1216522D01*
X1535404Y1216547D01*
X1535516Y1216569D01*
X1535629Y1216586D01*
X1535741Y1216600D01*
X1535855Y1216609D01*
X1535968Y1216615D01*
X1536082Y1216617D01*
X1536196Y1216615D01*
X1536309Y1216609D01*
X1536423Y1216600D01*
X1536535Y1216586D01*
X1536648Y1216569D01*
X1536760Y1216547D01*
X1536870Y1216522D01*
X1536980Y1216494D01*
X1537089Y1216461D01*
X1537197Y1216425D01*
X1537304Y1216385D01*
X1537409Y1216341D01*
X1537512Y1216294D01*
X1537614Y1216244D01*
X1537714Y1216190D01*
X1537812Y1216132D01*
X1537908Y1216071D01*
X1538002Y1216008D01*
X1538094Y1215940D01*
X1538184Y1215870D01*
X1538270Y1215797D01*
X1538355Y1215721D01*
X1538437Y1215642D01*
X1538516Y1215560D01*
X1538592Y1215475D01*
X1538665Y1215389D01*
X1538735Y1215299D01*
X1538803Y1215207D01*
X1538866Y1215113D01*
X1538927Y1215017D01*
X1538985Y1214919D01*
X1539039Y1214819D01*
X1539089Y1214717D01*
X1539136Y1214614D01*
X1539180Y1214509D01*
X1539220Y1214402D01*
X1539256Y1214294D01*
X1539289Y1214185D01*
X1539317Y1214075D01*
X1539342Y1213965D01*
X1539364Y1213853D01*
X1539381Y1213740D01*
X1539395Y1213628D01*
X1539404Y1213514D01*
X1539410Y1213401D01*
X1539412Y1213287D01*
X1539412Y1209957D01*
X1539410Y1209843D01*
X1539404Y1209730D01*
X1539395Y1209616D01*
X1539381Y1209504D01*
X1539364Y1209391D01*
X1539342Y1209279D01*
X1539317Y1209169D01*
X1539289Y1209059D01*
X1539256Y1208950D01*
X1539220Y1208842D01*
X1539180Y1208735D01*
X1539136Y1208630D01*
X1539089Y1208527D01*
X1539039Y1208425D01*
X1538985Y1208325D01*
X1538927Y1208227D01*
X1538866Y1208131D01*
X1538803Y1208037D01*
X1538735Y1207945D01*
X1538665Y1207855D01*
X1538592Y1207769D01*
X1538516Y1207684D01*
X1538437Y1207602D01*
X1538355Y1207523D01*
X1538270Y1207447D01*
X1538184Y1207374D01*
X1538094Y1207304D01*
X1538002Y1207236D01*
X1537908Y1207173D01*
X1537812Y1207112D01*
X1537714Y1207054D01*
X1537614Y1207000D01*
X1537512Y1206950D01*
X1537409Y1206903D01*
X1537304Y1206859D01*
X1537197Y1206819D01*
X1537089Y1206783D01*
X1536980Y1206750D01*
X1536870Y1206722D01*
X1536760Y1206697D01*
X1536648Y1206675D01*
X1536535Y1206658D01*
X1536423Y1206644D01*
X1536309Y1206635D01*
X1536196Y1206629D01*
X1536082Y1206627D01*
X1535968Y1206629D01*
X1535855Y1206635D01*
X1535741Y1206644D01*
X1535629Y1206658D01*
X1535516Y1206675D01*
X1535404Y1206697D01*
X1535294Y1206722D01*
X1535184Y1206750D01*
X1535075Y1206783D01*
X1534967Y1206819D01*
X1534860Y1206859D01*
X1534755Y1206903D01*
X1534652Y1206950D01*
X1534550Y1207000D01*
X1534450Y1207054D01*
X1534352Y1207112D01*
X1534256Y1207173D01*
X1534162Y1207236D01*
X1534070Y1207304D01*
X1533980Y1207374D01*
X1533894Y1207447D01*
X1533809Y1207523D01*
X1533727Y1207602D01*
X1533648Y1207684D01*
X1533572Y1207769D01*
X1533499Y1207855D01*
X1533429Y1207945D01*
X1533361Y1208037D01*
X1533298Y1208131D01*
X1533237Y1208227D01*
X1533179Y1208325D01*
X1533125Y1208425D01*
X1533075Y1208527D01*
X1533028Y1208630D01*
X1532984Y1208735D01*
X1532944Y1208842D01*
X1532908Y1208950D01*
X1532875Y1209059D01*
X1532847Y1209169D01*
X1532822Y1209279D01*
X1532800Y1209391D01*
X1532783Y1209504D01*
X1532769Y1209616D01*
X1532760Y1209730D01*
X1532754Y1209843D01*
X1532752Y1209957D01*
X1546948Y1206627D02*
X1546948Y1216618D01*
X1551943Y1216618D01*
X1551943Y1214953D01*
X1559738Y1206627D02*
X1563901Y1206627D01*
X1559738Y1206627D02*
X1559640Y1206629D01*
X1559542Y1206635D01*
X1559444Y1206644D01*
X1559347Y1206658D01*
X1559251Y1206675D01*
X1559155Y1206696D01*
X1559060Y1206721D01*
X1558966Y1206749D01*
X1558873Y1206781D01*
X1558782Y1206817D01*
X1558692Y1206856D01*
X1558604Y1206899D01*
X1558517Y1206946D01*
X1558433Y1206995D01*
X1558350Y1207048D01*
X1558270Y1207104D01*
X1558192Y1207163D01*
X1558116Y1207226D01*
X1558042Y1207291D01*
X1557972Y1207359D01*
X1557904Y1207429D01*
X1557839Y1207503D01*
X1557776Y1207579D01*
X1557717Y1207657D01*
X1557661Y1207737D01*
X1557608Y1207820D01*
X1557559Y1207904D01*
X1557512Y1207991D01*
X1557469Y1208079D01*
X1557430Y1208169D01*
X1557394Y1208260D01*
X1557362Y1208353D01*
X1557334Y1208447D01*
X1557309Y1208542D01*
X1557288Y1208638D01*
X1557271Y1208734D01*
X1557257Y1208831D01*
X1557248Y1208929D01*
X1557242Y1209027D01*
X1557240Y1209125D01*
X1557240Y1213287D01*
X1557241Y1213287D02*
X1557243Y1213401D01*
X1557249Y1213514D01*
X1557258Y1213628D01*
X1557272Y1213740D01*
X1557289Y1213853D01*
X1557311Y1213965D01*
X1557336Y1214075D01*
X1557364Y1214185D01*
X1557397Y1214294D01*
X1557433Y1214402D01*
X1557473Y1214509D01*
X1557517Y1214614D01*
X1557564Y1214717D01*
X1557614Y1214819D01*
X1557668Y1214919D01*
X1557726Y1215017D01*
X1557787Y1215113D01*
X1557850Y1215207D01*
X1557918Y1215299D01*
X1557988Y1215389D01*
X1558061Y1215475D01*
X1558137Y1215560D01*
X1558216Y1215642D01*
X1558298Y1215721D01*
X1558383Y1215797D01*
X1558469Y1215870D01*
X1558559Y1215940D01*
X1558651Y1216008D01*
X1558745Y1216071D01*
X1558841Y1216132D01*
X1558939Y1216190D01*
X1559039Y1216244D01*
X1559141Y1216294D01*
X1559244Y1216341D01*
X1559349Y1216385D01*
X1559456Y1216425D01*
X1559564Y1216461D01*
X1559673Y1216494D01*
X1559783Y1216522D01*
X1559893Y1216547D01*
X1560005Y1216569D01*
X1560118Y1216586D01*
X1560230Y1216600D01*
X1560344Y1216609D01*
X1560457Y1216615D01*
X1560571Y1216617D01*
X1560685Y1216615D01*
X1560798Y1216609D01*
X1560912Y1216600D01*
X1561024Y1216586D01*
X1561137Y1216569D01*
X1561249Y1216547D01*
X1561359Y1216522D01*
X1561469Y1216494D01*
X1561578Y1216461D01*
X1561686Y1216425D01*
X1561793Y1216385D01*
X1561898Y1216341D01*
X1562001Y1216294D01*
X1562103Y1216244D01*
X1562203Y1216190D01*
X1562301Y1216132D01*
X1562397Y1216071D01*
X1562491Y1216008D01*
X1562583Y1215940D01*
X1562673Y1215870D01*
X1562759Y1215797D01*
X1562844Y1215721D01*
X1562926Y1215642D01*
X1563005Y1215560D01*
X1563081Y1215475D01*
X1563154Y1215389D01*
X1563224Y1215299D01*
X1563292Y1215207D01*
X1563355Y1215113D01*
X1563416Y1215017D01*
X1563474Y1214919D01*
X1563528Y1214819D01*
X1563578Y1214717D01*
X1563625Y1214614D01*
X1563669Y1214509D01*
X1563709Y1214402D01*
X1563745Y1214294D01*
X1563778Y1214185D01*
X1563806Y1214075D01*
X1563831Y1213965D01*
X1563853Y1213853D01*
X1563870Y1213740D01*
X1563884Y1213628D01*
X1563893Y1213514D01*
X1563899Y1213401D01*
X1563901Y1213287D01*
X1563901Y1211622D01*
X1557240Y1211622D01*
D14*
X1586230Y-119380D02*
X-68580Y-119380D01*
X-5080Y-55880D02*
X1522730Y-55880D01*
X1586230Y-119380D02*
X1586230Y1135380D01*
X1522730Y1071880D02*
X1522730Y-55880D01*
X1586230Y1135380D02*
X-68580Y1135380D01*
X-5080Y1071880D02*
X1522730Y1071880D01*
X-68580Y1135380D02*
X-68580Y-119380D01*
X-5080Y-55880D02*
X-5080Y1071880D01*
D15*
X1480185Y25400D02*
X1480190Y25774D01*
X1480203Y26148D01*
X1480226Y26521D01*
X1480258Y26894D01*
X1480300Y27266D01*
X1480350Y27636D01*
X1480409Y28005D01*
X1480478Y28373D01*
X1480555Y28739D01*
X1480642Y29103D01*
X1480737Y29465D01*
X1480841Y29824D01*
X1480954Y30181D01*
X1481076Y30534D01*
X1481206Y30885D01*
X1481345Y31232D01*
X1481492Y31576D01*
X1481648Y31916D01*
X1481812Y32252D01*
X1481985Y32584D01*
X1482165Y32912D01*
X1482353Y33235D01*
X1482549Y33553D01*
X1482753Y33867D01*
X1482965Y34175D01*
X1483184Y34478D01*
X1483411Y34776D01*
X1483644Y35068D01*
X1483885Y35354D01*
X1484133Y35635D01*
X1484387Y35909D01*
X1484649Y36176D01*
X1484916Y36438D01*
X1485190Y36692D01*
X1485471Y36940D01*
X1485757Y37181D01*
X1486049Y37414D01*
X1486347Y37641D01*
X1486650Y37860D01*
X1486958Y38072D01*
X1487272Y38276D01*
X1487590Y38472D01*
X1487913Y38660D01*
X1488241Y38840D01*
X1488573Y39013D01*
X1488909Y39177D01*
X1489249Y39333D01*
X1489593Y39480D01*
X1489940Y39619D01*
X1490291Y39749D01*
X1490644Y39871D01*
X1491001Y39984D01*
X1491360Y40088D01*
X1491722Y40183D01*
X1492086Y40270D01*
X1492452Y40347D01*
X1492820Y40416D01*
X1493189Y40475D01*
X1493559Y40525D01*
X1493931Y40567D01*
X1494304Y40599D01*
X1494677Y40622D01*
X1495051Y40635D01*
X1495425Y40640D01*
X1495799Y40635D01*
X1496173Y40622D01*
X1496546Y40599D01*
X1496919Y40567D01*
X1497291Y40525D01*
X1497661Y40475D01*
X1498030Y40416D01*
X1498398Y40347D01*
X1498764Y40270D01*
X1499128Y40183D01*
X1499490Y40088D01*
X1499849Y39984D01*
X1500206Y39871D01*
X1500559Y39749D01*
X1500910Y39619D01*
X1501257Y39480D01*
X1501601Y39333D01*
X1501941Y39177D01*
X1502277Y39013D01*
X1502609Y38840D01*
X1502937Y38660D01*
X1503260Y38472D01*
X1503578Y38276D01*
X1503892Y38072D01*
X1504200Y37860D01*
X1504503Y37641D01*
X1504801Y37414D01*
X1505093Y37181D01*
X1505379Y36940D01*
X1505660Y36692D01*
X1505934Y36438D01*
X1506201Y36176D01*
X1506463Y35909D01*
X1506717Y35635D01*
X1506965Y35354D01*
X1507206Y35068D01*
X1507439Y34776D01*
X1507666Y34478D01*
X1507885Y34175D01*
X1508097Y33867D01*
X1508301Y33553D01*
X1508497Y33235D01*
X1508685Y32912D01*
X1508865Y32584D01*
X1509038Y32252D01*
X1509202Y31916D01*
X1509358Y31576D01*
X1509505Y31232D01*
X1509644Y30885D01*
X1509774Y30534D01*
X1509896Y30181D01*
X1510009Y29824D01*
X1510113Y29465D01*
X1510208Y29103D01*
X1510295Y28739D01*
X1510372Y28373D01*
X1510441Y28005D01*
X1510500Y27636D01*
X1510550Y27266D01*
X1510592Y26894D01*
X1510624Y26521D01*
X1510647Y26148D01*
X1510660Y25774D01*
X1510665Y25400D01*
X1510660Y25026D01*
X1510647Y24652D01*
X1510624Y24279D01*
X1510592Y23906D01*
X1510550Y23534D01*
X1510500Y23164D01*
X1510441Y22795D01*
X1510372Y22427D01*
X1510295Y22061D01*
X1510208Y21697D01*
X1510113Y21335D01*
X1510009Y20976D01*
X1509896Y20619D01*
X1509774Y20266D01*
X1509644Y19915D01*
X1509505Y19568D01*
X1509358Y19224D01*
X1509202Y18884D01*
X1509038Y18548D01*
X1508865Y18216D01*
X1508685Y17888D01*
X1508497Y17565D01*
X1508301Y17247D01*
X1508097Y16933D01*
X1507885Y16625D01*
X1507666Y16322D01*
X1507439Y16024D01*
X1507206Y15732D01*
X1506965Y15446D01*
X1506717Y15165D01*
X1506463Y14891D01*
X1506201Y14624D01*
X1505934Y14362D01*
X1505660Y14108D01*
X1505379Y13860D01*
X1505093Y13619D01*
X1504801Y13386D01*
X1504503Y13159D01*
X1504200Y12940D01*
X1503892Y12728D01*
X1503578Y12524D01*
X1503260Y12328D01*
X1502937Y12140D01*
X1502609Y11960D01*
X1502277Y11787D01*
X1501941Y11623D01*
X1501601Y11467D01*
X1501257Y11320D01*
X1500910Y11181D01*
X1500559Y11051D01*
X1500206Y10929D01*
X1499849Y10816D01*
X1499490Y10712D01*
X1499128Y10617D01*
X1498764Y10530D01*
X1498398Y10453D01*
X1498030Y10384D01*
X1497661Y10325D01*
X1497291Y10275D01*
X1496919Y10233D01*
X1496546Y10201D01*
X1496173Y10178D01*
X1495799Y10165D01*
X1495425Y10160D01*
X1495051Y10165D01*
X1494677Y10178D01*
X1494304Y10201D01*
X1493931Y10233D01*
X1493559Y10275D01*
X1493189Y10325D01*
X1492820Y10384D01*
X1492452Y10453D01*
X1492086Y10530D01*
X1491722Y10617D01*
X1491360Y10712D01*
X1491001Y10816D01*
X1490644Y10929D01*
X1490291Y11051D01*
X1489940Y11181D01*
X1489593Y11320D01*
X1489249Y11467D01*
X1488909Y11623D01*
X1488573Y11787D01*
X1488241Y11960D01*
X1487913Y12140D01*
X1487590Y12328D01*
X1487272Y12524D01*
X1486958Y12728D01*
X1486650Y12940D01*
X1486347Y13159D01*
X1486049Y13386D01*
X1485757Y13619D01*
X1485471Y13860D01*
X1485190Y14108D01*
X1484916Y14362D01*
X1484649Y14624D01*
X1484387Y14891D01*
X1484133Y15165D01*
X1483885Y15446D01*
X1483644Y15732D01*
X1483411Y16024D01*
X1483184Y16322D01*
X1482965Y16625D01*
X1482753Y16933D01*
X1482549Y17247D01*
X1482353Y17565D01*
X1482165Y17888D01*
X1481985Y18216D01*
X1481812Y18548D01*
X1481648Y18884D01*
X1481492Y19224D01*
X1481345Y19568D01*
X1481206Y19915D01*
X1481076Y20266D01*
X1480954Y20619D01*
X1480841Y20976D01*
X1480737Y21335D01*
X1480642Y21697D01*
X1480555Y22061D01*
X1480478Y22427D01*
X1480409Y22795D01*
X1480350Y23164D01*
X1480300Y23534D01*
X1480258Y23906D01*
X1480226Y24279D01*
X1480203Y24652D01*
X1480190Y25026D01*
X1480185Y25400D01*
X1480185Y990600D02*
X1480190Y990974D01*
X1480203Y991348D01*
X1480226Y991721D01*
X1480258Y992094D01*
X1480300Y992466D01*
X1480350Y992836D01*
X1480409Y993205D01*
X1480478Y993573D01*
X1480555Y993939D01*
X1480642Y994303D01*
X1480737Y994665D01*
X1480841Y995024D01*
X1480954Y995381D01*
X1481076Y995734D01*
X1481206Y996085D01*
X1481345Y996432D01*
X1481492Y996776D01*
X1481648Y997116D01*
X1481812Y997452D01*
X1481985Y997784D01*
X1482165Y998112D01*
X1482353Y998435D01*
X1482549Y998753D01*
X1482753Y999067D01*
X1482965Y999375D01*
X1483184Y999678D01*
X1483411Y999976D01*
X1483644Y1000268D01*
X1483885Y1000554D01*
X1484133Y1000835D01*
X1484387Y1001109D01*
X1484649Y1001376D01*
X1484916Y1001638D01*
X1485190Y1001892D01*
X1485471Y1002140D01*
X1485757Y1002381D01*
X1486049Y1002614D01*
X1486347Y1002841D01*
X1486650Y1003060D01*
X1486958Y1003272D01*
X1487272Y1003476D01*
X1487590Y1003672D01*
X1487913Y1003860D01*
X1488241Y1004040D01*
X1488573Y1004213D01*
X1488909Y1004377D01*
X1489249Y1004533D01*
X1489593Y1004680D01*
X1489940Y1004819D01*
X1490291Y1004949D01*
X1490644Y1005071D01*
X1491001Y1005184D01*
X1491360Y1005288D01*
X1491722Y1005383D01*
X1492086Y1005470D01*
X1492452Y1005547D01*
X1492820Y1005616D01*
X1493189Y1005675D01*
X1493559Y1005725D01*
X1493931Y1005767D01*
X1494304Y1005799D01*
X1494677Y1005822D01*
X1495051Y1005835D01*
X1495425Y1005840D01*
X1495799Y1005835D01*
X1496173Y1005822D01*
X1496546Y1005799D01*
X1496919Y1005767D01*
X1497291Y1005725D01*
X1497661Y1005675D01*
X1498030Y1005616D01*
X1498398Y1005547D01*
X1498764Y1005470D01*
X1499128Y1005383D01*
X1499490Y1005288D01*
X1499849Y1005184D01*
X1500206Y1005071D01*
X1500559Y1004949D01*
X1500910Y1004819D01*
X1501257Y1004680D01*
X1501601Y1004533D01*
X1501941Y1004377D01*
X1502277Y1004213D01*
X1502609Y1004040D01*
X1502937Y1003860D01*
X1503260Y1003672D01*
X1503578Y1003476D01*
X1503892Y1003272D01*
X1504200Y1003060D01*
X1504503Y1002841D01*
X1504801Y1002614D01*
X1505093Y1002381D01*
X1505379Y1002140D01*
X1505660Y1001892D01*
X1505934Y1001638D01*
X1506201Y1001376D01*
X1506463Y1001109D01*
X1506717Y1000835D01*
X1506965Y1000554D01*
X1507206Y1000268D01*
X1507439Y999976D01*
X1507666Y999678D01*
X1507885Y999375D01*
X1508097Y999067D01*
X1508301Y998753D01*
X1508497Y998435D01*
X1508685Y998112D01*
X1508865Y997784D01*
X1509038Y997452D01*
X1509202Y997116D01*
X1509358Y996776D01*
X1509505Y996432D01*
X1509644Y996085D01*
X1509774Y995734D01*
X1509896Y995381D01*
X1510009Y995024D01*
X1510113Y994665D01*
X1510208Y994303D01*
X1510295Y993939D01*
X1510372Y993573D01*
X1510441Y993205D01*
X1510500Y992836D01*
X1510550Y992466D01*
X1510592Y992094D01*
X1510624Y991721D01*
X1510647Y991348D01*
X1510660Y990974D01*
X1510665Y990600D01*
X1510660Y990226D01*
X1510647Y989852D01*
X1510624Y989479D01*
X1510592Y989106D01*
X1510550Y988734D01*
X1510500Y988364D01*
X1510441Y987995D01*
X1510372Y987627D01*
X1510295Y987261D01*
X1510208Y986897D01*
X1510113Y986535D01*
X1510009Y986176D01*
X1509896Y985819D01*
X1509774Y985466D01*
X1509644Y985115D01*
X1509505Y984768D01*
X1509358Y984424D01*
X1509202Y984084D01*
X1509038Y983748D01*
X1508865Y983416D01*
X1508685Y983088D01*
X1508497Y982765D01*
X1508301Y982447D01*
X1508097Y982133D01*
X1507885Y981825D01*
X1507666Y981522D01*
X1507439Y981224D01*
X1507206Y980932D01*
X1506965Y980646D01*
X1506717Y980365D01*
X1506463Y980091D01*
X1506201Y979824D01*
X1505934Y979562D01*
X1505660Y979308D01*
X1505379Y979060D01*
X1505093Y978819D01*
X1504801Y978586D01*
X1504503Y978359D01*
X1504200Y978140D01*
X1503892Y977928D01*
X1503578Y977724D01*
X1503260Y977528D01*
X1502937Y977340D01*
X1502609Y977160D01*
X1502277Y976987D01*
X1501941Y976823D01*
X1501601Y976667D01*
X1501257Y976520D01*
X1500910Y976381D01*
X1500559Y976251D01*
X1500206Y976129D01*
X1499849Y976016D01*
X1499490Y975912D01*
X1499128Y975817D01*
X1498764Y975730D01*
X1498398Y975653D01*
X1498030Y975584D01*
X1497661Y975525D01*
X1497291Y975475D01*
X1496919Y975433D01*
X1496546Y975401D01*
X1496173Y975378D01*
X1495799Y975365D01*
X1495425Y975360D01*
X1495051Y975365D01*
X1494677Y975378D01*
X1494304Y975401D01*
X1493931Y975433D01*
X1493559Y975475D01*
X1493189Y975525D01*
X1492820Y975584D01*
X1492452Y975653D01*
X1492086Y975730D01*
X1491722Y975817D01*
X1491360Y975912D01*
X1491001Y976016D01*
X1490644Y976129D01*
X1490291Y976251D01*
X1489940Y976381D01*
X1489593Y976520D01*
X1489249Y976667D01*
X1488909Y976823D01*
X1488573Y976987D01*
X1488241Y977160D01*
X1487913Y977340D01*
X1487590Y977528D01*
X1487272Y977724D01*
X1486958Y977928D01*
X1486650Y978140D01*
X1486347Y978359D01*
X1486049Y978586D01*
X1485757Y978819D01*
X1485471Y979060D01*
X1485190Y979308D01*
X1484916Y979562D01*
X1484649Y979824D01*
X1484387Y980091D01*
X1484133Y980365D01*
X1483885Y980646D01*
X1483644Y980932D01*
X1483411Y981224D01*
X1483184Y981522D01*
X1482965Y981825D01*
X1482753Y982133D01*
X1482549Y982447D01*
X1482353Y982765D01*
X1482165Y983088D01*
X1481985Y983416D01*
X1481812Y983748D01*
X1481648Y984084D01*
X1481492Y984424D01*
X1481345Y984768D01*
X1481206Y985115D01*
X1481076Y985466D01*
X1480954Y985819D01*
X1480841Y986176D01*
X1480737Y986535D01*
X1480642Y986897D01*
X1480555Y987261D01*
X1480478Y987627D01*
X1480409Y987995D01*
X1480350Y988364D01*
X1480300Y988734D01*
X1480258Y989106D01*
X1480226Y989479D01*
X1480203Y989852D01*
X1480190Y990226D01*
X1480185Y990600D01*
X6985Y990600D02*
X6990Y990974D01*
X7003Y991348D01*
X7026Y991721D01*
X7058Y992094D01*
X7100Y992466D01*
X7150Y992836D01*
X7209Y993205D01*
X7278Y993573D01*
X7355Y993939D01*
X7442Y994303D01*
X7537Y994665D01*
X7641Y995024D01*
X7754Y995381D01*
X7876Y995734D01*
X8006Y996085D01*
X8145Y996432D01*
X8292Y996776D01*
X8448Y997116D01*
X8612Y997452D01*
X8785Y997784D01*
X8965Y998112D01*
X9153Y998435D01*
X9349Y998753D01*
X9553Y999067D01*
X9765Y999375D01*
X9984Y999678D01*
X10211Y999976D01*
X10444Y1000268D01*
X10685Y1000554D01*
X10933Y1000835D01*
X11187Y1001109D01*
X11449Y1001376D01*
X11716Y1001638D01*
X11990Y1001892D01*
X12271Y1002140D01*
X12557Y1002381D01*
X12849Y1002614D01*
X13147Y1002841D01*
X13450Y1003060D01*
X13758Y1003272D01*
X14072Y1003476D01*
X14390Y1003672D01*
X14713Y1003860D01*
X15041Y1004040D01*
X15373Y1004213D01*
X15709Y1004377D01*
X16049Y1004533D01*
X16393Y1004680D01*
X16740Y1004819D01*
X17091Y1004949D01*
X17444Y1005071D01*
X17801Y1005184D01*
X18160Y1005288D01*
X18522Y1005383D01*
X18886Y1005470D01*
X19252Y1005547D01*
X19620Y1005616D01*
X19989Y1005675D01*
X20359Y1005725D01*
X20731Y1005767D01*
X21104Y1005799D01*
X21477Y1005822D01*
X21851Y1005835D01*
X22225Y1005840D01*
X22599Y1005835D01*
X22973Y1005822D01*
X23346Y1005799D01*
X23719Y1005767D01*
X24091Y1005725D01*
X24461Y1005675D01*
X24830Y1005616D01*
X25198Y1005547D01*
X25564Y1005470D01*
X25928Y1005383D01*
X26290Y1005288D01*
X26649Y1005184D01*
X27006Y1005071D01*
X27359Y1004949D01*
X27710Y1004819D01*
X28057Y1004680D01*
X28401Y1004533D01*
X28741Y1004377D01*
X29077Y1004213D01*
X29409Y1004040D01*
X29737Y1003860D01*
X30060Y1003672D01*
X30378Y1003476D01*
X30692Y1003272D01*
X31000Y1003060D01*
X31303Y1002841D01*
X31601Y1002614D01*
X31893Y1002381D01*
X32179Y1002140D01*
X32460Y1001892D01*
X32734Y1001638D01*
X33001Y1001376D01*
X33263Y1001109D01*
X33517Y1000835D01*
X33765Y1000554D01*
X34006Y1000268D01*
X34239Y999976D01*
X34466Y999678D01*
X34685Y999375D01*
X34897Y999067D01*
X35101Y998753D01*
X35297Y998435D01*
X35485Y998112D01*
X35665Y997784D01*
X35838Y997452D01*
X36002Y997116D01*
X36158Y996776D01*
X36305Y996432D01*
X36444Y996085D01*
X36574Y995734D01*
X36696Y995381D01*
X36809Y995024D01*
X36913Y994665D01*
X37008Y994303D01*
X37095Y993939D01*
X37172Y993573D01*
X37241Y993205D01*
X37300Y992836D01*
X37350Y992466D01*
X37392Y992094D01*
X37424Y991721D01*
X37447Y991348D01*
X37460Y990974D01*
X37465Y990600D01*
X37460Y990226D01*
X37447Y989852D01*
X37424Y989479D01*
X37392Y989106D01*
X37350Y988734D01*
X37300Y988364D01*
X37241Y987995D01*
X37172Y987627D01*
X37095Y987261D01*
X37008Y986897D01*
X36913Y986535D01*
X36809Y986176D01*
X36696Y985819D01*
X36574Y985466D01*
X36444Y985115D01*
X36305Y984768D01*
X36158Y984424D01*
X36002Y984084D01*
X35838Y983748D01*
X35665Y983416D01*
X35485Y983088D01*
X35297Y982765D01*
X35101Y982447D01*
X34897Y982133D01*
X34685Y981825D01*
X34466Y981522D01*
X34239Y981224D01*
X34006Y980932D01*
X33765Y980646D01*
X33517Y980365D01*
X33263Y980091D01*
X33001Y979824D01*
X32734Y979562D01*
X32460Y979308D01*
X32179Y979060D01*
X31893Y978819D01*
X31601Y978586D01*
X31303Y978359D01*
X31000Y978140D01*
X30692Y977928D01*
X30378Y977724D01*
X30060Y977528D01*
X29737Y977340D01*
X29409Y977160D01*
X29077Y976987D01*
X28741Y976823D01*
X28401Y976667D01*
X28057Y976520D01*
X27710Y976381D01*
X27359Y976251D01*
X27006Y976129D01*
X26649Y976016D01*
X26290Y975912D01*
X25928Y975817D01*
X25564Y975730D01*
X25198Y975653D01*
X24830Y975584D01*
X24461Y975525D01*
X24091Y975475D01*
X23719Y975433D01*
X23346Y975401D01*
X22973Y975378D01*
X22599Y975365D01*
X22225Y975360D01*
X21851Y975365D01*
X21477Y975378D01*
X21104Y975401D01*
X20731Y975433D01*
X20359Y975475D01*
X19989Y975525D01*
X19620Y975584D01*
X19252Y975653D01*
X18886Y975730D01*
X18522Y975817D01*
X18160Y975912D01*
X17801Y976016D01*
X17444Y976129D01*
X17091Y976251D01*
X16740Y976381D01*
X16393Y976520D01*
X16049Y976667D01*
X15709Y976823D01*
X15373Y976987D01*
X15041Y977160D01*
X14713Y977340D01*
X14390Y977528D01*
X14072Y977724D01*
X13758Y977928D01*
X13450Y978140D01*
X13147Y978359D01*
X12849Y978586D01*
X12557Y978819D01*
X12271Y979060D01*
X11990Y979308D01*
X11716Y979562D01*
X11449Y979824D01*
X11187Y980091D01*
X10933Y980365D01*
X10685Y980646D01*
X10444Y980932D01*
X10211Y981224D01*
X9984Y981522D01*
X9765Y981825D01*
X9553Y982133D01*
X9349Y982447D01*
X9153Y982765D01*
X8965Y983088D01*
X8785Y983416D01*
X8612Y983748D01*
X8448Y984084D01*
X8292Y984424D01*
X8145Y984768D01*
X8006Y985115D01*
X7876Y985466D01*
X7754Y985819D01*
X7641Y986176D01*
X7537Y986535D01*
X7442Y986897D01*
X7355Y987261D01*
X7278Y987627D01*
X7209Y987995D01*
X7150Y988364D01*
X7100Y988734D01*
X7058Y989106D01*
X7026Y989479D01*
X7003Y989852D01*
X6990Y990226D01*
X6985Y990600D01*
X1247375Y49050D02*
X1247377Y49163D01*
X1247383Y49277D01*
X1247393Y49390D01*
X1247407Y49502D01*
X1247424Y49614D01*
X1247446Y49726D01*
X1247472Y49836D01*
X1247501Y49946D01*
X1247534Y50054D01*
X1247571Y50162D01*
X1247612Y50267D01*
X1247656Y50372D01*
X1247704Y50475D01*
X1247755Y50576D01*
X1247810Y50675D01*
X1247869Y50772D01*
X1247931Y50867D01*
X1247996Y50960D01*
X1248064Y51051D01*
X1248135Y51139D01*
X1248210Y51225D01*
X1248287Y51308D01*
X1248367Y51388D01*
X1248450Y51465D01*
X1248536Y51540D01*
X1248624Y51611D01*
X1248715Y51679D01*
X1248808Y51744D01*
X1248903Y51806D01*
X1249000Y51865D01*
X1249099Y51920D01*
X1249200Y51971D01*
X1249303Y52019D01*
X1249408Y52063D01*
X1249513Y52104D01*
X1249621Y52141D01*
X1249729Y52174D01*
X1249839Y52203D01*
X1249949Y52229D01*
X1250061Y52251D01*
X1250173Y52268D01*
X1250285Y52282D01*
X1250398Y52292D01*
X1250512Y52298D01*
X1250625Y52300D01*
X1250738Y52298D01*
X1250852Y52292D01*
X1250965Y52282D01*
X1251077Y52268D01*
X1251189Y52251D01*
X1251301Y52229D01*
X1251411Y52203D01*
X1251521Y52174D01*
X1251629Y52141D01*
X1251737Y52104D01*
X1251842Y52063D01*
X1251947Y52019D01*
X1252050Y51971D01*
X1252151Y51920D01*
X1252250Y51865D01*
X1252347Y51806D01*
X1252442Y51744D01*
X1252535Y51679D01*
X1252626Y51611D01*
X1252714Y51540D01*
X1252800Y51465D01*
X1252883Y51388D01*
X1252963Y51308D01*
X1253040Y51225D01*
X1253115Y51139D01*
X1253186Y51051D01*
X1253254Y50960D01*
X1253319Y50867D01*
X1253381Y50772D01*
X1253440Y50675D01*
X1253495Y50576D01*
X1253546Y50475D01*
X1253594Y50372D01*
X1253638Y50267D01*
X1253679Y50162D01*
X1253716Y50054D01*
X1253749Y49946D01*
X1253778Y49836D01*
X1253804Y49726D01*
X1253826Y49614D01*
X1253843Y49502D01*
X1253857Y49390D01*
X1253867Y49277D01*
X1253873Y49163D01*
X1253875Y49050D01*
X1253873Y48937D01*
X1253867Y48823D01*
X1253857Y48710D01*
X1253843Y48598D01*
X1253826Y48486D01*
X1253804Y48374D01*
X1253778Y48264D01*
X1253749Y48154D01*
X1253716Y48046D01*
X1253679Y47938D01*
X1253638Y47833D01*
X1253594Y47728D01*
X1253546Y47625D01*
X1253495Y47524D01*
X1253440Y47425D01*
X1253381Y47328D01*
X1253319Y47233D01*
X1253254Y47140D01*
X1253186Y47049D01*
X1253115Y46961D01*
X1253040Y46875D01*
X1252963Y46792D01*
X1252883Y46712D01*
X1252800Y46635D01*
X1252714Y46560D01*
X1252626Y46489D01*
X1252535Y46421D01*
X1252442Y46356D01*
X1252347Y46294D01*
X1252250Y46235D01*
X1252151Y46180D01*
X1252050Y46129D01*
X1251947Y46081D01*
X1251842Y46037D01*
X1251737Y45996D01*
X1251629Y45959D01*
X1251521Y45926D01*
X1251411Y45897D01*
X1251301Y45871D01*
X1251189Y45849D01*
X1251077Y45832D01*
X1250965Y45818D01*
X1250852Y45808D01*
X1250738Y45802D01*
X1250625Y45800D01*
X1250512Y45802D01*
X1250398Y45808D01*
X1250285Y45818D01*
X1250173Y45832D01*
X1250061Y45849D01*
X1249949Y45871D01*
X1249839Y45897D01*
X1249729Y45926D01*
X1249621Y45959D01*
X1249513Y45996D01*
X1249408Y46037D01*
X1249303Y46081D01*
X1249200Y46129D01*
X1249099Y46180D01*
X1249000Y46235D01*
X1248903Y46294D01*
X1248808Y46356D01*
X1248715Y46421D01*
X1248624Y46489D01*
X1248536Y46560D01*
X1248450Y46635D01*
X1248367Y46712D01*
X1248287Y46792D01*
X1248210Y46875D01*
X1248135Y46961D01*
X1248064Y47049D01*
X1247996Y47140D01*
X1247931Y47233D01*
X1247869Y47328D01*
X1247810Y47425D01*
X1247755Y47524D01*
X1247704Y47625D01*
X1247656Y47728D01*
X1247612Y47833D01*
X1247571Y47938D01*
X1247534Y48046D01*
X1247501Y48154D01*
X1247472Y48264D01*
X1247446Y48374D01*
X1247424Y48486D01*
X1247407Y48598D01*
X1247393Y48710D01*
X1247383Y48823D01*
X1247377Y48937D01*
X1247375Y49050D01*
X1305175Y49050D02*
X1305177Y49163D01*
X1305183Y49277D01*
X1305193Y49390D01*
X1305207Y49502D01*
X1305224Y49614D01*
X1305246Y49726D01*
X1305272Y49836D01*
X1305301Y49946D01*
X1305334Y50054D01*
X1305371Y50162D01*
X1305412Y50267D01*
X1305456Y50372D01*
X1305504Y50475D01*
X1305555Y50576D01*
X1305610Y50675D01*
X1305669Y50772D01*
X1305731Y50867D01*
X1305796Y50960D01*
X1305864Y51051D01*
X1305935Y51139D01*
X1306010Y51225D01*
X1306087Y51308D01*
X1306167Y51388D01*
X1306250Y51465D01*
X1306336Y51540D01*
X1306424Y51611D01*
X1306515Y51679D01*
X1306608Y51744D01*
X1306703Y51806D01*
X1306800Y51865D01*
X1306899Y51920D01*
X1307000Y51971D01*
X1307103Y52019D01*
X1307208Y52063D01*
X1307313Y52104D01*
X1307421Y52141D01*
X1307529Y52174D01*
X1307639Y52203D01*
X1307749Y52229D01*
X1307861Y52251D01*
X1307973Y52268D01*
X1308085Y52282D01*
X1308198Y52292D01*
X1308312Y52298D01*
X1308425Y52300D01*
X1308538Y52298D01*
X1308652Y52292D01*
X1308765Y52282D01*
X1308877Y52268D01*
X1308989Y52251D01*
X1309101Y52229D01*
X1309211Y52203D01*
X1309321Y52174D01*
X1309429Y52141D01*
X1309537Y52104D01*
X1309642Y52063D01*
X1309747Y52019D01*
X1309850Y51971D01*
X1309951Y51920D01*
X1310050Y51865D01*
X1310147Y51806D01*
X1310242Y51744D01*
X1310335Y51679D01*
X1310426Y51611D01*
X1310514Y51540D01*
X1310600Y51465D01*
X1310683Y51388D01*
X1310763Y51308D01*
X1310840Y51225D01*
X1310915Y51139D01*
X1310986Y51051D01*
X1311054Y50960D01*
X1311119Y50867D01*
X1311181Y50772D01*
X1311240Y50675D01*
X1311295Y50576D01*
X1311346Y50475D01*
X1311394Y50372D01*
X1311438Y50267D01*
X1311479Y50162D01*
X1311516Y50054D01*
X1311549Y49946D01*
X1311578Y49836D01*
X1311604Y49726D01*
X1311626Y49614D01*
X1311643Y49502D01*
X1311657Y49390D01*
X1311667Y49277D01*
X1311673Y49163D01*
X1311675Y49050D01*
X1311673Y48937D01*
X1311667Y48823D01*
X1311657Y48710D01*
X1311643Y48598D01*
X1311626Y48486D01*
X1311604Y48374D01*
X1311578Y48264D01*
X1311549Y48154D01*
X1311516Y48046D01*
X1311479Y47938D01*
X1311438Y47833D01*
X1311394Y47728D01*
X1311346Y47625D01*
X1311295Y47524D01*
X1311240Y47425D01*
X1311181Y47328D01*
X1311119Y47233D01*
X1311054Y47140D01*
X1310986Y47049D01*
X1310915Y46961D01*
X1310840Y46875D01*
X1310763Y46792D01*
X1310683Y46712D01*
X1310600Y46635D01*
X1310514Y46560D01*
X1310426Y46489D01*
X1310335Y46421D01*
X1310242Y46356D01*
X1310147Y46294D01*
X1310050Y46235D01*
X1309951Y46180D01*
X1309850Y46129D01*
X1309747Y46081D01*
X1309642Y46037D01*
X1309537Y45996D01*
X1309429Y45959D01*
X1309321Y45926D01*
X1309211Y45897D01*
X1309101Y45871D01*
X1308989Y45849D01*
X1308877Y45832D01*
X1308765Y45818D01*
X1308652Y45808D01*
X1308538Y45802D01*
X1308425Y45800D01*
X1308312Y45802D01*
X1308198Y45808D01*
X1308085Y45818D01*
X1307973Y45832D01*
X1307861Y45849D01*
X1307749Y45871D01*
X1307639Y45897D01*
X1307529Y45926D01*
X1307421Y45959D01*
X1307313Y45996D01*
X1307208Y46037D01*
X1307103Y46081D01*
X1307000Y46129D01*
X1306899Y46180D01*
X1306800Y46235D01*
X1306703Y46294D01*
X1306608Y46356D01*
X1306515Y46421D01*
X1306424Y46489D01*
X1306336Y46560D01*
X1306250Y46635D01*
X1306167Y46712D01*
X1306087Y46792D01*
X1306010Y46875D01*
X1305935Y46961D01*
X1305864Y47049D01*
X1305796Y47140D01*
X1305731Y47233D01*
X1305669Y47328D01*
X1305610Y47425D01*
X1305555Y47524D01*
X1305504Y47625D01*
X1305456Y47728D01*
X1305412Y47833D01*
X1305371Y47938D01*
X1305334Y48046D01*
X1305301Y48154D01*
X1305272Y48264D01*
X1305246Y48374D01*
X1305224Y48486D01*
X1305207Y48598D01*
X1305193Y48710D01*
X1305183Y48823D01*
X1305177Y48937D01*
X1305175Y49050D01*
D16*
X1236345Y48850D02*
X1236345Y59850D01*
X1322705Y59850D02*
X1322705Y48850D01*
X1236345Y15700D02*
X1236345Y9500D01*
X1322705Y9500D02*
X1322705Y15700D01*
D15*
X492225Y20320D02*
X492227Y20461D01*
X492233Y20602D01*
X492243Y20742D01*
X492257Y20882D01*
X492275Y21022D01*
X492296Y21161D01*
X492322Y21300D01*
X492351Y21438D01*
X492385Y21574D01*
X492422Y21710D01*
X492463Y21845D01*
X492508Y21979D01*
X492557Y22111D01*
X492609Y22242D01*
X492665Y22371D01*
X492725Y22498D01*
X492788Y22624D01*
X492854Y22748D01*
X492925Y22871D01*
X492998Y22991D01*
X493075Y23109D01*
X493155Y23225D01*
X493239Y23338D01*
X493325Y23449D01*
X493415Y23558D01*
X493508Y23664D01*
X493603Y23767D01*
X493702Y23868D01*
X493803Y23966D01*
X493907Y24061D01*
X494014Y24153D01*
X494123Y24242D01*
X494235Y24327D01*
X494349Y24410D01*
X494465Y24490D01*
X494584Y24566D01*
X494705Y24638D01*
X494827Y24708D01*
X494952Y24773D01*
X495078Y24836D01*
X495206Y24894D01*
X495336Y24949D01*
X495467Y25001D01*
X495600Y25048D01*
X495734Y25092D01*
X495869Y25133D01*
X496005Y25169D01*
X496142Y25201D01*
X496280Y25230D01*
X496418Y25255D01*
X496558Y25275D01*
X496698Y25292D01*
X496838Y25305D01*
X496979Y25314D01*
X497119Y25319D01*
X497260Y25320D01*
X497401Y25317D01*
X497542Y25310D01*
X497682Y25299D01*
X497822Y25284D01*
X497962Y25265D01*
X498101Y25243D01*
X498239Y25216D01*
X498377Y25186D01*
X498513Y25151D01*
X498649Y25113D01*
X498783Y25071D01*
X498917Y25025D01*
X499049Y24976D01*
X499179Y24922D01*
X499308Y24865D01*
X499435Y24805D01*
X499561Y24741D01*
X499684Y24673D01*
X499806Y24602D01*
X499926Y24528D01*
X500043Y24450D01*
X500158Y24369D01*
X500271Y24285D01*
X500382Y24198D01*
X500490Y24107D01*
X500595Y24014D01*
X500698Y23917D01*
X500798Y23818D01*
X500895Y23716D01*
X500989Y23611D01*
X501080Y23504D01*
X501168Y23394D01*
X501253Y23282D01*
X501335Y23167D01*
X501414Y23050D01*
X501489Y22931D01*
X501561Y22810D01*
X501629Y22687D01*
X501694Y22562D01*
X501756Y22435D01*
X501813Y22306D01*
X501868Y22176D01*
X501918Y22045D01*
X501965Y21912D01*
X502008Y21778D01*
X502047Y21642D01*
X502082Y21506D01*
X502114Y21369D01*
X502141Y21231D01*
X502165Y21092D01*
X502185Y20952D01*
X502201Y20812D01*
X502213Y20672D01*
X502221Y20531D01*
X502225Y20390D01*
X502225Y20250D01*
X502221Y20109D01*
X502213Y19968D01*
X502201Y19828D01*
X502185Y19688D01*
X502165Y19548D01*
X502141Y19409D01*
X502114Y19271D01*
X502082Y19134D01*
X502047Y18998D01*
X502008Y18862D01*
X501965Y18728D01*
X501918Y18595D01*
X501868Y18464D01*
X501813Y18334D01*
X501756Y18205D01*
X501694Y18078D01*
X501629Y17953D01*
X501561Y17830D01*
X501489Y17709D01*
X501414Y17590D01*
X501335Y17473D01*
X501253Y17358D01*
X501168Y17246D01*
X501080Y17136D01*
X500989Y17029D01*
X500895Y16924D01*
X500798Y16822D01*
X500698Y16723D01*
X500595Y16626D01*
X500490Y16533D01*
X500382Y16442D01*
X500271Y16355D01*
X500158Y16271D01*
X500043Y16190D01*
X499926Y16112D01*
X499806Y16038D01*
X499684Y15967D01*
X499561Y15899D01*
X499435Y15835D01*
X499308Y15775D01*
X499179Y15718D01*
X499049Y15664D01*
X498917Y15615D01*
X498783Y15569D01*
X498649Y15527D01*
X498513Y15489D01*
X498377Y15454D01*
X498239Y15424D01*
X498101Y15397D01*
X497962Y15375D01*
X497822Y15356D01*
X497682Y15341D01*
X497542Y15330D01*
X497401Y15323D01*
X497260Y15320D01*
X497119Y15321D01*
X496979Y15326D01*
X496838Y15335D01*
X496698Y15348D01*
X496558Y15365D01*
X496418Y15385D01*
X496280Y15410D01*
X496142Y15439D01*
X496005Y15471D01*
X495869Y15507D01*
X495734Y15548D01*
X495600Y15592D01*
X495467Y15639D01*
X495336Y15691D01*
X495206Y15746D01*
X495078Y15804D01*
X494952Y15867D01*
X494827Y15932D01*
X494705Y16002D01*
X494584Y16074D01*
X494465Y16150D01*
X494349Y16230D01*
X494235Y16313D01*
X494123Y16398D01*
X494014Y16487D01*
X493907Y16579D01*
X493803Y16674D01*
X493702Y16772D01*
X493603Y16873D01*
X493508Y16976D01*
X493415Y17082D01*
X493325Y17191D01*
X493239Y17302D01*
X493155Y17415D01*
X493075Y17531D01*
X492998Y17649D01*
X492925Y17769D01*
X492854Y17892D01*
X492788Y18016D01*
X492725Y18142D01*
X492665Y18269D01*
X492609Y18398D01*
X492557Y18529D01*
X492508Y18661D01*
X492463Y18795D01*
X492422Y18930D01*
X492385Y19066D01*
X492351Y19202D01*
X492322Y19340D01*
X492296Y19479D01*
X492275Y19618D01*
X492257Y19758D01*
X492243Y19898D01*
X492233Y20038D01*
X492227Y20179D01*
X492225Y20320D01*
X412225Y20320D02*
X412227Y20461D01*
X412233Y20602D01*
X412243Y20742D01*
X412257Y20882D01*
X412275Y21022D01*
X412296Y21161D01*
X412322Y21300D01*
X412351Y21438D01*
X412385Y21574D01*
X412422Y21710D01*
X412463Y21845D01*
X412508Y21979D01*
X412557Y22111D01*
X412609Y22242D01*
X412665Y22371D01*
X412725Y22498D01*
X412788Y22624D01*
X412854Y22748D01*
X412925Y22871D01*
X412998Y22991D01*
X413075Y23109D01*
X413155Y23225D01*
X413239Y23338D01*
X413325Y23449D01*
X413415Y23558D01*
X413508Y23664D01*
X413603Y23767D01*
X413702Y23868D01*
X413803Y23966D01*
X413907Y24061D01*
X414014Y24153D01*
X414123Y24242D01*
X414235Y24327D01*
X414349Y24410D01*
X414465Y24490D01*
X414584Y24566D01*
X414705Y24638D01*
X414827Y24708D01*
X414952Y24773D01*
X415078Y24836D01*
X415206Y24894D01*
X415336Y24949D01*
X415467Y25001D01*
X415600Y25048D01*
X415734Y25092D01*
X415869Y25133D01*
X416005Y25169D01*
X416142Y25201D01*
X416280Y25230D01*
X416418Y25255D01*
X416558Y25275D01*
X416698Y25292D01*
X416838Y25305D01*
X416979Y25314D01*
X417119Y25319D01*
X417260Y25320D01*
X417401Y25317D01*
X417542Y25310D01*
X417682Y25299D01*
X417822Y25284D01*
X417962Y25265D01*
X418101Y25243D01*
X418239Y25216D01*
X418377Y25186D01*
X418513Y25151D01*
X418649Y25113D01*
X418783Y25071D01*
X418917Y25025D01*
X419049Y24976D01*
X419179Y24922D01*
X419308Y24865D01*
X419435Y24805D01*
X419561Y24741D01*
X419684Y24673D01*
X419806Y24602D01*
X419926Y24528D01*
X420043Y24450D01*
X420158Y24369D01*
X420271Y24285D01*
X420382Y24198D01*
X420490Y24107D01*
X420595Y24014D01*
X420698Y23917D01*
X420798Y23818D01*
X420895Y23716D01*
X420989Y23611D01*
X421080Y23504D01*
X421168Y23394D01*
X421253Y23282D01*
X421335Y23167D01*
X421414Y23050D01*
X421489Y22931D01*
X421561Y22810D01*
X421629Y22687D01*
X421694Y22562D01*
X421756Y22435D01*
X421813Y22306D01*
X421868Y22176D01*
X421918Y22045D01*
X421965Y21912D01*
X422008Y21778D01*
X422047Y21642D01*
X422082Y21506D01*
X422114Y21369D01*
X422141Y21231D01*
X422165Y21092D01*
X422185Y20952D01*
X422201Y20812D01*
X422213Y20672D01*
X422221Y20531D01*
X422225Y20390D01*
X422225Y20250D01*
X422221Y20109D01*
X422213Y19968D01*
X422201Y19828D01*
X422185Y19688D01*
X422165Y19548D01*
X422141Y19409D01*
X422114Y19271D01*
X422082Y19134D01*
X422047Y18998D01*
X422008Y18862D01*
X421965Y18728D01*
X421918Y18595D01*
X421868Y18464D01*
X421813Y18334D01*
X421756Y18205D01*
X421694Y18078D01*
X421629Y17953D01*
X421561Y17830D01*
X421489Y17709D01*
X421414Y17590D01*
X421335Y17473D01*
X421253Y17358D01*
X421168Y17246D01*
X421080Y17136D01*
X420989Y17029D01*
X420895Y16924D01*
X420798Y16822D01*
X420698Y16723D01*
X420595Y16626D01*
X420490Y16533D01*
X420382Y16442D01*
X420271Y16355D01*
X420158Y16271D01*
X420043Y16190D01*
X419926Y16112D01*
X419806Y16038D01*
X419684Y15967D01*
X419561Y15899D01*
X419435Y15835D01*
X419308Y15775D01*
X419179Y15718D01*
X419049Y15664D01*
X418917Y15615D01*
X418783Y15569D01*
X418649Y15527D01*
X418513Y15489D01*
X418377Y15454D01*
X418239Y15424D01*
X418101Y15397D01*
X417962Y15375D01*
X417822Y15356D01*
X417682Y15341D01*
X417542Y15330D01*
X417401Y15323D01*
X417260Y15320D01*
X417119Y15321D01*
X416979Y15326D01*
X416838Y15335D01*
X416698Y15348D01*
X416558Y15365D01*
X416418Y15385D01*
X416280Y15410D01*
X416142Y15439D01*
X416005Y15471D01*
X415869Y15507D01*
X415734Y15548D01*
X415600Y15592D01*
X415467Y15639D01*
X415336Y15691D01*
X415206Y15746D01*
X415078Y15804D01*
X414952Y15867D01*
X414827Y15932D01*
X414705Y16002D01*
X414584Y16074D01*
X414465Y16150D01*
X414349Y16230D01*
X414235Y16313D01*
X414123Y16398D01*
X414014Y16487D01*
X413907Y16579D01*
X413803Y16674D01*
X413702Y16772D01*
X413603Y16873D01*
X413508Y16976D01*
X413415Y17082D01*
X413325Y17191D01*
X413239Y17302D01*
X413155Y17415D01*
X413075Y17531D01*
X412998Y17649D01*
X412925Y17769D01*
X412854Y17892D01*
X412788Y18016D01*
X412725Y18142D01*
X412665Y18269D01*
X412609Y18398D01*
X412557Y18529D01*
X412508Y18661D01*
X412463Y18795D01*
X412422Y18930D01*
X412385Y19066D01*
X412351Y19202D01*
X412322Y19340D01*
X412296Y19479D01*
X412275Y19618D01*
X412257Y19758D01*
X412243Y19898D01*
X412233Y20038D01*
X412227Y20179D01*
X412225Y20320D01*
X6985Y25400D02*
X6990Y25774D01*
X7003Y26148D01*
X7026Y26521D01*
X7058Y26894D01*
X7100Y27266D01*
X7150Y27636D01*
X7209Y28005D01*
X7278Y28373D01*
X7355Y28739D01*
X7442Y29103D01*
X7537Y29465D01*
X7641Y29824D01*
X7754Y30181D01*
X7876Y30534D01*
X8006Y30885D01*
X8145Y31232D01*
X8292Y31576D01*
X8448Y31916D01*
X8612Y32252D01*
X8785Y32584D01*
X8965Y32912D01*
X9153Y33235D01*
X9349Y33553D01*
X9553Y33867D01*
X9765Y34175D01*
X9984Y34478D01*
X10211Y34776D01*
X10444Y35068D01*
X10685Y35354D01*
X10933Y35635D01*
X11187Y35909D01*
X11449Y36176D01*
X11716Y36438D01*
X11990Y36692D01*
X12271Y36940D01*
X12557Y37181D01*
X12849Y37414D01*
X13147Y37641D01*
X13450Y37860D01*
X13758Y38072D01*
X14072Y38276D01*
X14390Y38472D01*
X14713Y38660D01*
X15041Y38840D01*
X15373Y39013D01*
X15709Y39177D01*
X16049Y39333D01*
X16393Y39480D01*
X16740Y39619D01*
X17091Y39749D01*
X17444Y39871D01*
X17801Y39984D01*
X18160Y40088D01*
X18522Y40183D01*
X18886Y40270D01*
X19252Y40347D01*
X19620Y40416D01*
X19989Y40475D01*
X20359Y40525D01*
X20731Y40567D01*
X21104Y40599D01*
X21477Y40622D01*
X21851Y40635D01*
X22225Y40640D01*
X22599Y40635D01*
X22973Y40622D01*
X23346Y40599D01*
X23719Y40567D01*
X24091Y40525D01*
X24461Y40475D01*
X24830Y40416D01*
X25198Y40347D01*
X25564Y40270D01*
X25928Y40183D01*
X26290Y40088D01*
X26649Y39984D01*
X27006Y39871D01*
X27359Y39749D01*
X27710Y39619D01*
X28057Y39480D01*
X28401Y39333D01*
X28741Y39177D01*
X29077Y39013D01*
X29409Y38840D01*
X29737Y38660D01*
X30060Y38472D01*
X30378Y38276D01*
X30692Y38072D01*
X31000Y37860D01*
X31303Y37641D01*
X31601Y37414D01*
X31893Y37181D01*
X32179Y36940D01*
X32460Y36692D01*
X32734Y36438D01*
X33001Y36176D01*
X33263Y35909D01*
X33517Y35635D01*
X33765Y35354D01*
X34006Y35068D01*
X34239Y34776D01*
X34466Y34478D01*
X34685Y34175D01*
X34897Y33867D01*
X35101Y33553D01*
X35297Y33235D01*
X35485Y32912D01*
X35665Y32584D01*
X35838Y32252D01*
X36002Y31916D01*
X36158Y31576D01*
X36305Y31232D01*
X36444Y30885D01*
X36574Y30534D01*
X36696Y30181D01*
X36809Y29824D01*
X36913Y29465D01*
X37008Y29103D01*
X37095Y28739D01*
X37172Y28373D01*
X37241Y28005D01*
X37300Y27636D01*
X37350Y27266D01*
X37392Y26894D01*
X37424Y26521D01*
X37447Y26148D01*
X37460Y25774D01*
X37465Y25400D01*
X37460Y25026D01*
X37447Y24652D01*
X37424Y24279D01*
X37392Y23906D01*
X37350Y23534D01*
X37300Y23164D01*
X37241Y22795D01*
X37172Y22427D01*
X37095Y22061D01*
X37008Y21697D01*
X36913Y21335D01*
X36809Y20976D01*
X36696Y20619D01*
X36574Y20266D01*
X36444Y19915D01*
X36305Y19568D01*
X36158Y19224D01*
X36002Y18884D01*
X35838Y18548D01*
X35665Y18216D01*
X35485Y17888D01*
X35297Y17565D01*
X35101Y17247D01*
X34897Y16933D01*
X34685Y16625D01*
X34466Y16322D01*
X34239Y16024D01*
X34006Y15732D01*
X33765Y15446D01*
X33517Y15165D01*
X33263Y14891D01*
X33001Y14624D01*
X32734Y14362D01*
X32460Y14108D01*
X32179Y13860D01*
X31893Y13619D01*
X31601Y13386D01*
X31303Y13159D01*
X31000Y12940D01*
X30692Y12728D01*
X30378Y12524D01*
X30060Y12328D01*
X29737Y12140D01*
X29409Y11960D01*
X29077Y11787D01*
X28741Y11623D01*
X28401Y11467D01*
X28057Y11320D01*
X27710Y11181D01*
X27359Y11051D01*
X27006Y10929D01*
X26649Y10816D01*
X26290Y10712D01*
X25928Y10617D01*
X25564Y10530D01*
X25198Y10453D01*
X24830Y10384D01*
X24461Y10325D01*
X24091Y10275D01*
X23719Y10233D01*
X23346Y10201D01*
X22973Y10178D01*
X22599Y10165D01*
X22225Y10160D01*
X21851Y10165D01*
X21477Y10178D01*
X21104Y10201D01*
X20731Y10233D01*
X20359Y10275D01*
X19989Y10325D01*
X19620Y10384D01*
X19252Y10453D01*
X18886Y10530D01*
X18522Y10617D01*
X18160Y10712D01*
X17801Y10816D01*
X17444Y10929D01*
X17091Y11051D01*
X16740Y11181D01*
X16393Y11320D01*
X16049Y11467D01*
X15709Y11623D01*
X15373Y11787D01*
X15041Y11960D01*
X14713Y12140D01*
X14390Y12328D01*
X14072Y12524D01*
X13758Y12728D01*
X13450Y12940D01*
X13147Y13159D01*
X12849Y13386D01*
X12557Y13619D01*
X12271Y13860D01*
X11990Y14108D01*
X11716Y14362D01*
X11449Y14624D01*
X11187Y14891D01*
X10933Y15165D01*
X10685Y15446D01*
X10444Y15732D01*
X10211Y16024D01*
X9984Y16322D01*
X9765Y16625D01*
X9553Y16933D01*
X9349Y17247D01*
X9153Y17565D01*
X8965Y17888D01*
X8785Y18216D01*
X8612Y18548D01*
X8448Y18884D01*
X8292Y19224D01*
X8145Y19568D01*
X8006Y19915D01*
X7876Y20266D01*
X7754Y20619D01*
X7641Y20976D01*
X7537Y21335D01*
X7442Y21697D01*
X7355Y22061D01*
X7278Y22427D01*
X7209Y22795D01*
X7150Y23164D01*
X7100Y23534D01*
X7058Y23906D01*
X7026Y24279D01*
X7003Y24652D01*
X6990Y25026D01*
X6985Y25400D01*
X1018775Y49050D02*
X1018777Y49163D01*
X1018783Y49277D01*
X1018793Y49390D01*
X1018807Y49502D01*
X1018824Y49614D01*
X1018846Y49726D01*
X1018872Y49836D01*
X1018901Y49946D01*
X1018934Y50054D01*
X1018971Y50162D01*
X1019012Y50267D01*
X1019056Y50372D01*
X1019104Y50475D01*
X1019155Y50576D01*
X1019210Y50675D01*
X1019269Y50772D01*
X1019331Y50867D01*
X1019396Y50960D01*
X1019464Y51051D01*
X1019535Y51139D01*
X1019610Y51225D01*
X1019687Y51308D01*
X1019767Y51388D01*
X1019850Y51465D01*
X1019936Y51540D01*
X1020024Y51611D01*
X1020115Y51679D01*
X1020208Y51744D01*
X1020303Y51806D01*
X1020400Y51865D01*
X1020499Y51920D01*
X1020600Y51971D01*
X1020703Y52019D01*
X1020808Y52063D01*
X1020913Y52104D01*
X1021021Y52141D01*
X1021129Y52174D01*
X1021239Y52203D01*
X1021349Y52229D01*
X1021461Y52251D01*
X1021573Y52268D01*
X1021685Y52282D01*
X1021798Y52292D01*
X1021912Y52298D01*
X1022025Y52300D01*
X1022138Y52298D01*
X1022252Y52292D01*
X1022365Y52282D01*
X1022477Y52268D01*
X1022589Y52251D01*
X1022701Y52229D01*
X1022811Y52203D01*
X1022921Y52174D01*
X1023029Y52141D01*
X1023137Y52104D01*
X1023242Y52063D01*
X1023347Y52019D01*
X1023450Y51971D01*
X1023551Y51920D01*
X1023650Y51865D01*
X1023747Y51806D01*
X1023842Y51744D01*
X1023935Y51679D01*
X1024026Y51611D01*
X1024114Y51540D01*
X1024200Y51465D01*
X1024283Y51388D01*
X1024363Y51308D01*
X1024440Y51225D01*
X1024515Y51139D01*
X1024586Y51051D01*
X1024654Y50960D01*
X1024719Y50867D01*
X1024781Y50772D01*
X1024840Y50675D01*
X1024895Y50576D01*
X1024946Y50475D01*
X1024994Y50372D01*
X1025038Y50267D01*
X1025079Y50162D01*
X1025116Y50054D01*
X1025149Y49946D01*
X1025178Y49836D01*
X1025204Y49726D01*
X1025226Y49614D01*
X1025243Y49502D01*
X1025257Y49390D01*
X1025267Y49277D01*
X1025273Y49163D01*
X1025275Y49050D01*
X1025273Y48937D01*
X1025267Y48823D01*
X1025257Y48710D01*
X1025243Y48598D01*
X1025226Y48486D01*
X1025204Y48374D01*
X1025178Y48264D01*
X1025149Y48154D01*
X1025116Y48046D01*
X1025079Y47938D01*
X1025038Y47833D01*
X1024994Y47728D01*
X1024946Y47625D01*
X1024895Y47524D01*
X1024840Y47425D01*
X1024781Y47328D01*
X1024719Y47233D01*
X1024654Y47140D01*
X1024586Y47049D01*
X1024515Y46961D01*
X1024440Y46875D01*
X1024363Y46792D01*
X1024283Y46712D01*
X1024200Y46635D01*
X1024114Y46560D01*
X1024026Y46489D01*
X1023935Y46421D01*
X1023842Y46356D01*
X1023747Y46294D01*
X1023650Y46235D01*
X1023551Y46180D01*
X1023450Y46129D01*
X1023347Y46081D01*
X1023242Y46037D01*
X1023137Y45996D01*
X1023029Y45959D01*
X1022921Y45926D01*
X1022811Y45897D01*
X1022701Y45871D01*
X1022589Y45849D01*
X1022477Y45832D01*
X1022365Y45818D01*
X1022252Y45808D01*
X1022138Y45802D01*
X1022025Y45800D01*
X1021912Y45802D01*
X1021798Y45808D01*
X1021685Y45818D01*
X1021573Y45832D01*
X1021461Y45849D01*
X1021349Y45871D01*
X1021239Y45897D01*
X1021129Y45926D01*
X1021021Y45959D01*
X1020913Y45996D01*
X1020808Y46037D01*
X1020703Y46081D01*
X1020600Y46129D01*
X1020499Y46180D01*
X1020400Y46235D01*
X1020303Y46294D01*
X1020208Y46356D01*
X1020115Y46421D01*
X1020024Y46489D01*
X1019936Y46560D01*
X1019850Y46635D01*
X1019767Y46712D01*
X1019687Y46792D01*
X1019610Y46875D01*
X1019535Y46961D01*
X1019464Y47049D01*
X1019396Y47140D01*
X1019331Y47233D01*
X1019269Y47328D01*
X1019210Y47425D01*
X1019155Y47524D01*
X1019104Y47625D01*
X1019056Y47728D01*
X1019012Y47833D01*
X1018971Y47938D01*
X1018934Y48046D01*
X1018901Y48154D01*
X1018872Y48264D01*
X1018846Y48374D01*
X1018824Y48486D01*
X1018807Y48598D01*
X1018793Y48710D01*
X1018783Y48823D01*
X1018777Y48937D01*
X1018775Y49050D01*
X1076575Y49050D02*
X1076577Y49163D01*
X1076583Y49277D01*
X1076593Y49390D01*
X1076607Y49502D01*
X1076624Y49614D01*
X1076646Y49726D01*
X1076672Y49836D01*
X1076701Y49946D01*
X1076734Y50054D01*
X1076771Y50162D01*
X1076812Y50267D01*
X1076856Y50372D01*
X1076904Y50475D01*
X1076955Y50576D01*
X1077010Y50675D01*
X1077069Y50772D01*
X1077131Y50867D01*
X1077196Y50960D01*
X1077264Y51051D01*
X1077335Y51139D01*
X1077410Y51225D01*
X1077487Y51308D01*
X1077567Y51388D01*
X1077650Y51465D01*
X1077736Y51540D01*
X1077824Y51611D01*
X1077915Y51679D01*
X1078008Y51744D01*
X1078103Y51806D01*
X1078200Y51865D01*
X1078299Y51920D01*
X1078400Y51971D01*
X1078503Y52019D01*
X1078608Y52063D01*
X1078713Y52104D01*
X1078821Y52141D01*
X1078929Y52174D01*
X1079039Y52203D01*
X1079149Y52229D01*
X1079261Y52251D01*
X1079373Y52268D01*
X1079485Y52282D01*
X1079598Y52292D01*
X1079712Y52298D01*
X1079825Y52300D01*
X1079938Y52298D01*
X1080052Y52292D01*
X1080165Y52282D01*
X1080277Y52268D01*
X1080389Y52251D01*
X1080501Y52229D01*
X1080611Y52203D01*
X1080721Y52174D01*
X1080829Y52141D01*
X1080937Y52104D01*
X1081042Y52063D01*
X1081147Y52019D01*
X1081250Y51971D01*
X1081351Y51920D01*
X1081450Y51865D01*
X1081547Y51806D01*
X1081642Y51744D01*
X1081735Y51679D01*
X1081826Y51611D01*
X1081914Y51540D01*
X1082000Y51465D01*
X1082083Y51388D01*
X1082163Y51308D01*
X1082240Y51225D01*
X1082315Y51139D01*
X1082386Y51051D01*
X1082454Y50960D01*
X1082519Y50867D01*
X1082581Y50772D01*
X1082640Y50675D01*
X1082695Y50576D01*
X1082746Y50475D01*
X1082794Y50372D01*
X1082838Y50267D01*
X1082879Y50162D01*
X1082916Y50054D01*
X1082949Y49946D01*
X1082978Y49836D01*
X1083004Y49726D01*
X1083026Y49614D01*
X1083043Y49502D01*
X1083057Y49390D01*
X1083067Y49277D01*
X1083073Y49163D01*
X1083075Y49050D01*
X1083073Y48937D01*
X1083067Y48823D01*
X1083057Y48710D01*
X1083043Y48598D01*
X1083026Y48486D01*
X1083004Y48374D01*
X1082978Y48264D01*
X1082949Y48154D01*
X1082916Y48046D01*
X1082879Y47938D01*
X1082838Y47833D01*
X1082794Y47728D01*
X1082746Y47625D01*
X1082695Y47524D01*
X1082640Y47425D01*
X1082581Y47328D01*
X1082519Y47233D01*
X1082454Y47140D01*
X1082386Y47049D01*
X1082315Y46961D01*
X1082240Y46875D01*
X1082163Y46792D01*
X1082083Y46712D01*
X1082000Y46635D01*
X1081914Y46560D01*
X1081826Y46489D01*
X1081735Y46421D01*
X1081642Y46356D01*
X1081547Y46294D01*
X1081450Y46235D01*
X1081351Y46180D01*
X1081250Y46129D01*
X1081147Y46081D01*
X1081042Y46037D01*
X1080937Y45996D01*
X1080829Y45959D01*
X1080721Y45926D01*
X1080611Y45897D01*
X1080501Y45871D01*
X1080389Y45849D01*
X1080277Y45832D01*
X1080165Y45818D01*
X1080052Y45808D01*
X1079938Y45802D01*
X1079825Y45800D01*
X1079712Y45802D01*
X1079598Y45808D01*
X1079485Y45818D01*
X1079373Y45832D01*
X1079261Y45849D01*
X1079149Y45871D01*
X1079039Y45897D01*
X1078929Y45926D01*
X1078821Y45959D01*
X1078713Y45996D01*
X1078608Y46037D01*
X1078503Y46081D01*
X1078400Y46129D01*
X1078299Y46180D01*
X1078200Y46235D01*
X1078103Y46294D01*
X1078008Y46356D01*
X1077915Y46421D01*
X1077824Y46489D01*
X1077736Y46560D01*
X1077650Y46635D01*
X1077567Y46712D01*
X1077487Y46792D01*
X1077410Y46875D01*
X1077335Y46961D01*
X1077264Y47049D01*
X1077196Y47140D01*
X1077131Y47233D01*
X1077069Y47328D01*
X1077010Y47425D01*
X1076955Y47524D01*
X1076904Y47625D01*
X1076856Y47728D01*
X1076812Y47833D01*
X1076771Y47938D01*
X1076734Y48046D01*
X1076701Y48154D01*
X1076672Y48264D01*
X1076646Y48374D01*
X1076624Y48486D01*
X1076607Y48598D01*
X1076593Y48710D01*
X1076583Y48823D01*
X1076577Y48937D01*
X1076575Y49050D01*
D16*
X1007745Y48850D02*
X1007745Y59850D01*
X1094105Y59850D02*
X1094105Y48850D01*
X1007745Y15700D02*
X1007745Y9500D01*
X1094105Y9500D02*
X1094105Y15700D01*
D15*
X1409325Y922020D02*
X1409330Y922419D01*
X1409345Y922817D01*
X1409369Y923215D01*
X1409403Y923613D01*
X1409447Y924009D01*
X1409501Y924404D01*
X1409564Y924798D01*
X1409637Y925190D01*
X1409720Y925580D01*
X1409812Y925968D01*
X1409914Y926354D01*
X1410025Y926737D01*
X1410145Y927117D01*
X1410275Y927494D01*
X1410414Y927868D01*
X1410562Y928239D01*
X1410719Y928605D01*
X1410885Y928968D01*
X1411060Y929326D01*
X1411244Y929680D01*
X1411436Y930030D01*
X1411637Y930374D01*
X1411846Y930714D01*
X1412064Y931048D01*
X1412289Y931377D01*
X1412523Y931700D01*
X1412764Y932018D01*
X1413014Y932329D01*
X1413270Y932634D01*
X1413535Y932933D01*
X1413806Y933225D01*
X1414085Y933510D01*
X1414370Y933789D01*
X1414662Y934060D01*
X1414961Y934325D01*
X1415266Y934581D01*
X1415577Y934831D01*
X1415895Y935072D01*
X1416218Y935306D01*
X1416547Y935531D01*
X1416881Y935749D01*
X1417221Y935958D01*
X1417565Y936159D01*
X1417915Y936351D01*
X1418269Y936535D01*
X1418627Y936710D01*
X1418990Y936876D01*
X1419356Y937033D01*
X1419727Y937181D01*
X1420101Y937320D01*
X1420478Y937450D01*
X1420858Y937570D01*
X1421241Y937681D01*
X1421627Y937783D01*
X1422015Y937875D01*
X1422405Y937958D01*
X1422797Y938031D01*
X1423191Y938094D01*
X1423586Y938148D01*
X1423982Y938192D01*
X1424380Y938226D01*
X1424778Y938250D01*
X1425176Y938265D01*
X1425575Y938270D01*
X1425974Y938265D01*
X1426372Y938250D01*
X1426770Y938226D01*
X1427168Y938192D01*
X1427564Y938148D01*
X1427959Y938094D01*
X1428353Y938031D01*
X1428745Y937958D01*
X1429135Y937875D01*
X1429523Y937783D01*
X1429909Y937681D01*
X1430292Y937570D01*
X1430672Y937450D01*
X1431049Y937320D01*
X1431423Y937181D01*
X1431794Y937033D01*
X1432160Y936876D01*
X1432523Y936710D01*
X1432881Y936535D01*
X1433235Y936351D01*
X1433585Y936159D01*
X1433929Y935958D01*
X1434269Y935749D01*
X1434603Y935531D01*
X1434932Y935306D01*
X1435255Y935072D01*
X1435573Y934831D01*
X1435884Y934581D01*
X1436189Y934325D01*
X1436488Y934060D01*
X1436780Y933789D01*
X1437065Y933510D01*
X1437344Y933225D01*
X1437615Y932933D01*
X1437880Y932634D01*
X1438136Y932329D01*
X1438386Y932018D01*
X1438627Y931700D01*
X1438861Y931377D01*
X1439086Y931048D01*
X1439304Y930714D01*
X1439513Y930374D01*
X1439714Y930030D01*
X1439906Y929680D01*
X1440090Y929326D01*
X1440265Y928968D01*
X1440431Y928605D01*
X1440588Y928239D01*
X1440736Y927868D01*
X1440875Y927494D01*
X1441005Y927117D01*
X1441125Y926737D01*
X1441236Y926354D01*
X1441338Y925968D01*
X1441430Y925580D01*
X1441513Y925190D01*
X1441586Y924798D01*
X1441649Y924404D01*
X1441703Y924009D01*
X1441747Y923613D01*
X1441781Y923215D01*
X1441805Y922817D01*
X1441820Y922419D01*
X1441825Y922020D01*
X1441820Y921621D01*
X1441805Y921223D01*
X1441781Y920825D01*
X1441747Y920427D01*
X1441703Y920031D01*
X1441649Y919636D01*
X1441586Y919242D01*
X1441513Y918850D01*
X1441430Y918460D01*
X1441338Y918072D01*
X1441236Y917686D01*
X1441125Y917303D01*
X1441005Y916923D01*
X1440875Y916546D01*
X1440736Y916172D01*
X1440588Y915801D01*
X1440431Y915435D01*
X1440265Y915072D01*
X1440090Y914714D01*
X1439906Y914360D01*
X1439714Y914010D01*
X1439513Y913666D01*
X1439304Y913326D01*
X1439086Y912992D01*
X1438861Y912663D01*
X1438627Y912340D01*
X1438386Y912022D01*
X1438136Y911711D01*
X1437880Y911406D01*
X1437615Y911107D01*
X1437344Y910815D01*
X1437065Y910530D01*
X1436780Y910251D01*
X1436488Y909980D01*
X1436189Y909715D01*
X1435884Y909459D01*
X1435573Y909209D01*
X1435255Y908968D01*
X1434932Y908734D01*
X1434603Y908509D01*
X1434269Y908291D01*
X1433929Y908082D01*
X1433585Y907881D01*
X1433235Y907689D01*
X1432881Y907505D01*
X1432523Y907330D01*
X1432160Y907164D01*
X1431794Y907007D01*
X1431423Y906859D01*
X1431049Y906720D01*
X1430672Y906590D01*
X1430292Y906470D01*
X1429909Y906359D01*
X1429523Y906257D01*
X1429135Y906165D01*
X1428745Y906082D01*
X1428353Y906009D01*
X1427959Y905946D01*
X1427564Y905892D01*
X1427168Y905848D01*
X1426770Y905814D01*
X1426372Y905790D01*
X1425974Y905775D01*
X1425575Y905770D01*
X1425176Y905775D01*
X1424778Y905790D01*
X1424380Y905814D01*
X1423982Y905848D01*
X1423586Y905892D01*
X1423191Y905946D01*
X1422797Y906009D01*
X1422405Y906082D01*
X1422015Y906165D01*
X1421627Y906257D01*
X1421241Y906359D01*
X1420858Y906470D01*
X1420478Y906590D01*
X1420101Y906720D01*
X1419727Y906859D01*
X1419356Y907007D01*
X1418990Y907164D01*
X1418627Y907330D01*
X1418269Y907505D01*
X1417915Y907689D01*
X1417565Y907881D01*
X1417221Y908082D01*
X1416881Y908291D01*
X1416547Y908509D01*
X1416218Y908734D01*
X1415895Y908968D01*
X1415577Y909209D01*
X1415266Y909459D01*
X1414961Y909715D01*
X1414662Y909980D01*
X1414370Y910251D01*
X1414085Y910530D01*
X1413806Y910815D01*
X1413535Y911107D01*
X1413270Y911406D01*
X1413014Y911711D01*
X1412764Y912022D01*
X1412523Y912340D01*
X1412289Y912663D01*
X1412064Y912992D01*
X1411846Y913326D01*
X1411637Y913666D01*
X1411436Y914010D01*
X1411244Y914360D01*
X1411060Y914714D01*
X1410885Y915072D01*
X1410719Y915435D01*
X1410562Y915801D01*
X1410414Y916172D01*
X1410275Y916546D01*
X1410145Y916923D01*
X1410025Y917303D01*
X1409914Y917686D01*
X1409812Y918072D01*
X1409720Y918460D01*
X1409637Y918850D01*
X1409564Y919242D01*
X1409501Y919636D01*
X1409447Y920031D01*
X1409403Y920427D01*
X1409369Y920825D01*
X1409345Y921223D01*
X1409330Y921621D01*
X1409325Y922020D01*
X1295025Y922020D02*
X1295030Y922419D01*
X1295045Y922817D01*
X1295069Y923215D01*
X1295103Y923613D01*
X1295147Y924009D01*
X1295201Y924404D01*
X1295264Y924798D01*
X1295337Y925190D01*
X1295420Y925580D01*
X1295512Y925968D01*
X1295614Y926354D01*
X1295725Y926737D01*
X1295845Y927117D01*
X1295975Y927494D01*
X1296114Y927868D01*
X1296262Y928239D01*
X1296419Y928605D01*
X1296585Y928968D01*
X1296760Y929326D01*
X1296944Y929680D01*
X1297136Y930030D01*
X1297337Y930374D01*
X1297546Y930714D01*
X1297764Y931048D01*
X1297989Y931377D01*
X1298223Y931700D01*
X1298464Y932018D01*
X1298714Y932329D01*
X1298970Y932634D01*
X1299235Y932933D01*
X1299506Y933225D01*
X1299785Y933510D01*
X1300070Y933789D01*
X1300362Y934060D01*
X1300661Y934325D01*
X1300966Y934581D01*
X1301277Y934831D01*
X1301595Y935072D01*
X1301918Y935306D01*
X1302247Y935531D01*
X1302581Y935749D01*
X1302921Y935958D01*
X1303265Y936159D01*
X1303615Y936351D01*
X1303969Y936535D01*
X1304327Y936710D01*
X1304690Y936876D01*
X1305056Y937033D01*
X1305427Y937181D01*
X1305801Y937320D01*
X1306178Y937450D01*
X1306558Y937570D01*
X1306941Y937681D01*
X1307327Y937783D01*
X1307715Y937875D01*
X1308105Y937958D01*
X1308497Y938031D01*
X1308891Y938094D01*
X1309286Y938148D01*
X1309682Y938192D01*
X1310080Y938226D01*
X1310478Y938250D01*
X1310876Y938265D01*
X1311275Y938270D01*
X1311674Y938265D01*
X1312072Y938250D01*
X1312470Y938226D01*
X1312868Y938192D01*
X1313264Y938148D01*
X1313659Y938094D01*
X1314053Y938031D01*
X1314445Y937958D01*
X1314835Y937875D01*
X1315223Y937783D01*
X1315609Y937681D01*
X1315992Y937570D01*
X1316372Y937450D01*
X1316749Y937320D01*
X1317123Y937181D01*
X1317494Y937033D01*
X1317860Y936876D01*
X1318223Y936710D01*
X1318581Y936535D01*
X1318935Y936351D01*
X1319285Y936159D01*
X1319629Y935958D01*
X1319969Y935749D01*
X1320303Y935531D01*
X1320632Y935306D01*
X1320955Y935072D01*
X1321273Y934831D01*
X1321584Y934581D01*
X1321889Y934325D01*
X1322188Y934060D01*
X1322480Y933789D01*
X1322765Y933510D01*
X1323044Y933225D01*
X1323315Y932933D01*
X1323580Y932634D01*
X1323836Y932329D01*
X1324086Y932018D01*
X1324327Y931700D01*
X1324561Y931377D01*
X1324786Y931048D01*
X1325004Y930714D01*
X1325213Y930374D01*
X1325414Y930030D01*
X1325606Y929680D01*
X1325790Y929326D01*
X1325965Y928968D01*
X1326131Y928605D01*
X1326288Y928239D01*
X1326436Y927868D01*
X1326575Y927494D01*
X1326705Y927117D01*
X1326825Y926737D01*
X1326936Y926354D01*
X1327038Y925968D01*
X1327130Y925580D01*
X1327213Y925190D01*
X1327286Y924798D01*
X1327349Y924404D01*
X1327403Y924009D01*
X1327447Y923613D01*
X1327481Y923215D01*
X1327505Y922817D01*
X1327520Y922419D01*
X1327525Y922020D01*
X1327520Y921621D01*
X1327505Y921223D01*
X1327481Y920825D01*
X1327447Y920427D01*
X1327403Y920031D01*
X1327349Y919636D01*
X1327286Y919242D01*
X1327213Y918850D01*
X1327130Y918460D01*
X1327038Y918072D01*
X1326936Y917686D01*
X1326825Y917303D01*
X1326705Y916923D01*
X1326575Y916546D01*
X1326436Y916172D01*
X1326288Y915801D01*
X1326131Y915435D01*
X1325965Y915072D01*
X1325790Y914714D01*
X1325606Y914360D01*
X1325414Y914010D01*
X1325213Y913666D01*
X1325004Y913326D01*
X1324786Y912992D01*
X1324561Y912663D01*
X1324327Y912340D01*
X1324086Y912022D01*
X1323836Y911711D01*
X1323580Y911406D01*
X1323315Y911107D01*
X1323044Y910815D01*
X1322765Y910530D01*
X1322480Y910251D01*
X1322188Y909980D01*
X1321889Y909715D01*
X1321584Y909459D01*
X1321273Y909209D01*
X1320955Y908968D01*
X1320632Y908734D01*
X1320303Y908509D01*
X1319969Y908291D01*
X1319629Y908082D01*
X1319285Y907881D01*
X1318935Y907689D01*
X1318581Y907505D01*
X1318223Y907330D01*
X1317860Y907164D01*
X1317494Y907007D01*
X1317123Y906859D01*
X1316749Y906720D01*
X1316372Y906590D01*
X1315992Y906470D01*
X1315609Y906359D01*
X1315223Y906257D01*
X1314835Y906165D01*
X1314445Y906082D01*
X1314053Y906009D01*
X1313659Y905946D01*
X1313264Y905892D01*
X1312868Y905848D01*
X1312470Y905814D01*
X1312072Y905790D01*
X1311674Y905775D01*
X1311275Y905770D01*
X1310876Y905775D01*
X1310478Y905790D01*
X1310080Y905814D01*
X1309682Y905848D01*
X1309286Y905892D01*
X1308891Y905946D01*
X1308497Y906009D01*
X1308105Y906082D01*
X1307715Y906165D01*
X1307327Y906257D01*
X1306941Y906359D01*
X1306558Y906470D01*
X1306178Y906590D01*
X1305801Y906720D01*
X1305427Y906859D01*
X1305056Y907007D01*
X1304690Y907164D01*
X1304327Y907330D01*
X1303969Y907505D01*
X1303615Y907689D01*
X1303265Y907881D01*
X1302921Y908082D01*
X1302581Y908291D01*
X1302247Y908509D01*
X1301918Y908734D01*
X1301595Y908968D01*
X1301277Y909209D01*
X1300966Y909459D01*
X1300661Y909715D01*
X1300362Y909980D01*
X1300070Y910251D01*
X1299785Y910530D01*
X1299506Y910815D01*
X1299235Y911107D01*
X1298970Y911406D01*
X1298714Y911711D01*
X1298464Y912022D01*
X1298223Y912340D01*
X1297989Y912663D01*
X1297764Y912992D01*
X1297546Y913326D01*
X1297337Y913666D01*
X1297136Y914010D01*
X1296944Y914360D01*
X1296760Y914714D01*
X1296585Y915072D01*
X1296419Y915435D01*
X1296262Y915801D01*
X1296114Y916172D01*
X1295975Y916546D01*
X1295845Y916923D01*
X1295725Y917303D01*
X1295614Y917686D01*
X1295512Y918072D01*
X1295420Y918460D01*
X1295337Y918850D01*
X1295264Y919242D01*
X1295201Y919636D01*
X1295147Y920031D01*
X1295103Y920427D01*
X1295069Y920825D01*
X1295045Y921223D01*
X1295030Y921621D01*
X1295025Y922020D01*
X635635Y101600D02*
X635640Y101974D01*
X635653Y102348D01*
X635676Y102721D01*
X635708Y103094D01*
X635750Y103466D01*
X635800Y103836D01*
X635859Y104205D01*
X635928Y104573D01*
X636005Y104939D01*
X636092Y105303D01*
X636187Y105665D01*
X636291Y106024D01*
X636404Y106381D01*
X636526Y106734D01*
X636656Y107085D01*
X636795Y107432D01*
X636942Y107776D01*
X637098Y108116D01*
X637262Y108452D01*
X637435Y108784D01*
X637615Y109112D01*
X637803Y109435D01*
X637999Y109753D01*
X638203Y110067D01*
X638415Y110375D01*
X638634Y110678D01*
X638861Y110976D01*
X639094Y111268D01*
X639335Y111554D01*
X639583Y111835D01*
X639837Y112109D01*
X640099Y112376D01*
X640366Y112638D01*
X640640Y112892D01*
X640921Y113140D01*
X641207Y113381D01*
X641499Y113614D01*
X641797Y113841D01*
X642100Y114060D01*
X642408Y114272D01*
X642722Y114476D01*
X643040Y114672D01*
X643363Y114860D01*
X643691Y115040D01*
X644023Y115213D01*
X644359Y115377D01*
X644699Y115533D01*
X645043Y115680D01*
X645390Y115819D01*
X645741Y115949D01*
X646094Y116071D01*
X646451Y116184D01*
X646810Y116288D01*
X647172Y116383D01*
X647536Y116470D01*
X647902Y116547D01*
X648270Y116616D01*
X648639Y116675D01*
X649009Y116725D01*
X649381Y116767D01*
X649754Y116799D01*
X650127Y116822D01*
X650501Y116835D01*
X650875Y116840D01*
X651249Y116835D01*
X651623Y116822D01*
X651996Y116799D01*
X652369Y116767D01*
X652741Y116725D01*
X653111Y116675D01*
X653480Y116616D01*
X653848Y116547D01*
X654214Y116470D01*
X654578Y116383D01*
X654940Y116288D01*
X655299Y116184D01*
X655656Y116071D01*
X656009Y115949D01*
X656360Y115819D01*
X656707Y115680D01*
X657051Y115533D01*
X657391Y115377D01*
X657727Y115213D01*
X658059Y115040D01*
X658387Y114860D01*
X658710Y114672D01*
X659028Y114476D01*
X659342Y114272D01*
X659650Y114060D01*
X659953Y113841D01*
X660251Y113614D01*
X660543Y113381D01*
X660829Y113140D01*
X661110Y112892D01*
X661384Y112638D01*
X661651Y112376D01*
X661913Y112109D01*
X662167Y111835D01*
X662415Y111554D01*
X662656Y111268D01*
X662889Y110976D01*
X663116Y110678D01*
X663335Y110375D01*
X663547Y110067D01*
X663751Y109753D01*
X663947Y109435D01*
X664135Y109112D01*
X664315Y108784D01*
X664488Y108452D01*
X664652Y108116D01*
X664808Y107776D01*
X664955Y107432D01*
X665094Y107085D01*
X665224Y106734D01*
X665346Y106381D01*
X665459Y106024D01*
X665563Y105665D01*
X665658Y105303D01*
X665745Y104939D01*
X665822Y104573D01*
X665891Y104205D01*
X665950Y103836D01*
X666000Y103466D01*
X666042Y103094D01*
X666074Y102721D01*
X666097Y102348D01*
X666110Y101974D01*
X666115Y101600D01*
X666110Y101226D01*
X666097Y100852D01*
X666074Y100479D01*
X666042Y100106D01*
X666000Y99734D01*
X665950Y99364D01*
X665891Y98995D01*
X665822Y98627D01*
X665745Y98261D01*
X665658Y97897D01*
X665563Y97535D01*
X665459Y97176D01*
X665346Y96819D01*
X665224Y96466D01*
X665094Y96115D01*
X664955Y95768D01*
X664808Y95424D01*
X664652Y95084D01*
X664488Y94748D01*
X664315Y94416D01*
X664135Y94088D01*
X663947Y93765D01*
X663751Y93447D01*
X663547Y93133D01*
X663335Y92825D01*
X663116Y92522D01*
X662889Y92224D01*
X662656Y91932D01*
X662415Y91646D01*
X662167Y91365D01*
X661913Y91091D01*
X661651Y90824D01*
X661384Y90562D01*
X661110Y90308D01*
X660829Y90060D01*
X660543Y89819D01*
X660251Y89586D01*
X659953Y89359D01*
X659650Y89140D01*
X659342Y88928D01*
X659028Y88724D01*
X658710Y88528D01*
X658387Y88340D01*
X658059Y88160D01*
X657727Y87987D01*
X657391Y87823D01*
X657051Y87667D01*
X656707Y87520D01*
X656360Y87381D01*
X656009Y87251D01*
X655656Y87129D01*
X655299Y87016D01*
X654940Y86912D01*
X654578Y86817D01*
X654214Y86730D01*
X653848Y86653D01*
X653480Y86584D01*
X653111Y86525D01*
X652741Y86475D01*
X652369Y86433D01*
X651996Y86401D01*
X651623Y86378D01*
X651249Y86365D01*
X650875Y86360D01*
X650501Y86365D01*
X650127Y86378D01*
X649754Y86401D01*
X649381Y86433D01*
X649009Y86475D01*
X648639Y86525D01*
X648270Y86584D01*
X647902Y86653D01*
X647536Y86730D01*
X647172Y86817D01*
X646810Y86912D01*
X646451Y87016D01*
X646094Y87129D01*
X645741Y87251D01*
X645390Y87381D01*
X645043Y87520D01*
X644699Y87667D01*
X644359Y87823D01*
X644023Y87987D01*
X643691Y88160D01*
X643363Y88340D01*
X643040Y88528D01*
X642722Y88724D01*
X642408Y88928D01*
X642100Y89140D01*
X641797Y89359D01*
X641499Y89586D01*
X641207Y89819D01*
X640921Y90060D01*
X640640Y90308D01*
X640366Y90562D01*
X640099Y90824D01*
X639837Y91091D01*
X639583Y91365D01*
X639335Y91646D01*
X639094Y91932D01*
X638861Y92224D01*
X638634Y92522D01*
X638415Y92825D01*
X638203Y93133D01*
X637999Y93447D01*
X637803Y93765D01*
X637615Y94088D01*
X637435Y94416D01*
X637262Y94748D01*
X637098Y95084D01*
X636942Y95424D01*
X636795Y95768D01*
X636656Y96115D01*
X636526Y96466D01*
X636404Y96819D01*
X636291Y97176D01*
X636187Y97535D01*
X636092Y97897D01*
X636005Y98261D01*
X635928Y98627D01*
X635859Y98995D01*
X635800Y99364D01*
X635750Y99734D01*
X635708Y100106D01*
X635676Y100479D01*
X635653Y100852D01*
X635640Y101226D01*
X635635Y101600D01*
X851535Y101600D02*
X851540Y101974D01*
X851553Y102348D01*
X851576Y102721D01*
X851608Y103094D01*
X851650Y103466D01*
X851700Y103836D01*
X851759Y104205D01*
X851828Y104573D01*
X851905Y104939D01*
X851992Y105303D01*
X852087Y105665D01*
X852191Y106024D01*
X852304Y106381D01*
X852426Y106734D01*
X852556Y107085D01*
X852695Y107432D01*
X852842Y107776D01*
X852998Y108116D01*
X853162Y108452D01*
X853335Y108784D01*
X853515Y109112D01*
X853703Y109435D01*
X853899Y109753D01*
X854103Y110067D01*
X854315Y110375D01*
X854534Y110678D01*
X854761Y110976D01*
X854994Y111268D01*
X855235Y111554D01*
X855483Y111835D01*
X855737Y112109D01*
X855999Y112376D01*
X856266Y112638D01*
X856540Y112892D01*
X856821Y113140D01*
X857107Y113381D01*
X857399Y113614D01*
X857697Y113841D01*
X858000Y114060D01*
X858308Y114272D01*
X858622Y114476D01*
X858940Y114672D01*
X859263Y114860D01*
X859591Y115040D01*
X859923Y115213D01*
X860259Y115377D01*
X860599Y115533D01*
X860943Y115680D01*
X861290Y115819D01*
X861641Y115949D01*
X861994Y116071D01*
X862351Y116184D01*
X862710Y116288D01*
X863072Y116383D01*
X863436Y116470D01*
X863802Y116547D01*
X864170Y116616D01*
X864539Y116675D01*
X864909Y116725D01*
X865281Y116767D01*
X865654Y116799D01*
X866027Y116822D01*
X866401Y116835D01*
X866775Y116840D01*
X867149Y116835D01*
X867523Y116822D01*
X867896Y116799D01*
X868269Y116767D01*
X868641Y116725D01*
X869011Y116675D01*
X869380Y116616D01*
X869748Y116547D01*
X870114Y116470D01*
X870478Y116383D01*
X870840Y116288D01*
X871199Y116184D01*
X871556Y116071D01*
X871909Y115949D01*
X872260Y115819D01*
X872607Y115680D01*
X872951Y115533D01*
X873291Y115377D01*
X873627Y115213D01*
X873959Y115040D01*
X874287Y114860D01*
X874610Y114672D01*
X874928Y114476D01*
X875242Y114272D01*
X875550Y114060D01*
X875853Y113841D01*
X876151Y113614D01*
X876443Y113381D01*
X876729Y113140D01*
X877010Y112892D01*
X877284Y112638D01*
X877551Y112376D01*
X877813Y112109D01*
X878067Y111835D01*
X878315Y111554D01*
X878556Y111268D01*
X878789Y110976D01*
X879016Y110678D01*
X879235Y110375D01*
X879447Y110067D01*
X879651Y109753D01*
X879847Y109435D01*
X880035Y109112D01*
X880215Y108784D01*
X880388Y108452D01*
X880552Y108116D01*
X880708Y107776D01*
X880855Y107432D01*
X880994Y107085D01*
X881124Y106734D01*
X881246Y106381D01*
X881359Y106024D01*
X881463Y105665D01*
X881558Y105303D01*
X881645Y104939D01*
X881722Y104573D01*
X881791Y104205D01*
X881850Y103836D01*
X881900Y103466D01*
X881942Y103094D01*
X881974Y102721D01*
X881997Y102348D01*
X882010Y101974D01*
X882015Y101600D01*
X882010Y101226D01*
X881997Y100852D01*
X881974Y100479D01*
X881942Y100106D01*
X881900Y99734D01*
X881850Y99364D01*
X881791Y98995D01*
X881722Y98627D01*
X881645Y98261D01*
X881558Y97897D01*
X881463Y97535D01*
X881359Y97176D01*
X881246Y96819D01*
X881124Y96466D01*
X880994Y96115D01*
X880855Y95768D01*
X880708Y95424D01*
X880552Y95084D01*
X880388Y94748D01*
X880215Y94416D01*
X880035Y94088D01*
X879847Y93765D01*
X879651Y93447D01*
X879447Y93133D01*
X879235Y92825D01*
X879016Y92522D01*
X878789Y92224D01*
X878556Y91932D01*
X878315Y91646D01*
X878067Y91365D01*
X877813Y91091D01*
X877551Y90824D01*
X877284Y90562D01*
X877010Y90308D01*
X876729Y90060D01*
X876443Y89819D01*
X876151Y89586D01*
X875853Y89359D01*
X875550Y89140D01*
X875242Y88928D01*
X874928Y88724D01*
X874610Y88528D01*
X874287Y88340D01*
X873959Y88160D01*
X873627Y87987D01*
X873291Y87823D01*
X872951Y87667D01*
X872607Y87520D01*
X872260Y87381D01*
X871909Y87251D01*
X871556Y87129D01*
X871199Y87016D01*
X870840Y86912D01*
X870478Y86817D01*
X870114Y86730D01*
X869748Y86653D01*
X869380Y86584D01*
X869011Y86525D01*
X868641Y86475D01*
X868269Y86433D01*
X867896Y86401D01*
X867523Y86378D01*
X867149Y86365D01*
X866775Y86360D01*
X866401Y86365D01*
X866027Y86378D01*
X865654Y86401D01*
X865281Y86433D01*
X864909Y86475D01*
X864539Y86525D01*
X864170Y86584D01*
X863802Y86653D01*
X863436Y86730D01*
X863072Y86817D01*
X862710Y86912D01*
X862351Y87016D01*
X861994Y87129D01*
X861641Y87251D01*
X861290Y87381D01*
X860943Y87520D01*
X860599Y87667D01*
X860259Y87823D01*
X859923Y87987D01*
X859591Y88160D01*
X859263Y88340D01*
X858940Y88528D01*
X858622Y88724D01*
X858308Y88928D01*
X858000Y89140D01*
X857697Y89359D01*
X857399Y89586D01*
X857107Y89819D01*
X856821Y90060D01*
X856540Y90308D01*
X856266Y90562D01*
X855999Y90824D01*
X855737Y91091D01*
X855483Y91365D01*
X855235Y91646D01*
X854994Y91932D01*
X854761Y92224D01*
X854534Y92522D01*
X854315Y92825D01*
X854103Y93133D01*
X853899Y93447D01*
X853703Y93765D01*
X853515Y94088D01*
X853335Y94416D01*
X853162Y94748D01*
X852998Y95084D01*
X852842Y95424D01*
X852695Y95768D01*
X852556Y96115D01*
X852426Y96466D01*
X852304Y96819D01*
X852191Y97176D01*
X852087Y97535D01*
X851992Y97897D01*
X851905Y98261D01*
X851828Y98627D01*
X851759Y98995D01*
X851700Y99364D01*
X851650Y99734D01*
X851608Y100106D01*
X851576Y100479D01*
X851553Y100852D01*
X851540Y101226D01*
X851535Y101600D01*
X190125Y922020D02*
X190130Y922419D01*
X190145Y922817D01*
X190169Y923215D01*
X190203Y923613D01*
X190247Y924009D01*
X190301Y924404D01*
X190364Y924798D01*
X190437Y925190D01*
X190520Y925580D01*
X190612Y925968D01*
X190714Y926354D01*
X190825Y926737D01*
X190945Y927117D01*
X191075Y927494D01*
X191214Y927868D01*
X191362Y928239D01*
X191519Y928605D01*
X191685Y928968D01*
X191860Y929326D01*
X192044Y929680D01*
X192236Y930030D01*
X192437Y930374D01*
X192646Y930714D01*
X192864Y931048D01*
X193089Y931377D01*
X193323Y931700D01*
X193564Y932018D01*
X193814Y932329D01*
X194070Y932634D01*
X194335Y932933D01*
X194606Y933225D01*
X194885Y933510D01*
X195170Y933789D01*
X195462Y934060D01*
X195761Y934325D01*
X196066Y934581D01*
X196377Y934831D01*
X196695Y935072D01*
X197018Y935306D01*
X197347Y935531D01*
X197681Y935749D01*
X198021Y935958D01*
X198365Y936159D01*
X198715Y936351D01*
X199069Y936535D01*
X199427Y936710D01*
X199790Y936876D01*
X200156Y937033D01*
X200527Y937181D01*
X200901Y937320D01*
X201278Y937450D01*
X201658Y937570D01*
X202041Y937681D01*
X202427Y937783D01*
X202815Y937875D01*
X203205Y937958D01*
X203597Y938031D01*
X203991Y938094D01*
X204386Y938148D01*
X204782Y938192D01*
X205180Y938226D01*
X205578Y938250D01*
X205976Y938265D01*
X206375Y938270D01*
X206774Y938265D01*
X207172Y938250D01*
X207570Y938226D01*
X207968Y938192D01*
X208364Y938148D01*
X208759Y938094D01*
X209153Y938031D01*
X209545Y937958D01*
X209935Y937875D01*
X210323Y937783D01*
X210709Y937681D01*
X211092Y937570D01*
X211472Y937450D01*
X211849Y937320D01*
X212223Y937181D01*
X212594Y937033D01*
X212960Y936876D01*
X213323Y936710D01*
X213681Y936535D01*
X214035Y936351D01*
X214385Y936159D01*
X214729Y935958D01*
X215069Y935749D01*
X215403Y935531D01*
X215732Y935306D01*
X216055Y935072D01*
X216373Y934831D01*
X216684Y934581D01*
X216989Y934325D01*
X217288Y934060D01*
X217580Y933789D01*
X217865Y933510D01*
X218144Y933225D01*
X218415Y932933D01*
X218680Y932634D01*
X218936Y932329D01*
X219186Y932018D01*
X219427Y931700D01*
X219661Y931377D01*
X219886Y931048D01*
X220104Y930714D01*
X220313Y930374D01*
X220514Y930030D01*
X220706Y929680D01*
X220890Y929326D01*
X221065Y928968D01*
X221231Y928605D01*
X221388Y928239D01*
X221536Y927868D01*
X221675Y927494D01*
X221805Y927117D01*
X221925Y926737D01*
X222036Y926354D01*
X222138Y925968D01*
X222230Y925580D01*
X222313Y925190D01*
X222386Y924798D01*
X222449Y924404D01*
X222503Y924009D01*
X222547Y923613D01*
X222581Y923215D01*
X222605Y922817D01*
X222620Y922419D01*
X222625Y922020D01*
X222620Y921621D01*
X222605Y921223D01*
X222581Y920825D01*
X222547Y920427D01*
X222503Y920031D01*
X222449Y919636D01*
X222386Y919242D01*
X222313Y918850D01*
X222230Y918460D01*
X222138Y918072D01*
X222036Y917686D01*
X221925Y917303D01*
X221805Y916923D01*
X221675Y916546D01*
X221536Y916172D01*
X221388Y915801D01*
X221231Y915435D01*
X221065Y915072D01*
X220890Y914714D01*
X220706Y914360D01*
X220514Y914010D01*
X220313Y913666D01*
X220104Y913326D01*
X219886Y912992D01*
X219661Y912663D01*
X219427Y912340D01*
X219186Y912022D01*
X218936Y911711D01*
X218680Y911406D01*
X218415Y911107D01*
X218144Y910815D01*
X217865Y910530D01*
X217580Y910251D01*
X217288Y909980D01*
X216989Y909715D01*
X216684Y909459D01*
X216373Y909209D01*
X216055Y908968D01*
X215732Y908734D01*
X215403Y908509D01*
X215069Y908291D01*
X214729Y908082D01*
X214385Y907881D01*
X214035Y907689D01*
X213681Y907505D01*
X213323Y907330D01*
X212960Y907164D01*
X212594Y907007D01*
X212223Y906859D01*
X211849Y906720D01*
X211472Y906590D01*
X211092Y906470D01*
X210709Y906359D01*
X210323Y906257D01*
X209935Y906165D01*
X209545Y906082D01*
X209153Y906009D01*
X208759Y905946D01*
X208364Y905892D01*
X207968Y905848D01*
X207570Y905814D01*
X207172Y905790D01*
X206774Y905775D01*
X206375Y905770D01*
X205976Y905775D01*
X205578Y905790D01*
X205180Y905814D01*
X204782Y905848D01*
X204386Y905892D01*
X203991Y905946D01*
X203597Y906009D01*
X203205Y906082D01*
X202815Y906165D01*
X202427Y906257D01*
X202041Y906359D01*
X201658Y906470D01*
X201278Y906590D01*
X200901Y906720D01*
X200527Y906859D01*
X200156Y907007D01*
X199790Y907164D01*
X199427Y907330D01*
X199069Y907505D01*
X198715Y907689D01*
X198365Y907881D01*
X198021Y908082D01*
X197681Y908291D01*
X197347Y908509D01*
X197018Y908734D01*
X196695Y908968D01*
X196377Y909209D01*
X196066Y909459D01*
X195761Y909715D01*
X195462Y909980D01*
X195170Y910251D01*
X194885Y910530D01*
X194606Y910815D01*
X194335Y911107D01*
X194070Y911406D01*
X193814Y911711D01*
X193564Y912022D01*
X193323Y912340D01*
X193089Y912663D01*
X192864Y912992D01*
X192646Y913326D01*
X192437Y913666D01*
X192236Y914010D01*
X192044Y914360D01*
X191860Y914714D01*
X191685Y915072D01*
X191519Y915435D01*
X191362Y915801D01*
X191214Y916172D01*
X191075Y916546D01*
X190945Y916923D01*
X190825Y917303D01*
X190714Y917686D01*
X190612Y918072D01*
X190520Y918460D01*
X190437Y918850D01*
X190364Y919242D01*
X190301Y919636D01*
X190247Y920031D01*
X190203Y920427D01*
X190169Y920825D01*
X190145Y921223D01*
X190130Y921621D01*
X190125Y922020D01*
X75825Y922020D02*
X75830Y922419D01*
X75845Y922817D01*
X75869Y923215D01*
X75903Y923613D01*
X75947Y924009D01*
X76001Y924404D01*
X76064Y924798D01*
X76137Y925190D01*
X76220Y925580D01*
X76312Y925968D01*
X76414Y926354D01*
X76525Y926737D01*
X76645Y927117D01*
X76775Y927494D01*
X76914Y927868D01*
X77062Y928239D01*
X77219Y928605D01*
X77385Y928968D01*
X77560Y929326D01*
X77744Y929680D01*
X77936Y930030D01*
X78137Y930374D01*
X78346Y930714D01*
X78564Y931048D01*
X78789Y931377D01*
X79023Y931700D01*
X79264Y932018D01*
X79514Y932329D01*
X79770Y932634D01*
X80035Y932933D01*
X80306Y933225D01*
X80585Y933510D01*
X80870Y933789D01*
X81162Y934060D01*
X81461Y934325D01*
X81766Y934581D01*
X82077Y934831D01*
X82395Y935072D01*
X82718Y935306D01*
X83047Y935531D01*
X83381Y935749D01*
X83721Y935958D01*
X84065Y936159D01*
X84415Y936351D01*
X84769Y936535D01*
X85127Y936710D01*
X85490Y936876D01*
X85856Y937033D01*
X86227Y937181D01*
X86601Y937320D01*
X86978Y937450D01*
X87358Y937570D01*
X87741Y937681D01*
X88127Y937783D01*
X88515Y937875D01*
X88905Y937958D01*
X89297Y938031D01*
X89691Y938094D01*
X90086Y938148D01*
X90482Y938192D01*
X90880Y938226D01*
X91278Y938250D01*
X91676Y938265D01*
X92075Y938270D01*
X92474Y938265D01*
X92872Y938250D01*
X93270Y938226D01*
X93668Y938192D01*
X94064Y938148D01*
X94459Y938094D01*
X94853Y938031D01*
X95245Y937958D01*
X95635Y937875D01*
X96023Y937783D01*
X96409Y937681D01*
X96792Y937570D01*
X97172Y937450D01*
X97549Y937320D01*
X97923Y937181D01*
X98294Y937033D01*
X98660Y936876D01*
X99023Y936710D01*
X99381Y936535D01*
X99735Y936351D01*
X100085Y936159D01*
X100429Y935958D01*
X100769Y935749D01*
X101103Y935531D01*
X101432Y935306D01*
X101755Y935072D01*
X102073Y934831D01*
X102384Y934581D01*
X102689Y934325D01*
X102988Y934060D01*
X103280Y933789D01*
X103565Y933510D01*
X103844Y933225D01*
X104115Y932933D01*
X104380Y932634D01*
X104636Y932329D01*
X104886Y932018D01*
X105127Y931700D01*
X105361Y931377D01*
X105586Y931048D01*
X105804Y930714D01*
X106013Y930374D01*
X106214Y930030D01*
X106406Y929680D01*
X106590Y929326D01*
X106765Y928968D01*
X106931Y928605D01*
X107088Y928239D01*
X107236Y927868D01*
X107375Y927494D01*
X107505Y927117D01*
X107625Y926737D01*
X107736Y926354D01*
X107838Y925968D01*
X107930Y925580D01*
X108013Y925190D01*
X108086Y924798D01*
X108149Y924404D01*
X108203Y924009D01*
X108247Y923613D01*
X108281Y923215D01*
X108305Y922817D01*
X108320Y922419D01*
X108325Y922020D01*
X108320Y921621D01*
X108305Y921223D01*
X108281Y920825D01*
X108247Y920427D01*
X108203Y920031D01*
X108149Y919636D01*
X108086Y919242D01*
X108013Y918850D01*
X107930Y918460D01*
X107838Y918072D01*
X107736Y917686D01*
X107625Y917303D01*
X107505Y916923D01*
X107375Y916546D01*
X107236Y916172D01*
X107088Y915801D01*
X106931Y915435D01*
X106765Y915072D01*
X106590Y914714D01*
X106406Y914360D01*
X106214Y914010D01*
X106013Y913666D01*
X105804Y913326D01*
X105586Y912992D01*
X105361Y912663D01*
X105127Y912340D01*
X104886Y912022D01*
X104636Y911711D01*
X104380Y911406D01*
X104115Y911107D01*
X103844Y910815D01*
X103565Y910530D01*
X103280Y910251D01*
X102988Y909980D01*
X102689Y909715D01*
X102384Y909459D01*
X102073Y909209D01*
X101755Y908968D01*
X101432Y908734D01*
X101103Y908509D01*
X100769Y908291D01*
X100429Y908082D01*
X100085Y907881D01*
X99735Y907689D01*
X99381Y907505D01*
X99023Y907330D01*
X98660Y907164D01*
X98294Y907007D01*
X97923Y906859D01*
X97549Y906720D01*
X97172Y906590D01*
X96792Y906470D01*
X96409Y906359D01*
X96023Y906257D01*
X95635Y906165D01*
X95245Y906082D01*
X94853Y906009D01*
X94459Y905946D01*
X94064Y905892D01*
X93668Y905848D01*
X93270Y905814D01*
X92872Y905790D01*
X92474Y905775D01*
X92075Y905770D01*
X91676Y905775D01*
X91278Y905790D01*
X90880Y905814D01*
X90482Y905848D01*
X90086Y905892D01*
X89691Y905946D01*
X89297Y906009D01*
X88905Y906082D01*
X88515Y906165D01*
X88127Y906257D01*
X87741Y906359D01*
X87358Y906470D01*
X86978Y906590D01*
X86601Y906720D01*
X86227Y906859D01*
X85856Y907007D01*
X85490Y907164D01*
X85127Y907330D01*
X84769Y907505D01*
X84415Y907689D01*
X84065Y907881D01*
X83721Y908082D01*
X83381Y908291D01*
X83047Y908509D01*
X82718Y908734D01*
X82395Y908968D01*
X82077Y909209D01*
X81766Y909459D01*
X81461Y909715D01*
X81162Y909980D01*
X80870Y910251D01*
X80585Y910530D01*
X80306Y910815D01*
X80035Y911107D01*
X79770Y911406D01*
X79514Y911711D01*
X79264Y912022D01*
X79023Y912340D01*
X78789Y912663D01*
X78564Y912992D01*
X78346Y913326D01*
X78137Y913666D01*
X77936Y914010D01*
X77744Y914360D01*
X77560Y914714D01*
X77385Y915072D01*
X77219Y915435D01*
X77062Y915801D01*
X76914Y916172D01*
X76775Y916546D01*
X76645Y916923D01*
X76525Y917303D01*
X76414Y917686D01*
X76312Y918072D01*
X76220Y918460D01*
X76137Y918850D01*
X76064Y919242D01*
X76001Y919636D01*
X75947Y920031D01*
X75903Y920427D01*
X75869Y920825D01*
X75845Y921223D01*
X75830Y921621D01*
X75825Y922020D01*
X1214075Y838200D02*
X1214077Y838330D01*
X1214083Y838460D01*
X1214093Y838590D01*
X1214107Y838720D01*
X1214125Y838849D01*
X1214147Y838977D01*
X1214172Y839105D01*
X1214202Y839232D01*
X1214236Y839358D01*
X1214273Y839482D01*
X1214314Y839606D01*
X1214359Y839728D01*
X1214408Y839849D01*
X1214460Y839968D01*
X1214516Y840086D01*
X1214576Y840202D01*
X1214639Y840316D01*
X1214706Y840428D01*
X1214776Y840537D01*
X1214849Y840645D01*
X1214925Y840750D01*
X1215005Y840853D01*
X1215088Y840954D01*
X1215174Y841052D01*
X1215263Y841147D01*
X1215355Y841240D01*
X1215449Y841329D01*
X1215546Y841416D01*
X1215646Y841499D01*
X1215749Y841580D01*
X1215853Y841657D01*
X1215960Y841731D01*
X1216070Y841802D01*
X1216181Y841870D01*
X1216295Y841934D01*
X1216410Y841994D01*
X1216527Y842051D01*
X1216646Y842104D01*
X1216767Y842154D01*
X1216888Y842200D01*
X1217012Y842242D01*
X1217136Y842280D01*
X1217262Y842315D01*
X1217388Y842346D01*
X1217516Y842372D01*
X1217644Y842395D01*
X1217773Y842414D01*
X1217902Y842429D01*
X1218032Y842440D01*
X1218162Y842447D01*
X1218292Y842450D01*
X1218423Y842449D01*
X1218553Y842444D01*
X1218683Y842435D01*
X1218812Y842422D01*
X1218942Y842405D01*
X1219070Y842384D01*
X1219198Y842359D01*
X1219325Y842331D01*
X1219451Y842298D01*
X1219576Y842262D01*
X1219700Y842221D01*
X1219823Y842177D01*
X1219944Y842130D01*
X1220064Y842078D01*
X1220182Y842023D01*
X1220298Y841964D01*
X1220412Y841902D01*
X1220525Y841836D01*
X1220635Y841767D01*
X1220743Y841695D01*
X1220849Y841619D01*
X1220953Y841540D01*
X1221054Y841458D01*
X1221153Y841373D01*
X1221249Y841285D01*
X1221342Y841194D01*
X1221432Y841100D01*
X1221519Y841003D01*
X1221604Y840904D01*
X1221685Y840802D01*
X1221763Y840698D01*
X1221838Y840592D01*
X1221910Y840483D01*
X1221978Y840372D01*
X1222043Y840259D01*
X1222104Y840144D01*
X1222162Y840027D01*
X1222216Y839909D01*
X1222267Y839789D01*
X1222314Y839667D01*
X1222357Y839544D01*
X1222396Y839420D01*
X1222432Y839295D01*
X1222463Y839168D01*
X1222491Y839041D01*
X1222515Y838913D01*
X1222535Y838784D01*
X1222551Y838655D01*
X1222563Y838525D01*
X1222571Y838395D01*
X1222575Y838265D01*
X1222575Y838135D01*
X1222571Y838005D01*
X1222563Y837875D01*
X1222551Y837745D01*
X1222535Y837616D01*
X1222515Y837487D01*
X1222491Y837359D01*
X1222463Y837232D01*
X1222432Y837105D01*
X1222396Y836980D01*
X1222357Y836856D01*
X1222314Y836733D01*
X1222267Y836611D01*
X1222216Y836491D01*
X1222162Y836373D01*
X1222104Y836256D01*
X1222043Y836141D01*
X1221978Y836028D01*
X1221910Y835917D01*
X1221838Y835808D01*
X1221763Y835702D01*
X1221685Y835598D01*
X1221604Y835496D01*
X1221519Y835397D01*
X1221432Y835300D01*
X1221342Y835206D01*
X1221249Y835115D01*
X1221153Y835027D01*
X1221054Y834942D01*
X1220953Y834860D01*
X1220849Y834781D01*
X1220743Y834705D01*
X1220635Y834633D01*
X1220525Y834564D01*
X1220412Y834498D01*
X1220298Y834436D01*
X1220182Y834377D01*
X1220064Y834322D01*
X1219944Y834270D01*
X1219823Y834223D01*
X1219700Y834179D01*
X1219576Y834138D01*
X1219451Y834102D01*
X1219325Y834069D01*
X1219198Y834041D01*
X1219070Y834016D01*
X1218942Y833995D01*
X1218812Y833978D01*
X1218683Y833965D01*
X1218553Y833956D01*
X1218423Y833951D01*
X1218292Y833950D01*
X1218162Y833953D01*
X1218032Y833960D01*
X1217902Y833971D01*
X1217773Y833986D01*
X1217644Y834005D01*
X1217516Y834028D01*
X1217388Y834054D01*
X1217262Y834085D01*
X1217136Y834120D01*
X1217012Y834158D01*
X1216888Y834200D01*
X1216767Y834246D01*
X1216646Y834296D01*
X1216527Y834349D01*
X1216410Y834406D01*
X1216295Y834466D01*
X1216181Y834530D01*
X1216070Y834598D01*
X1215960Y834669D01*
X1215853Y834743D01*
X1215749Y834820D01*
X1215646Y834901D01*
X1215546Y834984D01*
X1215449Y835071D01*
X1215355Y835160D01*
X1215263Y835253D01*
X1215174Y835348D01*
X1215088Y835446D01*
X1215005Y835547D01*
X1214925Y835650D01*
X1214849Y835755D01*
X1214776Y835863D01*
X1214706Y835972D01*
X1214639Y836084D01*
X1214576Y836198D01*
X1214516Y836314D01*
X1214460Y836432D01*
X1214408Y836551D01*
X1214359Y836672D01*
X1214314Y836794D01*
X1214273Y836918D01*
X1214236Y837042D01*
X1214202Y837168D01*
X1214172Y837295D01*
X1214147Y837423D01*
X1214125Y837551D01*
X1214107Y837680D01*
X1214093Y837810D01*
X1214083Y837940D01*
X1214077Y838070D01*
X1214075Y838200D01*
X1184075Y838200D02*
X1184077Y838330D01*
X1184083Y838460D01*
X1184093Y838590D01*
X1184107Y838720D01*
X1184125Y838849D01*
X1184147Y838977D01*
X1184172Y839105D01*
X1184202Y839232D01*
X1184236Y839358D01*
X1184273Y839482D01*
X1184314Y839606D01*
X1184359Y839728D01*
X1184408Y839849D01*
X1184460Y839968D01*
X1184516Y840086D01*
X1184576Y840202D01*
X1184639Y840316D01*
X1184706Y840428D01*
X1184776Y840537D01*
X1184849Y840645D01*
X1184925Y840750D01*
X1185005Y840853D01*
X1185088Y840954D01*
X1185174Y841052D01*
X1185263Y841147D01*
X1185355Y841240D01*
X1185449Y841329D01*
X1185546Y841416D01*
X1185646Y841499D01*
X1185749Y841580D01*
X1185853Y841657D01*
X1185960Y841731D01*
X1186070Y841802D01*
X1186181Y841870D01*
X1186295Y841934D01*
X1186410Y841994D01*
X1186527Y842051D01*
X1186646Y842104D01*
X1186767Y842154D01*
X1186888Y842200D01*
X1187012Y842242D01*
X1187136Y842280D01*
X1187262Y842315D01*
X1187388Y842346D01*
X1187516Y842372D01*
X1187644Y842395D01*
X1187773Y842414D01*
X1187902Y842429D01*
X1188032Y842440D01*
X1188162Y842447D01*
X1188292Y842450D01*
X1188423Y842449D01*
X1188553Y842444D01*
X1188683Y842435D01*
X1188812Y842422D01*
X1188942Y842405D01*
X1189070Y842384D01*
X1189198Y842359D01*
X1189325Y842331D01*
X1189451Y842298D01*
X1189576Y842262D01*
X1189700Y842221D01*
X1189823Y842177D01*
X1189944Y842130D01*
X1190064Y842078D01*
X1190182Y842023D01*
X1190298Y841964D01*
X1190412Y841902D01*
X1190525Y841836D01*
X1190635Y841767D01*
X1190743Y841695D01*
X1190849Y841619D01*
X1190953Y841540D01*
X1191054Y841458D01*
X1191153Y841373D01*
X1191249Y841285D01*
X1191342Y841194D01*
X1191432Y841100D01*
X1191519Y841003D01*
X1191604Y840904D01*
X1191685Y840802D01*
X1191763Y840698D01*
X1191838Y840592D01*
X1191910Y840483D01*
X1191978Y840372D01*
X1192043Y840259D01*
X1192104Y840144D01*
X1192162Y840027D01*
X1192216Y839909D01*
X1192267Y839789D01*
X1192314Y839667D01*
X1192357Y839544D01*
X1192396Y839420D01*
X1192432Y839295D01*
X1192463Y839168D01*
X1192491Y839041D01*
X1192515Y838913D01*
X1192535Y838784D01*
X1192551Y838655D01*
X1192563Y838525D01*
X1192571Y838395D01*
X1192575Y838265D01*
X1192575Y838135D01*
X1192571Y838005D01*
X1192563Y837875D01*
X1192551Y837745D01*
X1192535Y837616D01*
X1192515Y837487D01*
X1192491Y837359D01*
X1192463Y837232D01*
X1192432Y837105D01*
X1192396Y836980D01*
X1192357Y836856D01*
X1192314Y836733D01*
X1192267Y836611D01*
X1192216Y836491D01*
X1192162Y836373D01*
X1192104Y836256D01*
X1192043Y836141D01*
X1191978Y836028D01*
X1191910Y835917D01*
X1191838Y835808D01*
X1191763Y835702D01*
X1191685Y835598D01*
X1191604Y835496D01*
X1191519Y835397D01*
X1191432Y835300D01*
X1191342Y835206D01*
X1191249Y835115D01*
X1191153Y835027D01*
X1191054Y834942D01*
X1190953Y834860D01*
X1190849Y834781D01*
X1190743Y834705D01*
X1190635Y834633D01*
X1190525Y834564D01*
X1190412Y834498D01*
X1190298Y834436D01*
X1190182Y834377D01*
X1190064Y834322D01*
X1189944Y834270D01*
X1189823Y834223D01*
X1189700Y834179D01*
X1189576Y834138D01*
X1189451Y834102D01*
X1189325Y834069D01*
X1189198Y834041D01*
X1189070Y834016D01*
X1188942Y833995D01*
X1188812Y833978D01*
X1188683Y833965D01*
X1188553Y833956D01*
X1188423Y833951D01*
X1188292Y833950D01*
X1188162Y833953D01*
X1188032Y833960D01*
X1187902Y833971D01*
X1187773Y833986D01*
X1187644Y834005D01*
X1187516Y834028D01*
X1187388Y834054D01*
X1187262Y834085D01*
X1187136Y834120D01*
X1187012Y834158D01*
X1186888Y834200D01*
X1186767Y834246D01*
X1186646Y834296D01*
X1186527Y834349D01*
X1186410Y834406D01*
X1186295Y834466D01*
X1186181Y834530D01*
X1186070Y834598D01*
X1185960Y834669D01*
X1185853Y834743D01*
X1185749Y834820D01*
X1185646Y834901D01*
X1185546Y834984D01*
X1185449Y835071D01*
X1185355Y835160D01*
X1185263Y835253D01*
X1185174Y835348D01*
X1185088Y835446D01*
X1185005Y835547D01*
X1184925Y835650D01*
X1184849Y835755D01*
X1184776Y835863D01*
X1184706Y835972D01*
X1184639Y836084D01*
X1184576Y836198D01*
X1184516Y836314D01*
X1184460Y836432D01*
X1184408Y836551D01*
X1184359Y836672D01*
X1184314Y836794D01*
X1184273Y836918D01*
X1184236Y837042D01*
X1184202Y837168D01*
X1184172Y837295D01*
X1184147Y837423D01*
X1184125Y837551D01*
X1184107Y837680D01*
X1184093Y837810D01*
X1184083Y837940D01*
X1184077Y838070D01*
X1184075Y838200D01*
X629285Y495300D02*
X629290Y495674D01*
X629303Y496048D01*
X629326Y496421D01*
X629358Y496794D01*
X629400Y497166D01*
X629450Y497536D01*
X629509Y497905D01*
X629578Y498273D01*
X629655Y498639D01*
X629742Y499003D01*
X629837Y499365D01*
X629941Y499724D01*
X630054Y500081D01*
X630176Y500434D01*
X630306Y500785D01*
X630445Y501132D01*
X630592Y501476D01*
X630748Y501816D01*
X630912Y502152D01*
X631085Y502484D01*
X631265Y502812D01*
X631453Y503135D01*
X631649Y503453D01*
X631853Y503767D01*
X632065Y504075D01*
X632284Y504378D01*
X632511Y504676D01*
X632744Y504968D01*
X632985Y505254D01*
X633233Y505535D01*
X633487Y505809D01*
X633749Y506076D01*
X634016Y506338D01*
X634290Y506592D01*
X634571Y506840D01*
X634857Y507081D01*
X635149Y507314D01*
X635447Y507541D01*
X635750Y507760D01*
X636058Y507972D01*
X636372Y508176D01*
X636690Y508372D01*
X637013Y508560D01*
X637341Y508740D01*
X637673Y508913D01*
X638009Y509077D01*
X638349Y509233D01*
X638693Y509380D01*
X639040Y509519D01*
X639391Y509649D01*
X639744Y509771D01*
X640101Y509884D01*
X640460Y509988D01*
X640822Y510083D01*
X641186Y510170D01*
X641552Y510247D01*
X641920Y510316D01*
X642289Y510375D01*
X642659Y510425D01*
X643031Y510467D01*
X643404Y510499D01*
X643777Y510522D01*
X644151Y510535D01*
X644525Y510540D01*
X644899Y510535D01*
X645273Y510522D01*
X645646Y510499D01*
X646019Y510467D01*
X646391Y510425D01*
X646761Y510375D01*
X647130Y510316D01*
X647498Y510247D01*
X647864Y510170D01*
X648228Y510083D01*
X648590Y509988D01*
X648949Y509884D01*
X649306Y509771D01*
X649659Y509649D01*
X650010Y509519D01*
X650357Y509380D01*
X650701Y509233D01*
X651041Y509077D01*
X651377Y508913D01*
X651709Y508740D01*
X652037Y508560D01*
X652360Y508372D01*
X652678Y508176D01*
X652992Y507972D01*
X653300Y507760D01*
X653603Y507541D01*
X653901Y507314D01*
X654193Y507081D01*
X654479Y506840D01*
X654760Y506592D01*
X655034Y506338D01*
X655301Y506076D01*
X655563Y505809D01*
X655817Y505535D01*
X656065Y505254D01*
X656306Y504968D01*
X656539Y504676D01*
X656766Y504378D01*
X656985Y504075D01*
X657197Y503767D01*
X657401Y503453D01*
X657597Y503135D01*
X657785Y502812D01*
X657965Y502484D01*
X658138Y502152D01*
X658302Y501816D01*
X658458Y501476D01*
X658605Y501132D01*
X658744Y500785D01*
X658874Y500434D01*
X658996Y500081D01*
X659109Y499724D01*
X659213Y499365D01*
X659308Y499003D01*
X659395Y498639D01*
X659472Y498273D01*
X659541Y497905D01*
X659600Y497536D01*
X659650Y497166D01*
X659692Y496794D01*
X659724Y496421D01*
X659747Y496048D01*
X659760Y495674D01*
X659765Y495300D01*
X659760Y494926D01*
X659747Y494552D01*
X659724Y494179D01*
X659692Y493806D01*
X659650Y493434D01*
X659600Y493064D01*
X659541Y492695D01*
X659472Y492327D01*
X659395Y491961D01*
X659308Y491597D01*
X659213Y491235D01*
X659109Y490876D01*
X658996Y490519D01*
X658874Y490166D01*
X658744Y489815D01*
X658605Y489468D01*
X658458Y489124D01*
X658302Y488784D01*
X658138Y488448D01*
X657965Y488116D01*
X657785Y487788D01*
X657597Y487465D01*
X657401Y487147D01*
X657197Y486833D01*
X656985Y486525D01*
X656766Y486222D01*
X656539Y485924D01*
X656306Y485632D01*
X656065Y485346D01*
X655817Y485065D01*
X655563Y484791D01*
X655301Y484524D01*
X655034Y484262D01*
X654760Y484008D01*
X654479Y483760D01*
X654193Y483519D01*
X653901Y483286D01*
X653603Y483059D01*
X653300Y482840D01*
X652992Y482628D01*
X652678Y482424D01*
X652360Y482228D01*
X652037Y482040D01*
X651709Y481860D01*
X651377Y481687D01*
X651041Y481523D01*
X650701Y481367D01*
X650357Y481220D01*
X650010Y481081D01*
X649659Y480951D01*
X649306Y480829D01*
X648949Y480716D01*
X648590Y480612D01*
X648228Y480517D01*
X647864Y480430D01*
X647498Y480353D01*
X647130Y480284D01*
X646761Y480225D01*
X646391Y480175D01*
X646019Y480133D01*
X645646Y480101D01*
X645273Y480078D01*
X644899Y480065D01*
X644525Y480060D01*
X644151Y480065D01*
X643777Y480078D01*
X643404Y480101D01*
X643031Y480133D01*
X642659Y480175D01*
X642289Y480225D01*
X641920Y480284D01*
X641552Y480353D01*
X641186Y480430D01*
X640822Y480517D01*
X640460Y480612D01*
X640101Y480716D01*
X639744Y480829D01*
X639391Y480951D01*
X639040Y481081D01*
X638693Y481220D01*
X638349Y481367D01*
X638009Y481523D01*
X637673Y481687D01*
X637341Y481860D01*
X637013Y482040D01*
X636690Y482228D01*
X636372Y482424D01*
X636058Y482628D01*
X635750Y482840D01*
X635447Y483059D01*
X635149Y483286D01*
X634857Y483519D01*
X634571Y483760D01*
X634290Y484008D01*
X634016Y484262D01*
X633749Y484524D01*
X633487Y484791D01*
X633233Y485065D01*
X632985Y485346D01*
X632744Y485632D01*
X632511Y485924D01*
X632284Y486222D01*
X632065Y486525D01*
X631853Y486833D01*
X631649Y487147D01*
X631453Y487465D01*
X631265Y487788D01*
X631085Y488116D01*
X630912Y488448D01*
X630748Y488784D01*
X630592Y489124D01*
X630445Y489468D01*
X630306Y489815D01*
X630176Y490166D01*
X630054Y490519D01*
X629941Y490876D01*
X629837Y491235D01*
X629742Y491597D01*
X629655Y491961D01*
X629578Y492327D01*
X629509Y492695D01*
X629450Y493064D01*
X629400Y493434D01*
X629358Y493806D01*
X629326Y494179D01*
X629303Y494552D01*
X629290Y494926D01*
X629285Y495300D01*
X857885Y495300D02*
X857890Y495674D01*
X857903Y496048D01*
X857926Y496421D01*
X857958Y496794D01*
X858000Y497166D01*
X858050Y497536D01*
X858109Y497905D01*
X858178Y498273D01*
X858255Y498639D01*
X858342Y499003D01*
X858437Y499365D01*
X858541Y499724D01*
X858654Y500081D01*
X858776Y500434D01*
X858906Y500785D01*
X859045Y501132D01*
X859192Y501476D01*
X859348Y501816D01*
X859512Y502152D01*
X859685Y502484D01*
X859865Y502812D01*
X860053Y503135D01*
X860249Y503453D01*
X860453Y503767D01*
X860665Y504075D01*
X860884Y504378D01*
X861111Y504676D01*
X861344Y504968D01*
X861585Y505254D01*
X861833Y505535D01*
X862087Y505809D01*
X862349Y506076D01*
X862616Y506338D01*
X862890Y506592D01*
X863171Y506840D01*
X863457Y507081D01*
X863749Y507314D01*
X864047Y507541D01*
X864350Y507760D01*
X864658Y507972D01*
X864972Y508176D01*
X865290Y508372D01*
X865613Y508560D01*
X865941Y508740D01*
X866273Y508913D01*
X866609Y509077D01*
X866949Y509233D01*
X867293Y509380D01*
X867640Y509519D01*
X867991Y509649D01*
X868344Y509771D01*
X868701Y509884D01*
X869060Y509988D01*
X869422Y510083D01*
X869786Y510170D01*
X870152Y510247D01*
X870520Y510316D01*
X870889Y510375D01*
X871259Y510425D01*
X871631Y510467D01*
X872004Y510499D01*
X872377Y510522D01*
X872751Y510535D01*
X873125Y510540D01*
X873499Y510535D01*
X873873Y510522D01*
X874246Y510499D01*
X874619Y510467D01*
X874991Y510425D01*
X875361Y510375D01*
X875730Y510316D01*
X876098Y510247D01*
X876464Y510170D01*
X876828Y510083D01*
X877190Y509988D01*
X877549Y509884D01*
X877906Y509771D01*
X878259Y509649D01*
X878610Y509519D01*
X878957Y509380D01*
X879301Y509233D01*
X879641Y509077D01*
X879977Y508913D01*
X880309Y508740D01*
X880637Y508560D01*
X880960Y508372D01*
X881278Y508176D01*
X881592Y507972D01*
X881900Y507760D01*
X882203Y507541D01*
X882501Y507314D01*
X882793Y507081D01*
X883079Y506840D01*
X883360Y506592D01*
X883634Y506338D01*
X883901Y506076D01*
X884163Y505809D01*
X884417Y505535D01*
X884665Y505254D01*
X884906Y504968D01*
X885139Y504676D01*
X885366Y504378D01*
X885585Y504075D01*
X885797Y503767D01*
X886001Y503453D01*
X886197Y503135D01*
X886385Y502812D01*
X886565Y502484D01*
X886738Y502152D01*
X886902Y501816D01*
X887058Y501476D01*
X887205Y501132D01*
X887344Y500785D01*
X887474Y500434D01*
X887596Y500081D01*
X887709Y499724D01*
X887813Y499365D01*
X887908Y499003D01*
X887995Y498639D01*
X888072Y498273D01*
X888141Y497905D01*
X888200Y497536D01*
X888250Y497166D01*
X888292Y496794D01*
X888324Y496421D01*
X888347Y496048D01*
X888360Y495674D01*
X888365Y495300D01*
X888360Y494926D01*
X888347Y494552D01*
X888324Y494179D01*
X888292Y493806D01*
X888250Y493434D01*
X888200Y493064D01*
X888141Y492695D01*
X888072Y492327D01*
X887995Y491961D01*
X887908Y491597D01*
X887813Y491235D01*
X887709Y490876D01*
X887596Y490519D01*
X887474Y490166D01*
X887344Y489815D01*
X887205Y489468D01*
X887058Y489124D01*
X886902Y488784D01*
X886738Y488448D01*
X886565Y488116D01*
X886385Y487788D01*
X886197Y487465D01*
X886001Y487147D01*
X885797Y486833D01*
X885585Y486525D01*
X885366Y486222D01*
X885139Y485924D01*
X884906Y485632D01*
X884665Y485346D01*
X884417Y485065D01*
X884163Y484791D01*
X883901Y484524D01*
X883634Y484262D01*
X883360Y484008D01*
X883079Y483760D01*
X882793Y483519D01*
X882501Y483286D01*
X882203Y483059D01*
X881900Y482840D01*
X881592Y482628D01*
X881278Y482424D01*
X880960Y482228D01*
X880637Y482040D01*
X880309Y481860D01*
X879977Y481687D01*
X879641Y481523D01*
X879301Y481367D01*
X878957Y481220D01*
X878610Y481081D01*
X878259Y480951D01*
X877906Y480829D01*
X877549Y480716D01*
X877190Y480612D01*
X876828Y480517D01*
X876464Y480430D01*
X876098Y480353D01*
X875730Y480284D01*
X875361Y480225D01*
X874991Y480175D01*
X874619Y480133D01*
X874246Y480101D01*
X873873Y480078D01*
X873499Y480065D01*
X873125Y480060D01*
X872751Y480065D01*
X872377Y480078D01*
X872004Y480101D01*
X871631Y480133D01*
X871259Y480175D01*
X870889Y480225D01*
X870520Y480284D01*
X870152Y480353D01*
X869786Y480430D01*
X869422Y480517D01*
X869060Y480612D01*
X868701Y480716D01*
X868344Y480829D01*
X867991Y480951D01*
X867640Y481081D01*
X867293Y481220D01*
X866949Y481367D01*
X866609Y481523D01*
X866273Y481687D01*
X865941Y481860D01*
X865613Y482040D01*
X865290Y482228D01*
X864972Y482424D01*
X864658Y482628D01*
X864350Y482840D01*
X864047Y483059D01*
X863749Y483286D01*
X863457Y483519D01*
X863171Y483760D01*
X862890Y484008D01*
X862616Y484262D01*
X862349Y484524D01*
X862087Y484791D01*
X861833Y485065D01*
X861585Y485346D01*
X861344Y485632D01*
X861111Y485924D01*
X860884Y486222D01*
X860665Y486525D01*
X860453Y486833D01*
X860249Y487147D01*
X860053Y487465D01*
X859865Y487788D01*
X859685Y488116D01*
X859512Y488448D01*
X859348Y488784D01*
X859192Y489124D01*
X859045Y489468D01*
X858906Y489815D01*
X858776Y490166D01*
X858654Y490519D01*
X858541Y490876D01*
X858437Y491235D01*
X858342Y491597D01*
X858255Y491961D01*
X858178Y492327D01*
X858109Y492695D01*
X858050Y493064D01*
X858000Y493434D01*
X857958Y493806D01*
X857926Y494179D01*
X857903Y494552D01*
X857890Y494926D01*
X857885Y495300D01*
X743585Y901700D02*
X743590Y902074D01*
X743603Y902448D01*
X743626Y902821D01*
X743658Y903194D01*
X743700Y903566D01*
X743750Y903936D01*
X743809Y904305D01*
X743878Y904673D01*
X743955Y905039D01*
X744042Y905403D01*
X744137Y905765D01*
X744241Y906124D01*
X744354Y906481D01*
X744476Y906834D01*
X744606Y907185D01*
X744745Y907532D01*
X744892Y907876D01*
X745048Y908216D01*
X745212Y908552D01*
X745385Y908884D01*
X745565Y909212D01*
X745753Y909535D01*
X745949Y909853D01*
X746153Y910167D01*
X746365Y910475D01*
X746584Y910778D01*
X746811Y911076D01*
X747044Y911368D01*
X747285Y911654D01*
X747533Y911935D01*
X747787Y912209D01*
X748049Y912476D01*
X748316Y912738D01*
X748590Y912992D01*
X748871Y913240D01*
X749157Y913481D01*
X749449Y913714D01*
X749747Y913941D01*
X750050Y914160D01*
X750358Y914372D01*
X750672Y914576D01*
X750990Y914772D01*
X751313Y914960D01*
X751641Y915140D01*
X751973Y915313D01*
X752309Y915477D01*
X752649Y915633D01*
X752993Y915780D01*
X753340Y915919D01*
X753691Y916049D01*
X754044Y916171D01*
X754401Y916284D01*
X754760Y916388D01*
X755122Y916483D01*
X755486Y916570D01*
X755852Y916647D01*
X756220Y916716D01*
X756589Y916775D01*
X756959Y916825D01*
X757331Y916867D01*
X757704Y916899D01*
X758077Y916922D01*
X758451Y916935D01*
X758825Y916940D01*
X759199Y916935D01*
X759573Y916922D01*
X759946Y916899D01*
X760319Y916867D01*
X760691Y916825D01*
X761061Y916775D01*
X761430Y916716D01*
X761798Y916647D01*
X762164Y916570D01*
X762528Y916483D01*
X762890Y916388D01*
X763249Y916284D01*
X763606Y916171D01*
X763959Y916049D01*
X764310Y915919D01*
X764657Y915780D01*
X765001Y915633D01*
X765341Y915477D01*
X765677Y915313D01*
X766009Y915140D01*
X766337Y914960D01*
X766660Y914772D01*
X766978Y914576D01*
X767292Y914372D01*
X767600Y914160D01*
X767903Y913941D01*
X768201Y913714D01*
X768493Y913481D01*
X768779Y913240D01*
X769060Y912992D01*
X769334Y912738D01*
X769601Y912476D01*
X769863Y912209D01*
X770117Y911935D01*
X770365Y911654D01*
X770606Y911368D01*
X770839Y911076D01*
X771066Y910778D01*
X771285Y910475D01*
X771497Y910167D01*
X771701Y909853D01*
X771897Y909535D01*
X772085Y909212D01*
X772265Y908884D01*
X772438Y908552D01*
X772602Y908216D01*
X772758Y907876D01*
X772905Y907532D01*
X773044Y907185D01*
X773174Y906834D01*
X773296Y906481D01*
X773409Y906124D01*
X773513Y905765D01*
X773608Y905403D01*
X773695Y905039D01*
X773772Y904673D01*
X773841Y904305D01*
X773900Y903936D01*
X773950Y903566D01*
X773992Y903194D01*
X774024Y902821D01*
X774047Y902448D01*
X774060Y902074D01*
X774065Y901700D01*
X774060Y901326D01*
X774047Y900952D01*
X774024Y900579D01*
X773992Y900206D01*
X773950Y899834D01*
X773900Y899464D01*
X773841Y899095D01*
X773772Y898727D01*
X773695Y898361D01*
X773608Y897997D01*
X773513Y897635D01*
X773409Y897276D01*
X773296Y896919D01*
X773174Y896566D01*
X773044Y896215D01*
X772905Y895868D01*
X772758Y895524D01*
X772602Y895184D01*
X772438Y894848D01*
X772265Y894516D01*
X772085Y894188D01*
X771897Y893865D01*
X771701Y893547D01*
X771497Y893233D01*
X771285Y892925D01*
X771066Y892622D01*
X770839Y892324D01*
X770606Y892032D01*
X770365Y891746D01*
X770117Y891465D01*
X769863Y891191D01*
X769601Y890924D01*
X769334Y890662D01*
X769060Y890408D01*
X768779Y890160D01*
X768493Y889919D01*
X768201Y889686D01*
X767903Y889459D01*
X767600Y889240D01*
X767292Y889028D01*
X766978Y888824D01*
X766660Y888628D01*
X766337Y888440D01*
X766009Y888260D01*
X765677Y888087D01*
X765341Y887923D01*
X765001Y887767D01*
X764657Y887620D01*
X764310Y887481D01*
X763959Y887351D01*
X763606Y887229D01*
X763249Y887116D01*
X762890Y887012D01*
X762528Y886917D01*
X762164Y886830D01*
X761798Y886753D01*
X761430Y886684D01*
X761061Y886625D01*
X760691Y886575D01*
X760319Y886533D01*
X759946Y886501D01*
X759573Y886478D01*
X759199Y886465D01*
X758825Y886460D01*
X758451Y886465D01*
X758077Y886478D01*
X757704Y886501D01*
X757331Y886533D01*
X756959Y886575D01*
X756589Y886625D01*
X756220Y886684D01*
X755852Y886753D01*
X755486Y886830D01*
X755122Y886917D01*
X754760Y887012D01*
X754401Y887116D01*
X754044Y887229D01*
X753691Y887351D01*
X753340Y887481D01*
X752993Y887620D01*
X752649Y887767D01*
X752309Y887923D01*
X751973Y888087D01*
X751641Y888260D01*
X751313Y888440D01*
X750990Y888628D01*
X750672Y888824D01*
X750358Y889028D01*
X750050Y889240D01*
X749747Y889459D01*
X749449Y889686D01*
X749157Y889919D01*
X748871Y890160D01*
X748590Y890408D01*
X748316Y890662D01*
X748049Y890924D01*
X747787Y891191D01*
X747533Y891465D01*
X747285Y891746D01*
X747044Y892032D01*
X746811Y892324D01*
X746584Y892622D01*
X746365Y892925D01*
X746153Y893233D01*
X745949Y893547D01*
X745753Y893865D01*
X745565Y894188D01*
X745385Y894516D01*
X745212Y894848D01*
X745048Y895184D01*
X744892Y895524D01*
X744745Y895868D01*
X744606Y896215D01*
X744476Y896566D01*
X744354Y896919D01*
X744241Y897276D01*
X744137Y897635D01*
X744042Y897997D01*
X743955Y898361D01*
X743878Y898727D01*
X743809Y899095D01*
X743750Y899464D01*
X743700Y899834D01*
X743658Y900206D01*
X743626Y900579D01*
X743603Y900952D01*
X743590Y901326D01*
X743585Y901700D01*
D17*
X-68580Y-119380D02*
X1586230Y-119380D01*
X1586230Y1135380D01*
X-68580Y1135380D01*
X-68580Y-119380D01*
X-5080Y-55880D02*
X1522730Y-55880D01*
X1522730Y1071880D01*
X-5080Y1071880D01*
X-5080Y-55880D01*
X0Y0D02*
X574675Y0D01*
X574675Y63500D01*
X574723Y64607D01*
X574868Y65705D01*
X575108Y66787D01*
X575441Y67844D01*
X575865Y68867D01*
X576376Y69850D01*
X576972Y70784D01*
X577646Y71663D01*
X578395Y72480D01*
X579212Y73229D01*
X580091Y73903D01*
X581025Y74499D01*
X582008Y75010D01*
X583031Y75434D01*
X584088Y75767D01*
X585170Y76007D01*
X586268Y76152D01*
X587375Y76200D01*
X930275Y76200D01*
X931382Y76152D01*
X932480Y76007D01*
X933562Y75767D01*
X934619Y75434D01*
X935642Y75010D01*
X936625Y74499D01*
X937559Y73903D01*
X938438Y73229D01*
X939255Y72480D01*
X940004Y71663D01*
X940678Y70784D01*
X941274Y69850D01*
X941785Y68867D01*
X942209Y67844D01*
X942542Y66787D01*
X942782Y65705D01*
X942927Y64607D01*
X942975Y63500D01*
X942975Y0D01*
X1517650Y0D01*
X1517650Y1016000D01*
X0Y1016000D01*
X0Y0D01*
X1510665Y24856D02*
X1510587Y23770D01*
X1510432Y22692D01*
X1510201Y21629D01*
X1509894Y20584D01*
X1509514Y19564D01*
X1509062Y18574D01*
X1508540Y17619D01*
X1507951Y16703D01*
X1507299Y15831D01*
X1506586Y15009D01*
X1505816Y14239D01*
X1504994Y13526D01*
X1504122Y12874D01*
X1503206Y12285D01*
X1502251Y11763D01*
X1501261Y11311D01*
X1500241Y10931D01*
X1499196Y10624D01*
X1498133Y10393D01*
X1497055Y10238D01*
X1495969Y10160D01*
X1494881Y10160D01*
X1493795Y10238D01*
X1492717Y10393D01*
X1491654Y10624D01*
X1490609Y10931D01*
X1489589Y11311D01*
X1488599Y11763D01*
X1487644Y12285D01*
X1486728Y12874D01*
X1485856Y13526D01*
X1485034Y14239D01*
X1484264Y15009D01*
X1483551Y15831D01*
X1482899Y16703D01*
X1482310Y17619D01*
X1481788Y18574D01*
X1481336Y19564D01*
X1480956Y20584D01*
X1480649Y21629D01*
X1480418Y22692D01*
X1480263Y23770D01*
X1480185Y24856D01*
X1480185Y25944D01*
X1480263Y27030D01*
X1480418Y28108D01*
X1480649Y29171D01*
X1480956Y30216D01*
X1481336Y31236D01*
X1481788Y32226D01*
X1482310Y33181D01*
X1482899Y34097D01*
X1483551Y34969D01*
X1484264Y35791D01*
X1485034Y36561D01*
X1485856Y37274D01*
X1486728Y37926D01*
X1487644Y38515D01*
X1488599Y39037D01*
X1489589Y39489D01*
X1490609Y39869D01*
X1491654Y40176D01*
X1492717Y40407D01*
X1493795Y40562D01*
X1494881Y40640D01*
X1495969Y40640D01*
X1497055Y40562D01*
X1498133Y40407D01*
X1499196Y40176D01*
X1500241Y39869D01*
X1501261Y39489D01*
X1502251Y39037D01*
X1503206Y38515D01*
X1504122Y37926D01*
X1504994Y37274D01*
X1505816Y36561D01*
X1506586Y35791D01*
X1507299Y34969D01*
X1507951Y34097D01*
X1508540Y33181D01*
X1509062Y32226D01*
X1509514Y31236D01*
X1509894Y30216D01*
X1510201Y29171D01*
X1510432Y28108D01*
X1510587Y27030D01*
X1510665Y25944D01*
X1510665Y24856D01*
X1510665Y990056D02*
X1510587Y988970D01*
X1510432Y987892D01*
X1510201Y986829D01*
X1509894Y985784D01*
X1509514Y984764D01*
X1509062Y983774D01*
X1508540Y982819D01*
X1507951Y981903D01*
X1507299Y981031D01*
X1506586Y980209D01*
X1505816Y979439D01*
X1504994Y978726D01*
X1504122Y978074D01*
X1503206Y977485D01*
X1502251Y976963D01*
X1501261Y976511D01*
X1500241Y976131D01*
X1499196Y975824D01*
X1498133Y975593D01*
X1497055Y975438D01*
X1495969Y975360D01*
X1494881Y975360D01*
X1493795Y975438D01*
X1492717Y975593D01*
X1491654Y975824D01*
X1490609Y976131D01*
X1489589Y976511D01*
X1488599Y976963D01*
X1487644Y977485D01*
X1486728Y978074D01*
X1485856Y978726D01*
X1485034Y979439D01*
X1484264Y980209D01*
X1483551Y981031D01*
X1482899Y981903D01*
X1482310Y982819D01*
X1481788Y983774D01*
X1481336Y984764D01*
X1480956Y985784D01*
X1480649Y986829D01*
X1480418Y987892D01*
X1480263Y988970D01*
X1480185Y990056D01*
X1480185Y991144D01*
X1480263Y992230D01*
X1480418Y993308D01*
X1480649Y994371D01*
X1480956Y995416D01*
X1481336Y996436D01*
X1481788Y997426D01*
X1482310Y998381D01*
X1482899Y999297D01*
X1483551Y1000169D01*
X1484264Y1000991D01*
X1485034Y1001761D01*
X1485856Y1002474D01*
X1486728Y1003126D01*
X1487644Y1003715D01*
X1488599Y1004237D01*
X1489589Y1004689D01*
X1490609Y1005069D01*
X1491654Y1005376D01*
X1492717Y1005607D01*
X1493795Y1005762D01*
X1494881Y1005840D01*
X1495969Y1005840D01*
X1497055Y1005762D01*
X1498133Y1005607D01*
X1499196Y1005376D01*
X1500241Y1005069D01*
X1501261Y1004689D01*
X1502251Y1004237D01*
X1503206Y1003715D01*
X1504122Y1003126D01*
X1504994Y1002474D01*
X1505816Y1001761D01*
X1506586Y1000991D01*
X1507299Y1000169D01*
X1507951Y999297D01*
X1508540Y998381D01*
X1509062Y997426D01*
X1509514Y996436D01*
X1509894Y995416D01*
X1510201Y994371D01*
X1510432Y993308D01*
X1510587Y992230D01*
X1510665Y991144D01*
X1510665Y990056D01*
X37465Y990056D02*
X37387Y988970D01*
X37232Y987892D01*
X37001Y986829D01*
X36694Y985784D01*
X36314Y984764D01*
X35862Y983774D01*
X35340Y982819D01*
X34751Y981903D01*
X34099Y981031D01*
X33386Y980209D01*
X32616Y979439D01*
X31794Y978726D01*
X30922Y978074D01*
X30006Y977485D01*
X29051Y976963D01*
X28061Y976511D01*
X27041Y976131D01*
X25996Y975824D01*
X24933Y975593D01*
X23855Y975438D01*
X22769Y975360D01*
X21681Y975360D01*
X20595Y975438D01*
X19517Y975593D01*
X18454Y975824D01*
X17409Y976131D01*
X16389Y976511D01*
X15399Y976963D01*
X14444Y977485D01*
X13528Y978074D01*
X12656Y978726D01*
X11834Y979439D01*
X11064Y980209D01*
X10351Y981031D01*
X9699Y981903D01*
X9110Y982819D01*
X8588Y983774D01*
X8136Y984764D01*
X7756Y985784D01*
X7449Y986829D01*
X7218Y987892D01*
X7063Y988970D01*
X6985Y990056D01*
X6985Y991144D01*
X7063Y992230D01*
X7218Y993308D01*
X7449Y994371D01*
X7756Y995416D01*
X8136Y996436D01*
X8588Y997426D01*
X9110Y998381D01*
X9699Y999297D01*
X10351Y1000169D01*
X11064Y1000991D01*
X11834Y1001761D01*
X12656Y1002474D01*
X13528Y1003126D01*
X14444Y1003715D01*
X15399Y1004237D01*
X16389Y1004689D01*
X17409Y1005069D01*
X18454Y1005376D01*
X19517Y1005607D01*
X20595Y1005762D01*
X21681Y1005840D01*
X22769Y1005840D01*
X23855Y1005762D01*
X24933Y1005607D01*
X25996Y1005376D01*
X27041Y1005069D01*
X28061Y1004689D01*
X29051Y1004237D01*
X30006Y1003715D01*
X30922Y1003126D01*
X31794Y1002474D01*
X32616Y1001761D01*
X33386Y1000991D01*
X34099Y1000169D01*
X34751Y999297D01*
X35340Y998381D01*
X35862Y997426D01*
X36314Y996436D01*
X36694Y995416D01*
X37001Y994371D01*
X37232Y993308D01*
X37387Y992230D01*
X37465Y991144D01*
X37465Y990056D01*
X1253875Y48837D02*
X1253819Y48415D01*
X1253709Y48003D01*
X1253546Y47609D01*
X1253333Y47241D01*
X1253074Y46903D01*
X1252772Y46601D01*
X1252434Y46342D01*
X1252066Y46129D01*
X1251672Y45966D01*
X1251260Y45856D01*
X1250838Y45800D01*
X1250412Y45800D01*
X1249990Y45856D01*
X1249578Y45966D01*
X1249184Y46129D01*
X1248816Y46342D01*
X1248478Y46601D01*
X1248176Y46903D01*
X1247917Y47241D01*
X1247704Y47609D01*
X1247541Y48003D01*
X1247431Y48415D01*
X1247375Y48837D01*
X1247375Y49263D01*
X1247431Y49685D01*
X1247541Y50097D01*
X1247704Y50491D01*
X1247917Y50859D01*
X1248176Y51197D01*
X1248478Y51499D01*
X1248816Y51758D01*
X1249184Y51971D01*
X1249578Y52134D01*
X1249990Y52244D01*
X1250412Y52300D01*
X1250838Y52300D01*
X1251260Y52244D01*
X1251672Y52134D01*
X1252066Y51971D01*
X1252434Y51758D01*
X1252772Y51499D01*
X1253074Y51197D01*
X1253333Y50859D01*
X1253546Y50491D01*
X1253709Y50097D01*
X1253819Y49685D01*
X1253875Y49263D01*
X1253875Y48837D01*
X1311675Y48837D02*
X1311619Y48415D01*
X1311509Y48003D01*
X1311346Y47609D01*
X1311133Y47241D01*
X1310874Y46903D01*
X1310572Y46601D01*
X1310234Y46342D01*
X1309866Y46129D01*
X1309472Y45966D01*
X1309060Y45856D01*
X1308638Y45800D01*
X1308212Y45800D01*
X1307790Y45856D01*
X1307378Y45966D01*
X1306984Y46129D01*
X1306616Y46342D01*
X1306278Y46601D01*
X1305976Y46903D01*
X1305717Y47241D01*
X1305504Y47609D01*
X1305341Y48003D01*
X1305231Y48415D01*
X1305175Y48837D01*
X1305175Y49263D01*
X1305231Y49685D01*
X1305341Y50097D01*
X1305504Y50491D01*
X1305717Y50859D01*
X1305976Y51197D01*
X1306278Y51499D01*
X1306616Y51758D01*
X1306984Y51971D01*
X1307378Y52134D01*
X1307790Y52244D01*
X1308212Y52300D01*
X1308638Y52300D01*
X1309060Y52244D01*
X1309472Y52134D01*
X1309866Y51971D01*
X1310234Y51758D01*
X1310572Y51499D01*
X1310874Y51197D01*
X1311133Y50859D01*
X1311346Y50491D01*
X1311509Y50097D01*
X1311619Y49685D01*
X1311675Y49263D01*
X1311675Y48837D01*
X502225Y20039D02*
X502162Y19481D01*
X502037Y18934D01*
X501852Y18404D01*
X501608Y17898D01*
X501309Y17422D01*
X500959Y16983D01*
X500562Y16586D01*
X500123Y16236D01*
X499647Y15937D01*
X499141Y15693D01*
X498611Y15508D01*
X498064Y15383D01*
X497506Y15320D01*
X496944Y15320D01*
X496386Y15383D01*
X495839Y15508D01*
X495309Y15693D01*
X494803Y15937D01*
X494327Y16236D01*
X493888Y16586D01*
X493491Y16983D01*
X493141Y17422D01*
X492842Y17898D01*
X492598Y18404D01*
X492413Y18934D01*
X492288Y19481D01*
X492225Y20039D01*
X492225Y20601D01*
X492288Y21159D01*
X492413Y21706D01*
X492598Y22236D01*
X492842Y22742D01*
X493141Y23218D01*
X493491Y23657D01*
X493888Y24054D01*
X494327Y24404D01*
X494803Y24703D01*
X495309Y24947D01*
X495839Y25132D01*
X496386Y25257D01*
X496944Y25320D01*
X497506Y25320D01*
X498064Y25257D01*
X498611Y25132D01*
X499141Y24947D01*
X499647Y24703D01*
X500123Y24404D01*
X500562Y24054D01*
X500959Y23657D01*
X501309Y23218D01*
X501608Y22742D01*
X501852Y22236D01*
X502037Y21706D01*
X502162Y21159D01*
X502225Y20601D01*
X502225Y20039D01*
X422225Y20039D02*
X422162Y19481D01*
X422037Y18934D01*
X421852Y18404D01*
X421608Y17898D01*
X421309Y17422D01*
X420959Y16983D01*
X420562Y16586D01*
X420123Y16236D01*
X419647Y15937D01*
X419141Y15693D01*
X418611Y15508D01*
X418064Y15383D01*
X417506Y15320D01*
X416944Y15320D01*
X416386Y15383D01*
X415839Y15508D01*
X415309Y15693D01*
X414803Y15937D01*
X414327Y16236D01*
X413888Y16586D01*
X413491Y16983D01*
X413141Y17422D01*
X412842Y17898D01*
X412598Y18404D01*
X412413Y18934D01*
X412288Y19481D01*
X412225Y20039D01*
X412225Y20601D01*
X412288Y21159D01*
X412413Y21706D01*
X412598Y22236D01*
X412842Y22742D01*
X413141Y23218D01*
X413491Y23657D01*
X413888Y24054D01*
X414327Y24404D01*
X414803Y24703D01*
X415309Y24947D01*
X415839Y25132D01*
X416386Y25257D01*
X416944Y25320D01*
X417506Y25320D01*
X418064Y25257D01*
X418611Y25132D01*
X419141Y24947D01*
X419647Y24703D01*
X420123Y24404D01*
X420562Y24054D01*
X420959Y23657D01*
X421309Y23218D01*
X421608Y22742D01*
X421852Y22236D01*
X422037Y21706D01*
X422162Y21159D01*
X422225Y20601D01*
X422225Y20039D01*
X37465Y24856D02*
X37387Y23770D01*
X37232Y22692D01*
X37001Y21629D01*
X36694Y20584D01*
X36314Y19564D01*
X35862Y18574D01*
X35340Y17619D01*
X34751Y16703D01*
X34099Y15831D01*
X33386Y15009D01*
X32616Y14239D01*
X31794Y13526D01*
X30922Y12874D01*
X30006Y12285D01*
X29051Y11763D01*
X28061Y11311D01*
X27041Y10931D01*
X25996Y10624D01*
X24933Y10393D01*
X23855Y10238D01*
X22769Y10160D01*
X21681Y10160D01*
X20595Y10238D01*
X19517Y10393D01*
X18454Y10624D01*
X17409Y10931D01*
X16389Y11311D01*
X15399Y11763D01*
X14444Y12285D01*
X13528Y12874D01*
X12656Y13526D01*
X11834Y14239D01*
X11064Y15009D01*
X10351Y15831D01*
X9699Y16703D01*
X9110Y17619D01*
X8588Y18574D01*
X8136Y19564D01*
X7756Y20584D01*
X7449Y21629D01*
X7218Y22692D01*
X7063Y23770D01*
X6985Y24856D01*
X6985Y25944D01*
X7063Y27030D01*
X7218Y28108D01*
X7449Y29171D01*
X7756Y30216D01*
X8136Y31236D01*
X8588Y32226D01*
X9110Y33181D01*
X9699Y34097D01*
X10351Y34969D01*
X11064Y35791D01*
X11834Y36561D01*
X12656Y37274D01*
X13528Y37926D01*
X14444Y38515D01*
X15399Y39037D01*
X16389Y39489D01*
X17409Y39869D01*
X18454Y40176D01*
X19517Y40407D01*
X20595Y40562D01*
X21681Y40640D01*
X22769Y40640D01*
X23855Y40562D01*
X24933Y40407D01*
X25996Y40176D01*
X27041Y39869D01*
X28061Y39489D01*
X29051Y39037D01*
X30006Y38515D01*
X30922Y37926D01*
X31794Y37274D01*
X32616Y36561D01*
X33386Y35791D01*
X34099Y34969D01*
X34751Y34097D01*
X35340Y33181D01*
X35862Y32226D01*
X36314Y31236D01*
X36694Y30216D01*
X37001Y29171D01*
X37232Y28108D01*
X37387Y27030D01*
X37465Y25944D01*
X37465Y24856D01*
X1025275Y48837D02*
X1025219Y48415D01*
X1025109Y48003D01*
X1024946Y47609D01*
X1024733Y47241D01*
X1024474Y46903D01*
X1024172Y46601D01*
X1023834Y46342D01*
X1023466Y46129D01*
X1023072Y45966D01*
X1022660Y45856D01*
X1022238Y45800D01*
X1021812Y45800D01*
X1021390Y45856D01*
X1020978Y45966D01*
X1020584Y46129D01*
X1020216Y46342D01*
X1019878Y46601D01*
X1019576Y46903D01*
X1019317Y47241D01*
X1019104Y47609D01*
X1018941Y48003D01*
X1018831Y48415D01*
X1018775Y48837D01*
X1018775Y49263D01*
X1018831Y49685D01*
X1018941Y50097D01*
X1019104Y50491D01*
X1019317Y50859D01*
X1019576Y51197D01*
X1019878Y51499D01*
X1020216Y51758D01*
X1020584Y51971D01*
X1020978Y52134D01*
X1021390Y52244D01*
X1021812Y52300D01*
X1022238Y52300D01*
X1022660Y52244D01*
X1023072Y52134D01*
X1023466Y51971D01*
X1023834Y51758D01*
X1024172Y51499D01*
X1024474Y51197D01*
X1024733Y50859D01*
X1024946Y50491D01*
X1025109Y50097D01*
X1025219Y49685D01*
X1025275Y49263D01*
X1025275Y48837D01*
X1083075Y48837D02*
X1083019Y48415D01*
X1082909Y48003D01*
X1082746Y47609D01*
X1082533Y47241D01*
X1082274Y46903D01*
X1081972Y46601D01*
X1081634Y46342D01*
X1081266Y46129D01*
X1080872Y45966D01*
X1080460Y45856D01*
X1080038Y45800D01*
X1079612Y45800D01*
X1079190Y45856D01*
X1078778Y45966D01*
X1078384Y46129D01*
X1078016Y46342D01*
X1077678Y46601D01*
X1077376Y46903D01*
X1077117Y47241D01*
X1076904Y47609D01*
X1076741Y48003D01*
X1076631Y48415D01*
X1076575Y48837D01*
X1076575Y49263D01*
X1076631Y49685D01*
X1076741Y50097D01*
X1076904Y50491D01*
X1077117Y50859D01*
X1077376Y51197D01*
X1077678Y51499D01*
X1078016Y51758D01*
X1078384Y51971D01*
X1078778Y52134D01*
X1079190Y52244D01*
X1079612Y52300D01*
X1080038Y52300D01*
X1080460Y52244D01*
X1080872Y52134D01*
X1081266Y51971D01*
X1081634Y51758D01*
X1081972Y51499D01*
X1082274Y51197D01*
X1082533Y50859D01*
X1082746Y50491D01*
X1082909Y50097D01*
X1083019Y49685D01*
X1083075Y49263D01*
X1083075Y48837D01*
X1409325Y922552D02*
X1409395Y923614D01*
X1409533Y924668D01*
X1409741Y925712D01*
X1410016Y926740D01*
X1410358Y927747D01*
X1410766Y928730D01*
X1411236Y929684D01*
X1411768Y930606D01*
X1412359Y931490D01*
X1413007Y932334D01*
X1413708Y933134D01*
X1414461Y933887D01*
X1415261Y934588D01*
X1416105Y935236D01*
X1416989Y935827D01*
X1417911Y936359D01*
X1418865Y936829D01*
X1419848Y937237D01*
X1420855Y937579D01*
X1421883Y937854D01*
X1422927Y938062D01*
X1423981Y938200D01*
X1425043Y938270D01*
X1426107Y938270D01*
X1427169Y938200D01*
X1428223Y938062D01*
X1429267Y937854D01*
X1430295Y937579D01*
X1431302Y937237D01*
X1432285Y936829D01*
X1433239Y936359D01*
X1434161Y935827D01*
X1435045Y935236D01*
X1435889Y934588D01*
X1436689Y933887D01*
X1437442Y933134D01*
X1438143Y932334D01*
X1438791Y931490D01*
X1439382Y930606D01*
X1439914Y929684D01*
X1440384Y928730D01*
X1440792Y927747D01*
X1441134Y926740D01*
X1441409Y925712D01*
X1441617Y924668D01*
X1441755Y923614D01*
X1441825Y922552D01*
X1441825Y921488D01*
X1441755Y920426D01*
X1441617Y919372D01*
X1441409Y918328D01*
X1441134Y917300D01*
X1440792Y916293D01*
X1440384Y915310D01*
X1439914Y914356D01*
X1439382Y913434D01*
X1438791Y912550D01*
X1438143Y911706D01*
X1437442Y910906D01*
X1436689Y910153D01*
X1435889Y909452D01*
X1435045Y908804D01*
X1434161Y908213D01*
X1433239Y907681D01*
X1432285Y907211D01*
X1431302Y906803D01*
X1430295Y906461D01*
X1429267Y906186D01*
X1428223Y905978D01*
X1427169Y905840D01*
X1426107Y905770D01*
X1425043Y905770D01*
X1423981Y905840D01*
X1422927Y905978D01*
X1421883Y906186D01*
X1420855Y906461D01*
X1419848Y906803D01*
X1418865Y907211D01*
X1417911Y907681D01*
X1416989Y908213D01*
X1416105Y908804D01*
X1415261Y909452D01*
X1414461Y910153D01*
X1413708Y910906D01*
X1413007Y911706D01*
X1412359Y912550D01*
X1411768Y913434D01*
X1411236Y914356D01*
X1410766Y915310D01*
X1410358Y916293D01*
X1410016Y917300D01*
X1409741Y918328D01*
X1409533Y919372D01*
X1409395Y920426D01*
X1409325Y921488D01*
X1409325Y922552D01*
X1295025Y922552D02*
X1295095Y923614D01*
X1295233Y924668D01*
X1295441Y925712D01*
X1295716Y926740D01*
X1296058Y927747D01*
X1296466Y928730D01*
X1296936Y929684D01*
X1297468Y930606D01*
X1298059Y931490D01*
X1298707Y932334D01*
X1299408Y933134D01*
X1300161Y933887D01*
X1300961Y934588D01*
X1301805Y935236D01*
X1302689Y935827D01*
X1303611Y936359D01*
X1304565Y936829D01*
X1305548Y937237D01*
X1306555Y937579D01*
X1307583Y937854D01*
X1308627Y938062D01*
X1309681Y938200D01*
X1310743Y938270D01*
X1311807Y938270D01*
X1312869Y938200D01*
X1313923Y938062D01*
X1314967Y937854D01*
X1315995Y937579D01*
X1317002Y937237D01*
X1317985Y936829D01*
X1318939Y936359D01*
X1319861Y935827D01*
X1320745Y935236D01*
X1321589Y934588D01*
X1322389Y933887D01*
X1323142Y933134D01*
X1323843Y932334D01*
X1324491Y931490D01*
X1325082Y930606D01*
X1325614Y929684D01*
X1326084Y928730D01*
X1326492Y927747D01*
X1326834Y926740D01*
X1327109Y925712D01*
X1327317Y924668D01*
X1327455Y923614D01*
X1327525Y922552D01*
X1327525Y921488D01*
X1327455Y920426D01*
X1327317Y919372D01*
X1327109Y918328D01*
X1326834Y917300D01*
X1326492Y916293D01*
X1326084Y915310D01*
X1325614Y914356D01*
X1325082Y913434D01*
X1324491Y912550D01*
X1323843Y911706D01*
X1323142Y910906D01*
X1322389Y910153D01*
X1321589Y909452D01*
X1320745Y908804D01*
X1319861Y908213D01*
X1318939Y907681D01*
X1317985Y907211D01*
X1317002Y906803D01*
X1315995Y906461D01*
X1314967Y906186D01*
X1313923Y905978D01*
X1312869Y905840D01*
X1311807Y905770D01*
X1310743Y905770D01*
X1309681Y905840D01*
X1308627Y905978D01*
X1307583Y906186D01*
X1306555Y906461D01*
X1305548Y906803D01*
X1304565Y907211D01*
X1303611Y907681D01*
X1302689Y908213D01*
X1301805Y908804D01*
X1300961Y909452D01*
X1300161Y910153D01*
X1299408Y910906D01*
X1298707Y911706D01*
X1298059Y912550D01*
X1297468Y913434D01*
X1296936Y914356D01*
X1296466Y915310D01*
X1296058Y916293D01*
X1295716Y917300D01*
X1295441Y918328D01*
X1295233Y919372D01*
X1295095Y920426D01*
X1295025Y921488D01*
X1295025Y922552D01*
X666115Y101056D02*
X666037Y99970D01*
X665882Y98892D01*
X665651Y97829D01*
X665344Y96784D01*
X664964Y95764D01*
X664512Y94774D01*
X663990Y93819D01*
X663401Y92903D01*
X662749Y92031D01*
X662036Y91209D01*
X661266Y90439D01*
X660444Y89726D01*
X659572Y89074D01*
X658656Y88485D01*
X657701Y87963D01*
X656711Y87511D01*
X655691Y87131D01*
X654646Y86824D01*
X653583Y86593D01*
X652505Y86438D01*
X651419Y86360D01*
X650331Y86360D01*
X649245Y86438D01*
X648167Y86593D01*
X647104Y86824D01*
X646059Y87131D01*
X645039Y87511D01*
X644049Y87963D01*
X643094Y88485D01*
X642178Y89074D01*
X641306Y89726D01*
X640484Y90439D01*
X639714Y91209D01*
X639001Y92031D01*
X638349Y92903D01*
X637760Y93819D01*
X637238Y94774D01*
X636786Y95764D01*
X636406Y96784D01*
X636099Y97829D01*
X635868Y98892D01*
X635713Y99970D01*
X635635Y101056D01*
X635635Y102144D01*
X635713Y103230D01*
X635868Y104308D01*
X636099Y105371D01*
X636406Y106416D01*
X636786Y107436D01*
X637238Y108426D01*
X637760Y109381D01*
X638349Y110297D01*
X639001Y111169D01*
X639714Y111991D01*
X640484Y112761D01*
X641306Y113474D01*
X642178Y114126D01*
X643094Y114715D01*
X644049Y115237D01*
X645039Y115689D01*
X646059Y116069D01*
X647104Y116376D01*
X648167Y116607D01*
X649245Y116762D01*
X650331Y116840D01*
X651419Y116840D01*
X652505Y116762D01*
X653583Y116607D01*
X654646Y116376D01*
X655691Y116069D01*
X656711Y115689D01*
X657701Y115237D01*
X658656Y114715D01*
X659572Y114126D01*
X660444Y113474D01*
X661266Y112761D01*
X662036Y111991D01*
X662749Y111169D01*
X663401Y110297D01*
X663990Y109381D01*
X664512Y108426D01*
X664964Y107436D01*
X665344Y106416D01*
X665651Y105371D01*
X665882Y104308D01*
X666037Y103230D01*
X666115Y102144D01*
X666115Y101056D01*
X882015Y101056D02*
X881937Y99970D01*
X881782Y98892D01*
X881551Y97829D01*
X881244Y96784D01*
X880864Y95764D01*
X880412Y94774D01*
X879890Y93819D01*
X879301Y92903D01*
X878649Y92031D01*
X877936Y91209D01*
X877166Y90439D01*
X876344Y89726D01*
X875472Y89074D01*
X874556Y88485D01*
X873601Y87963D01*
X872611Y87511D01*
X871591Y87131D01*
X870546Y86824D01*
X869483Y86593D01*
X868405Y86438D01*
X867319Y86360D01*
X866231Y86360D01*
X865145Y86438D01*
X864067Y86593D01*
X863004Y86824D01*
X861959Y87131D01*
X860939Y87511D01*
X859949Y87963D01*
X858994Y88485D01*
X858078Y89074D01*
X857206Y89726D01*
X856384Y90439D01*
X855614Y91209D01*
X854901Y92031D01*
X854249Y92903D01*
X853660Y93819D01*
X853138Y94774D01*
X852686Y95764D01*
X852306Y96784D01*
X851999Y97829D01*
X851768Y98892D01*
X851613Y99970D01*
X851535Y101056D01*
X851535Y102144D01*
X851613Y103230D01*
X851768Y104308D01*
X851999Y105371D01*
X852306Y106416D01*
X852686Y107436D01*
X853138Y108426D01*
X853660Y109381D01*
X854249Y110297D01*
X854901Y111169D01*
X855614Y111991D01*
X856384Y112761D01*
X857206Y113474D01*
X858078Y114126D01*
X858994Y114715D01*
X859949Y115237D01*
X860939Y115689D01*
X861959Y116069D01*
X863004Y116376D01*
X864067Y116607D01*
X865145Y116762D01*
X866231Y116840D01*
X867319Y116840D01*
X868405Y116762D01*
X869483Y116607D01*
X870546Y116376D01*
X871591Y116069D01*
X872611Y115689D01*
X873601Y115237D01*
X874556Y114715D01*
X875472Y114126D01*
X876344Y113474D01*
X877166Y112761D01*
X877936Y111991D01*
X878649Y111169D01*
X879301Y110297D01*
X879890Y109381D01*
X880412Y108426D01*
X880864Y107436D01*
X881244Y106416D01*
X881551Y105371D01*
X881782Y104308D01*
X881937Y103230D01*
X882015Y102144D01*
X882015Y101056D01*
X190125Y922552D02*
X190195Y923614D01*
X190333Y924668D01*
X190541Y925712D01*
X190816Y926740D01*
X191158Y927747D01*
X191566Y928730D01*
X192036Y929684D01*
X192568Y930606D01*
X193159Y931490D01*
X193807Y932334D01*
X194508Y933134D01*
X195261Y933887D01*
X196061Y934588D01*
X196905Y935236D01*
X197789Y935827D01*
X198711Y936359D01*
X199665Y936829D01*
X200648Y937237D01*
X201655Y937579D01*
X202683Y937854D01*
X203727Y938062D01*
X204781Y938200D01*
X205843Y938270D01*
X206907Y938270D01*
X207969Y938200D01*
X209023Y938062D01*
X210067Y937854D01*
X211095Y937579D01*
X212102Y937237D01*
X213085Y936829D01*
X214039Y936359D01*
X214961Y935827D01*
X215845Y935236D01*
X216689Y934588D01*
X217489Y933887D01*
X218242Y933134D01*
X218943Y932334D01*
X219591Y931490D01*
X220182Y930606D01*
X220714Y929684D01*
X221184Y928730D01*
X221592Y927747D01*
X221934Y926740D01*
X222209Y925712D01*
X222417Y924668D01*
X222555Y923614D01*
X222625Y922552D01*
X222625Y921488D01*
X222555Y920426D01*
X222417Y919372D01*
X222209Y918328D01*
X221934Y917300D01*
X221592Y916293D01*
X221184Y915310D01*
X220714Y914356D01*
X220182Y913434D01*
X219591Y912550D01*
X218943Y911706D01*
X218242Y910906D01*
X217489Y910153D01*
X216689Y909452D01*
X215845Y908804D01*
X214961Y908213D01*
X214039Y907681D01*
X213085Y907211D01*
X212102Y906803D01*
X211095Y906461D01*
X210067Y906186D01*
X209023Y905978D01*
X207969Y905840D01*
X206907Y905770D01*
X205843Y905770D01*
X204781Y905840D01*
X203727Y905978D01*
X202683Y906186D01*
X201655Y906461D01*
X200648Y906803D01*
X199665Y907211D01*
X198711Y907681D01*
X197789Y908213D01*
X196905Y908804D01*
X196061Y909452D01*
X195261Y910153D01*
X194508Y910906D01*
X193807Y911706D01*
X193159Y912550D01*
X192568Y913434D01*
X192036Y914356D01*
X191566Y915310D01*
X191158Y916293D01*
X190816Y917300D01*
X190541Y918328D01*
X190333Y919372D01*
X190195Y920426D01*
X190125Y921488D01*
X190125Y922552D01*
X75825Y922552D02*
X75895Y923614D01*
X76033Y924668D01*
X76241Y925712D01*
X76516Y926740D01*
X76858Y927747D01*
X77266Y928730D01*
X77736Y929684D01*
X78268Y930606D01*
X78859Y931490D01*
X79507Y932334D01*
X80208Y933134D01*
X80961Y933887D01*
X81761Y934588D01*
X82605Y935236D01*
X83489Y935827D01*
X84411Y936359D01*
X85365Y936829D01*
X86348Y937237D01*
X87355Y937579D01*
X88383Y937854D01*
X89427Y938062D01*
X90481Y938200D01*
X91543Y938270D01*
X92607Y938270D01*
X93669Y938200D01*
X94723Y938062D01*
X95767Y937854D01*
X96795Y937579D01*
X97802Y937237D01*
X98785Y936829D01*
X99739Y936359D01*
X100661Y935827D01*
X101545Y935236D01*
X102389Y934588D01*
X103189Y933887D01*
X103942Y933134D01*
X104643Y932334D01*
X105291Y931490D01*
X105882Y930606D01*
X106414Y929684D01*
X106884Y928730D01*
X107292Y927747D01*
X107634Y926740D01*
X107909Y925712D01*
X108117Y924668D01*
X108255Y923614D01*
X108325Y922552D01*
X108325Y921488D01*
X108255Y920426D01*
X108117Y919372D01*
X107909Y918328D01*
X107634Y917300D01*
X107292Y916293D01*
X106884Y915310D01*
X106414Y914356D01*
X105882Y913434D01*
X105291Y912550D01*
X104643Y911706D01*
X103942Y910906D01*
X103189Y910153D01*
X102389Y909452D01*
X101545Y908804D01*
X100661Y908213D01*
X99739Y907681D01*
X98785Y907211D01*
X97802Y906803D01*
X96795Y906461D01*
X95767Y906186D01*
X94723Y905978D01*
X93669Y905840D01*
X92607Y905770D01*
X91543Y905770D01*
X90481Y905840D01*
X89427Y905978D01*
X88383Y906186D01*
X87355Y906461D01*
X86348Y906803D01*
X85365Y907211D01*
X84411Y907681D01*
X83489Y908213D01*
X82605Y908804D01*
X81761Y909452D01*
X80961Y910153D01*
X80208Y910906D01*
X79507Y911706D01*
X78859Y912550D01*
X78268Y913434D01*
X77736Y914356D01*
X77266Y915310D01*
X76858Y916293D01*
X76516Y917300D01*
X76241Y918328D01*
X76033Y919372D01*
X75895Y920426D01*
X75825Y921488D01*
X75825Y922552D01*
X1222575Y837921D02*
X1222502Y837369D01*
X1222358Y836831D01*
X1222145Y836316D01*
X1221866Y835834D01*
X1221527Y835392D01*
X1221133Y834998D01*
X1220691Y834659D01*
X1220209Y834380D01*
X1219694Y834167D01*
X1219156Y834023D01*
X1218604Y833950D01*
X1218046Y833950D01*
X1217494Y834023D01*
X1216956Y834167D01*
X1216441Y834380D01*
X1215959Y834659D01*
X1215517Y834998D01*
X1215123Y835392D01*
X1214784Y835834D01*
X1214505Y836316D01*
X1214292Y836831D01*
X1214148Y837369D01*
X1214075Y837921D01*
X1214075Y838479D01*
X1214148Y839031D01*
X1214292Y839569D01*
X1214505Y840084D01*
X1214784Y840566D01*
X1215123Y841008D01*
X1215517Y841402D01*
X1215959Y841741D01*
X1216441Y842020D01*
X1216956Y842233D01*
X1217494Y842377D01*
X1218046Y842450D01*
X1218604Y842450D01*
X1219156Y842377D01*
X1219694Y842233D01*
X1220209Y842020D01*
X1220691Y841741D01*
X1221133Y841402D01*
X1221527Y841008D01*
X1221866Y840566D01*
X1222145Y840084D01*
X1222358Y839569D01*
X1222502Y839031D01*
X1222575Y838479D01*
X1222575Y837921D01*
X1192575Y837921D02*
X1192502Y837369D01*
X1192358Y836831D01*
X1192145Y836316D01*
X1191866Y835834D01*
X1191527Y835392D01*
X1191133Y834998D01*
X1190691Y834659D01*
X1190209Y834380D01*
X1189694Y834167D01*
X1189156Y834023D01*
X1188604Y833950D01*
X1188046Y833950D01*
X1187494Y834023D01*
X1186956Y834167D01*
X1186441Y834380D01*
X1185959Y834659D01*
X1185517Y834998D01*
X1185123Y835392D01*
X1184784Y835834D01*
X1184505Y836316D01*
X1184292Y836831D01*
X1184148Y837369D01*
X1184075Y837921D01*
X1184075Y838479D01*
X1184148Y839031D01*
X1184292Y839569D01*
X1184505Y840084D01*
X1184784Y840566D01*
X1185123Y841008D01*
X1185517Y841402D01*
X1185959Y841741D01*
X1186441Y842020D01*
X1186956Y842233D01*
X1187494Y842377D01*
X1188046Y842450D01*
X1188604Y842450D01*
X1189156Y842377D01*
X1189694Y842233D01*
X1190209Y842020D01*
X1190691Y841741D01*
X1191133Y841402D01*
X1191527Y841008D01*
X1191866Y840566D01*
X1192145Y840084D01*
X1192358Y839569D01*
X1192502Y839031D01*
X1192575Y838479D01*
X1192575Y837921D01*
X659765Y494756D02*
X659687Y493670D01*
X659532Y492592D01*
X659301Y491529D01*
X658994Y490484D01*
X658614Y489464D01*
X658162Y488474D01*
X657640Y487519D01*
X657051Y486603D01*
X656399Y485731D01*
X655686Y484909D01*
X654916Y484139D01*
X654094Y483426D01*
X653222Y482774D01*
X652306Y482185D01*
X651351Y481663D01*
X650361Y481211D01*
X649341Y480831D01*
X648296Y480524D01*
X647233Y480293D01*
X646155Y480138D01*
X645069Y480060D01*
X643981Y480060D01*
X642895Y480138D01*
X641817Y480293D01*
X640754Y480524D01*
X639709Y480831D01*
X638689Y481211D01*
X637699Y481663D01*
X636744Y482185D01*
X635828Y482774D01*
X634956Y483426D01*
X634134Y484139D01*
X633364Y484909D01*
X632651Y485731D01*
X631999Y486603D01*
X631410Y487519D01*
X630888Y488474D01*
X630436Y489464D01*
X630056Y490484D01*
X629749Y491529D01*
X629518Y492592D01*
X629363Y493670D01*
X629285Y494756D01*
X629285Y495844D01*
X629363Y496930D01*
X629518Y498008D01*
X629749Y499071D01*
X630056Y500116D01*
X630436Y501136D01*
X630888Y502126D01*
X631410Y503081D01*
X631999Y503997D01*
X632651Y504869D01*
X633364Y505691D01*
X634134Y506461D01*
X634956Y507174D01*
X635828Y507826D01*
X636744Y508415D01*
X637699Y508937D01*
X638689Y509389D01*
X639709Y509769D01*
X640754Y510076D01*
X641817Y510307D01*
X642895Y510462D01*
X643981Y510540D01*
X645069Y510540D01*
X646155Y510462D01*
X647233Y510307D01*
X648296Y510076D01*
X649341Y509769D01*
X650361Y509389D01*
X651351Y508937D01*
X652306Y508415D01*
X653222Y507826D01*
X654094Y507174D01*
X654916Y506461D01*
X655686Y505691D01*
X656399Y504869D01*
X657051Y503997D01*
X657640Y503081D01*
X658162Y502126D01*
X658614Y501136D01*
X658994Y500116D01*
X659301Y499071D01*
X659532Y498008D01*
X659687Y496930D01*
X659765Y495844D01*
X659765Y494756D01*
X888365Y494756D02*
X888287Y493670D01*
X888132Y492592D01*
X887901Y491529D01*
X887594Y490484D01*
X887214Y489464D01*
X886762Y488474D01*
X886240Y487519D01*
X885651Y486603D01*
X884999Y485731D01*
X884286Y484909D01*
X883516Y484139D01*
X882694Y483426D01*
X881822Y482774D01*
X880906Y482185D01*
X879951Y481663D01*
X878961Y481211D01*
X877941Y480831D01*
X876896Y480524D01*
X875833Y480293D01*
X874755Y480138D01*
X873669Y480060D01*
X872581Y480060D01*
X871495Y480138D01*
X870417Y480293D01*
X869354Y480524D01*
X868309Y480831D01*
X867289Y481211D01*
X866299Y481663D01*
X865344Y482185D01*
X864428Y482774D01*
X863556Y483426D01*
X862734Y484139D01*
X861964Y484909D01*
X861251Y485731D01*
X860599Y486603D01*
X860010Y487519D01*
X859488Y488474D01*
X859036Y489464D01*
X858656Y490484D01*
X858349Y491529D01*
X858118Y492592D01*
X857963Y493670D01*
X857885Y494756D01*
X857885Y495844D01*
X857963Y496930D01*
X858118Y498008D01*
X858349Y499071D01*
X858656Y500116D01*
X859036Y501136D01*
X859488Y502126D01*
X860010Y503081D01*
X860599Y503997D01*
X861251Y504869D01*
X861964Y505691D01*
X862734Y506461D01*
X863556Y507174D01*
X864428Y507826D01*
X865344Y508415D01*
X866299Y508937D01*
X867289Y509389D01*
X868309Y509769D01*
X869354Y510076D01*
X870417Y510307D01*
X871495Y510462D01*
X872581Y510540D01*
X873669Y510540D01*
X874755Y510462D01*
X875833Y510307D01*
X876896Y510076D01*
X877941Y509769D01*
X878961Y509389D01*
X879951Y508937D01*
X880906Y508415D01*
X881822Y507826D01*
X882694Y507174D01*
X883516Y506461D01*
X884286Y505691D01*
X884999Y504869D01*
X885651Y503997D01*
X886240Y503081D01*
X886762Y502126D01*
X887214Y501136D01*
X887594Y500116D01*
X887901Y499071D01*
X888132Y498008D01*
X888287Y496930D01*
X888365Y495844D01*
X888365Y494756D01*
X774065Y901156D02*
X773987Y900070D01*
X773832Y898992D01*
X773601Y897929D01*
X773294Y896884D01*
X772914Y895864D01*
X772462Y894874D01*
X771940Y893919D01*
X771351Y893003D01*
X770699Y892131D01*
X769986Y891309D01*
X769216Y890539D01*
X768394Y889826D01*
X767522Y889174D01*
X766606Y888585D01*
X765651Y888063D01*
X764661Y887611D01*
X763641Y887231D01*
X762596Y886924D01*
X761533Y886693D01*
X760455Y886538D01*
X759369Y886460D01*
X758281Y886460D01*
X757195Y886538D01*
X756117Y886693D01*
X755054Y886924D01*
X754009Y887231D01*
X752989Y887611D01*
X751999Y888063D01*
X751044Y888585D01*
X750128Y889174D01*
X749256Y889826D01*
X748434Y890539D01*
X747664Y891309D01*
X746951Y892131D01*
X746299Y893003D01*
X745710Y893919D01*
X745188Y894874D01*
X744736Y895864D01*
X744356Y896884D01*
X744049Y897929D01*
X743818Y898992D01*
X743663Y900070D01*
X743585Y901156D01*
X743585Y902244D01*
X743663Y903330D01*
X743818Y904408D01*
X744049Y905471D01*
X744356Y906516D01*
X744736Y907536D01*
X745188Y908526D01*
X745710Y909481D01*
X746299Y910397D01*
X746951Y911269D01*
X747664Y912091D01*
X748434Y912861D01*
X749256Y913574D01*
X750128Y914226D01*
X751044Y914815D01*
X751999Y915337D01*
X752989Y915789D01*
X754009Y916169D01*
X755054Y916476D01*
X756117Y916707D01*
X757195Y916862D01*
X758281Y916940D01*
X759369Y916940D01*
X760455Y916862D01*
X761533Y916707D01*
X762596Y916476D01*
X763641Y916169D01*
X764661Y915789D01*
X765651Y915337D01*
X766606Y914815D01*
X767522Y914226D01*
X768394Y913574D01*
X769216Y912861D01*
X769986Y912091D01*
X770699Y911269D01*
X771351Y910397D01*
X771940Y909481D01*
X772462Y908526D01*
X772914Y907536D01*
X773294Y906516D01*
X773601Y905471D01*
X773832Y904408D01*
X773987Y903330D01*
X774065Y902244D01*
X774065Y901156D01*
M02*
