M48
;GenerationSoftware,Autodesk,EAGLE,9.6.2*%
;CreationDate,2023-07-24T09:34:47Z*%
FMAT,2
ICI,OFF
METRIC,TZ,000.000
T15C0.300
T14C0.400
T13C0.500
T12C0.650
T11C0.850
T10C0.900
T9C0.950
T8C1.000
T7C1.016
T6C1.200
T5C1.400
T4C1.499
T3C1.700
T2C3.048
T1C3.250
%
G90
M71
T1
X131128Y92202
X20638Y92202
X9208Y92202
X142558Y92202
T2
X100647Y10160
X79058Y10160
X64452Y49530
X87313Y49530
X2223Y99060
X75883Y90170
X2223Y2540
X149543Y2540
X149543Y99060
T3
X144718Y89152
X7047Y89152
X22797Y89152
X128967Y89152
T4
X16192Y46990
X36513Y46990
X36513Y36830
X36513Y26670
X16192Y34290
X16192Y39370
T5
X105882Y94990
X109382Y94990
X112882Y94990
X116382Y94990
X123382Y94990
X28382Y94990
X119882Y94990
X31882Y94990
X35383Y94990
X38883Y94990
X42383Y94990
X52882Y94990
X56382Y94990
X45882Y94990
X49382Y94990
X59882Y94990
X91882Y94990
X95382Y94990
X98882Y94990
X102382Y94990
T6
X138423Y5421
X145423Y5421
X48887Y5421
X55887Y5421
X118102Y6310
X125102Y6310
T7
X7302Y77470
X7302Y80010
X49212Y50800
X46672Y50800
X93662Y45720
X93662Y43180
X28892Y86360
X28892Y88900
X31432Y88900
X31432Y86360
X9843Y77470
X9843Y80010
T8
X36513Y5635
X139673Y2921
X123852Y3810
X119352Y3810
X68773Y2032
X60772Y2032
X33973Y5635
X28257Y5635
X25717Y5635
X44767Y5635
X42228Y5635
X11747Y5635
X9208Y5635
X20003Y5635
X17463Y5635
X144173Y2921
X54637Y2921
X50137Y2921
T9
X88582Y87630
X98742Y67310
X101282Y71120
X98742Y69850
X98742Y72390
X79693Y87630
X61912Y68580
X98742Y82550
X101282Y68580
X79693Y50800
X126682Y15240
X46672Y31750
X60642Y44450
X119062Y16510
X119062Y24130
X41593Y40640
X41593Y48260
X94932Y11430
X84773Y11430
X78423Y38100
X41593Y43180
X41593Y45720
X144463Y62230
X129222Y15240
X98742Y62230
X78423Y43180
X141923Y12700
X46672Y66040
X98742Y64770
X101282Y63500
X101282Y66040
T10
X133668Y85852
X10833Y96262
X19013Y96262
X9208Y85852
X20638Y83312
X10478Y83312
X15557Y83312
X11747Y85852
X13017Y83312
X16828Y85852
X19368Y85852
X132398Y83312
X14287Y85852
X134938Y83312
X136208Y85852
X137478Y83312
X130212Y96262
X143473Y96262
X132753Y96262
X140933Y96262
X131128Y85852
X138748Y85852
X18098Y83312
X21553Y96262
X140018Y83312
X8293Y96262
X142558Y83312
X141288Y85852
T11
X121832Y83820
X118832Y83820
T12
X114332Y4905
X108552Y4905
X128872Y4905
X134653Y4905
T13
X12382Y44450
X108902Y7620
X113982Y7620
X129222Y7620
X12382Y43180
X134303Y7620
T14
X107124Y5435
X115760Y5435
X107124Y1255
X127444Y5435
X136081Y5435
X136081Y1255
X127444Y1255
X115760Y1255
T15
X108902Y13716
X115252Y13462
X110172Y3810
X135065Y6985
X114744Y6985
X107124Y7239
X129095Y27051
X129095Y25400
X33084Y73660
X103822Y87630
X68263Y88900
X61023Y86487
X70803Y87630
X70803Y86360
X70803Y85090
X67628Y83185
X67628Y81915
X68898Y81915
X70168Y81915
X71438Y81915
X71438Y83185
X47180Y83693
X47561Y89154
X37910Y85979
X33084Y81915
X127444Y7239
X111442Y13970
X56197Y88265
X56324Y84201
X53022Y78740
X49974Y78740
X49974Y77089
X31559Y82931
X38291Y81026
X101790Y50800
X82233Y48768
X130873Y78740
X143193Y78740
X144463Y75692
X136208Y75692
X128460Y68580
X145733Y69723
X141669Y64770
X141288Y61722
X72962Y41021
X70803Y42926
X69533Y42926
X70168Y42926
X72073Y42926
X72073Y42164
X71438Y42926
X71438Y42164
X70803Y42164
X70168Y42164
X69533Y42164
X70803Y47244
X70168Y47244
X69533Y47244
X72073Y47244
X72073Y48006
X70803Y48006
X71438Y48006
X71438Y47244
X69533Y48006
X70168Y48006
X70803Y37084
X70168Y37084
X69533Y37084
X72073Y37084
X71438Y37084
X70803Y37846
X69533Y37846
X70168Y37846
X71438Y37846
X72073Y37846
X66358Y83185
X66358Y80645
X66358Y76835
X67628Y80645
X67628Y62865
X66358Y56515
X67628Y56515
X66358Y62865
X63182Y62230
X93027Y80645
X86678Y83185
X76518Y81915
X91757Y83185
X91757Y79375
X91757Y75565
X93027Y76835
X93027Y66675
X93027Y71755
X93027Y62865
X91757Y57785
X87947Y56515
X86678Y57785
X85408Y56515
X73978Y56515
X75248Y56515
X91757Y61595
X80963Y73660
X83503Y76200
X86043Y78740
X54292Y62230
X56832Y62230
X60642Y62230
X70803Y62230
X73343Y62230
X75883Y62230
X78423Y62230
X80963Y62230
X83503Y62230
X70803Y77470
X73343Y77470
X75883Y77470
X88582Y62230
X112204Y88392
X115506Y90551
X124396Y90678
X40323Y67437
X41974Y67437
X43625Y67437
X45275Y67437
X48831Y26670
X48831Y27559
X48831Y25781
X134557Y71501
X141669Y66421
X128460Y66929
X128460Y65278
X142939Y61722
X110172Y16510
X110172Y20320
X110172Y24130
X112712Y16510
X112712Y20320
X112712Y24130
X110172Y27940
X112712Y27940
X112712Y31750
X110172Y31750
X107632Y34290
X110172Y35560
X105092Y36830
X101282Y40640
X105092Y40640
X98742Y43180
X98742Y46990
X94932Y46990
X94932Y50800
X91122Y50800
X91122Y54610
X133033Y49530
X41593Y78740
X136843Y66040
X139383Y69088
X39053Y72390
X127952Y59690
X79693Y76200
X82233Y78740
X78423Y80010
X77153Y78740
X67628Y76835
X67628Y78105
X66358Y78105
X66358Y79375
X67628Y79375
X61277Y83947
X65977Y89916
X68263Y90170
X70803Y88900
X60134Y85344
X40831Y88900
X65723Y85090
X61277Y82550
X61404Y80010
X61785Y78613
X62928Y77216
X64452Y76581
X64325Y78486
X63309Y79756
X63690Y81280
X63563Y83312
X63817Y85090
X61023Y88646
X61023Y92202
X62293Y92202
X63690Y92202
X64960Y90551
X59880Y90424
X63944Y88646
X58991Y81280
X81979Y54610
X58991Y88646
X58991Y90424
X58991Y91948
X60007Y91948
X64960Y92202
X58991Y83820
X58991Y86360
X58991Y78740
X61404Y77089
X61404Y75438
X86043Y62230
X84773Y69850
X87313Y72390
X89852Y74930
X80963Y69850
X78423Y69850
X73343Y69850
X70803Y69850
X67628Y67945
X66358Y67945
X60642Y69850
X67628Y70485
X67628Y73025
X77153Y73660
X69533Y73025
X71819Y73279
X66358Y75565
X67628Y75565
X63944Y75438
X70295Y75438
X74613Y71120
X73343Y74930
X56832Y74930
X114490Y76581
X126047Y28067
X126047Y24384
X129857Y18796
X112458Y76581
X141288Y57150
X131890Y57150
X127444Y52197
X112458Y86868
X102679Y84836
X117792Y88900
X119062Y88900
X96583Y28067
X96583Y26670
X106870Y84836
X90678Y13525
X135065Y62837
X65723Y96774
X131000Y11557
X131255Y16510
X132144Y7112
X131000Y7112
X132525Y11557
X132271Y16510
X120332Y52070
X120967Y50927
X122999Y19431
X117284Y19400
X124142Y21209
X120586Y21240
X97472Y43180
X106235Y64897
X116522Y21590
X107632Y21590
X120332Y18920
X134303Y51181
X68390Y15621
X62547Y15621
X48831Y68580
X37021Y67310
X45910Y77089
X45910Y78740
X42355Y87249
X44005Y87249
X48704Y87249
X56197Y86868
X53022Y81280
X58102Y73406
X56832Y73406
X84773Y53340
X83630Y53340
X125412Y86614
X124142Y86614
X28892Y73660
X28892Y72390
X111442Y8763
X137732Y69469
X134557Y75819
X9843Y68580
X11112Y68580
X9843Y67310
X9843Y66040
X9843Y64770
X11112Y64770
X11112Y66040
X11112Y67310
X10478Y67945
X9208Y67945
X9208Y66675
X9208Y65405
X9208Y64135
X10478Y64135
X10478Y65405
X10478Y66675
X8573Y62230
X9843Y62230
X11112Y62230
X9843Y60960
X8573Y60960
X8573Y59690
X8573Y58420
X9843Y58420
X11112Y58420
X11112Y59690
X9843Y59690
X11112Y60960
X10478Y61595
X9208Y61595
X10478Y60325
X9208Y60325
X9208Y59055
X10478Y59055
X84773Y17399
X92392Y17440
X140145Y98171
X127190Y98171
X39834Y91186
X39834Y88900
X103822Y91440
X107124Y91440
X47561Y91186
X51244Y91186
X28892Y71120
X28892Y69850
X132860Y71120
X140653Y66802
X133541Y71120
X140145Y67310
X142812Y71501
X142812Y75565
X141161Y71120
X141161Y75565
X138113Y79502
X137859Y75819
X136716Y70358
X138113Y77724
X139510Y70485
X139510Y75565
X130492Y58420
X140653Y67945
X133033Y66802
X130873Y63500
X128968Y61722
X138748Y62103
X128079Y62230
X138113Y62611
X129095Y62865
X140526Y64262
X109283Y56388
X135192Y56261
X110807Y57023
X133922Y56340
X110172Y54610
X132906Y54610
X17971Y15367
X104584Y49403
X8446Y13970
X105219Y48514
X92392Y15695
X105092Y52959
X124142Y48387
X98869Y35941
X104584Y43180
X87947Y16383
X84773Y16383
X103949Y52324
X106108Y52324
X98742Y36830
X103822Y43180
X101790Y58674
X106108Y58674
X101790Y57404
X106108Y57404
X101663Y61214
X106108Y61087
X103822Y58420
X106108Y59944
X33211Y83566
X33211Y85217
X37783Y84201
X38291Y80137
X40450Y74803
X39942Y73279
X28257Y78232
X33084Y78613
X38390Y77089
X32067Y78867
X38418Y78010
X29273Y74953
X33084Y76962
X31305Y74422
X38390Y78970
X30162Y80010
X37783Y79502
X95440Y79629
X63579Y13985
X95948Y80391
X69533Y13970
X94932Y78740
X61277Y14478
X81852Y67564
X56959Y69850
X82614Y67183
X56578Y69243
X40958Y73815
X40831Y75565
X83376Y66802
X56197Y68580
X41593Y73279
X41593Y74930
X84011Y66421
X55816Y67945
X42228Y72771
X42863Y74930
X84646Y66040
X55435Y67310
X42736Y72263
X43498Y75438
X86043Y65278
X54673Y66040
X44894Y72263
X44767Y78486
X87947Y63962
X53530Y64008
X48323Y72136
X43498Y82169
X44894Y80518
X47434Y72136
X54038Y64643
X87313Y64389
X86678Y64770
X54292Y65405
X46926Y72771
X44894Y79629
X85281Y65659
X55054Y66675
X44005Y72263
X44767Y77597
X39561Y81943
X26352Y68580
X88582Y63373
X53022Y63373
X49149Y71692
X49974Y85725
X94932Y57150
X51752Y84328
X94910Y59668
X52260Y84836
X94932Y58420
X52768Y84328
X94932Y60960
X54798Y84328
X89852Y67310
X45021Y90297
X54737Y92519
X45021Y88900
X55562Y91996
X54419Y90297
X55308Y90297
X56832Y58420
X49593Y13970
X54927Y74953
X47561Y88138
X88582Y80010
X77153Y54610
X26352Y16510
X89852Y69850
X34354Y15720
X93662Y52070
X42609Y16157
X63182Y74422
X54419Y75692
X84773Y85090
X53139Y75046
X87313Y85090
X53747Y75401
X86043Y85090
X11112Y12700
X19495Y12700
X44132Y12700
X36005Y12700
X27622Y12700
X122872Y68580
X122872Y57150
X101790Y55118
X133033Y47879
X101790Y55880
X132906Y55626
X26352Y67310
X26352Y66040
X26352Y64770
X26352Y63500
X26352Y62230
X26352Y60960
X26352Y59690
X27622Y59690
X27622Y60960
X27622Y62230
X27622Y63500
X27622Y64770
X27622Y66040
X27622Y67310
X27622Y68580
X28892Y68580
X28892Y67310
X28892Y66040
X28892Y64770
X28892Y63500
X28892Y62230
X28892Y60960
X28892Y59690
X28257Y60325
X26987Y60325
X26987Y61595
X28257Y61595
X28257Y62865
X26987Y62865
X26987Y64135
X26987Y65405
X26987Y66675
X28257Y67945
X26987Y67945
X28257Y66675
X28257Y65405
X28257Y64135
X26987Y59055
X28257Y59055
X27622Y58420
X26352Y58420
X28892Y58420
X41593Y59690
X42863Y59690
X44132Y59690
X45402Y59690
X46672Y59690
X45402Y58420
X46672Y58420
X44132Y58420
X42228Y59055
X132652Y8166
X43498Y59055
X44767Y59055
X44767Y57785
X46037Y59055
X46037Y57785
X40323Y59690
X39053Y59690
X39053Y58420
X40323Y58420
X40958Y59055
X39688Y59055
X39688Y57785
X40958Y57785
X74613Y36068
X76518Y36068
X76391Y41021
X74486Y41021
X72962Y46101
X65087Y41148
X63182Y41148
X66993Y36068
X66993Y41148
X32702Y61595
X31813Y61595
X33592Y61595
X37783Y57785
X41085Y54483
X49212Y44450
X49212Y45466
X49212Y43434
X73597Y99187
X73597Y100457
X73597Y97917
X73343Y96647
X72073Y96647
X70803Y95377
X70803Y93599
X70803Y91821
X70803Y90170
X68263Y91821
X68263Y93345
X67120Y95377
X68263Y85090
X66993Y96647
X65468Y99187
X65468Y97917
X65468Y100457
X78169Y99060
X86297Y99060
X78169Y100457
X78169Y97536
X86297Y97409
X86297Y100457
X79693Y96520
X79820Y94615
X84773Y96647
X83884Y95504
X83376Y94615
X83503Y92456
X84773Y90805
X83630Y89027
X80963Y89027
X82233Y89027
X79820Y90678
X80963Y92456
X65468Y19304
X63690Y19304
X67120Y19304
X62547Y13970
X62547Y11176
X40831Y37719
X45021Y33528
X92392Y12446
X92392Y11430
X95313Y18542
X127952Y13462
X135573Y13462
X131763Y11557
X30162Y77470
X35243Y88519
X36640Y91694
X130365Y3683
X125158Y17526
X126047Y68453
X125031Y68453
X106997Y68453
X108013Y68453
X114998Y62103
X112712Y59690
X112712Y62103
X117411Y59690
X117411Y62103
X114998Y57277
X117411Y57277
X112712Y57277
X108775Y49657
X107632Y79502
X111442Y79502
X113474Y79502
X42355Y82931
M30