<svg xmlns="http://www.w3.org/2000/svg" xml:space="preserve" role="img" viewBox="0 0 24 24" ><title>Septentrio logo</title><path fill="#fe9414" d="M18.442 6.88a4.633 4.633 0 0 1-.364-1.408c.187.382.285.836.364 1.408zm-4.304 2.46c.548.02 1.163.02 1.753.14.587.12 1.15.362 1.934.62 0-.522.006-.892-.001-1.262-.008-.407-.261-.938.57-.932-.074.843-.22 1.687-.376 2.599-1.383-.41-2.603-.772-3.88-1.166Zm.286.07c-.977-.265-1.968-.49-2.927-.808-.66-.22-1.334-.528-1.305-1.412.027-.837.693-1.118 1.318-1.325 2.052-.678 4.121-1.301 6.306-1.984.171.687.335 1.349.449 2.114.022.35.096.595.17.841.006.383.013.766-.056 1.22-.771.066-.54.552-.533.924.007.339.002.677.002 1.155-.718-.236-1.232-.457-1.77-.567-.54-.11-1.102-.11-1.654-.159Zm-.395 10.573a4559.334 4559.334 0 0 0-2.126 4.005l-2.225-4.146 4.61-.553c-.084.235-.157.437-.26.694zM9.039 3.376A4823.766 4823.766 0 0 1 5.66 5.078c.51-1.96 1.483-3.47 3.285-4.316 2.398-1.126 4.703-.882 6.836.535-2.229.684-4.458 1.367-6.742 2.08zm4.377 9.78c.594.197 1.145.336 1.655.567.92.416 1.032 1.265.161 1.77-.698.405-1.52.676-2.319.812-1.527.261-3.078.384-4.719.576l-2.283-5.756 7.505 2.03z"/></svg>